<svg version="1.1" xmlns="http://www.w3.org/2000/svg" xmlns:xlink="http://www.w3.org/1999/xlink" width="164.8842" height="164.8842" viewBox="0,0,164.8842,164.8842"><g transform="translate(-157.5579,-97.5579)"><g data-paper-data="{&quot;isPaintingLayer&quot;:true}" fill-rule="nonzero" stroke-linejoin="miter" stroke-miterlimit="10" stroke-dasharray="" stroke-dashoffset="0" style="mix-blend-mode: normal"><path d="M157.8079,180c0,-45.39344 36.79866,-82.1921 82.1921,-82.1921c45.39344,0 82.1921,36.79866 82.1921,82.1921c0,45.39344 -36.79866,82.1921 -82.1921,82.1921c-45.39344,0 -82.1921,-36.79866 -82.1921,-82.1921z" fill="#ffd768" stroke="#000000" stroke-width="0.5" stroke-linecap="butt"/><path d="M207.72442,207.18875c-0.3383,1.9882 -2.8804,3.3492 -4.8837,3.5832c-4.9235,0.5758 -9.9496,-0.415 -14.8443,-1.11c-1.2427,-0.2069 1.1521,-0.6342 1.7501,-0.8145c1.8035,-0.539 3.8094,-0.7396 5.4524,-1.5025c0.5697,-0.2648 1.076,-1.0273 1.1214,-1.5178c0.0255,-0.2929 -0.3911,0.2979 -1.1495,-0.1332c-2.762,-1.8087 -5.661,-3.4929 -8.1472,-5.7797c-1.685,-1.5505 -3.2282,-3.4485 -3.9693,-5.6146c-0.6329,-1.8517 -0.5681,-5.1403 0.0637,-6.0568c0.4208,-0.5308 1.3453,2.1397 2.1336,3.036c0.9237,1.048 1.7135,2.3865 2.9673,2.9691c1.347,0.625 3.1578,1.2377 4.432,0.4857c2.0448,-1.2212 2.9733,-3.8298 4.6308,-5.4636c1.8035,-2.2654 4.4297,-6.0389 5.7443,-6.2244c0.9825,-0.1078 -1.0308,4.1416 -0.9591,6.2443c0.0499,1.4498 0.7769,2.7401 1.3052,4.0571c0.5106,1.2775 1.3664,2.4992 1.792,3.8502c1.0283,3.2749 3.1442,6.5621 2.5603,9.9915z" fill="#000000" stroke="#000000" stroke-width="1.91544" stroke-linecap="round"/><path d="M233.64662,148.58725c-0.723,0.0996 -1.5352,-1.1158 -2.5858,-1.4366c-0.703,-0.2145 -1.4682,-0.1523 -2.2028,-0.1437c-1.3676,0.0182 -4.6593,1.1694 -4.3097,0.3352c0.8361,-1.7047 5.6295,-3.1193 6.704,-5.459c0.476,-1.0362 -2.3818,-1.2843 -3.6872,-1.3408c-1.3676,-0.0594 -2.6979,0.6311 -4.0703,0.9577c-0.3352,0.1197 -1.2805,0.7183 -1.0535,0.3831c0.8897,-1.3102 2.1079,-2.5485 3.352,-3.5914c1.4854,-1.2049 4.0215,-1.3734 4.7886,-3.1126c0.5689,-1.2978 -0.816,-2.9766 -1.8197,-4.0704c-0.9222,-1.0037 -2.4546,-1.3571 -3.7351,-1.9154c-1.0946,-0.476 -3.9199,-0.5382 -3.5435,-1.1014c0.679,-0.8821 3.7897,-1.9509 5.7463,-1.9154c2.2889,0.0421 4.5683,0.9299 6.5604,2.0591c2.9383,1.6664 5.4293,3.9103 7.997,5.9857c0.6426,0.59 0.2078,1.1675 0.4788,1.0535c0.453,-0.1934 1.0238,-0.9089 1.1014,-1.5323c0.2232,-1.7977 -0.2002,-3.7687 -0.2394,-5.6506c-0.0115,-0.6244 -0.3381,-3.035 0.2394,-1.9154c2.1606,4.4467 4.6431,8.9279 5.6027,13.7912c0.3907,1.9786 -0.1686,4.7388 -1.9155,5.7463c-3.8471,2.22 -8.6013,2.4757 -13.025,2.8732z" fill="#000000" stroke="#000000" stroke-width="1.91544" stroke-linecap="round"/><path d="M292.34112,232.24425c-4.8317,1.8915 -10.1624,1.4644 -15.563,1.5803c-8.4509,0.1791 -16.9287,-0.2989 -25.3796,-0.4789c-14.0326,-0.2988 -28.1082,-0.5852 -42.1398,-0.9577c-3.988,-0.1063 -8.2144,0.8629 -11.9715,-0.4789c-3.3071,-1.1809 -6.7443,-3.4823 -8.1407,-6.704c-1.0458,-2.4135 0.8993,-5.2378 1.9155,-7.6618c1.7631,-4.2494 4.235,-8.904 6.4646,-13.5518c3.193,-6.0384 6.1141,-12.1382 9.8166,-18.5319c2.6453,-4.5511 6.1256,-8.5841 9.0984,-12.9293c3.2467,-4.7455 6.2511,-9.6778 9.5772,-14.3658c3.7198,-5.2378 7.409,-11.0138 12.211,-15.4672c1.2153,-1.1234 2.9258,-0.8869 4.3097,-0.4789c2.1913,0.6522 4.8892,1.6406 6.7041,3.352c1.9576,1.8303 3.5598,4.759 5.2675,7.183c4.8393,6.8687 9.5437,13.9444 14.3658,21.0699c2.2746,3.4478 4.6124,7.135 6.9435,10.6786c3.0245,4.6037 6.5738,9.5839 9.3378,14.701c3.308,6.0576 5.5912,12.7061 8.1406,19.1544c1.36,2.697 3.67,5.2838 3.5915,8.2843c-0.0738,2.3532 -2.1683,4.9189 -4.5492,5.6027z" fill="#f1db20" stroke="#000000" stroke-width="1.91544" stroke-linecap="round"/><path d="M286.31492,232.64425c-15.4011,0.4271 -30.8253,-0.0329 -46.2101,-0.2007c-7.5823,-0.2336 -18.4113,0.932 -22.7459,-1.0034c-2.2143,-0.9898 6.3257,-3.6646 9.5772,-5.3383c0.8131,-0.4183 1.5716,-0.5957 2.3943,-0.8028c0.7786,-0.1959 1.6157,-0.2055 2.3943,-0.4014c0.8227,-0.2071 1.5716,-0.5956 2.3943,-0.8027c0.7786,-0.1959 1.6032,-0.2457 2.3943,-0.4014c1.9203,-0.3789 3.7849,-1.0283 5.7464,-1.2041c2.537,-0.228 5.1132,0.1068 7.6617,0c0.657,-0.0273 1.1187,-0.3733 1.9155,-0.4014c3.1863,-0.1116 6.3909,-0.1116 9.5772,0c0.7968,0.0281 1.2632,0.3332 1.9155,0.4014c0.633,0.0666 1.2823,-0.0666 1.9154,0c0.6522,0.0682 1.2604,0.3588 1.9154,0.4014c1.4309,0.0923 2.8914,-0.1831 4.3098,0c0.7049,0.0907 1.2316,0.6341 1.9154,0.8027c2.0409,0.5033 4.1489,0.8172 6.2252,1.2041c0.794,0.1477 1.6023,0.2481 2.3943,0.4014c1.2815,0.2481 2.6433,0.3291 3.8309,0.8028c2.198,0.8774 4.2198,2.055 6.2252,3.211c0.5574,0.3211 2.0151,0.9095 1.4366,1.2041c-2.1597,1.1006 -3.3329,2.0205 -7.1829,2.1273z" fill="#ffffff" stroke="#ffffff" stroke-width="1.76728" stroke-linecap="round"/><path d="M241.58182,194.07575c2.7085,0 5.1621,0.9386 6.9397,2.4556c1.7765,1.5171 2.877,3.6126 2.877,5.9245c0,2.312 -1.1005,4.4075 -2.877,5.9245c-1.7776,1.517 -4.2312,2.4556 -6.9397,2.4556c-2.7084,0 -5.1621,-0.9386 -6.9396,-2.4556c-1.7766,-1.517 -2.877,-3.6125 -2.877,-5.9245c0,-2.3119 1.1004,-4.4074 2.877,-5.9245c1.7775,-1.517 4.2312,-2.4556 6.9396,-2.4556z" fill="#ffffff" stroke="#000000" stroke-width="1.91544" stroke-linecap="butt"/><path d="M224.29332,183.73225l32.7328,12.6746l-2.4186,3.7931l-33.5532,-7.9654z" fill="#b23600" stroke="#b23600" stroke-width="1.91544" stroke-linecap="round"/><path d="M275.55562,196.66025c2.2871,0 4.3591,0.8182 5.8602,2.1408c1.5002,1.3225 2.4294,3.1494 2.4294,5.1649c0,2.0155 -0.9292,3.8424 -2.4294,5.1649c-1.5011,1.3226 -3.5731,2.1408 -5.8602,2.1408c-2.2871,0 -4.3591,-0.8182 -5.8601,-2.1408c-1.5003,-1.3225 -2.4295,-3.1494 -2.4295,-5.1649c0,-2.0155 0.9292,-3.8424 2.4295,-5.1649c1.501,-1.3226 3.573,-2.1408 5.8601,-2.1408z" fill="#ffffff" stroke="#000000" stroke-width="1.64389" stroke-linecap="butt"/><path d="M246.85252,200.77825c0.5948,0 1.133,0.2413 1.5238,0.6311c0.3898,0.3908 0.6311,0.929 0.6311,1.5238c0,0.5947 -0.2413,1.1329 -0.6311,1.5237c-0.3908,0.3898 -0.929,0.6311 -1.5238,0.6311c-0.5947,0 -1.133,-0.2413 -1.5237,-0.6311c-0.3898,-0.3908 -0.6312,-0.929 -0.6312,-1.5237c0,-0.5948 0.2414,-1.133 0.6312,-1.5238c0.3907,-0.3898 0.929,-0.6311 1.5237,-0.6311z" fill="#000000" stroke="none" stroke-width="0.95772" stroke-linecap="butt"/><path d="M280.11232,201.52565c0.5948,0 1.133,0.2413 1.5238,0.6311c0.3898,0.3908 0.6311,0.929 0.6311,1.5238c0,0.5947 -0.2413,1.133 -0.6311,1.5237c-0.3908,0.3898 -0.929,0.6311 -1.5238,0.6311c-0.5947,0 -1.1329,-0.2413 -1.5237,-0.6311c-0.3898,-0.3907 -0.6311,-0.929 -0.6311,-1.5237c0,-0.5948 0.2413,-1.133 0.6311,-1.5238c0.3908,-0.3898 0.929,-0.6311 1.5237,-0.6311z" fill="#000000" stroke="none" stroke-width="0.95772" stroke-linecap="butt"/><path d="M292.39452,232.24425c-4.8317,1.8915 -10.1624,1.4644 -15.563,1.5803c-8.4509,0.1791 -16.9287,-0.2989 -25.3796,-0.4789c-14.0326,-0.2988 -28.1082,-0.5852 -42.1398,-0.9577c-3.988,-0.1063 -8.2144,0.8629 -11.9716,-0.4789c-3.307,-1.1809 -6.7442,-3.4823 -8.1406,-6.704c-1.0458,-2.4135 0.8993,-5.2378 1.9154,-7.6618c1.7632,-4.2494 4.2351,-8.904 6.4647,-13.5518c3.193,-6.0384 6.1141,-12.1382 9.8166,-18.5319c2.6453,-4.5511 6.1256,-8.5841 9.0984,-12.9293c3.2467,-4.7455 6.251,-9.6778 9.5772,-14.3658c3.7198,-5.2378 7.409,-11.0138 12.211,-15.4672c1.2153,-1.1234 2.9258,-0.8869 4.3097,-0.4789c2.1913,0.6522 4.8892,1.6406 6.7041,3.352c1.9576,1.8303 3.5598,4.759 5.2675,7.183c4.8393,6.8687 9.5437,13.9444 14.3658,21.0699c2.2746,3.4478 4.6124,7.135 6.9435,10.6786c3.0245,4.6037 6.5738,9.5839 9.3378,14.701c3.3079,6.0576 5.5911,12.7061 8.1406,19.1544c1.36,2.697 3.67,5.2838 3.5915,8.2843c-0.0738,2.3532 -2.1683,4.9189 -4.5492,5.6027z" fill="none" stroke="#000000" stroke-width="1.91544" stroke-linecap="round"/><path d="M288.71482,218.74605c-1.6672,0.6448 -4.9211,-0.6738 -7.3412,-0.8822c-2.0054,-0.1733 -4.0456,-0.5272 -6.0403,-0.2944c-1.3363,0.1915 -2.6787,1.1341 -4.0991,1.6646c-1.8191,0.8055 -3.5768,1.6678 -5.6268,2.3471c-2.7931,0.9253 -5.544,2.7112 -8.4438,2.2373c-2.753,-0.2223 -4.9167,-2.4713 -7.1538,-4.1567c-1.3336,-1.0044 -3.216,-1.8729 -3.5987,-3.4912c-0.3841,-1.1082 1.082,-1.9 1.8071,-2.8738c0.5995,-0.8055 1.2764,-1.5295 1.9314,-2.3534c0.6686,-0.7758 1.295,-1.6937 2.0395,-2.4498c1.0711,-1.0823 1.9945,-2.3816 3.5043,-2.9306c1.4113,-0.6235 3.201,-0.557 4.7963,-0.3928c1.2567,0.1418 2.4588,0.6264 3.634,1.0807c3.6395,1.4146 7.0329,3.003 10.5188,4.5546c1.4156,0.6303 2.8596,1.1236 4.264,1.7327c2.4952,1.0863 5.0966,2.2177 7.4301,3.8132c0.9765,0.4994 3.196,2.0792 2.3782,2.3947z" fill="#ffae00" stroke="#000000" stroke-width="2.0499" stroke-linecap="round"/><path d="M296.13772,195.17385l-30.4546,5.0109l-1.6744,-2.958l30.295,-8.6155z" fill="#b23600" stroke="#b23600" stroke-width="1.58303" stroke-linecap="round"/><path d="M247.67702,217.97395c0,0 6.6793,-2.875 10.1863,-3.3046c2.8929,-0.3547 5.4472,0.6521 8.1005,0.9914c3.9707,0.6146 11.787,1.8726 11.787,1.8726" fill="none" stroke="#000000" stroke-width="2.07579" stroke-linecap="round"/></g></g></svg>