<svg version="1.1" xmlns="http://www.w3.org/2000/svg" xmlns:xlink="http://www.w3.org/1999/xlink" width="23.75" height="23.75" viewBox="0,0,23.75,23.75"><g transform="translate(-228.125,-168.125)"><g data-paper-data="{&quot;isPaintingLayer&quot;:true}" fill-rule="nonzero" stroke-linejoin="miter" stroke-miterlimit="10" stroke-dasharray="" stroke-dashoffset="0" style="mix-blend-mode: normal"><path d="M229.3936,180.19321c0,-5.86089 4.75119,-10.61209 10.61209,-10.61209c5.86089,0 10.61209,4.75119 10.61209,10.61209c0,5.86089 -4.75119,10.61209 -10.61209,10.61209c-5.86089,0 -10.61209,-4.75119 -10.61209,-10.61209z" fill="#ffe191" stroke="#000000" stroke-width="1" stroke-linecap="butt"/><path d="M229.2303,179.9644c0,-5.94794 4.82176,-10.7697 10.7697,-10.7697c5.94794,0 10.7697,4.82176 10.7697,10.7697c0,5.94794 -4.82176,10.7697 -10.7697,10.7697c-5.94794,0 -10.7697,-4.82176 -10.7697,-10.7697z" fill="#ffd768" stroke="#000000" stroke-width="0.5" stroke-linecap="butt"/><path d="M228.125,180c0,-6.55838 5.31662,-11.875 11.875,-11.875c6.55838,0 11.875,5.31662 11.875,11.875c0,6.55838 -5.31662,11.875 -11.875,11.875c-6.55838,0 -11.875,-5.31662 -11.875,-11.875z" fill="#ffd768" stroke="none" stroke-width="0" stroke-linecap="butt"/><path d="M234.43698,180.19321c0,-3.07552 2.4932,-5.56872 5.56872,-5.56872c3.07552,0 5.56872,2.49319 5.56872,5.56872c0,3.07552 -2.4932,5.56872 -5.56872,5.56872c-3.07552,0 -5.56872,-2.4932 -5.56872,-5.56872z" fill="none" stroke="#ffffff" stroke-width="2.5" stroke-linecap="butt"/><path d="M233.95846,183.58932l3.78253,-0.10507" fill="none" stroke="#ffd768" stroke-width="2.5" stroke-linecap="round"/><path d="M238.47648,173.39751l1.57605,2.31155" fill="none" stroke="#ffd768" stroke-width="2.5" stroke-linecap="round"/><path d="M239.1069,183.27411l-4.30788,3.04704l-0.18756,-8.50743" fill="none" stroke="#000000" stroke-width="2" stroke-linecap="round"/><path d="M235.11424,187.58199l-0.52536,-6.40928l5.989,2.52168" fill="none" stroke="#ffffff" stroke-width="2.5" stroke-linecap="round"/><path d="M234.10782,183.69439c0,-1.25217 1.01508,-2.26726 2.26726,-2.26726c1.25217,0 2.26726,1.01508 2.26726,2.26726c0,1.25217 -1.01508,2.26726 -2.26726,2.26726c-1.25217,0 -2.26726,-1.01508 -2.26726,-2.26726z" fill="#ffffff" stroke="none" stroke-width="0.5" stroke-linecap="butt"/><path d="M241.62858,182.32847l-1.68113,1.68113" fill="none" stroke="#ffd768" stroke-width="2.5" stroke-linecap="round"/><path d="M234.48381,188.00227l1.89126,-0.94563l-1.26084,1.47098" fill="none" stroke="#ffd768" stroke-width="1" stroke-linecap="round"/><path d="M233.64325,187.8972l3.1521,-1.68113" fill="none" stroke="#ffd768" stroke-width="1" stroke-linecap="round"/><path d="M238.79168,184.3248l2.10141,-1.99633" fill="none" stroke="#ffd768" stroke-width="1" stroke-linecap="round"/><path d="M235.8248,185.91107v-7.36859h7.36859v7.36859z" fill="#ffffff" stroke="#ffffff" stroke-width="2" stroke-linecap="butt"/><path d="M234.36728,178.7854l4.69646,-5.74912l5.26328,5.42523" fill="none" stroke="#ffffff" stroke-width="2" stroke-linecap="round"/><path d="M229.91374,179.91903c0,-5.63477 4.56789,-10.20266 10.20266,-10.20266c5.63477,0 10.20266,4.56789 10.20266,10.20266c0,5.63477 -4.56789,10.20266 -10.20266,10.20266c-5.63477,0 -10.20266,-4.56789 -10.20266,-10.20266z" fill="#ffd768" stroke="none" stroke-width="0.5" stroke-linecap="butt"/><path d="M236.6358,184.04868v-6.96372h5.91107v7.0447" fill="none" stroke="#000000" stroke-width="2" stroke-linecap="round"/><path d="M234.53049,183.80576c0,-0.62609 0.50754,-1.13363 1.13363,-1.13363c0.62609,0 1.13363,0.50754 1.13363,1.13363c0,0.62609 -0.50754,1.13363 -1.13363,1.13363c-0.62609,0 -1.13363,-0.50754 -1.13363,-1.13363z" fill="#000000" stroke="none" stroke-width="0" stroke-linecap="butt"/><path d="M240.76545,183.88673c0,-0.62609 0.50754,-1.13363 1.13363,-1.13363c0.62609,0 1.13363,0.50754 1.13363,1.13363c0,0.62609 -0.50754,1.13363 -1.13363,1.13363c-0.62609,0 -1.13363,-0.50754 -1.13363,-1.13363z" fill="#000000" stroke="none" stroke-width="0" stroke-linecap="butt"/><path d="M246.67285,187.70177l-13.25,-15.125" fill="none" stroke="#ff0000" stroke-width="1.5" stroke-linecap="round"/><path d="M246.79785,172.95177l-14.125,14.25" fill="none" stroke="#ff0000" stroke-width="1.5" stroke-linecap="round"/></g></g></svg>