<svg version="1.1" xmlns="http://www.w3.org/2000/svg" xmlns:xlink="http://www.w3.org/1999/xlink" width="124.193" height="117.10362" viewBox="0,0,124.193,117.10362"><defs><linearGradient x1="235.5441" y1="92.051" x2="235.5441" y2="165.0718" gradientUnits="userSpaceOnUse" id="color-1"><stop offset="0" stop-color="#1bc6ff"/><stop offset="1" stop-color="#66a9c3"/></linearGradient><linearGradient x1="214.386" y1="51.3659" x2="214.386" y2="124.3867" gradientUnits="userSpaceOnUse" id="color-2"><stop offset="0" stop-color="#1bc6ff"/><stop offset="1" stop-color="#66a9c3"/></linearGradient><linearGradient x1="195.0353" y1="94.0786" x2="195.0353" y2="167.0994" gradientUnits="userSpaceOnUse" id="color-3"><stop offset="0" stop-color="#1bc6ff"/><stop offset="1" stop-color="#66a9c3"/></linearGradient></defs><g transform="translate(-181.2389,-51.25899)"><g data-paper-data="{&quot;isPaintingLayer&quot;:true}" fill-rule="nonzero" stroke-linejoin="miter" stroke-miterlimit="10" stroke-dasharray="" stroke-dashoffset="0" style="mix-blend-mode: normal"><g><path d="M224.4634,134.7268l-2.7598,-5.5923l17.6627,5.0839l-2.7598,8.6425l-8.8314,5.5922l-3.8637,-2.5419l10.4872,-8.1341z" fill="#000000" stroke="none" stroke-width="0.53062" stroke-linecap="round"/><path d="M250.447,96.5203c0.5,-2.2293 6.4629,-3.7188 9.9352,-2.7684c3.962,1.0093 8.4478,7.8703 8.8314,7.7151c0.3748,-0.1584 -6.6274,-5.7446 -6.0716,-8.2597c0.3974,-1.7169 5.5699,-1.3561 7.1755,0c4.9075,3.3297 6.9839,8.5525 10.4872,12.7073c2.3105,2.7398 6.2946,4.6196 7.7275,7.7379c3.5082,7.6294 7.1694,15.8837 7.1754,24.28c-0.4123,6.3909 -3.0435,13.3223 -8.345,18.2941c-5.2701,4.9404 -13.0853,8.8452 -21.4608,8.8452c-8.3754,0 -15.9648,-3.382 -21.4607,-8.8452c-5.4953,-5.4633 -8.897,-13.0083 -8.897,-21.3347c0,-8.3265 4.2892,-14.854 8.897,-21.3347c2.2034,-3.0956 7.1092,-4.0206 9.8696,-6.5534c1.7094,-1.1899 3.8836,-2.7611 3.3117,-4.4249c-0.9488,-2.772 -7.6694,-3.7359 -7.1754,-6.0586z" fill="url(#color-1)" stroke="#000000" stroke-width="2.52642" stroke-linecap="round"/><g stroke="#000000" stroke-linecap="round"><path d="M269.4711,125.2106c1.7513,0 3.3382,0.7733 4.4874,2.0224c1.1486,1.2485 1.8601,2.9734 1.8601,4.8771c0,1.9037 -0.7115,3.6286 -1.8601,4.8771c-1.1492,1.2491 -2.7361,2.0224 -4.4874,2.0224c-1.7514,0 -3.2621,-0.9372 -4.4874,-2.0224c-2.3426,-2.0765 -5.7818,-4.7203 -5.7239,-7.9129c-0.0579,-1.6851 3.7373,-0.9769 5.7239,-1.8413c1.5013,-0.6508 2.736,-2.0224 4.4874,-2.0224z" fill="#cd4e29" stroke-width="1.65588"/><path d="M265.8887,118.0292c2.2798,0 4.3455,0.7481 5.8411,1.9557c1.4955,1.2083 2.1177,2.9809 2.4215,4.718c0.2536,1.4638 0.0744,3.3629 -1.2711,4.1313c-1.8191,1.5445 -4.4517,1.8343 -6.9915,1.9068c-2.3638,0.0667 -5.1165,0.4093 -6.9915,-1.2712c-1.4364,-0.7398 -1.5515,-2.8754 -1.2712,-4.7669c0.2485,-1.7453 0.9261,-3.5097 2.4216,-4.718c1.4956,-1.2076 3.5612,-1.9557 5.8411,-1.9557z" fill="#ffffff" stroke-width="1.90677"/></g><g stroke="#000000" stroke-linecap="round"><path d="M287.8962,125.2106c1.7514,0 3.3382,0.7733 4.4874,2.0224c1.1486,1.2485 1.8601,2.9734 1.8601,4.8771c0,1.9037 -0.7115,3.6286 -1.8601,4.8771c-1.1492,1.2491 -2.736,2.0224 -4.4874,2.0224c-1.7514,0 -3.2621,-0.9372 -4.4874,-2.0224c-2.3426,-2.0765 -5.7818,-4.7203 -5.7239,-7.9129c-0.0579,-1.6851 3.7374,-0.9769 5.7239,-1.8413c1.5013,-0.6508 2.736,-2.0224 4.4874,-2.0224z" fill="#cd4e29" stroke-width="1.65588"/><path d="M284.3138,118.0292c2.2798,0 4.3455,0.7481 5.8411,1.9557c1.4955,1.2083 2.1177,2.9809 2.4216,4.718c0.2536,1.4638 0.0743,3.3629 -1.2712,4.1313c-1.8191,1.5445 -4.4517,1.8343 -6.9915,1.9068c-2.3638,0.0667 -5.1165,0.4093 -6.9915,-1.2712c-1.4364,-0.7398 -1.5515,-2.8754 -1.2712,-4.7669c0.2485,-1.7453 0.9261,-3.5097 2.4216,-4.718c1.4956,-1.2076 3.5612,-1.9557 5.8411,-1.9557z" fill="#ffffff" stroke-width="1.90677"/></g><path d="M270.5481,122.5198c0.6855,0 1.3065,0.3091 1.7558,0.8087c0.4498,0.5 0.728,1.19 0.728,1.9511c0,0.7612 -0.2782,1.4511 -0.728,1.9512c-0.4493,0.4995 -1.0703,0.8086 -1.7558,0.8086c-0.6855,0 -1.3065,-0.3091 -1.7558,-0.8086c-0.4498,-0.5001 -0.728,-1.19 -0.728,-1.9512c0,-0.7611 0.2782,-1.4511 0.728,-1.9511c0.4493,-0.4996 1.0703,-0.8087 1.7558,-0.8087z" fill="#000000" stroke="none" stroke-width="0.55196" stroke-linecap="butt"/><path d="M288.4868,122.5198c0.7611,0 1.4511,0.2782 1.9512,0.7281c0.4995,0.4493 0.8086,1.0702 0.8086,1.7558c0,0.6855 -0.3091,1.3064 -0.8086,1.7557c-0.5001,0.4499 -1.1901,0.7281 -1.9512,0.7281c-0.7612,0 -1.4511,-0.2782 -1.9512,-0.7281c-0.4995,-0.4493 -0.8086,-1.0702 -0.8086,-1.7557c0,-0.6856 0.3091,-1.3065 0.8086,-1.7558c0.5001,-0.4499 1.19,-0.7281 1.9512,-0.7281z" fill="#000000" stroke="none" stroke-width="0.55196" stroke-linecap="butt"/><g fill="#fead12" stroke="#000000" stroke-linecap="round"><path d="M277.0436,124.9534l24.9632,14.8204l-36.7105,-0.8234z" stroke-width="1.809"/><path d="M265.2525,138.9624l10.4918,-0.5635l18.8467,1.216l-20.8045,10.627z" stroke-width="1.44588"/></g></g><g><path d="M203.3054,93.9976l-2.7598,-5.5922l17.6627,5.0838l-2.7598,8.6425l-8.8314,5.5922l-3.8637,-2.5419l10.4872,-8.1341z" fill="#000000" stroke="none" stroke-width="0.53062" stroke-linecap="round"/><path d="M229.289,55.8352c0.5,-2.2293 6.4628,-3.7188 9.9352,-2.7684c3.962,1.0093 8.4478,7.8704 8.8314,7.7151c0.3748,-0.1583 -6.6274,-5.7446 -6.0716,-8.2597c0.3974,-1.7169 5.5698,-1.3561 7.1755,0c4.9075,3.3298 6.9839,8.5525 10.4872,12.7073c2.3105,2.7398 6.2946,4.6196 7.7275,7.7379c3.5082,7.6294 7.1694,15.8837 7.1754,24.28c-0.4123,6.3909 -3.0435,13.3223 -8.3451,18.2941c-5.2701,4.9404 -13.0853,8.8452 -21.4607,8.8452c-8.3754,0 -15.9649,-3.382 -21.4607,-8.8452c-5.4953,-5.4633 -8.8971,-13.0083 -8.8971,-21.3347c0,-8.3265 4.2893,-14.854 8.8971,-21.3347c2.2034,-3.0956 7.1092,-4.0205 9.8696,-6.5534c1.7094,-1.1899 3.8836,-2.7611 3.3117,-4.4249c-0.9488,-2.772 -7.6695,-3.7359 -7.1754,-6.0586z" fill="url(#color-2)" stroke="#000000" stroke-width="2.52642" stroke-linecap="round"/><g stroke="#000000" stroke-linecap="round"><path d="M248.3131,84.4814c1.7513,0 3.3382,0.7733 4.4874,2.0224c1.1486,1.2485 1.8601,2.9734 1.8601,4.8771c0,1.9037 -0.7115,3.6286 -1.8601,4.8771c-1.1492,1.2491 -2.7361,2.0224 -4.4874,2.0224c-1.7514,0 -3.2621,-0.9372 -4.4875,-2.0224c-2.3425,-2.0764 -5.7817,-4.7203 -5.7238,-7.9129c-0.0579,-1.6851 3.7373,-0.9769 5.7238,-1.8413c1.5014,-0.6507 2.7361,-2.0224 4.4875,-2.0224z" fill="#cd4e29" stroke-width="1.65588"/><path d="M244.7747,77.3c2.2799,0 4.3456,0.7481 5.8411,1.9557c1.4956,1.2083 2.1178,2.9809 2.4216,4.718c0.2536,1.4638 0.0744,3.3629 -1.2712,4.1313c-1.819,1.5445 -4.4516,1.8344 -6.9915,1.9068c-2.3637,0.0668 -5.1164,0.4093 -6.9914,-1.2712c-1.4365,-0.7398 -1.5515,-2.8754 -1.2712,-4.7669c0.2485,-1.7453 0.926,-3.5097 2.4216,-4.718c1.4955,-1.2076 3.5612,-1.9557 5.841,-1.9557z" fill="#ffffff" stroke-width="1.90677"/></g><g stroke="#000000" stroke-linecap="round"><path d="M266.7382,84.4814c1.7513,0 3.3382,0.7733 4.4874,2.0224c1.1486,1.2485 1.8601,2.9734 1.8601,4.8771c0,1.9037 -0.7115,3.6286 -1.8601,4.8771c-1.1492,1.2491 -2.7361,2.0224 -4.4874,2.0224c-1.7514,0 -3.2621,-0.9372 -4.4875,-2.0224c-2.3425,-2.0764 -5.7817,-4.7203 -5.7238,-7.9129c-0.0579,-1.6851 3.7373,-0.9769 5.7238,-1.8413c1.5014,-0.6507 2.7361,-2.0224 4.4875,-2.0224z" fill="#cd4e29" stroke-width="1.65588"/><path d="M263.1558,77.3c2.2798,0 4.3455,0.7481 5.841,1.9557c1.4956,1.2083 2.1178,2.9809 2.4216,4.718c0.2536,1.4638 0.0744,3.3629 -1.2711,4.1313c-1.8191,1.5445 -4.4517,1.8344 -6.9915,1.9068c-2.3638,0.0668 -5.1165,0.4093 -6.9915,-1.2712c-1.4364,-0.7398 -1.5515,-2.8754 -1.2712,-4.7669c0.2485,-1.7453 0.9261,-3.5097 2.4216,-4.718c1.4955,-1.2076 3.5612,-1.9557 5.8411,-1.9557z" fill="#ffffff" stroke-width="1.90677"/></g><path d="M249.3901,81.7466c0.6855,0 1.3065,0.3091 1.7558,0.8086c0.4498,0.5001 0.728,1.19 0.728,1.9512c0,0.7611 -0.2782,1.4511 -0.728,1.9512c-0.4493,0.4995 -1.0703,0.8086 -1.7558,0.8086c-0.6855,0 -1.3065,-0.3091 -1.7558,-0.8086c-0.4498,-0.5001 -0.728,-1.1901 -0.728,-1.9512c0,-0.7612 0.2782,-1.4511 0.728,-1.9512c0.4493,-0.4995 1.0703,-0.8086 1.7558,-0.8086z" fill="#000000" stroke="none" stroke-width="0.55196" stroke-linecap="butt"/><path d="M267.3288,81.7466c0.7611,0 1.4511,0.2782 1.9512,0.728c0.4995,0.4493 0.8086,1.0703 0.8086,1.7558c0,0.6855 -0.3091,1.3065 -0.8086,1.7558c-0.5001,0.4498 -1.1901,0.728 -1.9512,0.728c-0.7612,0 -1.4511,-0.2782 -1.9512,-0.728c-0.4995,-0.4493 -0.8086,-1.0703 -0.8086,-1.7558c0,-0.6855 0.3091,-1.3065 0.8086,-1.7558c0.5001,-0.4498 1.19,-0.728 1.9512,-0.728z" fill="#000000" stroke="none" stroke-width="0.55196" stroke-linecap="butt"/><g fill="#fead12" stroke="#000000" stroke-linecap="round"><path d="M255.8856,84.2683l24.9632,14.8204l-36.7106,-0.8234z" stroke-width="1.809"/><path d="M244.0945,98.2773l10.4918,-0.5635l18.8466,1.216l-20.8044,10.627z" stroke-width="1.44588"/></g></g><g><path d="M183.9987,136.7544l-2.7598,-5.5922l17.6627,5.0838l-2.7598,8.6425l-8.8314,5.5923l-3.8637,-2.542l10.4872,-8.1341z" fill="#000000" stroke="none" stroke-width="0.53062" stroke-linecap="round"/><path d="M209.9382,98.5479c0.5001,-2.2292 6.4629,-3.7187 9.9353,-2.7684c3.9619,1.0093 8.4477,7.8704 8.8313,7.7152c0.3748,-0.1584 -6.6274,-5.7446 -6.0715,-8.2598c0.3974,-1.7168 5.5698,-1.356 7.1754,0c4.9075,3.3298 6.984,8.5525 10.4873,12.7073c2.3105,2.7398 6.2945,4.6196 7.7274,7.7379c3.5082,7.6294 7.1694,15.8837 7.1755,24.2801c-0.4124,6.3909 -3.0435,13.3223 -8.3451,18.294c-5.2701,4.9404 -13.0853,8.8452 -21.4608,8.8452c-8.3754,0 -15.9648,-3.3819 -21.4607,-8.8452c-5.4953,-5.4632 -8.897,-13.0082 -8.897,-21.3347c0,-8.3265 4.2893,-14.854 8.897,-21.3347c2.2034,-3.0956 7.1093,-4.0205 9.8696,-6.5534c1.7094,-1.1899 3.8836,-2.7611 3.3118,-4.4248c-0.9489,-2.772 -7.6695,-3.736 -7.1755,-6.0587z" fill="url(#color-3)" stroke="#000000" stroke-width="2.52642" stroke-linecap="round"/><g stroke="#000000" stroke-linecap="round"><path d="M229.0064,127.2823c1.7513,0 3.3382,0.7733 4.4874,2.0224c1.1486,1.2485 1.8601,2.9734 1.8601,4.8771c0,1.9037 -0.7115,3.6286 -1.8601,4.8771c-1.1492,1.2491 -2.7361,2.0224 -4.4874,2.0224c-1.7514,0 -3.2621,-0.9372 -4.4874,-2.0224c-2.3426,-2.0764 -5.7818,-4.7203 -5.7239,-7.9129c-0.0579,-1.6851 3.7373,-0.9769 5.7239,-1.8413c1.5013,-0.6508 2.736,-2.0224 4.4874,-2.0224z" fill="#cd4e29" stroke-width="1.65588"/><path d="M225.424,120.0568c2.2798,0 4.3455,0.7481 5.8411,1.9558c1.4955,1.2082 2.1177,2.9809 2.4215,4.7179c0.2536,1.4638 0.0744,3.3629 -1.2711,4.1314c-1.8191,1.5444 -4.4517,1.8343 -6.9915,1.9067c-2.3638,0.0668 -5.1165,0.4094 -6.9915,-1.2711c-1.4364,-0.7399 -1.5515,-2.8755 -1.2712,-4.767c0.2485,-1.7453 0.9261,-3.5097 2.4216,-4.7179c1.4956,-1.2077 3.5612,-1.9558 5.8411,-1.9558z" fill="#ffffff" stroke-width="1.90677"/></g><g stroke="#000000" stroke-linecap="round"><path d="M247.4315,127.2823c1.7514,0 3.3382,0.7733 4.4874,2.0224c1.1486,1.2485 1.8601,2.9734 1.8601,4.8771c0,1.9037 -0.7115,3.6286 -1.8601,4.8771c-1.1492,1.2491 -2.736,2.0224 -4.4874,2.0224c-1.7514,0 -3.2621,-0.9372 -4.4874,-2.0224c-2.3426,-2.0764 -5.7818,-4.7203 -5.7239,-7.9129c-0.0579,-1.6851 3.7374,-0.9769 5.7239,-1.8413c1.5013,-0.6508 2.736,-2.0224 4.4874,-2.0224z" fill="#cd4e29" stroke-width="1.65588"/><path d="M243.8491,120.0568c2.2798,0 4.3455,0.7481 5.8411,1.9558c1.4955,1.2082 2.1177,2.9809 2.4216,4.7179c0.2536,1.4638 0.0743,3.3629 -1.2712,4.1314c-1.8191,1.5444 -4.4517,1.8343 -6.9915,1.9067c-2.3638,0.0668 -5.1165,0.4094 -6.9915,-1.2711c-1.4364,-0.7399 -1.5515,-2.8755 -1.2712,-4.767c0.2485,-1.7453 0.9261,-3.5097 2.4216,-4.7179c1.4956,-1.2077 3.5612,-1.9558 5.8411,-1.9558z" fill="#ffffff" stroke-width="1.90677"/></g><path d="M230.0834,124.5475c0.6855,0 1.3065,0.3091 1.7558,0.8086c0.4498,0.5001 0.728,1.19 0.728,1.9512c0,0.7611 -0.2782,1.4511 -0.728,1.9512c-0.4493,0.4995 -1.0703,0.8086 -1.7558,0.8086c-0.6855,0 -1.3065,-0.3091 -1.7558,-0.8086c-0.4498,-0.5001 -0.728,-1.1901 -0.728,-1.9512c0,-0.7612 0.2782,-1.4511 0.728,-1.9512c0.4493,-0.4995 1.0703,-0.8086 1.7558,-0.8086z" fill="#000000" stroke="none" stroke-width="0.55196" stroke-linecap="butt"/><path d="M248.0221,124.5475c0.7611,0 1.4511,0.2782 1.9512,0.728c0.4995,0.4493 0.8086,1.0703 0.8086,1.7558c0,0.6855 -0.3091,1.3065 -0.8086,1.7558c-0.5001,0.4498 -1.1901,0.728 -1.9512,0.728c-0.7612,0 -1.4511,-0.2782 -1.9512,-0.728c-0.4995,-0.4493 -0.8086,-1.0703 -0.8086,-1.7558c0,-0.6855 0.3091,-1.3065 0.8086,-1.7558c0.5001,-0.4498 1.19,-0.728 1.9512,-0.728z" fill="#000000" stroke="none" stroke-width="0.55196" stroke-linecap="butt"/><g fill="#fead12" stroke="#000000" stroke-linecap="round"><path d="M236.5789,127.0251l24.9632,14.8204l-36.7105,-0.8234z" stroke-width="1.809"/><path d="M224.7878,141.0342l10.4918,-0.5635l18.8467,1.2159l-20.8045,10.627z" stroke-width="1.44588"/></g></g></g></g></svg>