<svg version="1.1" xmlns="http://www.w3.org/2000/svg" xmlns:xlink="http://www.w3.org/1999/xlink" width="102.1434" height="132.27805" viewBox="0,0,102.1434,132.27805"><g transform="translate(-188.28744,-35.82834)"><g data-paper-data="{&quot;isPaintingLayer&quot;:true}" fill-rule="nonzero" stroke-linejoin="miter" stroke-miterlimit="10" stroke-dasharray="" stroke-dashoffset="0" style="mix-blend-mode: normal"><g stroke="#000000" stroke-linecap="round"><path d="M241.5602,72.7333c-1.113,-0.3882 -2.3326,-0.6402 -3.1416,-1.363c-0.2536,-0.2256 -0.0359,-0.3036 0,-0.94c0.1436,-2.5445 -0.4746,-4.0851 -0.2244,-6.1099c0.6754,-5.3015 1.8131,-10.5447 3.0855,-15.7447c0.7831,-3.821 1.3127,-7.7717 3.0855,-11.3267c0.442,-0.8893 1.8355,-1.1167 2.805,-0.705c3.707,1.1956 7.7866,2.6705 10.3223,5.2169c1.0042,1.378 0.3164,2.1638 -0.2244,3.2429c-2.1621,4.3164 -5.5572,7.8912 -7.854,12.0318c-1.6684,3.0145 -2.7298,6.4802 -3.9269,9.8698c-0.8595,2.0755 -0.9369,4.3831 -2.244,6.5329c-0.3265,0.5376 -1.1815,-0.4014 -1.683,-0.705z" fill="#000000" stroke-width="1.035"/><path d="M244.2847,37.249c0.5177,-0.6862 1.772,-1.0838 2.7481,-0.705c3.899,1.5002 8.008,3.3472 10.8276,6.1569c0.9168,0.9108 -0.4825,2.5567 -1.1542,3.7599c-0.7706,1.1204 -1.5082,3.0521 -3.0779,3.0549c-3.0108,0.0047 -5.7106,-2.0388 -8.6291,-3.0549c-0.8157,-0.314 -2.1282,-0.1448 -2.5833,-0.94c-0.6078,-1.0885 0.1177,-2.4158 0.3298,-3.6189c0.4122,-1.5623 0.5002,-3.2721 1.539,-4.6529z" fill="#ffc000" stroke-width="1.02272"/></g><path d="M267.9179,75.8383c6.5276,4.8502 12.8263,11.233 16.0459,18.8648c4.1893,10.2555 6.244,21.7825 5.4209,32.9591c-0.6531,8.8522 -4.4486,17.7729 -9.9745,24.7194c-5.0497,6.3464 -12.613,10.9113 -20.3826,13.0102c-9.1696,2.6984 -19.1355,1.9377 -28.6225,0.8674c-6.5355,-0.7381 -12.9486,-2.9108 -18.8648,-5.8546c-5.8676,-2.9238 -12.4794,-6.1469 -15.8291,-11.7092c-4.3523,-7.2319 -6.9604,-16.0208 -6.5051,-24.5025c0.621,-11.4985 3.9282,-23.2449 9.7577,-33.1761c5.1303,-8.7376 13.1455,-16.3321 22.1173,-21.0331c7.474,-3.8632 16.6193,-4.5258 24.9362,-3.4694c7.8591,0.9992 15.5386,4.5969 21.9006,9.324z" fill="#000000" stroke="#000000" stroke-width="1.73469" stroke-linecap="round"/><path d="M281.2286,146.2939c0.6175,0.8196 0.2272,2.1172 -0.1301,3.0791c-0.5092,1.3704 -1.4424,2.569 -2.3852,3.6862c-1.0209,1.2099 -2.1927,2.3149 -3.4694,3.2525c-3.3575,2.4659 -6.5181,5.4487 -10.4082,6.9388c-5.6577,2.1675 -11.7335,3.4824 -17.7806,3.8597c-6.5771,0.4103 -13.2374,-0.3998 -19.7321,-1.5179c-4.4782,-0.771 -8.9328,-2.1137 -13.0102,-4.1199c-2.3601,-1.1613 -5.1937,-2.6827 -5.9414,-5.204c-0.5837,-1.9741 1.589,-3.6949 2.9056,-5.2041c1.6402,-2.0773 3.8389,-3.6914 5.8546,-5.4209c1.5656,-1.3383 3.3697,-2.7513 5.2041,-3.9031c1.9576,-1.2273 3.864,-2.2482 5.8546,-3.2525c2.0704,-1.0452 4.361,-2.1459 6.7219,-3.0358c2.6281,-1.0625 5.3169,-1.9862 8.2398,-2.8188c1.8111,-0.5161 3.6689,-1.0651 5.5511,-1.0842c3.2022,-0.0304 6.4773,0.5542 9.6275,1.301c3.4607,0.798 6.6222,2.0469 9.7577,3.4694c2.1146,0.9532 4.1251,2.5439 6.0714,4.1199c2.4372,1.7512 5.1442,3.2942 6.6352,8.4566z" fill="#434343" stroke="#000000" stroke-width="1.73469" stroke-linecap="round"/><path d="M224.1265,82.1816c3.9194,0 7.4716,1.2638 10.0433,3.3051c2.5718,2.0404 4.1639,4.8593 4.1639,7.9704c0,3.1112 -1.5921,5.9301 -4.1639,7.9705c-2.5717,2.0413 -6.1239,3.305 -10.0433,3.305c-3.9193,0 -7.4716,-1.2637 -10.0433,-3.305c-2.5717,-2.0404 -4.1638,-4.8593 -4.1638,-7.9705c0,-3.1111 1.5921,-5.93 4.1638,-7.9704c2.5717,-2.0413 6.124,-3.3051 10.0433,-3.3051z" fill="#434343" stroke="none" stroke-width="0.90204" stroke-linecap="butt"/><path d="M266.0444,80.6673c2.8641,0 5.344,0.8405 7.3393,2.4153c1.8082,1.4265 3.2768,3.6921 3.5372,5.9893c0.0916,2.5122 -0.5886,5.6196 -2.5708,7.1522c-2.2228,1.6789 -5.6143,1.1437 -8.3057,0.9228c-2.5728,-0.2096 -5.46,-0.9235 -7.3394,-2.4152c-1.8793,-1.4911 -3.0428,-3.551 -3.0428,-5.8246c0,-2.2735 1.1635,-4.3334 3.0428,-5.8245c1.8794,-1.4917 4.4752,-2.4153 7.3394,-2.4153z" fill="#434343" stroke="none" stroke-width="0.65918" stroke-linecap="butt"/><path d="M242.7648,100.3408c2.5717,-2.7764 5.5718,-6.1469 9.324,-6.5051c7.5632,-0.7208 15.267,1.3071 22.551,3.4694c2.2534,0.6687 5.2041,3.1571 5.2041,4.7704c0,1.2056 -4.0549,-0.4614 -5.2041,0.8674c-3.8085,4.4035 -3.7018,12.1489 -8.6735,15.1785c-5.4486,3.3202 -12.7881,2.7833 -19.0816,1.7347c-2.3366,-0.3894 -3.3575,-3.4824 -4.3367,-5.6377c-1.1259,-2.4867 -2.2213,-5.1096 -2.1684,-7.8062c0.0451,-2.1813 0.896,-4.485 2.3852,-6.0714z" fill="#ffae00" stroke="#000000" stroke-width="1.73469" stroke-linecap="round"/><path d="M241.4638,103.8102c0,0 4.328,-2.3878 6.7219,-2.8189c4.5787,-0.523 9.2711,-0.2185 13.8776,0c3.9273,0.1874 11.7091,1.5179 11.7091,1.5179" fill="none" stroke="#000000" stroke-width="1.73469" stroke-linecap="round"/><path d="M267.5926,81.4115c2.184,0 4.1624,0.6613 5.5953,1.7301c1.4328,1.0697 2.3192,2.5459 2.3192,4.1746c0,1.6286 -0.8864,3.1048 -2.3192,4.1745c-1.4329,1.0688 -3.4113,1.7301 -5.5953,1.7301c-2.184,0 -4.1624,-0.6613 -5.5953,-1.7301c-1.4328,-1.0697 -2.3192,-2.5459 -2.3192,-4.1745c0,-1.6287 0.8864,-3.1049 2.3192,-4.1746c1.4329,-1.0688 3.4113,-1.7301 5.5953,-1.7301z" fill="#ffffff" stroke="#000000" stroke-width="0.92757" stroke-linecap="butt"/><path d="M226.2926,82.6186c2.184,0 4.1624,0.7286 5.5953,1.906c1.4328,1.1785 2.3192,2.8048 2.3192,4.5991c0,1.7944 -0.8864,3.4206 -2.3192,4.5991c-1.4329,1.1775 -3.4113,1.906 -5.5953,1.906c-2.184,0 -4.1624,-0.7285 -5.5953,-1.906c-1.4328,-1.1785 -2.3192,-2.8047 -2.3192,-4.5991c0,-1.7943 0.8864,-3.4206 2.3192,-4.5991c1.4329,-1.1774 3.4113,-1.906 5.5953,-1.906z" fill="#ffffff" stroke="#000000" stroke-width="0.98177" stroke-linecap="butt"/><path d="M237.3051,80.7377c0.2266,0.1535 0.4985,0.3749 0.4316,0.6046c-0.1468,0.4856 -0.6658,0.8456 -0.9711,1.2558c-0.2212,0.2977 -0.3809,0.6381 -0.5935,0.9302c-0.2568,0.2986 -0.5956,0.5414 -0.8092,0.8372c-0.2126,0.2939 -0.1802,0.7758 -0.5395,0.9302c-0.3313,0.1432 -0.7327,-0.12 -1.079,-0.2326c-0.3766,-0.1218 -0.7197,-0.3107 -1.079,-0.4651c-0.3593,-0.1544 -0.7025,-0.3432 -1.079,-0.4651c-0.3464,-0.1125 -0.7197,-0.1553 -1.079,-0.2325c-0.3594,-0.0772 -0.7327,-0.12 -1.079,-0.2326c-0.3766,-0.1218 -0.7025,-0.3432 -1.0791,-0.4651c-0.3463,-0.1125 -0.7326,-0.12 -1.079,-0.2325c-0.3765,-0.1219 -0.7024,-0.3433 -1.079,-0.4651c-0.3463,-0.1126 -0.7326,-0.12 -1.079,-0.2326c-0.3765,-0.1218 -0.6981,-0.3553 -1.079,-0.4651c-0.4348,-0.1246 -0.9139,-0.1079 -1.3487,-0.2325c-0.3809,-0.1098 -0.7024,-0.3433 -1.079,-0.4651c-0.3464,-0.1126 -0.7327,-0.12 -1.079,-0.2326c-0.3766,-0.1218 -0.7025,-0.3432 -1.079,-0.4651c-0.3464,-0.1125 -0.7111,-0.1925 -1.079,-0.2325c-0.3561,-0.0381 -0.723,0.0381 -1.079,0c-0.368,-0.04 -0.7197,-0.1554 -1.079,-0.2326c-0.3593,-0.0772 -0.7197,-0.1553 -1.079,-0.2325c-0.3593,-0.0772 -0.7327,-0.12 -1.079,-0.2326c-0.3766,-0.1218 -0.7197,-0.3106 -1.079,-0.4651c-0.3594,-0.1544 -0.7025,-0.3432 -1.0791,-0.4651c-0.3463,-0.1125 -0.711,-0.1925 -1.079,-0.2325c-0.356,-0.0381 -0.7197,0 -1.079,0c-0.3593,0 -0.7229,0.0381 -1.079,0c-0.3679,-0.04 -0.7197,-0.1554 -1.079,-0.2326c-0.3593,-0.0772 -0.7941,-0.0279 -1.079,-0.2325c-0.3086,-0.2214 -0.4424,-0.5944 -0.5395,-0.9302c-0.0874,-0.3005 0,-0.6204 0,-0.9302c0,-0.3098 0,-0.6204 0,-0.9302c0,-0.3098 -0.1413,-0.6456 0,-0.9302c0.15,-0.3023 0.4316,-0.6511 0.8093,-0.6976c0.3981,-0.0493 0.6895,0.3813 1.079,0.4651c0.3485,0.0753 0.7197,0 1.079,0c0.3593,0 0.7197,0 1.079,0c0.3593,0 0.7305,-0.0754 1.079,0c0.3895,0.0837 0.6981,0.3553 1.079,0.4651c0.4348,0.1246 0.902,0.1469 1.3488,0.2325c0.3614,0.0688 0.7196,0.1553 1.079,0.2325c0.3593,0.0773 0.7326,0.12 1.079,0.2326c0.3765,0.1219 0.6894,0.3814 1.079,0.4651c0.3485,0.0753 0.7304,-0.0753 1.079,0c0.3895,0.0837 0.7024,0.3432 1.079,0.4651c0.3463,0.1126 0.711,0.1925 1.079,0.2325c0.356,0.0382 0.7229,-0.0381 1.079,0c0.3679,0.04 0.7197,0.1554 1.079,0.2326c0.3593,0.0772 0.7197,0.1553 1.079,0.2325c0.3593,0.0773 0.7197,0.1554 1.079,0.2326c0.3593,0.0772 0.7197,0.1553 1.079,0.2325c0.3593,0.0773 0.7197,0.1554 1.079,0.2326c0.3593,0.0772 0.7197,0.1553 1.079,0.2325c0.3593,0.0773 0.7197,0.1554 1.079,0.2326c0.3593,0.0772 0.7326,0.12 1.079,0.2325c0.3766,0.1219 0.7024,0.3433 1.079,0.4651c0.3464,0.1126 0.7197,0.1554 1.079,0.2326c0.3593,0.0772 0.7327,0.12 1.079,0.2325c0.3766,0.1219 0.7024,0.3433 1.079,0.4651c0.3464,0.1126 0.7327,0.12 1.079,0.2326c0.3766,0.1218 0.723,0.3042 1.079,0.4651c0.3885,0.1758 0.8211,0.3107 1.133,0.5581z" fill="#b84201" stroke="#b84201" stroke-width="1.00735" stroke-linecap="round"/><path d="M257.8575,80.3587c0.3121,-0.1666 0.6369,-0.3201 0.9783,-0.4337c0.3141,-0.1049 0.6643,-0.1119 0.9784,-0.2168c0.3414,-0.1137 0.6369,-0.3201 0.9784,-0.4337c0.314,-0.105 0.6525,-0.1449 0.9783,-0.2168c0.3258,-0.072 0.6643,-0.1119 0.9784,-0.2169c0.3414,-0.1136 0.6369,-0.32 0.9783,-0.4337c0.3141,-0.1049 0.6526,-0.1448 0.9784,-0.2168c0.3258,-0.072 0.6525,-0.1448 0.9783,-0.2168c0.3258,-0.072 0.6526,-0.1449 0.9784,-0.2169c0.3258,-0.072 0.6526,-0.1448 0.9783,-0.2168c0.3258,-0.072 0.6526,-0.1449 0.9784,-0.2168c0.3258,-0.072 0.6526,-0.1449 0.9784,-0.2169c0.3257,-0.072 0.6525,-0.1448 0.9783,-0.2168c0.3258,-0.072 0.6447,-0.1796 0.9784,-0.2169c0.3228,-0.0355 0.6555,0.0356 0.9783,0c0.3336,-0.0372 0.6643,-0.1118 0.9784,-0.2168c0.3414,-0.1136 0.6251,-0.3556 0.9783,-0.4337c0.316,-0.0702 0.6624,0.0703 0.9784,0c0.3532,-0.078 0.6369,-0.32 0.9783,-0.4336c0.3141,-0.105 0.6526,-0.1449 0.9784,-0.2169c0.3258,-0.072 0.6506,-0.1526 0.9784,-0.2168c0.405,-0.0798 0.8286,-0.1006 1.2229,-0.2168c0.3454,-0.1024 0.6252,-0.3557 0.9784,-0.4337c0.316,-0.0703 0.6525,0 0.9783,0c0.3258,0 0.6526,0 0.9784,0c0.3258,0 0.6623,0.0702 0.9783,0c0.3532,-0.0781 0.6174,-0.4797 0.9784,-0.4337c0.3424,0.0434 0.5977,0.3686 0.7337,0.6505c0.1282,0.2654 0,0.5785 0,0.8674c0,0.2888 0,0.5785 0,0.8673c0,0.2888 0.0793,0.5872 0,0.8674c-0.088,0.3131 -0.2093,0.6609 -0.4891,0.8673c-0.2583,0.1908 -0.6526,0.1449 -0.9784,0.2168c-0.3258,0.072 -0.6447,0.1796 -0.9783,0.2169c-0.3229,0.0355 -0.6526,0 -0.9784,0c-0.3258,0 -0.6555,-0.0356 -0.9784,0c-0.3336,0.0373 -0.6643,0.1119 -0.9783,0.2168c-0.3415,0.1136 -0.6526,0.2897 -0.9784,0.4337c-0.3258,0.144 -0.6369,0.32 -0.9783,0.4337c-0.3141,0.1049 -0.6526,0.1448 -0.9784,0.2168c-0.3258,0.072 -0.6525,0.1448 -0.9783,0.2168c-0.3258,0.072 -0.6448,0.1796 -0.9784,0.2169c-0.3228,0.0355 -0.6555,-0.0356 -0.9783,0c-0.3337,0.0373 -0.6644,0.1119 -0.9784,0.2168c-0.3414,0.1136 -0.6369,0.3201 -0.9784,0.4337c-0.314,0.1049 -0.6643,0.1119 -0.9783,0.2168c-0.3415,0.1136 -0.633,0.3313 -0.9784,0.4337c-0.3942,0.1162 -0.8286,0.1006 -1.2229,0.2168c-0.3454,0.1024 -0.6369,0.3201 -0.9784,0.4337c-0.314,0.105 -0.6643,0.1119 -0.9783,0.2168c-0.3415,0.1137 -0.6369,0.3201 -0.9784,0.4337c-0.314,0.105 -0.6643,0.1119 -0.9783,0.2169c-0.3415,0.1136 -0.6369,0.32 -0.9784,0.4336c-0.314,0.105 -0.6526,0.1449 -0.9783,0.2169c-0.3258,0.072 -0.6643,0.1118 -0.9784,0.2168c-0.3414,0.1136 -0.6526,0.2897 -0.9784,0.4337c-0.3257,0.144 -0.6369,0.32 -0.9783,0.4336c-0.3141,0.105 -0.678,0.3505 -0.9784,0.2169c-0.3258,-0.144 -0.361,-0.5647 -0.4891,-0.8674c-0.1184,-0.2784 -0.2026,-0.5715 -0.2446,-0.8673c-0.0401,-0.2862 0.0792,-0.5872 0,-0.8674c-0.0881,-0.3131 -0.3738,-0.5611 -0.4892,-0.8673c-0.1311,-0.3495 -0.2446,-0.7676 -0.2446,-1.0842c0,-0.0876 0.1458,-0.1639 0.2446,-0.2168z" fill="#b84201" stroke="#b84201" stroke-width="0.92452" stroke-linecap="round"/><path d="M229.9798,84.9291c0.6879,0 1.3115,0.2793 1.7625,0.7312c0.4519,0.451 0.7312,1.0746 0.7312,1.7624c0,0.6878 -0.2793,1.3114 -0.7312,1.7625c-0.451,0.4518 -1.0746,0.7311 -1.7625,0.7311c-0.6878,0 -1.3114,-0.2793 -1.7624,-0.7311c-0.4519,-0.4511 -0.7312,-1.0747 -0.7312,-1.7625c0,-0.6878 0.2793,-1.3114 0.7312,-1.7624c0.451,-0.4519 1.0746,-0.7312 1.7624,-0.7312z" fill="#000000" stroke="none" stroke-width="0.86735" stroke-linecap="butt"/><path d="M269.4638,83.739c0.7177,0 1.3684,0.2915 1.839,0.763c0.4716,0.4706 0.763,1.1214 0.763,1.8391c0,0.7177 -0.2914,1.3684 -0.763,1.8391c-0.4706,0.4715 -1.1213,0.7629 -1.839,0.7629c-0.7178,0 -1.3685,-0.2914 -1.8391,-0.7629c-0.4716,-0.4707 -0.763,-1.1214 -0.763,-1.8391c0,-0.7177 0.2914,-1.3685 0.763,-1.8391c0.4706,-0.4715 1.1213,-0.763 1.8391,-0.763z" fill="#000000" stroke="none" stroke-width="0.90506" stroke-linecap="butt"/></g></g></svg>