<svg version="1.1" xmlns="http://www.w3.org/2000/svg" xmlns:xlink="http://www.w3.org/1999/xlink" width="34.25068" height="34.3606" viewBox="0,0,34.25068,34.3606"><g transform="translate(-222.86587,-162.52145)"><g data-paper-data="{&quot;isPaintingLayer&quot;:true}" fill-rule="nonzero" stroke-linejoin="miter" stroke-miterlimit="10" stroke-dasharray="" stroke-dashoffset="0" style="mix-blend-mode: normal"><path d="M223.61796,180.00002c0,-9.04754 7.33448,-16.38204 16.38204,-16.38204c9.04754,0 16.38204,7.33448 16.38204,16.38204c0,9.04754 -7.33448,16.38204 -16.38204,16.38204c-9.04754,0 -16.38204,-7.33448 -16.38204,-16.38204z" fill="#ffe191" stroke="#000000" stroke-width="1" stroke-linecap="butt"/><path d="M223.36587,179.6468c0,-9.18192 7.44342,-16.62534 16.62534,-16.62534c9.18192,0 16.62534,7.44342 16.62534,16.62534c0,9.18192 -7.44342,16.62534 -16.62534,16.62534c-9.18192,0 -16.62534,-7.44342 -16.62534,-16.62534z" fill="#ffd768" stroke="#000000" stroke-width="1" stroke-linecap="butt"/><path d="M231.40349,180.00002c0,-4.74773 3.84879,-8.59651 8.59652,-8.59651c4.74773,0 8.59652,3.84878 8.59652,8.59651c0,4.74773 -3.84879,8.59652 -8.59652,8.59652c-4.74773,0 -8.59652,-3.84879 -8.59652,-8.59652z" fill="none" stroke="#ffffff" stroke-width="2.5" stroke-linecap="butt"/><path d="M230.6648,185.24265l5.83915,-0.1622" fill="none" stroke="#ffd768" stroke-width="2.5" stroke-linecap="round"/><path d="M237.63933,169.5094l2.43297,3.56837" fill="none" stroke="#ffd768" stroke-width="2.5" stroke-linecap="round"/><path d="M231.96239,189.45981l6.65013,-4.70376" fill="none" stroke="#ffffff" stroke-width="2.5" stroke-linecap="round"/><path d="M232.44899,191.40619l-0.811,-9.8941l9.24531,3.89276" fill="none" stroke="#ffffff" stroke-width="2.5" stroke-linecap="round"/><path d="M230.89536,185.40485c0,-1.933 1.567,-3.5 3.5,-3.5c1.933,0 3.5,1.567 3.5,3.5c0,1.933 -1.567,3.5 -3.5,3.5c-1.933,0 -3.5,-1.567 -3.5,-3.5z" fill="#ffffff" stroke="none" stroke-width="0.5" stroke-linecap="butt"/><path d="M242.50528,183.29626l-2.59518,2.59518" fill="none" stroke="#ffd768" stroke-width="2.5" stroke-linecap="round"/><path d="M231.47579,192.05498l2.91957,-1.45979l-1.94638,2.27078" fill="none" stroke="#ffd768" stroke-width="1" stroke-linecap="round"/><path d="M230.1782,191.89278l4.86595,-2.59518" fill="none" stroke="#ffd768" stroke-width="1" stroke-linecap="round"/><path d="M241.36989,183.29626l-3.24397,3.08177" fill="none" stroke="#ffd768" stroke-width="1" stroke-linecap="round"/><path d="M224.9209,177.32676c0,-6.35127 5.14873,-11.5 11.5,-11.5c3.81172,0 7.19031,1.85447 9.28274,4.7104c1.97574,1.2699 3.76803,2.90287 4.90476,4.0396c0.42442,0.42442 0.40367,3.08283 0.4154,3.41162c0.20325,5.69827 -0.61163,6.34334 -4.29865,9.60926c-1.15994,1.02747 -1.43376,2.25865 -3.13868,2.97583c-1.1338,0.47694 -5.02541,0.5834 -8.38222,0.43081c0.01889,0.0768 0.02892,0.15708 0.02892,0.23971c0,0.55228 -0.44772,1 -1,1c-0.24514,0 -0.46968,-0.08821 -0.6436,-0.23461c0.01417,0.06704 0.02162,0.13655 0.02162,0.2078c0,0.55228 -0.44772,1 -1,1c-0.55228,0 -1,-0.44772 -1,-1c0,-0.55228 0.44772,-1 1,-1c0.24514,0 0.46968,0.08821 0.6436,0.23461c-0.01417,-0.06704 -0.02162,-0.13655 -0.02162,-0.2078c0,-0.12686 0.02362,-0.2482 0.06671,-0.35986c-1.33037,-0.11059 -2.42995,-0.2673 -3.01623,-0.46055c-0.08518,0.02361 -0.17494,0.03622 -0.26764,0.03622c-0.55228,0 -1,-0.44772 -1,-1c0,-0.17515 0.04504,-0.3398 0.12416,-0.48297c-0.5217,-1.09201 -1.08235,-2.64914 -1.43383,-4.14602c-1.73589,-2.01409 -2.78543,-4.63651 -2.78543,-7.50405z" fill="#ffd768" stroke="none" stroke-width="0.5" stroke-linecap="butt"/><path d="M225.5459,178.82676c0,-8.28427 6.71573,-15 15,-15c8.28427,0 15,6.71573 15,15c0,8.28427 -6.71573,15 -15,15c-8.28427,0 -15,-6.71573 -15,-15z" fill="#ffd768" stroke="none" stroke-width="0.5" stroke-linecap="butt"/><path d="M224.9209,179.95176c0,-8.28427 6.71573,-15 15,-15c8.28427,0 15,6.71573 15,15c0,8.28427 -6.71573,15 -15,15c-8.28427,0 -15,-6.71573 -15,-15z" fill="#ffd768" stroke="none" stroke-width="0.5" stroke-linecap="butt"/><path d="M233.36194,171.07676l7.625,7.625l-7.75,7.75v-14.75" fill="#ffffff" stroke="#ffffff" stroke-width="2" stroke-linecap="round"/><path d="M232.37526,170.98849c0,-0.13807 0.11193,-0.25 0.25,-0.25c0.13807,0 0.25,0.11193 0.25,0.25c0,0.09695 -0.05518,0.181 -0.13585,0.22248c0.00901,0.0258 0.0139,0.05353 0.0139,0.0824c0,0.13807 -0.11193,0.25 -0.25,0.25c-0.13807,0 -0.25,-0.11193 -0.25,-0.25c0,-0.09695 0.05518,-0.181 0.13585,-0.22248c-0.00901,-0.0258 -0.0139,-0.05353 -0.0139,-0.0824z" fill="#ffffff" stroke="none" stroke-width="0.5" stroke-linecap="butt"/><path d="M240.62609,170.98241l7.625,7.625l-7.75,7.75v-14.75" fill="#ffffff" stroke="#ffffff" stroke-width="2" stroke-linecap="round"/></g></g></svg>