<svg version="1.1" xmlns="http://www.w3.org/2000/svg" xmlns:xlink="http://www.w3.org/1999/xlink" width="34.25068" height="34.3606" viewBox="0,0,34.25068,34.3606"><g transform="translate(-222.86587,-162.52146)"><g data-paper-data="{&quot;isPaintingLayer&quot;:true}" fill-rule="nonzero" stroke-linejoin="miter" stroke-miterlimit="10" stroke-dasharray="" stroke-dashoffset="0" style="mix-blend-mode: normal"><path d="M223.61796,180.00003c0,-9.04754 7.33448,-16.38204 16.38204,-16.38204c9.04754,0 16.38204,7.33448 16.38204,16.38204c0,9.04754 -7.33448,16.38204 -16.38204,16.38204c-9.04754,0 -16.38204,-7.33448 -16.38204,-16.38204z" fill="#ffe191" stroke="#000000" stroke-width="1" stroke-linecap="butt"/><path d="M223.36587,179.64681c0,-9.18192 7.44342,-16.62534 16.62534,-16.62534c9.18192,0 16.62534,7.44342 16.62534,16.62534c0,9.18192 -7.44342,16.62534 -16.62534,16.62534c-9.18192,0 -16.62534,-7.44342 -16.62534,-16.62534z" fill="#ffd768" stroke="#000000" stroke-width="1" stroke-linecap="butt"/><path d="M231.40349,180.00003c0,-4.74773 3.84879,-8.59651 8.59652,-8.59651c4.74773,0 8.59652,3.84878 8.59652,8.59651c0,4.74773 -3.84879,8.59652 -8.59652,8.59652c-4.74773,0 -8.59652,-3.84879 -8.59652,-8.59652z" fill="none" stroke="#ffffff" stroke-width="2.5" stroke-linecap="butt"/><path d="M230.6648,185.24266l5.83915,-0.1622" fill="none" stroke="#ffd768" stroke-width="2.5" stroke-linecap="round"/><path d="M240.0723,173.07778l-2.43297,-3.56837" fill="none" stroke="#ffd768" stroke-width="2.5" stroke-linecap="round"/><path d="M238.61252,184.75606l-6.65013,4.70376" fill="none" stroke="#ffffff" stroke-width="2.5" stroke-linecap="round"/><path d="M232.44899,191.4062l-0.811,-9.8941l9.24531,3.89276" fill="none" stroke="#ffffff" stroke-width="2.5" stroke-linecap="round"/><path d="M230.89536,185.40486c0,-1.933 1.567,-3.5 3.5,-3.5c1.933,0 3.5,1.567 3.5,3.5c0,1.933 -1.567,3.5 -3.5,3.5c-1.933,0 -3.5,-1.567 -3.5,-3.5z" fill="#ffffff" stroke="none" stroke-width="0.5" stroke-linecap="butt"/><path d="M242.50528,183.29627l-2.59518,2.59518" fill="none" stroke="#ffd768" stroke-width="2.5" stroke-linecap="round"/><path d="M231.47579,192.05499l2.91957,-1.45979l-1.94638,2.27078" fill="none" stroke="#ffd768" stroke-width="1" stroke-linecap="round"/><path d="M230.1782,191.89279l4.86595,-2.59518" fill="none" stroke="#ffd768" stroke-width="1" stroke-linecap="round"/><path d="M241.36989,183.29627l-3.24397,3.08177" fill="none" stroke="#ffd768" stroke-width="1" stroke-linecap="round"/><path d="M233.5459,188.82677v-11.375h11.375v11.375z" fill="#ffffff" stroke="#ffffff" stroke-width="2" stroke-linecap="butt"/><path d="M231.2959,177.82677l7.25,-8.875l8.125,8.375" fill="none" stroke="#ffffff" stroke-width="2" stroke-linecap="round"/><path d="M224.4209,179.57677c0,-8.69848 7.05152,-15.75 15.75,-15.75c8.69848,0 15.75,7.05152 15.75,15.75c0,8.69848 -7.05152,15.75 -15.75,15.75c-8.69848,0 -15.75,-7.05152 -15.75,-15.75z" fill="#ffd768" stroke="none" stroke-width="0.5" stroke-linecap="butt"/><text transform="translate(226.81047,182.64376) scale(0.22914,0.22914)" font-size="40" xml:space="preserve" fill="#ffffff" fill-rule="nonzero" stroke="none" stroke-width="1" stroke-linecap="butt" stroke-linejoin="miter" stroke-miterlimit="10" stroke-dasharray="" stroke-dashoffset="0" font-family="Sans Serif" font-weight="normal" text-anchor="start" style="mix-blend-mode: normal"><tspan x="0" dy="0">Home</tspan></text></g></g></svg>