<svg version="1.1" xmlns="http://www.w3.org/2000/svg" xmlns:xlink="http://www.w3.org/1999/xlink" width="132.86025" height="128.96255" viewBox="0,0,132.86025,128.96255"><g transform="translate(-168.7509,-35.84998)"><g data-paper-data="{&quot;isPaintingLayer&quot;:true}" fill-rule="nonzero" stroke-linejoin="miter" stroke-miterlimit="10" stroke-dasharray="" stroke-dashoffset="0" style="mix-blend-mode: normal"><path d="M209.465,55.7927c-1.1939,-1.0964 -0.8252,-3.4771 0,-4.8749c1.0007,-1.6707 2.9054,-3.2679 4.8749,-3.9885c2.597,-0.9431 5.5778,-1.8285 7.9771,-0.8863c10.0334,3.6065 24.6474,12.4132 28.363,14.1815c2.3878,1.1398 -9.1613,-4.422 -13.2952,-7.0908c-4.0169,-2.6661 -8.5284,-5.1036 -11.0793,-8.8634c-0.9404,-1.3943 -0.0044,-3.7271 1.3296,-4.8749c1.5094,-1.5281 3.8759,-2.1893 6.2044,-2.2159c2.9284,0.0009 5.7284,1.3889 8.4202,2.659c2.9365,1.4306 4.9565,2.6538 7.0908,4.4318c2.1839,1.7957 3.5578,3.7368 5.7612,6.2044c3.2485,3.7084 5.6558,8.2102 9.3066,11.5225c3.5667,3.236 8.5391,4.8775 12.4088,7.977c5.1825,4.617 10.9278,9.0239 14.6247,15.0679c4.2625,6.9693 7.1121,15.0235 8.4203,23.0449c0.8243,7.1963 1.6761,11.0235 0.4432,16.3974c-2.0909,7.9213 -5.2002,16.026 -10.193,22.6018c-3.5737,4.7065 -9.3031,7.8193 -14.6247,10.6361c-4.0683,2.1512 -8.5106,3.4763 -12.852,4.4317c-5.4687,0.9768 -11.0083,1.4749 -16.3973,1.3295c-6.6964,-0.1808 -13.5442,-0.3563 -19.9428,-2.659c-9.9075,-3.3814 -21.6081,-5.693 -28.363,-14.1815c-7.4346,-9.3651 -10.0245,-22.6337 -9.7498,-34.5674c0.3812,-10.0166 4.0657,-14.1558 7.0908,-20.8291c2.0279,-4.4743 4.7721,-8.6773 7.9771,-12.4088c3.3805,-3.9345 7.4586,-7.0704 11.5225,-10.193c2.8974,-2.2096 8.4034,-2.8123 9.3066,-5.7612c0.624,-2.051 -4.0285,-2.7051 -6.2044,-3.5454c-2.7167,-1.5325 -6.2488,-1.5458 -8.4203,-3.5454z" fill="#d6002d" stroke="#000000" stroke-width="2.65903" stroke-linecap="round"/><path d="M246.5723,132.1555c9.3564,0.6447 18.5447,4.1595 27.6267,7.3334c2.3668,0.8273 4.5265,2.7034 6.496,4.6956c1.2976,1.3126 2.1115,3.1349 3.0186,4.8537c0.2347,0.4453 0.6168,0.9508 0.4204,1.2663c-0.8988,1.2588 -2.12,2.0438 -3.2098,2.7434c-2.0573,1.319 -4.1214,2.5008 -6.3431,3.4293c-3.3373,1.4002 -6.745,2.6706 -10.1642,3.4821c-4.1657,0.9887 -8.4752,1.7895 -12.6097,2.0048c-5.1035,0.2575 -10.2368,-0.1224 -15.3227,-0.6859c-3.6499,-0.4041 -7.2632,-1.1934 -10.852,-2.0048c-2.8315,-0.8072 -5.6262,-1.8001 -8.4065,-2.849c-2.2766,-0.8589 -4.6113,-1.5426 -6.7634,-2.8489c-0.5388,-0.3451 -0.5143,-0.6743 -0.1146,-1.3717c1.5995,-2.792 3.2082,-5.8045 5.3496,-7.8611c3.6232,-3.4103 7.4932,-6.6475 11.7308,-8.3358c6.1895,-2.466 12.7504,-4.2903 19.1439,-3.8514z" fill="#e2c4a8" stroke="#e2c4a8" stroke-width="0.92126" stroke-linecap="round"/><path d="M294.4085,105.684c1.7646,2.8722 2.2551,5.4695 2.667,8.4084c0.34,2.7633 1.2831,5.6273 -0.4445,8.4454c-1.9669,2.9159 -5.9592,4.3953 -9.6308,4.5561c-3.2307,0.1363 -6.5259,-1.598 -8.7721,-4.1798c-2.2461,-2.5818 -3.6367,-6.1466 -3.6367,-10.0811c0,-3.9345 1.295,-7.389 3.6367,-10.0812c2.0543,-2.358 5.2643,-4.2271 8.2165,-3.6982c3.2626,0.5882 6.0726,3.7367 7.9639,6.6304z" fill="#a80023" stroke="none" stroke-width="0.74082" stroke-linecap="round"/><g fill="#000000" stroke="none" stroke-linecap="round"><path d="M175.5868,114.1618l10.7172,-3.2285l2.8157,3.7297l-10.7615,6.0441z" stroke-width="0.93235"/><path d="M172.4346,100.5683l17.7342,8.1914l-2.1105,4.1873l-19.3074,-2.826z" stroke-width="1.35559"/><path d="M183.6903,93.9576l7.3653,11.6286l-3.7445,3.0651l-10.7438,-7.8735z" stroke-width="1.00618"/></g><path d="M249.793,96.1287c2.9522,-0.529 6.1622,1.3401 8.2165,3.6982c2.3417,2.6921 3.6367,6.1466 3.6367,10.0811c0,3.9345 -1.3905,7.4994 -3.6367,10.0812c-2.2462,2.5817 -5.5414,4.316 -8.7721,4.1797c-3.6716,-0.1608 -7.6639,-1.6402 -9.6307,-4.5561c-1.7276,-2.8181 -0.7846,-5.6821 -0.4445,-8.4454c0.4119,-2.9388 0.9023,-5.5362 2.6669,-8.4083c1.8914,-2.8937 4.7013,-6.0422 7.9639,-6.6304z" fill="#a80023" stroke="none" stroke-width="0.74082" stroke-linecap="round"/><path d="M279.9294,95.0135c3.5453,0 6.7583,1.2666 9.085,3.3122c2.3266,2.0457 3.7669,4.8705 3.7669,7.9887c0,3.1181 -1.4403,5.9429 -3.7669,7.9886c-2.3267,2.0457 -5.5397,3.3122 -9.085,3.3122c-3.5454,0 -6.7442,-1.1345 -9.0851,-3.3122c-1.8897,-1.7506 -1.7656,-4.6675 -1.5511,-7.1023c-0.2145,-3.0295 -0.5406,-6.6653 1.5511,-8.875c2.1928,-2.3231 5.5397,-3.3122 9.0851,-3.3122z" fill="#ffffff" stroke="#000000" stroke-width="1.77269" stroke-linecap="round"/><path d="M257.7708,94.7919c3.5453,0 6.9196,0.9377 9.085,3.3122c2.0997,2.3001 2.2708,5.9722 2.4374,9.0966c-0.1666,2.4153 -0.6346,5.2463 -2.4374,6.8807c-2.379,2.1609 -5.5397,3.3123 -9.085,3.3123c-3.5454,0 -6.7584,-1.2666 -9.0851,-3.3123c-2.3266,-2.0457 -3.7669,-4.8705 -3.7669,-7.9886c0,-3.1182 1.4403,-5.943 3.7669,-7.9887c2.3267,-2.0456 5.5397,-3.3122 9.0851,-3.3122z" fill="#ffffff" stroke="#000000" stroke-width="1.77269" stroke-linecap="round"/><path d="M240.0439,85.9284l31.022,9.7498l22.6018,-7.9771l3.5454,9.3066l-27.0335,5.3181l-32.3516,-7.5339z" fill="#000000" stroke="none" stroke-width="0.88634" stroke-linecap="round"/><path d="M261.0945,102.3258c1.0397,0 1.981,0.4219 2.6626,1.1044c0.6825,0.6816 1.1044,1.6229 1.1044,2.6626c0,1.0396 -0.4219,1.9809 -1.1044,2.6625c-0.6816,0.6825 -1.6229,1.1044 -2.6626,1.1044c-1.0396,0 -1.9809,-0.4219 -2.6625,-1.1044c-0.6825,-0.6816 -1.1044,-1.6229 -1.1044,-2.6625c0,-1.0397 0.4219,-1.981 1.1044,-2.6626c0.6816,-0.6825 1.6229,-1.1044 2.6625,-1.1044z" fill="#000000" stroke="none" stroke-width="0.88634" stroke-linecap="butt"/><path d="M276.384,102.5474c1.0397,0 1.981,0.4219 2.6626,1.1044c0.6824,0.6816 1.1043,1.6229 1.1043,2.6626c0,1.0396 -0.4219,1.9809 -1.1043,2.6625c-0.6816,0.6825 -1.6229,1.1044 -2.6626,1.1044c-1.0397,0 -1.981,-0.4219 -2.6626,-1.1044c-0.6825,-0.6816 -1.1044,-1.6229 -1.1044,-2.6625c0,-1.0397 0.4219,-1.981 1.1044,-2.6626c0.6816,-0.6825 1.6229,-1.1044 2.6626,-1.1044z" fill="#000000" stroke="none" stroke-width="0.88634" stroke-linecap="butt"/><path d="M250.2368,128.0298l35.897,2.2158l-23.045,15.9542z" fill="#f59c1e" stroke="#000000" stroke-width="1.77269" stroke-linecap="round"/><path d="M256.8844,116.1528c3.7554,-2.7317 7.939,-4.2305 11.9657,-6.2044c1.0228,-0.492 -1.1558,-0.4468 0,0.4431c5.1948,3.2831 11.0988,5.5379 15.511,9.7498c3.2582,3.1111 5.2631,7.4054 7.0907,11.5225c0.4565,1.029 -0.3439,0.3448 -1.9942,0.3545c-6.3959,-0.1772 -12.8192,-0.2313 -19.278,-0.7977c-6.6742,-0.585 -13.3431,-1.5307 -19.9428,-2.659c-1.6264,-0.4467 -0.5309,-0.5983 -0.8863,-1.3295c0.3332,-1.8312 1.5617,-3.5383 2.659,-5.3181c1.3286,-2.1308 2.8452,-4.2864 4.8749,-5.7612z" fill="#fbba1e" stroke="#000000" stroke-width="1.77269" stroke-linecap="round"/><path d="M224.7458,101.7533c1.7686,-0.1221 3.4573,1.0139 4.7571,2.9475c1.2997,1.9336 2.2098,4.6655 2.4216,7.7344c0.2119,3.0689 -0.3141,5.8999 -1.3358,7.9938c-1.0217,2.0938 -2.5383,3.4512 -4.3069,3.5733c-1.7686,0.1221 -3.4574,-1.014 -4.7571,-2.9476c-1.2997,-1.9335 -2.2098,-4.6655 -2.4216,-7.7343c-0.2119,-3.0689 0.3141,-5.9 1.3358,-7.9938c1.0217,-2.0939 2.5383,-3.4512 4.3069,-3.5733z" fill="#a80023" stroke="none" stroke-width="0.756" stroke-linecap="butt"/><path d="M208.2384,113.1976c1.3014,-0.2412 2.6507,0.4576 3.7794,1.7811c1.1287,1.3235 2.0363,3.2722 2.4548,5.5304c0.4185,2.2581 0.2695,4.4027 -0.31,6.0427c-0.5795,1.6401 -1.5888,2.776 -2.8901,3.0172c-1.3014,0.2411 -2.6507,-0.4577 -3.7794,-1.7811c-1.1287,-1.3235 -2.0363,-3.2723 -2.4548,-5.5304c-0.4185,-2.2581 -0.2695,-4.4027 0.31,-6.0428c0.5795,-1.64 1.5887,-2.7759 2.8901,-3.0171z" fill="#a80023" stroke="none" stroke-width="0.56441" stroke-linecap="butt"/></g></g></svg>