<svg version="1.1" xmlns="http://www.w3.org/2000/svg" xmlns:xlink="http://www.w3.org/1999/xlink" width="34.25068" height="34.3606" viewBox="0,0,34.25068,34.3606"><g transform="translate(-222.86587,-162.52143)"><g data-paper-data="{&quot;isPaintingLayer&quot;:true}" fill-rule="nonzero" stroke-linejoin="miter" stroke-miterlimit="10" stroke-dasharray="" stroke-dashoffset="0" style="mix-blend-mode: normal"><path d="M223.61796,180c0,-9.04754 7.33448,-16.38204 16.38204,-16.38204c9.04754,0 16.38204,7.33448 16.38204,16.38204c0,9.04754 -7.33448,16.38204 -16.38204,16.38204c-9.04754,0 -16.38204,-7.33448 -16.38204,-16.38204z" fill="#ffe191" stroke="#000000" stroke-width="1" stroke-linecap="butt"/><path d="M223.36587,179.64678c0,-9.18192 7.44342,-16.62534 16.62534,-16.62534c9.18192,0 16.62534,7.44342 16.62534,16.62534c0,9.18192 -7.44342,16.62534 -16.62534,16.62534c-9.18192,0 -16.62534,-7.44342 -16.62534,-16.62534z" fill="#ffd768" stroke="#000000" stroke-width="1" stroke-linecap="butt"/><path d="M231.40349,180c0,-4.74773 3.84879,-8.59651 8.59652,-8.59651c4.74773,0 8.59652,3.84878 8.59652,8.59651c0,4.74773 -3.84879,8.59652 -8.59652,8.59652c-4.74773,0 -8.59652,-3.84879 -8.59652,-8.59652z" fill="none" stroke="#ffffff" stroke-width="2.5" stroke-linecap="butt"/><path d="M227.327,182.48525c0,-0.55295 0.12822,-1.07595 0.35656,-1.54089c-0.22834,-0.46493 -0.35656,-0.98793 -0.35656,-1.54088c0,-0.75631 0.23988,-1.45659 0.64772,-2.02891c-0.10468,-0.33229 -0.16113,-0.68598 -0.16113,-1.05286c0,-1.933 1.567,-3.5 3.5,-3.5c0.42989,0 0.84168,0.0775 1.22215,0.2193c0.18075,-1.76333 1.67053,-3.13887 3.48159,-3.13887c1.933,0 3.5,1.567 3.5,3.5c0,1.933 -1.567,3.5 -3.5,3.5c-0.42989,0 -0.84168,-0.0775 -1.22215,-0.2193c-0.06331,0.61766 -0.28724,1.18774 -0.62932,1.66778c0.10468,0.33229 0.16113,0.68599 0.16113,1.05286c0,0.55295 -0.12823,1.07595 -0.35657,1.54088c0.22834,0.46493 0.35657,0.98793 0.35657,1.54089c0,1.933 -1.567,3.5 -3.5,3.5c-1.933,0 -3.5,-1.567 -3.5,-3.5z" fill="#ffd768" stroke="none" stroke-width="0.5" stroke-linecap="butt"/><path d="M230.6648,185.24263l5.83915,-0.1622" fill="none" stroke="#ffd768" stroke-width="2.5" stroke-linecap="round"/><path d="M237.63933,169.50938l2.43297,3.56837" fill="none" stroke="#ffd768" stroke-width="2.5" stroke-linecap="round"/><path d="M231.96239,189.45979l6.65013,-4.70376" fill="none" stroke="#ffffff" stroke-width="2.5" stroke-linecap="round"/><path d="M240.8833,185.40483l-9.24531,-3.89276l0.811,9.8941" fill="none" stroke="#ffffff" stroke-width="2.5" stroke-linecap="round"/><path d="M230.89536,185.40483c0,-1.933 1.567,-3.5 3.5,-3.5c1.933,0 3.5,1.567 3.5,3.5c0,1.933 -1.567,3.5 -3.5,3.5c-1.933,0 -3.5,-1.567 -3.5,-3.5z" fill="#ffffff" stroke="none" stroke-width="0.5" stroke-linecap="butt"/><path d="M242.50528,183.29625l-2.59518,2.59518" fill="none" stroke="#ffd768" stroke-width="2.5" stroke-linecap="round"/><path d="M232.44898,192.86595l1.94638,-2.27078l-2.91957,1.45979" fill="none" stroke="#ffd768" stroke-width="1" stroke-linecap="round"/><path d="M230.1782,191.89276l4.86595,-2.59518" fill="none" stroke="#ffd768" stroke-width="1" stroke-linecap="round"/><path d="M241.36989,183.29625l-3.24397,3.08177" fill="none" stroke="#ffd768" stroke-width="1" stroke-linecap="round"/><path d="M240.04549,185.72922c0,-0.55228 0.44772,-1 1,-1c0.14435,0 0.28156,0.03059 0.4055,0.08563c0.12394,-0.05504 0.26114,-0.08563 0.4055,-0.08563c0.55228,0 1,0.44772 1,1c0,0.55228 -0.44772,1 -1,1c-0.14435,0 -0.28156,-0.03059 -0.4055,-0.08563c-0.12394,0.05504 -0.26114,0.08563 -0.4055,0.08563c-0.55228,0 -1,-0.44772 -1,-1z" fill="#ffd768" stroke="none" stroke-width="0.5" stroke-linecap="butt"/><path d="M233.23316,191.24397c0,-0.55228 0.44772,-1 1,-1c0.55228,0 1,0.44772 1,1c0,0.55228 -0.44772,1 -1,1c-0.24514,0 -0.46968,-0.08821 -0.6436,-0.23461c0.01417,0.06704 0.02162,0.13655 0.02162,0.2078c0,0.55228 -0.44772,1 -1,1c-0.55228,0 -1,-0.44772 -1,-1c0,-0.55228 0.44772,-1 1,-1c0.24514,0 0.46968,0.08821 0.6436,0.23461c-0.01417,-0.06704 -0.02162,-0.13655 -0.02162,-0.2078z" fill="#ffd768" stroke="none" stroke-width="0.5" stroke-linecap="butt"/><path d="M229.016,189.45978c0,-0.55228 0.44772,-1 1,-1c0.55228,0 1,0.44772 1,1c0,0.55228 -0.44772,1 -1,1c-0.55228,0 -1,-0.44772 -1,-1z" fill="#ffd768" stroke="none" stroke-width="0.5" stroke-linecap="butt"/></g></g></svg>