<svg version="1.1" xmlns="http://www.w3.org/2000/svg" xmlns:xlink="http://www.w3.org/1999/xlink" width="164.8842" height="164.8842" viewBox="0,0,164.8842,164.8842"><defs><linearGradient x1="232.2087" y1="162.2402" x2="232.2087" y2="235.261" gradientUnits="userSpaceOnUse" id="color-1"><stop offset="0" stop-color="#1bc6ff"/><stop offset="1" stop-color="#66a9c3"/></linearGradient><linearGradient x1="211.0506" y1="121.5551" x2="211.0506" y2="194.5759" gradientUnits="userSpaceOnUse" id="color-2"><stop offset="0" stop-color="#1bc6ff"/><stop offset="1" stop-color="#66a9c3"/></linearGradient><linearGradient x1="191.6999" y1="164.2678" x2="191.6999" y2="237.2886" gradientUnits="userSpaceOnUse" id="color-3"><stop offset="0" stop-color="#1bc6ff"/><stop offset="1" stop-color="#66a9c3"/></linearGradient></defs><g transform="translate(-157.5579,-97.5579)"><g data-paper-data="{&quot;isPaintingLayer&quot;:true}" fill-rule="nonzero" stroke-linejoin="miter" stroke-miterlimit="10" stroke-dasharray="" stroke-dashoffset="0" style="mix-blend-mode: normal"><path d="M157.8079,180c0,-45.39344 36.79866,-82.1921 82.1921,-82.1921c45.39344,0 82.1921,36.79866 82.1921,82.1921c0,45.39344 -36.79866,82.1921 -82.1921,82.1921c-45.39344,0 -82.1921,-36.79866 -82.1921,-82.1921z" fill="#ffd768" stroke="#000000" stroke-width="0.5" stroke-linecap="butt"/><g><path d="M221.128,204.916l-2.7598,-5.5923l17.6627,5.0839l-2.7598,8.6425l-8.8314,5.5922l-3.8637,-2.5419l10.4872,-8.1341z" fill="#000000" stroke="none" stroke-width="0.53062" stroke-linecap="round"/><path d="M247.1116,166.7095c0.5,-2.2293 6.4629,-3.7188 9.9352,-2.7684c3.962,1.0093 8.4478,7.8703 8.8314,7.7151c0.3748,-0.1584 -6.6274,-5.7446 -6.0716,-8.2597c0.3974,-1.7169 5.5699,-1.3561 7.1755,0c4.9075,3.3297 6.9839,8.5525 10.4872,12.7073c2.3105,2.7398 6.2946,4.6196 7.7275,7.7379c3.5082,7.6294 7.1694,15.8837 7.1754,24.28c-0.4123,6.3909 -3.0435,13.3223 -8.345,18.2941c-5.2701,4.9404 -13.0853,8.8452 -21.4608,8.8452c-8.3754,0 -15.9648,-3.382 -21.4607,-8.8452c-5.4953,-5.4633 -8.897,-13.0083 -8.897,-21.3347c0,-8.3265 4.2892,-14.854 8.897,-21.3347c2.2034,-3.0956 7.1092,-4.0206 9.8696,-6.5534c1.7094,-1.1899 3.8836,-2.7611 3.3117,-4.4249c-0.9488,-2.772 -7.6694,-3.7359 -7.1754,-6.0586z" fill="url(#color-1)" stroke="#000000" stroke-width="2.52642" stroke-linecap="round"/><g stroke="#000000" stroke-linecap="round"><path d="M266.1357,195.3998c1.7513,0 3.3382,0.7733 4.4874,2.0224c1.1486,1.2485 1.8601,2.9734 1.8601,4.8771c0,1.9037 -0.7115,3.6286 -1.8601,4.8771c-1.1492,1.2491 -2.7361,2.0224 -4.4874,2.0224c-1.7514,0 -3.2621,-0.9372 -4.4874,-2.0224c-2.3426,-2.0765 -5.7818,-4.7203 -5.7239,-7.9129c-0.0579,-1.6851 3.7373,-0.9769 5.7239,-1.8413c1.5013,-0.6508 2.736,-2.0224 4.4874,-2.0224z" fill="#cd4e29" stroke-width="1.65588"/><path d="M262.5533,188.2184c2.2798,0 4.3455,0.7481 5.8411,1.9557c1.4955,1.2083 2.1177,2.9809 2.4215,4.718c0.2536,1.4638 0.0744,3.3629 -1.2711,4.1313c-1.8191,1.5445 -4.4517,1.8343 -6.9915,1.9068c-2.3638,0.0667 -5.1165,0.4093 -6.9915,-1.2712c-1.4364,-0.7398 -1.5515,-2.8754 -1.2712,-4.7669c0.2485,-1.7453 0.9261,-3.5097 2.4216,-4.718c1.4956,-1.2076 3.5612,-1.9557 5.8411,-1.9557z" fill="#ffffff" stroke-width="1.90677"/></g><g stroke="#000000" stroke-linecap="round"><path d="M284.5608,195.3998c1.7514,0 3.3382,0.7733 4.4874,2.0224c1.1486,1.2485 1.8601,2.9734 1.8601,4.8771c0,1.9037 -0.7115,3.6286 -1.8601,4.8771c-1.1492,1.2491 -2.736,2.0224 -4.4874,2.0224c-1.7514,0 -3.2621,-0.9372 -4.4874,-2.0224c-2.3426,-2.0765 -5.7818,-4.7203 -5.7239,-7.9129c-0.0579,-1.6851 3.7374,-0.9769 5.7239,-1.8413c1.5013,-0.6508 2.736,-2.0224 4.4874,-2.0224z" fill="#cd4e29" stroke-width="1.65588"/><path d="M280.9784,188.2184c2.2798,0 4.3455,0.7481 5.8411,1.9557c1.4955,1.2083 2.1177,2.9809 2.4216,4.718c0.2536,1.4638 0.0743,3.3629 -1.2712,4.1313c-1.8191,1.5445 -4.4517,1.8343 -6.9915,1.9068c-2.3638,0.0667 -5.1165,0.4093 -6.9915,-1.2712c-1.4364,-0.7398 -1.5515,-2.8754 -1.2712,-4.7669c0.2485,-1.7453 0.9261,-3.5097 2.4216,-4.718c1.4956,-1.2076 3.5612,-1.9557 5.8411,-1.9557z" fill="#ffffff" stroke-width="1.90677"/></g><path d="M267.2127,192.709c0.6855,0 1.3065,0.3091 1.7558,0.8087c0.4498,0.5 0.728,1.19 0.728,1.9511c0,0.7612 -0.2782,1.4511 -0.728,1.9512c-0.4493,0.4995 -1.0703,0.8086 -1.7558,0.8086c-0.6855,0 -1.3065,-0.3091 -1.7558,-0.8086c-0.4498,-0.5001 -0.728,-1.19 -0.728,-1.9512c0,-0.7611 0.2782,-1.4511 0.728,-1.9511c0.4493,-0.4996 1.0703,-0.8087 1.7558,-0.8087z" fill="#000000" stroke="none" stroke-width="0.55196" stroke-linecap="butt"/><path d="M285.1514,192.709c0.7611,0 1.4511,0.2782 1.9512,0.7281c0.4995,0.4493 0.8086,1.0702 0.8086,1.7558c0,0.6855 -0.3091,1.3064 -0.8086,1.7557c-0.5001,0.4499 -1.1901,0.7281 -1.9512,0.7281c-0.7612,0 -1.4511,-0.2782 -1.9512,-0.7281c-0.4995,-0.4493 -0.8086,-1.0702 -0.8086,-1.7557c0,-0.6856 0.3091,-1.3065 0.8086,-1.7558c0.5001,-0.4499 1.19,-0.7281 1.9512,-0.7281z" fill="#000000" stroke="none" stroke-width="0.55196" stroke-linecap="butt"/><g fill="#fead12" stroke="#000000" stroke-linecap="round"><path d="M273.7082,195.1426l24.9632,14.8204l-36.7105,-0.8234z" stroke-width="1.809"/><path d="M261.9171,209.1516l10.4918,-0.5635l18.8467,1.216l-20.8045,10.627z" stroke-width="1.44588"/></g></g><g><path d="M199.97,164.1868l-2.7598,-5.5922l17.6627,5.0838l-2.7598,8.6425l-8.8314,5.5922l-3.8637,-2.5419l10.4872,-8.1341z" fill="#000000" stroke="none" stroke-width="0.53062" stroke-linecap="round"/><path d="M225.9536,126.0244c0.5,-2.2293 6.4628,-3.7188 9.9352,-2.7684c3.962,1.0093 8.4478,7.8704 8.8314,7.7151c0.3748,-0.1583 -6.6274,-5.7446 -6.0716,-8.2597c0.3974,-1.7169 5.5698,-1.3561 7.1755,0c4.9075,3.3298 6.9839,8.5525 10.4872,12.7073c2.3105,2.7398 6.2946,4.6196 7.7275,7.7379c3.5082,7.6294 7.1694,15.8837 7.1754,24.28c-0.4123,6.3909 -3.0435,13.3223 -8.3451,18.2941c-5.2701,4.9404 -13.0853,8.8452 -21.4607,8.8452c-8.3754,0 -15.9649,-3.382 -21.4607,-8.8452c-5.4953,-5.4633 -8.8971,-13.0083 -8.8971,-21.3347c0,-8.3265 4.2893,-14.854 8.8971,-21.3347c2.2034,-3.0956 7.1092,-4.0205 9.8696,-6.5534c1.7094,-1.1899 3.8836,-2.7611 3.3117,-4.4249c-0.9488,-2.772 -7.6695,-3.7359 -7.1754,-6.0586z" fill="url(#color-2)" stroke="#000000" stroke-width="2.52642" stroke-linecap="round"/><g stroke="#000000" stroke-linecap="round"><path d="M244.9777,154.6706c1.7513,0 3.3382,0.7733 4.4874,2.0224c1.1486,1.2485 1.8601,2.9734 1.8601,4.8771c0,1.9037 -0.7115,3.6286 -1.8601,4.8771c-1.1492,1.2491 -2.7361,2.0224 -4.4874,2.0224c-1.7514,0 -3.2621,-0.9372 -4.4875,-2.0224c-2.3425,-2.0764 -5.7817,-4.7203 -5.7238,-7.9129c-0.0579,-1.6851 3.7373,-0.9769 5.7238,-1.8413c1.5014,-0.6507 2.7361,-2.0224 4.4875,-2.0224z" fill="#cd4e29" stroke-width="1.65588"/><path d="M241.4393,147.4892c2.2799,0 4.3456,0.7481 5.8411,1.9557c1.4956,1.2083 2.1178,2.9809 2.4216,4.718c0.2536,1.4638 0.0744,3.3629 -1.2712,4.1313c-1.819,1.5445 -4.4516,1.8344 -6.9915,1.9068c-2.3637,0.0668 -5.1164,0.4093 -6.9914,-1.2712c-1.4365,-0.7398 -1.5515,-2.8754 -1.2712,-4.7669c0.2485,-1.7453 0.926,-3.5097 2.4216,-4.718c1.4955,-1.2076 3.5612,-1.9557 5.841,-1.9557z" fill="#ffffff" stroke-width="1.90677"/></g><g stroke="#000000" stroke-linecap="round"><path d="M263.4028,154.6706c1.7513,0 3.3382,0.7733 4.4874,2.0224c1.1486,1.2485 1.8601,2.9734 1.8601,4.8771c0,1.9037 -0.7115,3.6286 -1.8601,4.8771c-1.1492,1.2491 -2.7361,2.0224 -4.4874,2.0224c-1.7514,0 -3.2621,-0.9372 -4.4875,-2.0224c-2.3425,-2.0764 -5.7817,-4.7203 -5.7238,-7.9129c-0.0579,-1.6851 3.7373,-0.9769 5.7238,-1.8413c1.5014,-0.6507 2.7361,-2.0224 4.4875,-2.0224z" fill="#cd4e29" stroke-width="1.65588"/><path d="M259.8204,147.4892c2.2798,0 4.3455,0.7481 5.841,1.9557c1.4956,1.2083 2.1178,2.9809 2.4216,4.718c0.2536,1.4638 0.0744,3.3629 -1.2711,4.1313c-1.8191,1.5445 -4.4517,1.8344 -6.9915,1.9068c-2.3638,0.0668 -5.1165,0.4093 -6.9915,-1.2712c-1.4364,-0.7398 -1.5515,-2.8754 -1.2712,-4.7669c0.2485,-1.7453 0.9261,-3.5097 2.4216,-4.718c1.4955,-1.2076 3.5612,-1.9557 5.8411,-1.9557z" fill="#ffffff" stroke-width="1.90677"/></g><path d="M246.0547,151.9358c0.6855,0 1.3065,0.3091 1.7558,0.8086c0.4498,0.5001 0.728,1.19 0.728,1.9512c0,0.7611 -0.2782,1.4511 -0.728,1.9512c-0.4493,0.4995 -1.0703,0.8086 -1.7558,0.8086c-0.6855,0 -1.3065,-0.3091 -1.7558,-0.8086c-0.4498,-0.5001 -0.728,-1.1901 -0.728,-1.9512c0,-0.7612 0.2782,-1.4511 0.728,-1.9512c0.4493,-0.4995 1.0703,-0.8086 1.7558,-0.8086z" fill="#000000" stroke="none" stroke-width="0.55196" stroke-linecap="butt"/><path d="M263.9934,151.9358c0.7611,0 1.4511,0.2782 1.9512,0.728c0.4995,0.4493 0.8086,1.0703 0.8086,1.7558c0,0.6855 -0.3091,1.3065 -0.8086,1.7558c-0.5001,0.4498 -1.1901,0.728 -1.9512,0.728c-0.7612,0 -1.4511,-0.2782 -1.9512,-0.728c-0.4995,-0.4493 -0.8086,-1.0703 -0.8086,-1.7558c0,-0.6855 0.3091,-1.3065 0.8086,-1.7558c0.5001,-0.4498 1.19,-0.728 1.9512,-0.728z" fill="#000000" stroke="none" stroke-width="0.55196" stroke-linecap="butt"/><g fill="#fead12" stroke="#000000" stroke-linecap="round"><path d="M252.5502,154.4575l24.9632,14.8204l-36.7106,-0.8234z" stroke-width="1.809"/><path d="M240.7591,168.4665l10.4918,-0.5635l18.8466,1.216l-20.8044,10.627z" stroke-width="1.44588"/></g></g><g><path d="M180.6633,206.9436l-2.7598,-5.5922l17.6627,5.0838l-2.7598,8.6425l-8.8314,5.5923l-3.8637,-2.542l10.4872,-8.1341z" fill="#000000" stroke="none" stroke-width="0.53062" stroke-linecap="round"/><path d="M206.6028,168.7371c0.5001,-2.2292 6.4629,-3.7187 9.9353,-2.7684c3.9619,1.0093 8.4477,7.8704 8.8313,7.7152c0.3748,-0.1584 -6.6274,-5.7446 -6.0715,-8.2598c0.3974,-1.7168 5.5698,-1.356 7.1754,0c4.9075,3.3298 6.984,8.5525 10.4873,12.7073c2.3105,2.7398 6.2945,4.6196 7.7274,7.7379c3.5082,7.6294 7.1694,15.8837 7.1755,24.2801c-0.4124,6.3909 -3.0435,13.3223 -8.3451,18.294c-5.2701,4.9404 -13.0853,8.8452 -21.4608,8.8452c-8.3754,0 -15.9648,-3.3819 -21.4607,-8.8452c-5.4953,-5.4632 -8.897,-13.0082 -8.897,-21.3347c0,-8.3265 4.2893,-14.854 8.897,-21.3347c2.2034,-3.0956 7.1093,-4.0205 9.8696,-6.5534c1.7094,-1.1899 3.8836,-2.7611 3.3118,-4.4248c-0.9489,-2.772 -7.6695,-3.736 -7.1755,-6.0587z" fill="url(#color-3)" stroke="#000000" stroke-width="2.52642" stroke-linecap="round"/><g stroke="#000000" stroke-linecap="round"><path d="M225.671,197.4715c1.7513,0 3.3382,0.7733 4.4874,2.0224c1.1486,1.2485 1.8601,2.9734 1.8601,4.8771c0,1.9037 -0.7115,3.6286 -1.8601,4.8771c-1.1492,1.2491 -2.7361,2.0224 -4.4874,2.0224c-1.7514,0 -3.2621,-0.9372 -4.4874,-2.0224c-2.3426,-2.0764 -5.7818,-4.7203 -5.7239,-7.9129c-0.0579,-1.6851 3.7373,-0.9769 5.7239,-1.8413c1.5013,-0.6508 2.736,-2.0224 4.4874,-2.0224z" fill="#cd4e29" stroke-width="1.65588"/><path d="M222.0886,190.246c2.2798,0 4.3455,0.7481 5.8411,1.9558c1.4955,1.2082 2.1177,2.9809 2.4215,4.7179c0.2536,1.4638 0.0744,3.3629 -1.2711,4.1314c-1.8191,1.5444 -4.4517,1.8343 -6.9915,1.9067c-2.3638,0.0668 -5.1165,0.4094 -6.9915,-1.2711c-1.4364,-0.7399 -1.5515,-2.8755 -1.2712,-4.767c0.2485,-1.7453 0.9261,-3.5097 2.4216,-4.7179c1.4956,-1.2077 3.5612,-1.9558 5.8411,-1.9558z" fill="#ffffff" stroke-width="1.90677"/></g><g stroke="#000000" stroke-linecap="round"><path d="M244.0961,197.4715c1.7514,0 3.3382,0.7733 4.4874,2.0224c1.1486,1.2485 1.8601,2.9734 1.8601,4.8771c0,1.9037 -0.7115,3.6286 -1.8601,4.8771c-1.1492,1.2491 -2.736,2.0224 -4.4874,2.0224c-1.7514,0 -3.2621,-0.9372 -4.4874,-2.0224c-2.3426,-2.0764 -5.7818,-4.7203 -5.7239,-7.9129c-0.0579,-1.6851 3.7374,-0.9769 5.7239,-1.8413c1.5013,-0.6508 2.736,-2.0224 4.4874,-2.0224z" fill="#cd4e29" stroke-width="1.65588"/><path d="M240.5137,190.246c2.2798,0 4.3455,0.7481 5.8411,1.9558c1.4955,1.2082 2.1177,2.9809 2.4216,4.7179c0.2536,1.4638 0.0743,3.3629 -1.2712,4.1314c-1.8191,1.5444 -4.4517,1.8343 -6.9915,1.9067c-2.3638,0.0668 -5.1165,0.4094 -6.9915,-1.2711c-1.4364,-0.7399 -1.5515,-2.8755 -1.2712,-4.767c0.2485,-1.7453 0.9261,-3.5097 2.4216,-4.7179c1.4956,-1.2077 3.5612,-1.9558 5.8411,-1.9558z" fill="#ffffff" stroke-width="1.90677"/></g><path d="M226.748,194.7367c0.6855,0 1.3065,0.3091 1.7558,0.8086c0.4498,0.5001 0.728,1.19 0.728,1.9512c0,0.7611 -0.2782,1.4511 -0.728,1.9512c-0.4493,0.4995 -1.0703,0.8086 -1.7558,0.8086c-0.6855,0 -1.3065,-0.3091 -1.7558,-0.8086c-0.4498,-0.5001 -0.728,-1.1901 -0.728,-1.9512c0,-0.7612 0.2782,-1.4511 0.728,-1.9512c0.4493,-0.4995 1.0703,-0.8086 1.7558,-0.8086z" fill="#000000" stroke="none" stroke-width="0.55196" stroke-linecap="butt"/><path d="M244.6867,194.7367c0.7611,0 1.4511,0.2782 1.9512,0.728c0.4995,0.4493 0.8086,1.0703 0.8086,1.7558c0,0.6855 -0.3091,1.3065 -0.8086,1.7558c-0.5001,0.4498 -1.1901,0.728 -1.9512,0.728c-0.7612,0 -1.4511,-0.2782 -1.9512,-0.728c-0.4995,-0.4493 -0.8086,-1.0703 -0.8086,-1.7558c0,-0.6855 0.3091,-1.3065 0.8086,-1.7558c0.5001,-0.4498 1.19,-0.728 1.9512,-0.728z" fill="#000000" stroke="none" stroke-width="0.55196" stroke-linecap="butt"/><g fill="#fead12" stroke="#000000" stroke-linecap="round"><path d="M233.2435,197.2143l24.9632,14.8204l-36.7105,-0.8234z" stroke-width="1.809"/><path d="M221.4524,211.2234l10.4918,-0.5635l18.8467,1.2159l-20.8045,10.627z" stroke-width="1.44588"/></g></g></g></g></svg>