<svg version="1.1" xmlns="http://www.w3.org/2000/svg" xmlns:xlink="http://www.w3.org/1999/xlink" width="58.15765" height="55.99507" viewBox="0,0,58.15765,55.99507"><g transform="translate(-210.92118,-152.00247)"><g data-paper-data="{&quot;isPaintingLayer&quot;:true}" fill-rule="nonzero" stroke="none" stroke-linecap="butt" stroke-linejoin="miter" stroke-miterlimit="10" stroke-dasharray="" stroke-dashoffset="0" style="mix-blend-mode: normal"><path d="M263.55646,180.78555c0,3.06339 -3.45199,5.80504 -4.52475,8.00244c-0.84485,1.73055 0.21793,3.42564 -0.61561,4.78578c-2.7678,4.51638 -4.06494,3.61422 -10.94329,7.71634c-0.30007,0.17895 -7.5371,7.44959 -11.46017,4.67784c-3.55755,-2.51349 -7.44319,-2.69527 -7.45364,-4.20482c-0.02072,-2.99242 14.58568,-0.2806 15.07323,-1.63338c1.14878,-3.18751 3.69536,-6.64398 1.62384,-8.26111c-4.50589,-3.51752 -20.51975,0.34419 -23.53364,-2.93746c-4.0555,-4.41581 -3.86065,-3.46187 -3.86065,-9.12001c0,-3.15577 1.48893,-3.75448 0.39317,-6.45435c-1.51298,-3.72785 2.2361,-7.97688 4.60564,-10.5749c3.24857,-3.56181 16.86934,-6.04364 21.44239,-6.04364c5.47144,0 11.06753,0.0391 14.48622,4.93307c3.03229,4.34082 4.76726,12.7747 4.76726,19.11424z" fill="#809074" stroke-width="0"/><path d="M220.6456,184.69295c0.01938,-0.06897 0.02772,-0.14087 0.023,-0.21611c-0.04869,-0.77507 -0.71048,-1.4071 -1.09896,-2.07955c-0.99778,-1.72713 -1.98686,-2.37476 -1.13189,-4.49084c0.28786,-0.71245 1.23291,-1.09231 1.78428,-1.63112c0.22339,0.08607 0.42396,0.08476 0.42396,0.08476c1.10967,0 3.97829,-0.46681 4.87059,0.29814c3.13214,2.68514 -0.46822,9.29373 -4.35197,8.165z" data-paper-data="{&quot;noHover&quot;:false,&quot;origItem&quot;:[&quot;Path&quot;,{&quot;applyMatrix&quot;:true,&quot;segments&quot;:[[[382.34127,250.4895],[0,0],[9.2986,2.70246]],[[392.67061,231.11496],[7.49908,6.42886],[-2.13637,-1.83148]],[[381.10993,230.41486],[2.65682,0],[0,0]],[[380.10159,230.2088],[0.53485,0.20606],[-1.3201,1.29004]],[[375.86718,234.0808],[0.6892,-1.70578],[-2.04701,5.0664]],[[378.57856,244.72341],[-2.38891,-4.13516],[0.93011,1.61]],[[381.16638,249.66486],[-0.11659,-1.85569],[0.01132,0.18014]],[[381.10994,250.18167],[0.0464,-0.16513],[0,0]]],&quot;closed&quot;:true}]}" fill="#ded8b6" stroke-width="0.5"/><g stroke-width="0.5"><path d="M244.31788,173.23493c-2.11738,1.62535 -4.04278,5.1808 -3.45888,7.63573c0.68297,2.87145 3.38172,4.03418 5.89848,4.68546c1.77672,-0.01516 4.53801,0.527 6.14509,-0.39438c4.66255,-2.67314 3.006,-10.7386 -1.82713,-11.91367c-1.874,-0.48496 -4.12101,-0.75236 -6.01959,-0.26104l-0.70618,0.23863c0,0 -0.01126,0.00376 -0.03178,0.00926zM245.35507,170.79981c2.05327,-0.32684 4.23513,-0.06192 6.22687,0.42228c6.54683,1.67319 8.68337,12.1446 2.34956,15.75696c-2.06024,1.17501 -5.16157,0.66494 -7.42918,0.64979c-1.59267,-0.38719 -3.30636,-0.75707 -4.65966,-1.75553c-5.42226,-4.00051 -2.69397,-12.3708 2.49296,-15.09425c0,0 0.552,-0.276 1.01944,0.02075z" fill="#000000"/><path d="M244.32702,173.19057l0.70995,-0.2408c1.89859,-0.49131 4.18255,-0.2243 6.05656,0.26066c4.83313,1.17506 6.49747,9.31097 1.83492,11.98412c-1.60709,0.92137 -4.40357,0.38714 -6.18029,0.4023c-2.51676,-0.65128 -5.24693,-1.84555 -5.92989,-4.717c-0.58389,-2.45492 1.35946,-6.05457 3.47683,-7.67992c0.02052,-0.0055 0.03194,-0.00936 0.03194,-0.00936z" data-paper-data="{&quot;noHover&quot;:false,&quot;origItem&quot;:[&quot;Path&quot;,{&quot;applyMatrix&quot;:true,&quot;segments&quot;:[[[341.31875,140.25102],[0.04912,-0.01318],[-5.0695,3.89148]],[[333.03738,158.53276],[-1.39799,-5.87767],[1.63518,6.87491]],[[347.15972,169.75087],[-6.02571,-1.55933],[4.25387,-0.03631]],[[361.87251,168.80664],[-3.84773,2.20599],[11.16324,-6.40013]],[[357.49792,140.2825],[11.57166,2.81339],[-4.48681,-1.1611]],[[343.0856,139.6575],[4.54565,-1.17632],[0,0]],[341.39483,140.22885]],&quot;closed&quot;:true}]}" fill="#ded8b6"/></g><path d="M247.63677,179.09679c0,-0.57668 0.46749,-1.04417 1.04417,-1.04417c0.57669,0 1.04417,0.4675 1.04417,1.04417c0,0.57668 -0.46749,1.04417 -1.04417,1.04417c-0.57669,0 -1.04417,-0.4675 -1.04417,-1.04417z" fill="#000000" stroke-width="0.5"/><path d="M220.48822,180.40202c0,-0.57668 0.46749,-1.04417 1.04417,-1.04417c0.57669,0 1.04417,0.4675 1.04417,1.04417c0,0.57668 -0.46749,1.04417 -1.04417,1.04417c-0.57669,0 -1.04417,-0.4675 -1.04417,-1.04417z" fill="#000000" stroke-width="0.5"/><path d="M230.92995,186.40602c-1.04417,0 -1.04417,-1.04417 -1.04417,-1.04417l0.03117,-0.77534c0.08701,-0.34805 0.17403,-0.69612 0.26104,-1.04417c0,0 0.25325,-1.013 1.26625,-0.75975c1.013,0.25325 0.75974,1.26625 0.75974,1.26625c-0.08701,0.34805 -0.17403,0.69612 -0.26104,1.04417l0.03118,0.26884c0,0 0,1.04417 -1.04417,1.04417z" fill="#000000" stroke-width="0.5"/><path d="M237.17761,183.55578c0.80052,0.14827 0.80052,1.02294 0.80052,1.02294l-1.78252,0.99939c-0.83956,-0.85751 -1.24213,-1.78814 -2.08835,-2.61044c0,0 -0.73834,-0.73835 0,-1.47669c0.73834,-0.73835 1.47669,0 1.47669,0c0.65839,0.67247 1.04804,1.38991 1.59365,2.0648z" fill="#000000" stroke-width="0.5"/><path d="M253.27857,193.61752c-0.44301,-0.44301 0,-0.88601 0,-0.88601l0.04755,0.046c0.34263,-1.00183 1.10741,-1.9722 1.38696,-2.96679c0.45335,-1.61287 -0.01172,-2.40856 1.64433,-3.52198c0,0 0.52129,-0.34753 0.8688,0.17376c0.34752,0.52129 -0.17376,0.86881 -0.17376,0.86881c-1.31426,0.86736 -0.74329,1.47087 -1.14014,2.84251c-0.29538,1.02098 -1.06767,1.9759 -1.3975,2.99992l-0.35024,0.44378c0,0 -0.44301,0.44301 -0.88601,0z" fill="#000000" stroke-width="0.5"/><path d="M240.62464,167.91543c0,0.6265 -0.6265,0.6265 -0.6265,0.6265l-0.44473,-0.01871c-3.76217,0.93823 -7.26315,0.96862 -11.09092,1.01316c0,0 -0.6265,0 -0.6265,-0.6265c0,-0.6265 0.6265,-0.6265 0.6265,-0.6265c3.72543,0.03364 7.13535,-0.0607 10.78702,-0.97574l0.74862,-0.0187c0,0 0.6265,0 0.6265,0.6265z" fill="#000000" stroke-width="0.5"/><path d="M237.60912,166.12619c0.19812,0.59435 -0.39624,0.79247 -0.39624,0.79247l-0.59667,0.19889c-2.01026,0.67009 -3.64303,0.82771 -5.76705,0.82771c0,0 -0.6265,0 -0.6265,-0.6265c0,-0.6265 0.6265,-0.6265 0.6265,-0.6265c2.01151,0 3.47219,-0.13054 5.37082,-0.76341l0.59667,-0.19889c0,0 0.59435,-0.19812 0.79247,0.39624z" fill="#000000" stroke-width="0.5"/><path d="M243.31342,196.37947c-0.00809,0.12393 -0.01339,0.25969 -0.02495,0.39264c-0.0332,0.38177 -0.19666,1.62139 -0.80153,1.80869c-0.43513,0.13473 -1.09966,0.13346 -1.7603,0.09504c0.00215,-0.02947 0.00162,-0.04688 0.00162,-0.04688l-0.01494,-0.5536c0.03523,-0.28619 -0.01839,-1.94985 0.58432,-2.00287c0.59573,-0.05241 1.22738,0.2276 1.82079,0.30177c0,0 0.07972,0.01233 0.19499,0.00521z" data-paper-data="{&quot;noHover&quot;:false,&quot;origItem&quot;:[&quot;Path&quot;,{&quot;applyMatrix&quot;:true,&quot;segments&quot;:[[[434.80186,278.30886],[0,0],[-1.42077,-0.1776]],[[430.56419,277.60655],[1.42631,-0.12548],[-1.44302,0.12695]],[[429.20554,282.26729],[0.08436,-0.68521],[0,0]],[429.22485,283.5701],[[429.21971,283.68106],[0.00514,-0.07055],[1.58173,0.09201]],[[433.32699,283.43128],[-1.0418,0.32259],[1.44822,-0.44844]],[[435.1926,279.23722],[-0.07948,0.91403],[0.02768,-0.31831]],[[435.26337,278.31501],[-0.01939,0.29671],[-0.27596,0.01705]]],&quot;closed&quot;:true}]}" fill="#ffffff" stroke-width="0.5"/><path d="M231.3471,198.90311c-0.48791,0.01293 -1.02223,0.02088 -1.51667,-0.0044c-0.23922,-0.01224 -0.51097,-0.0887 -0.7663,-0.16268c0.03088,-0.07561 0.04214,-0.12788 0.04214,-0.12788c0.6889,-2.75564 1.33638,-2.20978 2.25068,0.2519z" data-paper-data="{&quot;noHover&quot;:false,&quot;origItem&quot;:[&quot;Path&quot;,{&quot;applyMatrix&quot;:true,&quot;segments&quot;:[[[406.64209,284.12533],[0,0],[-2.18908,-5.89383]],[[401.40827,283.53128],[1.64941,-6.59766],[0,0]],[[401.30412,283.8332],[0.07393,-0.18104],[0.61132,0.17711]],[[403.09402,284.19108],[-0.57274,-0.02929],[1.1838,0.06054]],[[406.62014,284.22668],[-1.16815,0.03095],[0,0]]],&quot;closed&quot;:true}]}" fill="#ffffff" stroke-width="0.5"/><path d="M235.64071,191.66646c0.53774,-0.03345 1.16918,-0.07126 1.72747,-0.08356c0.05127,0.34442 0.0213,1.05224 -0.31375,1.01061c-0.45539,-0.05659 -1.16032,0.43969 -1.44542,0.08012c-0.20511,-0.25868 -0.07454,-0.65487 0.0317,-1.00716z" data-paper-data="{&quot;noHover&quot;:false,&quot;origItem&quot;:[&quot;Path&quot;,{&quot;applyMatrix&quot;:true,&quot;segments&quot;:[[[416.98305,269.33146],[-0.49108,-0.61935],[0.68261,0.86091]],[[420.27323,269.13462],[-1.0903,-0.13549],[0.80219,0.09968]],[[421.0248,266.82495],[0.12276,0.82461],[-1.33667,0.02944]],[[417.05572,267.02469],[1.28749,-0.08009],[-0.25436,0.84345]]],&quot;closed&quot;:true}]}" fill="#ffffff" stroke-width="0.5"/><path d="M228.33546,191.87015c0.82906,-0.0099 1.72564,-0.03914 2.54975,-0.06735l0.01111,0.02942c0.22356,1.78849 -0.02118,2.39925 -2.30298,1.69815c-0.19065,-0.05857 -0.2402,-1.03293 -0.25788,-1.66023z" data-paper-data="{&quot;noHover&quot;:false,&quot;origItem&quot;:[&quot;Path&quot;,{&quot;applyMatrix&quot;:true,&quot;segments&quot;:[[[400.18193,271.37639],[-0.45645,-0.14025],[5.46316,1.67858]],[[405.53448,267.42858],[0.53526,4.28205],[0,0]],[[405.50906,267.35961],[0,0],[-1.97309,0.06755]],[[399.56293,267.51567],[1.98495,-0.02371],[0.04231,1.50191]]],&quot;closed&quot;:true}]}" fill="#ffffff" stroke-width="0.5"/><path d="M257.873,190.82932c0,-0.68081 -0.21046,-2.17102 0.11826,-2.753c0.43562,-0.77127 2.15095,-1.68414 3.1723,-2.30712c0.17415,-1.78822 1.67471,-3.96975 1.66177,-5.73341c0,-5.51317 -0.27527,-9.80217 -2.76936,-14.80003c-1.26159,-2.52807 -2.83197,-5.20968 -5.54893,-6.41727c-1.4048,-0.62438 -3.26701,-0.38619 -4.77519,-0.75402l-0.06313,0.04365c0,0 -0.08273,0 -0.20883,-0.01968c-0.1261,0.01968 -0.20883,0.01968 -0.20883,0.01968c-2.25973,0 -4.29847,0.16663 -6.50411,0.40672c-2.88577,0.31413 -5.89533,-0.36011 -8.77107,0c-4.47155,0.55995 -9.01644,2.31597 -11.5782,6.15862c-1.9899,1.96226 -2.8091,4.36408 -3.97033,6.76499c-0.1409,0.2913 -0.60506,0.35565 -0.71037,0.66161c-0.21336,0.61993 1.27365,0.52511 1.66019,1.05467c0.31704,0.43433 0.70062,0.8973 0.95708,1.3887c0.16072,-0.04177 0.28285,-0.04177 0.28285,-0.04177c1.72981,0 4.68291,-0.44484 6.13529,0.75176c1.78444,1.47019 1.67063,4.21522 1.42716,6.16295c-0.44072,3.52579 -3.78601,6.43302 -7.55465,5.5842l-0.84793,-0.21198c0.23765,1.12481 1.70405,1.93217 2.50417,1.82037c4.26217,1.06554 9.21375,0.40672 13.60449,0.40672c1.90428,0 3.7865,-0.20921 5.60343,0.54264c1.70681,0.70628 3.94829,1.96741 4.56675,3.83695c0.82222,2.48548 0.03779,6.82788 -2.51038,8.03924c-1.20177,0.57131 -4.20171,0.11128 -5.57146,0.11128c-1.74937,0 -3.12933,0.19922 -4.83343,0.40672c-1.30221,0.15857 -3.10934,0.37224 -4.21298,-0.4275c0.22887,0.20979 0.53257,0.50317 0.65633,0.67175c0.26502,0.36103 0.67039,1.37373 1.29564,1.50012c2.07972,0.42037 4.31393,0.36103 6.43771,0.78357c0.83692,0.1665 1.95781,-0.21966 2.52575,0.41722c0.10187,0.11423 0.18882,0.22985 0.2625,0.34662c1.58996,-0.61147 2.87746,-1.88116 4.39532,-2.64654c1.95445,-0.98553 4.01571,-1.87302 5.84477,-3.10396c1.67414,-1.62529 4.26453,-2.45392 5.92091,-4.1352c0.51121,-0.5189 0.85953,-1.02994 1.42342,-1.47701c0.02095,-0.101 0.06969,-0.2412 0.18309,-0.34687c0,-0.90179 0,-1.80358 0,-2.70537zM211.79659,168.03823c-0.28018,-0.56036 0.28018,-0.84054 0.28018,-0.84054l0.47984,-0.23288c1.72367,-0.57456 3.20325,-0.62605 4.99595,-0.6287c0.45161,-0.80942 0.95567,-1.58906 1.53229,-2.32155c-2.4571,0.36951 -5.29708,1.0131 -7.22241,-0.07972c-1.12752,-0.63999 -0.92756,-2.30061 -0.92756,-3.33684v-0.59667c0,0 0,-0.6265 0.6265,-0.6265c0.6265,0 0.6265,0.6265 0.6265,0.6265v0.59667c0,0.28944 -0.21063,2.06684 0.26579,2.23209c2.39854,0.83193 5.25653,0.01293 7.82403,-0.21736c0.54582,-0.78543 1.16857,-1.49652 1.85288,-2.13806c-1.11709,-1.74591 -0.68455,-2.74895 0.20719,-4.53245l0.19889,-0.39778c0,0 0.28018,-0.56036 0.84054,-0.28018c0.56036,0.28018 0.28018,0.84054 0.28018,0.84054l-0.19889,0.39778c-0.68134,1.3627 -1.13723,1.90277 -0.36887,3.14843c0.59889,-0.47156 1.23391,-0.89856 1.89678,-1.28358c-0.03058,0.0148 -0.06389,0.02837 -0.10014,0.04045c-0.59435,0.19812 -0.79247,-0.39624 -0.79247,-0.39624c-0.54245,-1.63119 -0.27012,-2.89338 0.66974,-4.32456l0.27717,-0.29437c0,0 0.44301,-0.44301 0.88601,0c0.44301,0.44301 0,0.88601 0,0.88601l-0.12061,0.10341c-0.75222,1.10723 -0.93783,1.99373 -0.5236,3.23328c0,0 0.15162,0.45488 -0.20836,0.70139c2.5934,-1.48644 5.60469,-2.3368 8.54453,-2.70374c1.86023,-0.23219 3.77169,-0.02833 5.66833,0.05749c0.00955,-0.01487 0.0156,-0.02295 0.0156,-0.02295c0.69225,-0.92252 1.34318,-1.90638 1.69687,-3.00446l0.35023,-0.44378c0,0 0.44301,-0.44301 0.88601,0c0.44301,0.44301 0,0.88601 0,0.88601l-0.04754,-0.04599c-0.3276,0.95788 -0.81497,1.83212 -1.38356,2.66408c0.53145,-0.00479 1.06032,-0.03078 1.58512,-0.0904c2.31926,-0.26346 4.49151,-0.42862 6.86133,-0.42862c0,0 0.08273,0 0.20883,0.01968c0.1261,-0.01968 0.20883,-0.01968 0.20883,-0.01968l0.77221,0.04365c1.77036,0.45596 3.52782,0.19668 5.24889,0.91666c0.30942,0.12944 0.61301,0.27699 0.9106,0.44123c1.10035,-0.8095 2.42661,-1.97434 3.64387,-2.19881l0.04754,-0.35179c0,0 0.19812,-0.59435 0.79247,-0.39624c0.59435,0.19812 0.39624,0.79247 0.39624,0.79247l-0.35023,0.84156c-1.20137,0.50084 -2.29742,1.28883 -3.38019,2.04933c3.29038,2.40775 5.72707,6.83797 7.02526,11.00297c1.27843,0.00708 2.44719,0.02244 3.66789,0.42933l0.00077,-0.03215c0,0 0.6265,0 0.6265,0.6265c0,0.6265 -0.6265,0.6265 -0.6265,0.6265l-0.39701,-0.03215c-0.95778,-0.31926 -1.90646,-0.36558 -2.91361,-0.36721c0.28987,1.11225 0.49333,2.18776 0.60466,3.18049c0.01546,0.13791 0.02915,0.27651 0.04122,0.41576c0.66563,0.23814 1.42074,0.59745 1.91439,1.10365c0.47469,0.48676 0.3588,1.16119 0.94846,1.24088c0,0 0.59435,0.19812 0.39624,0.79247c-0.19812,0.59435 -0.79247,0.39624 -0.79247,0.39624c-1.10889,-0.46149 -1.38673,-1.51668 -2.39419,-2.12117c0.00964,0.46187 0.0077,0.92755 -0.00054,1.39437c0.13477,0.04492 0.26952,0.08984 0.40429,0.13477c0,0 0.59435,0.19812 0.39624,0.79247c-0.19812,0.59435 -0.79247,0.39624 -0.79247,0.39624c-0.01446,-0.00482 -0.02892,-0.00964 -0.04337,-0.01446c-0.03069,0.92848 -0.06684,1.85147 -0.06684,2.74779c-0.00997,1.68369 0.1354,2.27789 -0.54264,3.93275c-0.2758,0.67313 -1.52104,1.14005 -1.2264,1.80515c0.09777,0.2207 -4.16445,3.48718 -3.82054,3.7734c0.19444,0.16182 0.58789,3.97281 -0.06879,5.07495c-1.89063,3.17313 -7.52732,6.20585 -12.89124,9.59864c-8.10412,5.12602 -9.39373,3.555 -9.59925,3.53377c-0.30375,-0.03139 -0.3348,-0.3722 -0.64017,-0.37225c-3.40224,-0.00063 -7.90262,-0.54469 -9.80879,-3.5637c-0.97046,-1.53703 -2.27485,-3.06373 -0.05317,-4.90705c-0.10857,-0.32441 -0.02896,-0.64283 -0.02896,-0.64283c0.098,-0.39202 0.5639,-2.33958 0.71961,-2.53298c0.01869,-0.02322 0.03737,-0.04607 0.05603,-0.06854c-0.09414,-0.04123 -0.18227,-0.08663 -0.26344,-0.13621c-1.44256,-0.88108 -1.19987,-2.11173 -1.31384,-3.46493c-1.4878,-0.05359 -2.95065,-0.20698 -4.34357,-0.55521c-0.72728,-0.054 -1.53859,0.18159 -2.18185,-0.16202c-1.45621,-0.77789 -2.96524,-4.19864 -2.83896,-5.71507c0.03574,-0.42921 0.74792,-0.5779 0.81389,-1.00351c0.03763,-0.24281 -0.4317,-0.25405 -0.58983,-0.44212c-0.21253,-0.2528 -1.82665,-2.7952 -1.85347,-2.89329c-0.46219,-1.69049 0.038,-5.49622 2.0434,-6.06965c-0.00252,-0.00094 -0.00495,-0.00195 -0.00728,-0.00301c-0.45694,-0.20782 -0.93799,-0.44452 -1.25301,-0.83534c-0.54651,-0.67801 -1.19976,-1.41817 -1.2635,-2.28668c-0.05073,-0.69129 0.70733,-1.19907 0.96031,-1.84441c0.35182,-0.89745 0.7268,-1.79183 1.14779,-2.66341c-1.37683,0.01509 -2.56211,0.0991 -3.94857,0.56126l-0.31572,0.1649c0,0 -0.56036,0.28018 -0.84054,-0.28018zM231.28113,199.02327c-0.91431,-2.46167 -1.4971,-3.00377 -2.18601,-0.24812c0,0 -0.01262,0.05049 -0.0435,0.1261c0.25533,0.07398 0.50837,0.13725 0.74759,0.14948c0.49444,0.02529 0.98485,0.0278 1.47275,0.01487zM233.23652,198.29l0.04176,0.65348c1.55316,-0.13329 3.1018,-0.32136 4.69572,-0.32136c0.19178,0 0.41252,0.01222 0.65231,0.03108l0.00667,-0.66501c0.39182,-3.09301 1.55171,-3.81333 4.44327,-3.49312c-0.33167,-0.98036 -1.14943,-1.53331 -2.76996,-2.26299c-0.27874,-0.12551 -0.58016,-0.21786 -0.89736,-0.28454c0.12632,0.9766 0.25726,1.90787 -0.76186,2.71696c-0.73826,0.58612 -4.01401,0.21431 -4.60984,-0.4352c-0.37615,-0.41003 -0.40575,-1.49515 -0.40179,-2.28638c-0.23987,0.00282 -0.48109,0.0072 -0.72346,0.01272c0.0833,0.6403 0.29679,2.26369 0.1834,2.50337c-0.23869,0.50457 -0.76003,0.88368 -1.40237,1.1364c0.68305,0.77682 1.21942,1.83745 1.54351,2.69458zM243.04263,196.59391c-0.59342,-0.07418 -1.17422,-0.34574 -1.76994,-0.29333c-0.60271,0.05303 -0.53224,1.66046 -0.56747,1.94665l0.00807,0.54415c0,0 0,0.01687 -0.00215,0.04634c0.66064,0.03843 1.28036,0.03041 1.71549,-0.10433c0.60488,-0.1873 0.74602,-1.36997 0.77921,-1.75173c0.01156,-0.13294 0.02146,-0.26125 0.02955,-0.38518c-0.11526,0.00712 -0.19276,-0.00256 -0.19276,-0.00256zM235.60024,192.84432c0.28511,0.35957 0.91882,-0.13881 1.37421,-0.08221c0.33505,0.04163 0.36519,-0.62026 0.31391,-0.96468c-0.55829,0.0123 -1.12002,0.04998 -1.65777,0.08343c-0.10624,0.35229 -0.23547,0.70478 -0.03036,0.96346zM228.58293,193.69842c2.2818,0.70109 2.45916,0.1396 2.23559,-1.64889l-0.01062,-0.02881c-0.8241,0.02821 -1.65447,0.05528 -2.48352,0.06518c0.01767,0.62731 0.0679,1.55393 0.25854,1.61251zM221.13142,184.9746c3.88375,1.12874 7.44639,-5.40702 4.31425,-8.09216c-0.89229,-0.76495 -3.71887,-0.29241 -4.82855,-0.29241c0,0 -0.19777,0 -0.42115,-0.08607c-0.55137,0.53881 -1.48072,0.90476 -1.76858,1.61722c-0.85498,2.11608 0.13468,2.71796 1.13246,4.44509c0.38848,0.67245 1.03216,1.28883 1.08085,2.0639c0.00473,0.07524 -0.00419,0.14689 -0.02357,0.21585z" fill="#000000" stroke-width="0.5"/></g></g></svg>