<svg version="1.1" xmlns="http://www.w3.org/2000/svg" xmlns:xlink="http://www.w3.org/1999/xlink" width="34.29072" height="33.44746" viewBox="0,0,34.29072,33.44746"><g transform="translate(-222.68487,-162.81512)"><g data-paper-data="{&quot;isPaintingLayer&quot;:true}" fill-rule="nonzero" stroke-linejoin="miter" stroke-miterlimit="10" stroke-dasharray="" stroke-dashoffset="0" style="mix-blend-mode: normal"><path d="M235.28403,186.96903l-2.2546,-1.4565l4.46312,-6.48626l2.34705,2.84664z" fill="#9a5234" stroke="#000000" stroke-width="0" stroke-linecap="butt"/><path d="M247.64281,167.35718l2.82032,1.93841l-2.58751,2.48319l-2.48937,-1.69985z" fill="none" stroke="#000000" stroke-width="1.5" stroke-linecap="round"/><path d="M223.37501,195.20834c0,0 0.09156,-5.20609 0.90437,-7.47865c0.97302,-2.72049 4.87341,-8.52135 4.87341,-8.52135c0,0 3.31925,2.45871 5.16032,3.82246c0.32293,0.23921 1.59511,-2.69908 2.01289,-2.38962c0.2502,0.18533 1.87656,1.07492 1.94054,2.01896c0.07378,1.08853 -1.41708,2.24944 -1.09692,2.48659c1.98161,1.46786 3.98317,2.9505 3.98317,2.9505c0,0 -4.08984,5.04223 -6.48545,6.3506c-2.41898,1.32113 -7.959,1.53829 -7.959,1.53829z" fill="#aea5a4" stroke="#000000" stroke-width="0" stroke-linecap="butt"/><path d="M241.95055,179.66089l-2.28026,-2.53347l3.9559,-4.98297l2.34705,2.31374z" fill="#9a5234" stroke="#000000" stroke-width="0" stroke-linecap="butt"/><path d="M247.70131,167.1542c-1.40424,0.0976 -3.74623,3.18021 -1.50302,4.3953c2.38878,1.29393 3.52687,-1.34543 5.15261,-2.33165c-0.55815,-0.26853 -1.23548,-0.66527 -1.62547,-0.84177c-0.39641,-0.18018 -0.79282,-0.36037 -1.18922,-0.54055l-0.25799,-0.12804c0,0 -0.36886,-0.18443 -0.57691,-0.55329zM249.92966,165.72276c0.27676,0.1258 0.55351,0.2516 0.83027,0.3774c1.14859,0.52412 4.00706,1.63239 3.97398,3.26447c-0.01538,0.75907 -1.01851,1.12702 -1.55407,1.66517c-2.094,2.10414 -5.02714,4.45958 -8.19032,2.70804c-5.16454,-2.85974 -0.29747,-10.33738 4.25685,-8.7188c0,0 0.49434,0.2247 0.68329,0.70372z" fill="#fa8a62" stroke="none" stroke-width="0.5" stroke-linecap="butt"/><path d="M255.73612,169.45832l-5.83333,5.16667l-3.33334,-0.33334l-9.83333,10.66667l4.83333,2.83333c0,0 -4.60329,5.6817 -7.41129,6.87377c-3.05932,1.29877 -10.69982,0.84846 -10.69982,0.84846c0,0 0.22058,-6.7469 1.20426,-9.5822c0.89725,-2.58621 4.90685,-6.97336 4.90685,-6.97336l4.66667,3.33333l8,-8.16666l0.88889,-3.5l-0.79661,-1.71352l4.57439,-5.11981z" fill="none" stroke="#000000" stroke-width="1.5" stroke-linecap="round"/></g></g></svg>