<svg version="1.1" xmlns="http://www.w3.org/2000/svg" xmlns:xlink="http://www.w3.org/1999/xlink" width="102.14506" height="79.2377" viewBox="0,0,102.14506,79.2377"><defs><linearGradient x1="217.31935" y1="168.10401" x2="217.31935" y2="218.36885" gradientUnits="userSpaceOnUse" id="color-1"><stop offset="0" stop-color="#c60219"/><stop offset="1" stop-color="#71020f"/></linearGradient><linearGradient x1="267.28596" y1="170.72492" x2="267.28596" y2="212.54321" gradientUnits="userSpaceOnUse" id="color-2"><stop offset="0" stop-color="#be0218"/><stop offset="1" stop-color="#780210"/></linearGradient></defs><g transform="translate(-188.92747,-140.63115)"><g data-paper-data="{&quot;isPaintingLayer&quot;:true}" fill-rule="nonzero" stroke-linejoin="miter" stroke-miterlimit="10" stroke-dasharray="" stroke-dashoffset="0" style="mix-blend-mode: normal"><path d="M201.09777,169.87599c0,0 4.88332,-3.07064 11.07129,-1.12759c4.41784,1.38723 4.94642,5.5992 8.05926,5.92309c6.27568,0.65297 9.5524,-7.41698 18.05593,-0.56884c11.60725,9.34765 4.06027,29.83977 -4.6984,36.65116c-5.42578,4.21949 -18.8048,11.14846 -28.05551,5.47317c-30.98229,-19.00758 -4.69722,-46.08847 -4.69722,-46.08847" fill="url(#color-1)" stroke="#660209" stroke-width="3" stroke-linecap="round"/><path d="M245.74975,183.14075c0,0 2.0373,-4.016 6.98771,-5.18148c3.5343,-0.83208 5.6,1.78934 7.82492,0.76352c4.48558,-2.06811 5.79437,-9.06684 14.29365,-7.85871c11.60146,1.64909 16.96377,22.90814 13.83914,30.9881c-1.93562,5.00533 -12.61875,10.81004 -21.14431,10.68917c-28.55364,-0.40482 -21.87249,-29.11831 -21.87249,-29.11831" fill="url(#color-2)" stroke="#660209" stroke-width="3" stroke-linecap="round"/><path d="M225.23219,158.57847l-5.23143,14.34679" fill="none" stroke="#5a2d0d" stroke-width="2.5" stroke-linecap="round"/><path d="M237.39007,160.768c0,0 9.08103,4.51886 12.64752,7.17933c3.60162,2.68669 8.85787,8.86289 8.85787,8.86289" fill="none" stroke="#5a2d0d" stroke-width="2.5" stroke-linecap="round"/><path d="M214.00001,165.29399l18.61772,0.15263" fill="none" stroke="none" stroke-width="0.5" stroke-linecap="round"/><path d="M215.23094,164.37824l-5.07756,-13.2784" fill="none" stroke="none" stroke-width="0.5" stroke-linecap="round"/><path d="M222.61647,166.36235l-7.18628,-1.80013c0,0 -3.53545,-11.70991 5.02952,-13.82611c0.24705,-0.06104 4.84271,-1.85748 4.84271,-1.85748c0,0 -2.28795,-4.64343 -0.37522,-4.5887c2.21949,0.06352 7.80764,-7.4946 12.54061,2.59544c0.33375,0.71152 1.4061,4.47703 1.4061,4.47703c0,0 13.18871,-0.02687 13.72266,5.8405c-0.22549,2.34603 -10.00104,1.01507 -12.9115,2.0648c-6.97466,2.51558 -7.00086,6.02397 -6.96951,6.17502c-2.64893,1.9919 -9.67772,0.9173 -9.67772,0.9173" fill="#016e0e" stroke="#075309" stroke-width="2" stroke-linecap="round"/><path d="M204.99611,192.21755c0,0 -4.58678,2.91664 -7.3859,0.25952c-2.66455,-2.52938 -0.18515,-7.32581 -0.18515,-7.32581" fill="#fbcf87" stroke="#551b0f" stroke-width="1.5" stroke-linecap="round"/><path d="M198.09217,184.45252l7.36652,7.0365" fill="none" stroke="#7c0110" stroke-width="1.5" stroke-linecap="round"/><path d="M230.23009,185.7259c0,0 2.33775,7.61802 -2.30401,10.63236c-6.40705,3.62213 -11.464,-4.67559 -11.464,-4.67559" data-paper-data="{&quot;index&quot;:null}" fill="#fbcf87" stroke="#551b0f" stroke-width="1.5" stroke-linecap="round"/><path d="M229.43709,184.51056l-12.99798,6.8796" data-paper-data="{&quot;index&quot;:null}" fill="none" stroke="#7c0110" stroke-width="1.5" stroke-linecap="round"/><path d="M198.14429,203.81284c0,0 9.39143,-2.48371 13.17534,-1.91427c4.55091,0.68486 12.25622,5.74143 12.25622,5.74143" fill="none" stroke="#470109" stroke-width="1.5" stroke-linecap="round"/><path d="M199.7439,190.05981c0,-0.35361 0.28899,-0.64028 0.64548,-0.64028c0.35648,0 0.64548,0.28666 0.64548,0.64028c0,0.35361 -0.28899,0.64028 -0.64548,0.64028c-0.35648,0 -0.64548,-0.28666 -0.64548,-0.64028z" fill="none" stroke="#56650a" stroke-width="1.5" stroke-linecap="butt"/><path d="M223.38504,192.14947c0,-0.74645 0.61003,-1.35155 1.36254,-1.35155c0.75251,0 1.36254,0.60511 1.36254,1.35156c0,0.74645 -0.61003,1.35156 -1.36253,1.35156c-0.75251,0 -1.36253,-0.60511 -1.36253,-1.35155z" fill="none" stroke="#56650a" stroke-width="1.5" stroke-linecap="butt"/><path d="M205.26956,202.81282l0.18254,2.21469l-4.18332,0.92087l-0.65728,-2.28101" fill="#fbcf87" stroke="#470109" stroke-width="1" stroke-linecap="round"/><path d="M211.83922,202.67917l-0.2224,2.21067l-4.33735,-0.01914l-0.23863,-2.38025" fill="#fbcf87" stroke="#470109" stroke-width="1" stroke-linecap="round"/><path d="M265.22625,193.76466c0,0 -4.10224,6.73119 -9.29971,3.79288c-3.76544,-2.44527 -1.86904,-8.62507 -1.86904,-8.62507" data-paper-data="{&quot;index&quot;:null}" fill="#fbcf87" stroke="#551b0f" stroke-width="1.5" stroke-linecap="round"/><path d="M254.7008,187.94658l10.54409,5.58081" data-paper-data="{&quot;index&quot;:null}" fill="none" stroke="#7c0110" stroke-width="1.5" stroke-linecap="round"/><path d="M268.60856,202.20737c0,0 2.06623,-2.4218 5.75797,-2.97737c3.06955,-0.46193 3.67435,0.48009 3.67435,0.48009" data-paper-data="{&quot;index&quot;:null}" fill="none" stroke="#470109" stroke-width="1.5" stroke-linecap="round"/><path d="M280.87878,186.58123c0,0 1.33955,3.0659 -0.82317,4.96429c-2.27195,1.99426 -5.32198,0.33919 -5.32198,0.33919" data-paper-data="{&quot;index&quot;:null}" fill="#fbcf87" stroke="#551b0f" stroke-width="1.5" stroke-linecap="round"/><path d="M274.35817,191.33792l5.97914,-5.28112" data-paper-data="{&quot;index&quot;:null}" fill="none" stroke="#7c0110" stroke-width="1.5" stroke-linecap="round"/><path d="M278.47274,190.7458c-0.28935,0 -0.52391,-0.21516 -0.52391,-0.48055c0,-0.2654 0.23456,-0.48054 0.52391,-0.48054c0.28935,0 0.52392,0.21515 0.52392,0.48054c0,0.2654 -0.23457,0.48055 -0.52392,0.48055z" data-paper-data="{&quot;index&quot;:null}" fill="none" stroke="#56650a" stroke-width="1.5" stroke-linecap="butt"/><path d="M258.50497,195.23973c-0.61045,0 -1.1053,-0.49087 -1.1053,-1.09639c0,-0.60552 0.49485,-1.09639 1.1053,-1.09639c0.61045,0 1.10531,0.49087 1.10531,1.09639c0,0.60552 -0.49486,1.09639 -1.10531,1.09639z" data-paper-data="{&quot;index&quot;:null}" fill="none" stroke="#56650a" stroke-width="1.5" stroke-linecap="butt"/><path d="M273.76951,200.06436l0.40506,1.89836l-3.34851,1.07184l-0.71948,-1.65489" data-paper-data="{&quot;index&quot;:null}" fill="#fbcf87" stroke="#470109" stroke-width="1" stroke-linecap="round"/><path d="M234.26879,151.8493c-0.47341,0.93921 -1.42025,0.4696 -1.42025,0.4696l-0.47527,-0.23917c-2.47689,-1.47415 -4.63769,-2.25508 -7.53623,-2.25508c0,0 -1.05859,0 -1.05859,-1.05006c0,-1.05006 1.05859,-1.05006 1.05859,-1.05006c3.28707,0 5.82301,0.88642 8.62551,2.55436l0.33282,0.16162c0,0 0.94684,0.4696 0.47341,1.40881z" fill="#075309" stroke="none" stroke-width="0.5" stroke-linecap="butt"/><path d="M234.98466,160.33401l-1.02036,-7.77191l7.29337,-0.00628c0,0 5.08157,0.71227 7.02141,1.4431c2.94996,1.1114 3.10237,3.17743 3.10237,3.17743c0,0 -1.32115,0.3641 -2.96214,0.43514c-2.71236,0.11742 -6.59915,0.0305 -9.05325,0.56964c-2.01284,0.55727 -4.38141,2.15288 -4.38141,2.15288z" fill="#018110" stroke="none" stroke-width="0" stroke-linecap="butt"/><path d="M240.03018,151.62142c-0.09583,1.04575 -1.15009,0.95068 -1.15009,0.95068l-0.70172,-0.06761c-1.43112,-0.00079 -2.85234,0.11902 -4.27997,0.21344c0,0 -1.05624,0.06985 -1.12666,-0.97788c-0.07042,-1.04773 0.98583,-1.11758 0.98583,-1.11758c1.47487,-0.09753 2.94229,-0.21732 4.42081,-0.2181l0.89341,0.07623c0,0 1.05424,0.09507 0.95841,1.14082z" fill="#075309" stroke="none" stroke-width="0.5" stroke-linecap="butt"/><path d="M235.44372,160.08472c0.08623,0.22066 0.29533,0.94849 -0.50153,1.34371c-0.94684,0.4696 -1.42025,-0.4696 -1.42025,-0.4696l-0.19369,-0.63215c0.00171,-2.2398 -0.40968,-4.4205 -0.40968,-6.66449c0,0 0,-1.05006 1.05859,-1.05006c1.05859,0 1.05859,1.05006 1.05859,1.05006c0,2.16205 0.37922,4.26549 0.40796,6.42253z" fill="#01620c" stroke="none" stroke-width="0.5" stroke-linecap="butt"/></g></g></svg>