<svg version="1.1" xmlns="http://www.w3.org/2000/svg" xmlns:xlink="http://www.w3.org/1999/xlink" width="128.66009" height="106.64697" viewBox="0,0,128.66009,106.64697"><defs><linearGradient x1="239.99445" y1="130.62843" x2="239.99445" y2="229.33341" gradientUnits="userSpaceOnUse" id="color-1"><stop offset="0" stop-color="#ea9028"/><stop offset="1" stop-color="#f98702"/></linearGradient></defs><g transform="translate(-175.66996,-126.67652)"><g data-paper-data="{&quot;isPaintingLayer&quot;:true}" fill-rule="nonzero" stroke-linecap="butt" stroke-linejoin="miter" stroke-miterlimit="10" stroke-dasharray="" stroke-dashoffset="0" style="mix-blend-mode: normal"><path d="M234.11,148.59653c-0.67082,-1.34164 0.67082,-2.01246 0.67082,-2.01246l1.19648,-0.58139c3.63162,-1.16778 6.61103,-0.68594 9.62134,0.87269c-0.33475,-2.37643 0.02767,-4.53566 -1.78786,-6.51396c-5.72523,-6.23853 -16.65794,-9.6849 -24.85914,-9.6849c-3.47334,0 -6.89151,-0.10995 -9.95729,1.18452c0.0062,0.8442 -0.62849,1.47889 -0.62849,1.47889l-0.62536,0.48021c-0.33334,0.66666 -0.66666,1.33334 -1,2c0,0 -0.40168,0.80335 -1.20502,1.06415c-1.47101,3.71231 -1.58383,7.48197 -1.58383,11.54142c0,0.5531 0.10879,2.1505 0.17686,3.70726c1.70273,0.29426 3.47778,0.15372 5.11186,0.74554c2.55906,-3.1199 7.58772,-4.57508 11.45155,-3.93343c3.06007,0.50818 5.28707,2.25772 7.91875,3.63316c0.60797,0.31775 1.41656,0.30174 1.90163,0.78681c1.66649,1.66649 1.64706,4.53946 2.36236,6.58632l0.07698,0.97434c0,0 0,1.5 -1.5,1.5c-1.5,0 -1.5,-1.5 -1.5,-1.5l0.07698,-0.02566c-0.48371,-1.50428 -0.50901,-4.28506 -1.63764,-5.41368c-0.72278,-0.72278 -1.9209,-0.74559 -2.77139,-1.31259c-3.30475,-2.20317 -8.43576,-3.36781 -11.8359,-1c-0.73496,0.51182 -1.41164,0.79897 -1.94114,1.21322c2.16938,1.6695 3.85592,4.07632 4.54937,6.55364l0.05972,0.98507c0,0 0,2 -2,2c-2,0 -2,-2 -2,-2l0.05972,-0.01493c-0.93165,-4.65544 -5.27768,-5.04448 -9.05531,-5.8246c-0.78007,0.32502 -1.89783,0.12174 -2.76005,0.32455c-4.37939,1.03011 -9.0216,0.30992 -13.38482,1.32086c-0.36968,0.28827 -0.73935,0.57655 -1.10903,0.86483c-0.03406,0.09695 -0.07213,0.19035 -0.11458,0.27981c-0.39808,0.83904 -1.37004,1.25412 -2.05506,1.88117c-1.76619,2.2369 -3.68437,4.46391 -3.10671,7.59875c0.29825,1.61853 1.05971,3.31773 0.60667,4.89993c-0.23525,0.82162 -1.04163,1.37447 -1.38766,2.15591c-0.61938,1.39874 -0.61462,5.35657 -0.24669,6.80501c1.32709,5.2245 9.60851,9.87761 14.61368,8.8418c0.85783,-0.24509 7.65723,-2.31214 7.74204,-2.27862c1.34619,0.53213 1.72128,2.35859 2.29018,3.68966c0.0181,0.04235 0.56999,3.94451 0.68197,4.39123c0.84275,3.36167 2.74881,6.48302 4.45546,9.47825c3.41225,5.98863 11.80111,8.35466 17.95271,10.12392c1.44146,0.63932 3.14368,0.88402 4.52575,1.60377l0.44424,-1.30033c1.23514,-1.87959 2.32526,-4.56369 3.65542,-6.25146c0.57006,-0.72332 1.40234,-1.22338 2.02792,-1.89272c-0.16017,-0.56644 -0.26574,-1.13137 -0.31104,-1.67672c-2.75948,-0.01182 -5.92286,-0.21358 -7.96233,-1.49471l-0.23045,0.22272c-2.93363,1.92778 -7.55835,3.55316 -10.74254,0.94398c-3.17352,-2.60043 -2.13197,-7.57072 -1.57014,-10.93233c0.29755,-1.78032 0.06724,-4.11147 1.28857,-5.67022c0.471,-0.60113 1.24,-0.89173 1.86001,-1.33759c0,0 1.24808,-0.83205 2.08013,0.41603c0.83205,1.24808 -0.41602,2.08012 -0.41602,2.08012c-1.99291,1.15802 -1.50428,2.90373 -1.85142,4.9922c-0.6863,4.12886 -1.18457,10.42875 5.04503,8.3367c0.85971,-0.28871 1.68463,-0.69975 2.4462,-1.19478c-1.34324,-2.15799 -1.47186,-4.87995 -1.47186,-7.38219c0,0 0,-0.09602 0.02429,-0.23947c0.02231,-0.14378 0.05268,-0.23486 0.05268,-0.23486c0.55023,-1.57451 0.17391,-2.64921 0.4424,-4.26593c0.51504,-3.10135 1.55494,-6.22607 2.5576,-9.23407l-0.07698,-0.02566c0,0 0,-1.5 1.5,-1.5c1.5,0 1.5,1.5 1.5,1.5l-0.07698,0.97434c-0.71312,2.13937 -1.44902,4.33192 -1.98129,6.53321c0.3657,-0.4701 0.74751,-0.88282 1.14778,-1.19961c0.68133,-0.53923 4.78716,-1.95105 5.60959,-1.79466c4.10525,0.78064 7.23673,8.27298 3.71139,11.17878c-1.41491,1.16626 -3.02111,0.73362 -4.61828,0.63046l-1.54029,-1.99047c0,0 -0.83205,-1.24807 0.41602,-2.08013c1.24808,-0.83205 2.08013,0.41603 2.08013,0.41603l0.45971,1.00954c2.67855,-0.76735 1.86613,-2.34039 0.54414,-4.34544c-0.43072,-0.65328 -0.67196,-1.77213 -1.45102,-1.84532c-3.48062,-0.327 -5.52086,4.54736 -7.05283,6.84532c0,0 -0.08804,0.13208 -0.24982,0.28166c-0.0061,1.93147 0.02586,4.09352 1.33263,5.62756c0.07632,0.05573 0.15305,0.12135 0.22978,0.19808c0.08535,0.08535 0.15697,0.17071 0.2165,0.25551c0.04338,0.03824 0.08782,0.07594 0.13333,0.11309c0.92053,0.75136 2.7914,0.53836 3.82978,0.71143c1.99384,0.3323 3.68171,0.48063 5.75973,0.48063c0.80955,0 1.7068,0.48588 2.42597,0.11418c1.33679,-0.69091 2.63621,-3.5069 3.0934,-4.85445c-0.04441,-4.03494 0.59618,-7.94504 -1.76745,-11.42768l-0.59357,-1.16123c0,0 -0.67082,-1.34164 0.67082,-2.01246c1.34164,-0.67082 2.01246,0.67082 2.01246,0.67082l0.40643,0.83877c1.97265,3.0019 2.29077,6.13496 2.29433,9.43728c0.08118,0.02951 0.12841,0.05313 0.12841,0.05313l0.80352,0.41861c1.27468,0.43548 2.47072,1.10745 3.58632,1.86237c4.07963,6.3079 -0.04437,14.85293 -7.12599,16.9963c-3.07707,0.93132 -5.74149,-0.9066 -7.34149,-3.43377c-0.32039,0.28529 -0.63181,0.57876 -0.90113,0.90862c-1.20504,1.47598 -2.18604,4.04149 -3.34458,5.74854l-0.42445,1.31531c0,0 -0.22194,0.66583 -0.81764,0.93478c0.33579,0.98447 0.64855,2.16942 1.11662,2.751c0.25733,0.31973 2.95516,2.10607 3.06394,2.16546c3.54675,1.9365 6.564,-0.29206 10.04273,0.87131c1.35982,0.45475 2.25686,1.88367 3.62314,2.31862c5.52709,1.75956 11.16913,0.64857 16.10447,-2.19472c3.98519,-1.92968 4.69928,-5.93272 5.65934,-10.0098c0.38043,-1.61556 -0.43032,-3.63051 0.58308,-4.94497c0.07085,-0.0919 0.14083,-0.18004 0.20999,-0.26455c-1.42586,-0.68286 -2.68971,-1.52149 -3.9609,-2.53527c-0.12041,0.11833 -0.21574,0.18188 -0.21574,0.18188c-1.62345,1.07198 -2.87984,2.41111 -4.5,3.5l-0.27139,0.31259c0,0 -1.06066,1.06066 -2.12132,0c-1.06066,-1.06066 0,-2.12132 0,-2.12132l0.72861,-0.68742c1.36733,-0.90286 2.47428,-1.99524 3.7575,-2.968c-0.49174,-0.31717 -0.9203,-0.62426 -1.11751,-0.87344c-0.17879,-0.2259 -1.07691,-2.96506 -1.23096,-3.43615c-1.2175,-3.72301 -1.71627,-8.66627 -0.5,-12.44868c0,0 0.47434,-1.42303 1.89736,-0.94869c1.42302,0.47434 0.94869,1.89737 0.94869,1.89737c-1.06883,3.05852 -0.51983,7.55812 0.5,10.55132c0.28776,0.84456 0.20485,1.87264 0.76904,2.56385c0.68869,0.84375 1.92339,1.05185 2.75892,1.75048c1.69448,1.41682 3.34341,2.53352 5.52335,3.23699l0.02566,-0.07698c0,0 0.30771,0 0.64439,0.13937c0.69516,-0.02139 1.45129,0.03046 2.35731,-0.04842c3.9596,-0.34473 11.07127,-2.1751 12.21846,-6.79966c0.40226,-1.62161 -0.39379,-4.41148 -0.62379,-6.1141c-1.01875,-0.34642 -1.91812,-0.15766 -3.2554,-0.82972c-1.80758,-0.90841 -2.04485,-2.47672 -3.81531,-2.92445c0,0 -1.42302,-0.47434 -0.94869,-1.89736c0.47434,-1.42302 1.89736,-0.94869 1.89736,-0.94869c2.13303,0.8053 2.30761,2.14544 4.18469,3.07556c1.35994,0.67387 2.28784,0.56593 3.49342,1.012c0.58225,-0.80024 1.18277,-1.58118 1.60001,-1.99461c0.46321,-0.45899 1.85915,-0.89979 1.74755,-1.91912c-0.08549,-0.78087 -0.80533,-1.49566 -0.64897,-2.26547c0.38852,-1.91281 1.97746,-2.9815 2.9643,-4.47911c1.25124,-1.89883 1.28449,-4.28845 0.74364,-6.43999c-0.19979,-0.79481 -0.85974,-2.62738 -1.34812,-3.31269c-0.57229,-0.80305 -1.64316,-1.28818 -1.94878,-2.22573c-0.65259,-2.00195 1.01328,-5.63357 0.91691,-7.72206c-0.09996,-2.16613 -2.18115,-4.62963 -3.75689,-5.87029c-1.46749,-0.742 -3.32743,-0.67397 -4.64749,-1.65454c-2.18595,-1.62377 -2.33335,-3.5483 -3.64258,-5.64533c-2.57918,-4.13117 -5.26983,-7.35806 -10.44047,-7.72316c-3.6465,-0.25748 -7.77983,0.70366 -10.44401,3.41925c-0.29208,0.29773 -0.65893,0.81734 -1.06065,1.42734c4.75275,-0.91495 10.41617,-0.71274 14.47213,1.39351c1.13119,0.58742 1.75616,1.85916 2.75146,2.65541c0.45989,0.36791 1.24555,0.20345 1.65017,0.6314c1.87575,1.98389 2.41021,6.44369 2.43934,9.06066v1c0,0 0,1.5 -1.5,1.5c-1.5,0 -1.5,-1.5 -1.5,-1.5v-1c0.02458,-1.59822 -0.37079,-5.86083 -1.56066,-6.93934c-0.34559,-0.31323 -0.98562,-0.07723 -1.34983,-0.3686c-0.84556,-0.67645 -1.26904,-1.88292 -2.24854,-2.34458c-4.48518,-2.11399 -10.76927,-1.95691 -15.36664,-0.42445c0,0 -0.13187,0.04397 -0.32872,0.06497c-0.2648,0.30438 -0.50719,0.52283 -0.71358,0.61057c-0.01618,0.00688 -0.03239,0.01354 -0.04861,0.02001l-0.22341,0.33241c-3.18158,3.18159 -4.16001,6.66346 -4.16001,11.04901c0,0 0,1.5 -1.5,1.5c-1.5,0 -1.5,-1.5 -1.5,-1.5c0,-4.52883 0.98131,-8.47635 3.85356,-11.87902c-0.45408,-0.15822 -0.90681,-0.30263 -1.35185,-0.37699c-1.7942,0 -3.46261,-0.45046 -5.21655,-0.09122c-1.22654,0.25122 -2.67925,1.56484 -3.66995,0.79934c-0.27692,-0.21397 -0.46374,-0.48714 -0.59042,-0.79897c-2.92612,-1.92982 -5.50707,-2.96839 -9.05045,-1.73012l-0.80352,0.41862c0,0 -1.34164,0.67082 -2.01246,-0.67082zM246.01697,211.99008c3.98793,-1.58767 6.43467,-4.46974 6.43467,-8.56437c0,-1.47522 0.2922,-2.24671 -0.56066,-3.43934c-0.74598,-0.48438 -1.56722,-0.86449 -2.41368,-1.13764l-0.03392,-0.01648c-0.00475,0.27671 -0.00869,0.55461 -0.01111,0.83373c-0.78753,2.38657 -2.49,5.95524 -4.9066,7.14554c-0.28261,0.1392 -2.93741,0.11509 -3.54376,0.11421c0.04728,0.37763 0.14835,0.80174 0.29619,1.24085c0.10072,0.16024 0.15537,0.3238 0.17894,0.48211c0.82366,2.03065 2.56474,4.1357 4.55992,3.34138zM196.45164,152.92571c1.15781,0 2.29418,-0.50879 3.44405,-0.5006c-0.40706,-1.62804 0.05595,-4.39324 0.05595,-5.9994c0,-4.0403 0.53483,-7.8286 2.07923,-11.50964c-0.00608,-0.00701 -0.01207,-0.01403 -0.018,-0.02106c-1.65439,0.33535 -3.18065,0.31042 -4.91246,0.72252c-3.41313,0.81219 -7.11558,4.11492 -8.68548,7.27101c-1.3271,2.66796 -1.89127,6.34196 -2.13677,9.28626c-0.04296,0.51515 -0.01619,1.12331 0.02877,1.76981c3.20861,-0.74171 6.90994,-1.01891 10.14471,-1.01891zM203.381,130.78911l0.15643,-0.19347c4.67037,-3.73959 9.66153,-3.91912 15.41422,-3.91912c9.43806,0 18.28259,3.79238 25.84717,9.38556c2.98316,2.20571 4.48954,5.09094 4.81268,8.78281c0.03769,0.43054 0.05754,1.07298 0.00423,1.6673c1.84902,-0.58617 4.36572,0.17115 6.16754,0.17115c0.77238,0.1285 1.58355,0.11176 2.31714,0.38549c0.334,0.12463 0.44206,0.93515 0.75253,0.75994c0.35788,-0.20196 -0.10335,-0.86274 0.08069,-1.23015c0.04401,-0.08785 2.8728,-3.60621 2.93713,-3.66964c3.51615,-3.46715 8.73938,-4.97543 13.55599,-4.58075c6.4995,0.53258 10.269,4.35076 13.55953,9.61017c0.87547,1.3993 1.00423,3.40949 2.35742,4.35467c0.42768,0.29872 1.06866,-0.04779 1.55976,0.12816c1.09503,0.39231 2.08405,1.03375 3.12608,1.55062c2.53139,2.04483 5.31994,5.30945 5.57645,8.79638c0.05572,0.75735 -0.37792,4.60912 -0.68156,5.88376c-0.08762,0.36781 -0.55764,0.71648 -0.40153,1.06085c0.24403,0.5383 1.03202,0.63323 1.38456,1.1076c1.85466,2.49553 2.64118,6.28688 2.3707,9.33438c-0.18986,2.13914 -0.48692,3.0495 -1.64185,4.91295c-0.65136,1.05095 -2.24637,1.62389 -2.36903,2.85423c-0.06167,0.61848 0.7278,1.1145 0.68437,1.73453c-0.21531,3.07359 -2.99905,5.18761 -5.06457,7.17076c2.65523,8.44031 -3.43325,13.0355 -10.65028,15.39787c-2.01934,0.661 -4.12254,0.45644 -6.15898,0.7112c-0.49307,0.06169 -1.16889,0.01238 -1.42487,0.43829c-0.25344,0.42169 0.30293,0.95497 0.29188,1.44684c-0.01726,0.76836 -0.20547,1.52535 -0.37548,2.27486c-1.20666,5.31966 -2.56284,10.03696 -7.67399,12.65686c-5.7951,3.28717 -12.76216,4.69657 -19.22887,2.47195c-1.38398,-0.4761 -2.36214,-1.77806 -3.71019,-2.34804c-0.98346,-0.41583 -2.10842,0.3573 -3.17303,0.43926c-2.6714,0.20566 -5.08047,-0.30497 -7.4509,-1.56796c-0.80299,-0.42784 -3.68436,-2.43395 -4.26939,-3.16787c-0.85912,-1.07776 -0.5589,-2.86066 -1.52555,-3.84314c-0.31017,-0.31525 -0.89281,-0.06663 -1.30899,-0.21622c-1.0162,-0.36528 -1.97289,-0.8787 -2.95933,-1.31806c-7.25028,-2.05664 -15.96705,-5.00815 -20.04729,-11.87608c-1.94251,-3.26968 -3.95344,-6.81529 -4.87787,-10.52175c-0.08891,-0.3565 -0.65239,-3.86129 -0.65136,-4.27543c0.00084,-0.33972 0.59798,-1.12078 0.29017,-0.977c-0.50531,0.23603 -0.53364,1.06053 -1.02676,1.32107c-1.38154,0.72995 -3.06212,0.63771 -4.56453,1.06697c-7.29239,1.05658 -17.49839,-4.1954 -19.38632,-11.82486c-0.55503,-2.24296 -0.42463,-7.05905 0.41997,-9.19499c0.27508,-0.69566 0.99284,-1.15292 1.27901,-1.84409c0.50523,-1.22024 -0.85579,-4.14234 -0.74567,-5.58539c0.28086,-3.68047 2.02565,-5.83696 4.24564,-8.58259c0.3241,-0.19916 0.56915,-0.42532 0.75261,-0.67421c0.03222,-0.5328 0.21495,-0.9104 0.45777,-1.17801c0.17923,-1.23236 -0.24713,-2.73772 -0.12269,-4.23186c0.28647,-3.43945 0.97196,-7.61003 2.52989,-10.71374c2.13431,-4.25198 6.71584,-8.2089 11.31453,-9.39566c2.07056,-0.53434 3.83765,-0.25323 5.84965,-0.95634c0,0 0.70255,-0.23418 1.39514,0.00996z" fill="#000000" stroke="none" stroke-width="0.5"/><path d="M241.41411,208.67431c-0.02357,-0.15831 -0.08022,-0.32553 -0.18093,-0.48577c-0.14784,-0.43911 -0.25252,-0.87313 -0.2998,-1.25077c0.60635,0.00088 3.26668,0.03847 3.54929,-0.10073c2.41661,-1.1903 4.14112,-4.73909 4.92865,-7.12566c0.00242,-0.27911 0.00852,-0.55608 0.01327,-0.83279l0.07174,-0.07609c0.84646,0.27315 1.68281,0.66296 2.42879,1.14734c0.85287,1.19262 0.57353,1.9836 0.57353,3.45882c0,4.09463 -2.49929,7.04343 -6.48722,8.6311c-1.99518,0.79432 -3.77366,-1.3348 -4.59732,-3.36545z" data-paper-data="{&quot;noHover&quot;:false,&quot;origItem&quot;:[&quot;Path&quot;,{&quot;applyMatrix&quot;:true,&quot;segments&quot;:[[[478.13065,428.29379],[-3.99036,1.58864],[7.97587,-3.17534]],[[491,411.16506],[0,8.18925],[0,-2.95044]],[[489.87868,404.28638],[1.70573,2.38525],[-1.49197,-0.96876]],[[485.05132,402.01111],[1.69293,0.5463],[0,0]],[[484.98348,401.97815],[0,0],[-0.00951,0.55342]],[[484.96126,403.64561],[0.00483,-0.55823],[-1.57506,4.77314]],[[475.14805,417.9367],[4.83321,-2.3806],[-0.56522,0.2784]],[[468.06053,418.16511],[1.21269,0.00176],[0.09456,0.75527]],[[468.65292,420.64682],[-0.29569,-0.87822],[0.20143,0.32048]],[[469.01081,421.61103],[-0.04715,-0.31662],[1.64731,4.06131]]],&quot;closed&quot;:true}]}" fill="#fcbf78" stroke="none" stroke-width="0.5"/><path d="M186.35477,153.79629c-0.04495,-0.64649 -0.07555,-1.25815 -0.0326,-1.77331c0.24551,-2.9443 0.79697,-6.66632 2.12407,-9.33428c1.5699,-3.15608 5.33657,-6.4933 8.7497,-7.30549c1.73181,-0.4121 3.27399,-0.37832 4.92838,-0.71367c0.00593,0.00702 0.01201,0.01412 0.01809,0.02113c-1.5444,3.68104 -2.0639,7.52413 -2.0639,11.56443c0,1.60616 -0.48109,4.39564 -0.07403,6.02368c-1.14988,-0.00818 -2.30232,0.50825 -3.46014,0.50825c-3.23478,0 -6.98098,0.26755 -10.18958,1.00926z" data-paper-data="{&quot;noHover&quot;:false,&quot;origItem&quot;:[&quot;Path&quot;,{&quot;applyMatrix&quot;:true,&quot;segments&quot;:[[[379,310.16506],[-6.46955,0],[2.31563,0]],[[385.88811,309.16385],[-2.29975,-0.01637],[-0.81412,-3.25608]],[[386,297.16506],[0,3.21231],[0,-8.0806]],[[390.15846,274.14579],[-3.08879,7.36208],[-0.01215,-0.01403]],[[390.12246,274.10367],[0.01186,0.01405],[-3.30879,0.67071]],[[380.29754,275.54872],[3.46361,-0.8242],[-6.82626,1.62438]],[[362.92659,290.09074],[3.1398,-6.31217],[-2.6542,5.33592]],[[358.65304,308.66326],[0.49102,-5.88859],[-0.08591,1.03031]],[[358.71057,312.20287],[-0.08991,-1.29299],[6.41721,-1.48342]]],&quot;closed&quot;:true}]}" fill="#fcbf78" stroke="none" stroke-width="0.5"/><path d="M236.11621,149.21775l0.80487,-0.41877c3.54338,-1.23827 6.13921,-0.19894 9.06533,1.73088c0.12668,0.31183 0.31472,0.58526 0.59164,0.79923c0.9907,0.7655 2.44867,-0.5466 3.67521,-0.79782c1.75394,-0.35924 3.42923,0.09421 5.22342,0.09421c0.44504,0.07436 0.89956,0.21976 1.35365,0.37798c-2.87225,3.40267 -3.84843,7.3536 -3.84843,11.88244c0,0 0.00379,1.50319 1.50379,1.50319c1.5,0 1.4318,-1.42686 1.4318,-1.42686c0,-4.38556 0.98349,-7.86328 4.16507,-11.04487l0.28161,-0.41374c0.01622,-0.00646 0.03246,-0.01311 0.04864,-0.01999c0.20639,-0.08774 0.44904,-0.306 0.71384,-0.61038c0.19684,-0.02101 0.32898,-0.06479 0.32898,-0.06479c4.59736,-1.53245 10.89125,-1.68002 15.37643,0.43397c0.9795,0.46167 1.40499,1.67091 2.25055,2.34736c0.36421,0.29137 1.00485,0.05629 1.35044,0.36953c1.18987,1.07851 1.58871,5.3475 1.56414,6.94572l0.00041,1.00091c0,0 0.0008,1.50196 1.5008,1.50196c1.5,0 1.40688,-1.46356 1.40688,-1.46356l0.00036,-0.99913c-0.02913,-2.61697 -0.55926,-7.0687 -2.43501,-9.05259c-0.40462,-0.42795 -1.18947,-0.26231 -1.64936,-0.63022c-0.9953,-0.79624 -1.61798,-2.06496 -2.74916,-2.65238c-4.05596,-2.10625 -9.71003,-2.29969 -14.46278,-1.38474c0.40172,-0.61 0.82707,-1.21071 1.11916,-1.50844c2.66418,-2.71559 6.80237,-3.67273 10.44887,-3.41525c5.17064,0.3651 7.86897,3.6011 10.44815,7.73227c1.30922,2.09703 1.45967,4.02688 3.64562,5.65066c1.32006,0.98057 3.18125,0.9153 4.64874,1.6573c1.57574,1.24066 3.65885,3.70955 3.7588,5.87569c0.09637,2.08849 -1.56813,5.72621 -0.91554,7.72816c0.30562,0.93755 1.37677,1.42478 1.94906,2.22783c0.48838,0.6853 1.14858,2.52074 1.34837,3.31555c0.54084,2.15154 0.50762,4.54654 -0.74362,6.44537c-0.98685,1.4976 -2.57615,2.57035 -2.96467,4.48316c-0.15636,0.76981 0.5632,1.48645 0.64869,2.26732c0.1116,1.01933 -1.28469,1.46204 -1.74791,1.92103c-0.41724,0.41343 -1.01822,1.19637 -1.60047,1.99662c-1.20558,-0.44607 -2.23043,-0.36263 -3.59037,-1.0365c-1.87707,-0.93012 -2.05212,-2.26822 -4.18516,-3.07351c0,0 -1.32542,-0.45263 -1.79976,0.9704c-0.47434,1.42302 0.94825,1.89906 0.94825,1.89906c1.77046,0.44773 2.00724,2.01773 3.81481,2.92614c1.33728,0.67206 2.2367,0.48315 3.25545,0.82957c0.23,1.70262 1.02436,4.49714 0.6221,6.11875c-1.1472,4.62455 -8.26431,6.46464 -12.22391,6.80936c-0.90602,0.07888 -1.66302,0.02822 -2.35818,0.04961c-0.33668,-0.13937 -0.64458,-0.13914 -0.64458,-0.13914l-0.02571,0.07704c-2.17994,-0.70346 -3.82951,-1.81937 -5.52398,-3.2362c-0.83553,-0.69863 -2.1477,-0.96997 -2.83639,-1.81372c-0.56419,-0.69121 -0.48258,-1.71765 -0.77034,-2.56221c-1.01982,-2.9932 -1.57551,-7.48087 -0.50668,-10.53939c0,0 0.56831,-1.38891 -0.85472,-1.86325c-1.42302,-0.47434 -1.89832,0.9513 -1.89832,0.9513c-1.21627,3.78241 -0.72638,8.74017 0.49112,12.46318c0.15406,0.47108 1.05057,3.212 1.22936,3.43789c0.19721,0.24918 0.62591,0.55613 1.11764,0.8733c-1.28322,0.97276 -2.39474,2.06934 -3.76207,2.97221l-0.72963,0.68822c0,0 -1.12038,0.98046 -0.05972,2.04112c1.06066,1.06066 2.11966,0.00125 2.11966,0.00125l0.271,-0.31228c1.62017,-1.08889 2.87152,-2.42338 4.49496,-3.49536c0,0 0.0951,-0.06331 0.21551,-0.18164c1.2712,1.01378 2.53443,1.85308 3.96028,2.53594c-0.06917,0.08452 -0.06509,0.23985 -0.13594,0.33175c-1.01339,1.31446 -0.20553,3.33232 -0.58596,4.94787c-0.96006,4.07709 -1.68228,8.08626 -5.66747,10.01594c-4.93534,2.84329 -10.59134,3.96006 -16.11843,2.2005c-1.36628,-0.43496 -2.26641,-1.86322 -3.62624,-2.31797c-3.47873,-1.16336 -6.50676,1.06594 -10.05351,-0.87056c-0.10878,-0.05939 -2.81023,-1.846 -3.06756,-2.16573c-0.46807,-0.58157 -0.78255,-1.76676 -1.11835,-2.75122c0.59571,-0.26895 0.83137,-1.03382 0.83137,-1.03382l0.42413,-1.31536c1.15855,-1.70705 2.13551,-4.2729 3.34055,-5.74887c0.26932,-0.32987 0.57936,-0.62337 0.89975,-0.90866c1.6,2.52717 4.25402,4.36604 7.33109,3.43472c7.08162,-2.14337 11.18446,-10.67871 7.10483,-16.9866c-1.1156,-0.75492 -2.25352,-1.34563 -3.5282,-1.78111l-0.80454,-0.41796c0,0 -0.09956,-0.10884 -0.18073,-0.13835c-0.00356,-3.30232 -0.33375,-6.42506 -2.30639,-9.42696l-0.40781,-0.83707c0,0 -0.59528,-1.27633 -1.93692,-0.60551c-1.34164,0.67082 -0.68045,2.02025 -0.68045,2.02025l0.59305,1.16154c2.36363,3.48264 1.71312,7.39735 1.75753,11.43229c-0.45719,1.34754 -1.76562,4.16567 -3.10241,4.85658c-0.71918,0.3717 -1.62139,-0.11374 -2.43094,-0.11374c-2.07801,0 -3.7779,-0.1493 -5.77174,-0.48161c-1.03839,-0.17307 -2.91697,0.0377 -3.8375,-0.71366c-0.04551,-0.03715 -0.09026,-0.07497 -0.13365,-0.11321c-0.05954,-0.0848 -0.13172,-0.17038 -0.21707,-0.25573c-0.07673,-0.07673 -0.15401,-0.14257 -0.23033,-0.19831c-1.30677,-1.53403 -1.34641,-3.7001 -1.34031,-5.63156c0.16178,-0.14957 0.3034,-0.36609 0.3034,-0.36609c1.53197,-2.29796 3.56173,-7.17735 7.04235,-6.85035c0.77907,0.07319 1.01189,1.18994 1.44261,1.84322c1.32199,2.00505 2.11918,3.67693 -0.55937,4.44427l-0.46171,-1.00988c0,0 -0.8389,-1.2499 -2.08697,-0.41784c-1.24807,0.83205 -0.38433,1.98529 -0.38433,1.98529l1.53489,1.98904c1.59717,0.10316 3.19086,0.53484 4.60577,-0.63142c3.52534,-2.9058 0.37617,-10.30244 -3.72909,-11.08308c-0.82243,-0.15639 -4.94388,1.2446 -5.62521,1.78383c-0.40026,0.31679 -0.78193,0.72967 -1.14763,1.19977c0.53228,-2.20129 1.25711,-4.41103 1.97024,-6.5504l0.07525,-0.97975c0,0 -0.00152,-1.51002 -1.50152,-1.51002c-1.5,0 -1.40089,1.48846 -1.40089,1.48846l0.07694,0.02548c-1.00267,3.008 -2.05381,6.10936 -2.56884,9.21071c-0.26848,1.61671 0.10276,2.68631 -0.44747,4.26082c0,0 -0.03057,0.09091 -0.05289,0.23469c-0.02429,0.14345 -0.02455,0.23926 -0.02455,0.23926c0,2.50224 0.11923,5.2179 1.46247,7.37589c-0.76156,0.49504 -1.63493,0.9935 -2.49464,1.28222c-6.2296,2.09205 -5.74438,-4.21899 -5.05809,-8.34785c0.34715,-2.08847 -0.14523,-3.83934 1.84768,-4.99736c0,0 1.24611,-0.83545 0.41406,-2.08353c-0.83205,-1.24807 -2.08151,-0.41886 -2.08151,-0.41886c-0.62,0.44586 -1.29819,0.69461 -1.76919,1.29575c-1.22133,1.55875 -0.99521,3.88267 -1.29276,5.66298c-0.56184,3.36161 -1.61347,8.3212 1.56004,10.92163c3.18419,2.60917 7.79646,0.97663 10.73009,-0.95115l0.23022,-0.22281c2.03947,1.28114 5.18834,1.47959 7.94782,1.49141c0.0453,0.54535 0.14416,1.21005 0.30433,1.77649c-0.62557,0.66934 -1.46095,1.16912 -2.03101,1.89244c-1.33015,1.68777 -2.42406,4.37126 -3.6592,6.25086l-0.44447,1.30029c-1.38207,-0.71975 -3.09026,-0.96608 -4.53172,-1.6054c-6.1516,-1.76926 -14.56215,-4.14984 -17.97439,-10.13846c-1.70665,-2.99523 -3.61997,-6.12754 -4.46271,-9.48922c-0.11199,-0.44672 -0.66605,-4.35411 -0.68416,-4.39646c-0.56889,-1.33107 -0.94552,-3.1628 -2.29171,-3.69493c-0.0848,-0.03352 -6.88408,2.03401 -7.74192,2.27911c-5.00517,1.03581 -13.28797,-3.62727 -14.61506,-8.85178c-0.36793,-1.44844 -0.37258,-5.41193 0.2468,-6.81068c0.34604,-0.78144 1.15258,-1.33621 1.38784,-2.15782c0.45303,-1.5822 -0.30781,-3.28534 -0.60606,-4.90387c-0.57766,-3.13485 1.34229,-5.36845 3.10847,-7.60534c0.68502,-0.62706 1.65771,-1.04411 2.05579,-1.88315c0.04244,-0.08946 0.08061,-0.1831 0.11467,-0.28005c0.36968,-0.28827 0.73976,-0.57754 1.10943,-0.86581c4.36321,-1.01094 9.00861,-0.29701 13.388,-1.32712c0.86222,-0.20281 1.98102,-0.00118 2.76108,-0.3262c3.77763,0.78012 8.20728,1.224 9.13893,5.87944l-0.05968,0.01487c0,0 -0.08415,1.94599 1.91585,1.94599c2,0 2.00266,-2.00382 2.00266,-2.00382l-0.05896,-0.98604c-0.69344,-2.47732 -2.37807,-4.88638 -4.54745,-6.55588c0.52949,-0.41424 1.20822,-0.70351 1.94318,-1.21533c3.40014,-2.36781 8.54177,-1.2111 11.84652,0.99207c0.85049,0.567 2.05153,0.5883 2.77432,1.31108c1.12862,1.12862 1.19848,3.99891 1.68219,5.50319l-0.07681,0.02557c0,0 -0.0452,1.41081 1.4548,1.41081c1.5,0 1.50455,-1.50194 1.50455,-1.50194l-0.07638,-0.97455c-0.7153,-2.04686 -0.66235,-4.82561 -2.32884,-6.49211c-0.48507,-0.48507 -1.29127,-0.46999 -1.89924,-0.78773c-2.63168,-1.37544 -4.85145,-3.12869 -7.91152,-3.63688c-3.86383,-0.64165 -8.88139,0.80412 -11.44045,3.92403c-1.63408,-0.59181 -3.48614,-0.515 -5.18887,-0.80926c-0.06807,-1.55677 -0.17498,-3.15643 -0.17498,-3.70953c0,-4.05945 0.11921,-7.83522 1.59023,-11.54753c0.80335,-0.26081 1.20617,-1.06504 1.20617,-1.06504c0.33334,-0.66666 0.6681,-1.33438 1.00143,-2.00104l0.62593,-0.48061c0,0 0.63568,-0.63535 0.62948,-1.47955c3.06578,-1.29447 6.4914,-1.18847 9.96475,-1.18847c8.2012,0 19.15832,3.44259 24.88356,9.68112c1.81553,1.9783 1.43997,4.2366 1.77472,6.61303c-3.01031,-1.55863 -5.9755,-2.04011 -9.60712,-0.87233l-1.19464,0.58113c0,0 -1.35856,0.57227 -0.68775,1.91392c0.67082,1.34164 2.01542,0.67036 2.01542,0.67036z" data-paper-data="{&quot;noHover&quot;:false,&quot;origItem&quot;:[&quot;Path&quot;,{&quot;applyMatrix&quot;:true,&quot;segments&quot;:[[[454.31672,301.5067],[1.34164,2.68328],[-1.34164,-2.68328]],[455.65836,297.48178],[[458.05132,296.31901],[0,0],[7.26324,-2.33556]],[[477.29399,298.06439],[-6.02062,-3.11726],[-0.6695,-4.75286]],[[473.71827,285.03647],[3.63106,3.9566],[-11.45047,-12.47705]],[[424,265.66667],[16.40239,0],[-6.94669,0]],[[404.08542,268.0357],[6.13156,-2.58893],[0.01241,1.68839]],[402.82843,270.99349],[[401.57771,271.95392],[0,0],[-0.66667,1.33333]],[[399.57771,275.95392],[0.66667,-1.33333],[0,0]],[[397.16767,278.08223],[1.60669,-0.52162],[-2.94203,7.42463]],[[394,301.16506],[0,-8.1189],[0,1.10619]],[[394.35372,308.57958],[-0.13615,-3.11353],[3.40546,0.58853]],[[404.57744,310.07066],[-3.26817,-1.18363],[5.11811,-6.23981]],[[427.48055,302.2038],[-7.72767,-1.28331],[6.12014,1.01636]],[[443.31805,309.47012],[-5.26336,-2.75087],[1.21593,0.6355]],[[447.12132,311.04374],[-0.97014,-0.97014],[3.33299,3.33299]],[[451.84605,324.21638],[-1.4306,-4.09373],[0,0]],[452,326.16506],[[449,329.16506],[3,0],[-3,0]],[446,326.16506],[[446.15395,326.11375],[0,0],[-0.96743,-3.00856]],[[442.87868,315.28638],[2.25725,2.25725],[-1.44557,-1.44557]],[[437.3359,312.66121],[1.70099,1.134],[-6.60951,-4.40634]],[[413.6641,310.66121],[6.80027,-4.73562],[-1.46991,1.02363]],[[409.78183,313.08764],[1.05898,-0.82849],[4.33876,3.339]],[[418.88057,326.19492],[-1.38689,-4.95464],[0,0]],[419,328.16506],[[415,332.16506],[4,0],[-4,0]],[411,328.16506],[[411.11943,328.1352],[0,0],[-1.86329,-9.31088]],[[393.00882,316.486],[7.55526,1.56025],[-1.56013,0.65003]],[[387.48873,317.13509],[1.72444,-0.40562],[-8.75877,2.06022]],[[360.71909,319.77681],[8.72643,-2.02189],[-0.73935,0.57655]],[[358.50103,321.50647],[0.73935,-0.57655],[-0.06812,0.1939]],[[358.27188,322.06609],[0.08489,-0.17892],[-0.79616,1.67808]],[[354.16176,325.82843],[1.37004,-1.25411],[-3.53237,4.4738]],[[347.94835,341.02594],[-1.15533,-6.26969],[0.5965,3.23706]],[[349.1617,350.8258],[0.90607,-3.1644],[-0.47051,1.64323]],[[346.38638,355.13762],[0.69207,-1.56289],[-1.23877,2.79749]],[[345.893,368.74765],[-0.73585,-2.89689],[2.65418,10.44901]],[[375.12035,386.43125],[-10.01033,2.07162],[1.71567,-0.49019]],[[390.60442,381.874],[-0.16961,-0.06704],[2.69238,1.06426]],[[395.18477,389.25333],[-1.13778,-2.66215],[0.0362,0.0847]],[[396.54872,398.03579],[-0.22398,-0.89345],[1.68549,6.72335]],[[405.45964,416.99229],[-3.41329,-5.99045],[6.82449,11.97725]],[[441.36506,437.24013],[-12.30321,-3.53853],[2.88293,1.27864]],[[450.41657,440.44768],[-2.76414,-1.43951],[0,0]],[[451.30505,437.84701],[0,0],[2.47028,-3.75919]],[[458.61588,425.34408],[-2.66031,3.37555],[1.14012,-1.44664]],[[462.67172,421.55864],[-1.25115,1.33869],[-0.32033,-1.13287]],[[462.04965,418.2052],[0.0906,1.0907],[-5.51896,-0.02365]],[[446.12499,415.21577],[4.07893,2.56227],[0,0]],[[445.6641,415.66121],[0,0],[-5.86725,3.85556]],[[424.17902,417.54918],[6.36838,5.21835],[-6.34703,-5.20086]],[[421.03874,395.68452],[-1.12367,6.72322],[0.5951,-3.56064]],[[423.61588,384.34408],[-2.44266,3.11751],[0.942,-1.20226]],[[427.3359,381.66891],[-1.24001,0.89172],[0,0]],[[431.49615,382.50096],[-1.6641,-2.49615],[1.6641,2.49615]],[[430.6641,386.66121],[0,0],[-3.98582,2.31604]],[[426.96126,396.64561],[0.69429,-4.17695],[-1.37259,8.25773]],[[437.05132,413.31901],[-12.45921,4.18409],[1.71943,-0.57742]],[[441.94371,410.92944],[-1.52313,0.99008],[-2.68648,-4.31599]],[[439,396.16506],[0,5.00447],[0,0]],[[439.04859,395.68611],[-0.04859,0.28691],[0.04463,-0.28755]],[[439.15395,395.21638],[0,0],[1.10046,-3.14903]],[[440.03874,386.68452],[-0.53697,3.23343],[1.03007,-6.2027]],[[445.15395,368.21638],[-2.00533,6.016],[0,0]],[445,368.16506],[[448,365.16506],[-3,0],[3,0]],[451,368.16506],[[450.84605,370.11375],[0,0],[-1.42625,4.27874]],[[446.88346,383.18017],[1.06456,-4.40257],[0.7314,-0.9402]],[[449.17902,380.78094],[-0.80053,0.63358],[1.36266,-1.07847]],[[460.3982,377.19161],[-1.64485,-0.31278],[8.21051,1.56129]],[[467.82098,399.54918],[7.05067,-5.81161],[-2.82982,2.33252]],[[458.58443,400.81009],[3.19434,0.20632],[0,0]],[455.50385,396.82916],[[456.3359,392.66891],[-2.49615,1.6641],[2.49615,-1.6641]],[460.49615,393.50096],[[461.41557,395.52004],[0,0],[5.35709,-1.53469]],[[462.50385,386.82916],[2.64399,4.0101],[-0.86145,-1.30656]],[[459.6018,383.13852],[1.55813,0.14638],[-6.96124,-0.654]],[[445.49615,396.82916],[3.06394,-4.59591],[0,0]],[[444.9965,397.39247],[0.32356,-0.29915],[-0.01221,3.86293]],[[447.66176,408.64758],[-2.61354,-3.06806],[0.15265,0.11146]],[[448.12132,409.04374],[-0.15345,-0.15345],[0.17071,0.17071]],[[448.55433,409.55476],[-0.11907,-0.1696],[0.08676,0.07648]],[[448.82098,409.78094],[-0.09102,-0.0743],[1.84106,1.50273]],[[456.48055,411.2038],[-2.07677,-0.34613],[3.98768,0.66461]],[[468,412.16506],[-4.15603,0],[1.61911,0]],[[472.85195,412.39342],[-1.43835,0.7434],[2.67359,-1.38182]],[[479.03874,402.68452],[-0.91438,2.69509],[-0.08882,-8.06988]],[[475.50385,379.82916],[4.72725,6.96528],[0,0]],[474.31672,377.5067],[[475.65836,373.48178],[-2.68328,1.34164],[2.68328,-1.34164]],[479.68328,374.82342],[[480.49615,376.50096],[0,0],[3.94529,6.0038]],[[485.08481,395.37552],[-0.00712,-6.60464],[0.16236,0.05902]],[485.34164,395.48178],[[486.94868,396.31901],[0,0],[2.54936,0.87096]],[[494.12132,400.04374],[-2.2312,-1.50983],[8.15926,12.6158]],[[479.86935,434.03634],[14.16324,-4.28674],[-6.15414,1.86265]],[[465.18637,427.1688],[3.2,5.05435],[-0.64079,0.57059]],[[463.38412,428.98604],[0.53863,-0.65973],[-2.41008,2.95195]],[[456.69495,440.48312],[2.3171,-3.4141],[0,0]],[455.84605,443.11375],[[454.21076,444.9833],[1.19141,-0.5379],[0.67159,1.96893]],[[456.444,450.48529],[-0.93614,-1.16315],[0.51466,0.63946]],[[462.57189,454.81621],[-0.21756,-0.11878],[7.0935,3.87299]],[[482.65736,456.55882],[-6.95746,-2.32672],[2.71964,0.9095]],[[489.90364,461.19607],[-2.73256,-0.86992],[11.05417,3.51912]],[[522.11257,456.80663],[-9.87067,5.68658],[7.97037,-3.85935]],[[533.43125,436.78702],[-1.92012,8.15418],[0.76085,-3.23111]],[[534.5974,426.89708],[-2.02678,2.62891],[0.1417,-0.1838]],[[535.01739,426.36798],[-0.13834,0.16903],[-2.85171,-1.36572]],[[527.09558,421.29744],[2.54239,2.02755],[-0.24081,0.23666]],[[526.6641,421.66121],[0,0],[-3.24689,2.14396]],[[517.6641,428.66121],[3.24033,-2.17778],[0,0]],[517.12132,429.28638],[[512.87868,429.28638],[2.12132,2.12132],[-2.12132,-2.12132]],[512.87868,425.04374],[[514.3359,423.66891],[0,0],[2.73466,-1.80573]],[[521.8509,417.73291],[-2.56644,1.94552],[-0.98347,-0.63434]],[[519.61588,415.98604],[0.39442,0.49835],[-0.35757,-0.45179]],[[517.15395,409.11375],[0.30811,0.94217],[-2.435,-7.44602]],[[516.15395,384.21638],[-2.43254,7.56483],[0,0]],[[519.94868,382.31901],[-2.84605,-0.94868],[2.84605,0.94868]],[[521.84605,386.11375],[0,0],[-2.13766,6.11703]],[[522.84605,407.21638],[-2.03965,-5.9864],[0.57551,1.68912]],[[524.38412,412.34408],[-1.12837,-1.38243],[1.37738,1.68749]],[[529.90197,415.84504],[-1.67107,-1.39726],[3.38895,2.83365]],[[540.94868,422.31901],[-4.35989,-1.40692],[0,0]],[541,422.16506],[[542.28879,422.4438],[-0.67337,-0.27874],[1.39033,-0.04278]],[[547.00341,422.34696],[-1.81205,0.15776],[7.9192,-0.68945]],[[571.44034,408.74765],[-2.29439,9.24911],[0.80453,-3.24322]],[[570.19276,396.51945],[0.46,3.40524],[-2.03751,-0.69283]],[[563.68195,394.86001],[2.67456,1.34412],[-3.61516,-1.81683]],[[556.05132,389.01111],[3.54093,0.89546],[0,0]],[[554.15395,385.21638],[-0.94868,2.84605],[0.94868,-2.84605]],[[557.94868,383.31901],[0,0],[4.26606,1.61059]],[[566.31805,389.47012],[-3.75415,-1.86024],[2.71989,1.34774]],[[573.30489,391.49413],[-2.41116,-0.89214],[1.16451,-1.60049]],[[576.50491,387.50491],[-0.83448,0.82687],[0.92643,-0.91798]],[[580,383.66667],[0.2232,2.03866],[-0.17098,-1.56173]],[[578.70206,379.13573],[-0.31272,1.53962],[0.77704,-3.82562]],[[584.63066,370.17752],[-1.97369,2.99521],[2.50247,-3.79767]],[[586.11795,357.29754],[1.08169,4.30308],[-0.39959,-1.58962]],[[583.4217,350.67217],[0.97676,1.37061],[-1.14458,-1.6061]],[[579.52415,346.22071],[0.61124,1.8751],[-1.30518,-4.0039]],[[581.35797,330.77658],[0.19274,4.17698],[-0.19991,-4.33227]],[[573.84419,319.03601],[3.15147,2.48132],[-2.93497,-1.48399]],[[564.54922,315.72692],[2.64011,1.96114],[-4.37191,-3.24755]],[[557.26406,304.43626],[2.61845,4.19406],[-5.15837,-8.26234]],[[536.38311,288.98994],[10.34128,0.7302],[-7.29301,-0.51496]],[[515.49509,295.82843],[5.32837,-5.43118],[-0.58417,0.59545]],[[513.37379,298.68311],[0.80344,-1.22],[9.50551,-1.82991]],[[542.31805,301.47012],[-8.11192,-4.2125],[2.26237,1.17484]],[[547.82098,306.78094],[-1.99061,-1.59249],[0.91978,0.73582]],[[551.12132,308.04374],[-0.80924,-0.8559],[3.7515,3.96778]],[[556,326.16506],[-0.05825,-5.23394],[0,0]],[556,328.16506],[[553,331.16506],[3,0],[-3,0]],[550,328.16506],[[550,326.16506],[0,0],[0.04915,-3.19644]],[[546.87868,312.28638],[2.37975,2.15701],[-0.69117,-0.62647]],[[544.17902,311.54918],[0.72842,0.58274],[-1.69112,-1.3529]],[[539.68195,306.86001],[1.959,0.92333],[-8.97035,-4.22797]],[[508.94868,306.01111],[9.19473,-3.06491],[0,0]],[[508.29124,306.14105],[0.39369,-0.04201],[-0.5296,0.60876]],[[506.86407,307.36218],[0.41279,-0.17548],[-0.03236,0.01376]],[[506.76685,307.4022],[0.03245,-0.01293],[0,0]],[[506.32003,308.06703],[0,0],[-6.36317,6.36317]],[[498,330.16506],[0,-8.77111],[0,0]],[[495,333.16506],[3,0],[-3,0]],[[492,330.16506],[0,0],[0,-9.05767]],[[499.70711,306.40702],[-5.74449,6.80534],[-0.90816,-0.31643]],[[497.00341,305.65304],[0.89009,0.14872],[-3.5884,0]],[[486.57031,305.4706],[3.50788,-0.71848],[-2.45307,0.50243]],[[479.23041,307.06927],[1.98141,1.53101],[-0.55383,-0.42794]],[[478.04958,305.47134],[0.25335,0.62366],[-5.85224,-3.85965]],[[459.94868,302.01111],[7.08676,-2.47655],[0,0]],[458.34164,302.84834]],&quot;closed&quot;:true}]}" fill="url(#color-1)" stroke="none" stroke-width="0.5"/><path d="M205.4961,178.08365c0.0992,-0.44269 0.41975,-1.15794 1.45554,-1.15794c1.5,0 1.5,1.5 1.5,1.5l-0.66795,1.74808c-1.8929,1.26193 -3.12994,2.53496 -5.57233,2.23256c-2.64361,-0.32731 -5.32865,-0.8796 -7.32039,-2.91997c-3.5575,-3.64436 -3.21908,-11.1835 2.12599,-12.9963c0.23879,-0.08098 2.99079,-0.06437 3.43467,-0.06437c0,0 1.5,0 1.5,1.5c0,1.5 -1.5,1.5 -1.5,1.5c-2.17016,0 -3.26006,-0.12447 -4.72403,1.7886c-0.66949,0.87488 0.06553,1.54927 0.21279,2.52813c0.32908,2.18743 0.78843,4.54636 3.44591,5.24764c2.76114,0.72863 4.02271,0.41284 6.10978,-0.90643z" fill="#000000" stroke="none" stroke-width="0.5"/><text transform="translate(196.71405,189.7174) scale(0.65746,1.02668)" font-size="40" xml:space="preserve" fill="#000000" fill-rule="nonzero" stroke="#ffffff" stroke-width="1" stroke-linecap="butt" stroke-linejoin="miter" stroke-miterlimit="10" stroke-dasharray="" stroke-dashoffset="0" font-family="Marker" font-weight="normal" text-anchor="start" style="mix-blend-mode: normal"><tspan x="0" dy="0">POWiE!!</tspan></text></g></g></svg>