<svg version="1.1" xmlns="http://www.w3.org/2000/svg" xmlns:xlink="http://www.w3.org/1999/xlink" width="708.3855" height="1404.29698" viewBox="0,0,708.3855,1404.29698"><g transform="translate(102.69118,1145.58557)"><g data-paper-data="{&quot;isPaintingLayer&quot;:true}" fill-rule="nonzero" stroke-linejoin="miter" stroke-miterlimit="10" stroke-dasharray="" stroke-dashoffset="0" style="mix-blend-mode: normal"><path d="M241.591,130.26317c0,3.06339 -3.45199,5.80504 -4.52475,8.00244c-0.84485,1.73055 0.21793,3.42564 -0.61561,4.78578c-2.7678,4.51638 -4.06494,3.61422 -10.94329,7.71634c-0.30007,0.17895 -7.5371,7.44959 -11.46017,4.67784c-3.55755,-2.51349 -7.44319,-2.69527 -7.45364,-4.20482c-0.02072,-2.99242 14.58568,-0.2806 15.07323,-1.63338c1.14878,-3.18751 3.69536,-6.64398 1.62384,-8.26111c-4.50589,-3.51752 -20.51975,0.34419 -23.53364,-2.93746c-4.0555,-4.41581 -3.86065,-3.46187 -3.86065,-9.12001c0,-3.15577 1.48893,-3.75448 0.39317,-6.45435c-1.51298,-3.72785 2.2361,-7.97688 4.60564,-10.5749c3.24857,-3.56181 16.86934,-6.04364 21.44239,-6.04364c5.47144,0 11.06753,0.0391 14.48622,4.93307c3.03229,4.34082 4.76726,12.7747 4.76726,19.11424z" fill="#4f93b8" stroke="none" stroke-width="0" stroke-linecap="butt"/><path d="M198.68012,134.17058c0.01938,-0.06897 0.02772,-0.14087 0.023,-0.21611c-0.04869,-0.77507 -0.71048,-1.4071 -1.09896,-2.07955c-0.99778,-1.72713 -1.98686,-2.37476 -1.13189,-4.49084c0.28786,-0.71245 1.23291,-1.09231 1.78428,-1.63112c0.22339,0.08607 0.42396,0.08476 0.42396,0.08476c1.10967,0 3.97829,-0.46681 4.87059,0.29814c3.13214,2.68514 -0.46822,9.29373 -4.35197,8.165z" data-paper-data="{&quot;noHover&quot;:false,&quot;origItem&quot;:[&quot;Path&quot;,{&quot;applyMatrix&quot;:true,&quot;segments&quot;:[[[382.34127,250.4895],[0,0],[9.2986,2.70246]],[[392.67061,231.11496],[7.49908,6.42886],[-2.13637,-1.83148]],[[381.10993,230.41486],[2.65682,0],[0,0]],[[380.10159,230.2088],[0.53485,0.20606],[-1.3201,1.29004]],[[375.86718,234.0808],[0.6892,-1.70578],[-2.04701,5.0664]],[[378.57856,244.72341],[-2.38891,-4.13516],[0.93011,1.61]],[[381.16638,249.66486],[-0.11659,-1.85569],[0.01132,0.18014]],[[381.10994,250.18167],[0.0464,-0.16513],[0,0]]],&quot;closed&quot;:true}]}" fill="#9caab1" stroke="none" stroke-width="0.5" stroke-linecap="butt"/><path d="M222.3524,122.71259c-2.11738,1.62535 -4.04278,5.1808 -3.45888,7.63573c0.68297,2.87145 3.38172,4.03418 5.89848,4.68546c1.77672,-0.01516 4.53801,0.527 6.14509,-0.39438c4.66255,-2.67314 3.006,-10.7386 -1.82713,-11.91367c-1.874,-0.48496 -4.12101,-0.75236 -6.01959,-0.26104l-0.70618,0.23863c0,0 -0.01126,0.00376 -0.03178,0.00926zM223.3896,120.27747c2.05327,-0.32684 4.23513,-0.06192 6.22687,0.42228c6.54683,1.67319 8.68337,12.1446 2.34956,15.75696c-2.06024,1.17501 -5.16157,0.66494 -7.42918,0.64979c-1.59267,-0.38719 -3.30636,-0.75707 -4.65966,-1.75553c-5.42226,-4.00051 -2.69397,-12.3708 2.49296,-15.09425c0,0 0.552,-0.276 1.01944,0.02075z" fill="#000000" stroke="none" stroke-width="0.5" stroke-linecap="butt"/><path d="M222.36154,122.66823l0.70995,-0.2408c1.89859,-0.49131 4.18255,-0.2243 6.05656,0.26066c4.83313,1.17506 6.49747,9.31097 1.83492,11.98412c-1.60709,0.92137 -4.40357,0.38714 -6.18029,0.4023c-2.51676,-0.65128 -5.24693,-1.84555 -5.92989,-4.717c-0.58389,-2.45492 1.35946,-6.05457 3.47683,-7.67992c0.02052,-0.0055 0.03194,-0.00936 0.03194,-0.00936z" data-paper-data="{&quot;noHover&quot;:false,&quot;origItem&quot;:[&quot;Path&quot;,{&quot;applyMatrix&quot;:true,&quot;segments&quot;:[[[341.31875,140.25102],[0.04912,-0.01318],[-5.0695,3.89148]],[[333.03738,158.53276],[-1.39799,-5.87767],[1.63518,6.87491]],[[347.15972,169.75087],[-6.02571,-1.55933],[4.25387,-0.03631]],[[361.87251,168.80664],[-3.84773,2.20599],[11.16324,-6.40013]],[[357.49792,140.2825],[11.57166,2.81339],[-4.48681,-1.1611]],[[343.0856,139.6575],[4.54565,-1.17632],[0,0]],[341.39483,140.22885]],&quot;closed&quot;:true}]}" fill="#9caab1" stroke="none" stroke-width="0.5" stroke-linecap="butt"/><path d="M225.6713,128.57441c0,-0.57668 0.46749,-1.04417 1.04417,-1.04417c0.57669,0 1.04417,0.4675 1.04417,1.04417c0,0.57668 -0.46749,1.04417 -1.04417,1.04417c-0.57669,0 -1.04417,-0.4675 -1.04417,-1.04417z" fill="#000000" stroke="none" stroke-width="0.5" stroke-linecap="butt"/><path d="M198.52275,129.87966c0,-0.57668 0.46749,-1.04417 1.04417,-1.04417c0.57669,0 1.04417,0.4675 1.04417,1.04417c0,0.57668 -0.46749,1.04417 -1.04417,1.04417c-0.57669,0 -1.04417,-0.4675 -1.04417,-1.04417z" fill="#000000" stroke="none" stroke-width="0.5" stroke-linecap="butt"/><path d="M208.96448,135.88368c-1.04417,0 -1.04417,-1.04417 -1.04417,-1.04417l0.03117,-0.77534c0.08701,-0.34805 0.17403,-0.69612 0.26104,-1.04417c0,0 0.25325,-1.013 1.26625,-0.75975c1.013,0.25325 0.75974,1.26625 0.75974,1.26625c-0.08701,0.34805 -0.17403,0.69612 -0.26104,1.04417l0.03118,0.26884c0,0 0,1.04417 -1.04417,1.04417z" fill="#000000" stroke="none" stroke-width="0.5" stroke-linecap="butt"/><path d="M215.21214,133.0334c0.80052,0.14827 0.80052,1.02294 0.80052,1.02294l-1.78252,0.99939c-0.83956,-0.85751 -1.24213,-1.78814 -2.08835,-2.61044c0,0 -0.73834,-0.73835 0,-1.47669c0.73834,-0.73835 1.47669,0 1.47669,0c0.65839,0.67247 1.04804,1.38991 1.59365,2.0648z" fill="#000000" stroke="none" stroke-width="0.5" stroke-linecap="butt"/><path d="M231.31309,143.09518c-0.44301,-0.44301 0,-0.88601 0,-0.88601l0.04755,0.046c0.34263,-1.00183 1.10741,-1.9722 1.38696,-2.96679c0.45335,-1.61287 -0.01172,-2.40856 1.64433,-3.52198c0,0 0.52129,-0.34753 0.8688,0.17376c0.34752,0.52129 -0.17376,0.86881 -0.17376,0.86881c-1.31426,0.86736 -0.74329,1.47087 -1.14014,2.84251c-0.29538,1.02098 -1.06767,1.9759 -1.3975,2.99992l-0.35024,0.44378c0,0 -0.44301,0.44301 -0.88601,0z" fill="#000000" stroke="none" stroke-width="0.5" stroke-linecap="butt"/><path d="M218.65918,117.39309c0,0.6265 -0.6265,0.6265 -0.6265,0.6265l-0.44473,-0.01871c-3.76217,0.93823 -7.26315,0.96862 -11.09092,1.01316c0,0 -0.6265,0 -0.6265,-0.6265c0,-0.6265 0.6265,-0.6265 0.6265,-0.6265c3.72543,0.03364 7.13535,-0.0607 10.78702,-0.97574l0.74862,-0.0187c0,0 0.6265,0 0.6265,0.6265z" fill="#000000" stroke="none" stroke-width="0.5" stroke-linecap="butt"/><path d="M215.64365,115.60385c0.19812,0.59435 -0.39624,0.79247 -0.39624,0.79247l-0.59667,0.19889c-2.01026,0.67009 -3.64303,0.82771 -5.76705,0.82771c0,0 -0.6265,0 -0.6265,-0.6265c0,-0.6265 0.6265,-0.6265 0.6265,-0.6265c2.01151,0 3.47219,-0.13054 5.37082,-0.76341l0.59667,-0.19889c0,0 0.59435,-0.19812 0.79247,0.39624z" fill="#000000" stroke="none" stroke-width="0.5" stroke-linecap="butt"/><path d="M272.467,244.3318c-0.42203,-0.10551 -0.84404,-0.21102 -1.26607,-0.31652c0.09118,0.10565 0.18139,0.21214 0.27063,0.31946c0.38638,0.46457 1.61534,1.70759 1.53424,2.38611c-0.36883,3.08565 -4.35621,-0.06521 -5.24621,-0.94923c-1.23298,-1.23298 -2.38292,-2.39073 -3.59925,-3.60034c-0.09052,-0.01123 -0.25867,-0.04808 -0.38756,-0.16901c-1.30802,-0.15916 -2.67453,-0.93892 -3.87377,-1.60396c-2.55441,0.5191 -5.54261,0.16727 -7.91357,1.50745c-1.03569,0.58542 -1.44637,1.63139 -2.27617,2.09736c2.71657,-0.06019 5.2447,1.39432 7.7717,2.32904c1.10707,0.4095 2.21902,0.53415 3.21834,1.20798c2.06514,0.51629 4.08972,2.03602 5.98851,2.9935c0.38482,0.19405 1.0665,0.95553 1.55369,0.93196c2.52633,-0.12219 5.15164,-0.5797 7.65606,-0.59484c0.03342,-0.00669 0.06684,-0.01343 0.10024,-0.02023c0.21222,-0.20154 0.41687,-0.36411 0.60402,-0.45103c1.36451,-0.6338 1.88797,-0.56684 2.56638,-0.34649c2.34915,-0.68394 4.6629,-1.51781 7.03967,-2.19077c0.02188,-0.14142 0.04926,-0.28529 0.08587,-0.43095c0.00882,-0.03508 0.20148,-0.61823 0.42567,-1.29136c-1.19697,-0.35251 -2.22077,-1.03362 -3.50153,-1.18735c-1.94968,-0.234 -4.10272,-0.33793 -6.01831,-0.80618l-0.04695,0.0187c0,0 -0.25273,0 -0.43716,-0.16052c-0.4737,0.42627 -0.65365,1.11068 -1.17146,1.42414c-0.88811,0.53762 -2.02721,-0.21097 -2.7503,-1.08823c-0.11611,0.03126 -0.22882,0.01811 -0.31964,-0.00707c-0.00464,-0.00099 -0.00711,-0.00161 -0.00711,-0.00161zM273.6042,243.3513c0.09345,0.10202 0.204,0.19062 0.31596,0.26268c0.35177,0.22644 0.66341,0.54883 0.85025,0.92313c0.09127,0.18285 0.15923,-0.37866 0.26985,-0.55049c0.29807,-0.46306 0.71447,-0.85614 1.16821,-1.16821l0.10341,-0.12061c0,0 0.44301,-0.44301 0.88601,0c0.07574,0.07575 0.12558,0.15149 0.15618,0.22502l0.14944,0.00797c1.87107,0.48034 4.00388,0.53738 5.91512,0.78494c1.35689,0.17576 2.40723,0.97061 3.68683,1.26983c0.17583,-0.52329 0.31308,-0.92724 0.32312,-0.94528c0.1358,-0.24406 0.66846,-0.23658 0.66034,-0.51576c-0.00703,-0.24195 -0.50724,-0.08094 -0.68255,-0.24785c-0.48504,-0.46178 -0.91965,-0.99292 -1.23903,-1.58157c-0.89372,-1.64722 -0.96086,-3.58511 -0.96086,-5.39738c0,-0.46132 -0.0283,-1.39226 0.04161,-2.3678c-0.16464,0.09175 -0.3387,0.09175 -0.3387,0.09175h-0.79556c-1.82242,0 -3.57266,-0.19889 -5.37005,-0.19889c0,0 -0.6265,0 -0.6265,-0.6265c0,-0.6265 0.6265,-0.6265 0.6265,-0.6265c1.8032,0 3.54503,0.19889 5.37005,0.19889h0.79556c0,0 0.26332,-0.00001 0.44854,0.1707c0.11686,-0.74055 0.31821,-1.42153 0.6627,-1.84599c-0.20643,0.06888 -0.40405,0.12179 -0.53694,0.13512c-0.55948,0.05609 -1.12456,0.00498 -1.68684,0.00498c-1.67725,0 -3.25615,-0.26605 -4.93295,-0.27991c-2.11199,-0.77526 -2.7276,-0.47819 -3.52403,-2.88006c-0.61212,-1.84601 0.05449,-4.23563 -0.50348,-6.2032c-0.442,-1.55864 -1.75474,-1.47639 -2.90301,-2.43235c-1.99073,-1.65734 -2.29217,-4.41334 -2.12847,-6.8952c0.05345,-0.81046 -0.22804,-1.78404 0.27594,-2.42102c1.57394,-1.98933 3.64609,-0.80565 5.43858,-0.79839c0.75254,0.00305 -0.20398,-4.08591 -0.22761,-4.23029c0,-4.2321 -1.22478,-8.35427 -1.56626,-12.5301c-0.315,-3.85199 0.35284,-7.78979 -0.13043,-11.62633c-0.65223,0.40143 -1.25586,0.74681 -1.59831,0.97512c-2.48322,1.64914 -7.03678,3.48705 -8.24508,6.47545c-0.62353,1.54215 -0.89989,3.88435 -1.81262,5.26274c-0.32166,0.48575 -0.99765,0.61968 -1.41426,1.02692c-0.45635,0.44609 -0.60844,1.22281 -1.17924,1.50821c-0.40283,0.20141 -0.91227,-0.4313 -1.32678,-0.2552c-0.23547,0.10005 0.38583,0.38468 0.42816,0.637c0.10201,0.60794 0.06356,1.23737 -0.01095,1.84929c-0.15676,1.28741 -1.18996,4.43185 -0.25596,5.66202c0.49472,0.6516 1.31996,1.03078 1.73551,1.73551c1.54065,0.29916 2.41904,1.53305 3.75822,1.88417c2.22203,0.58259 4.41602,-0.43448 5.19348,2.82031c0.16556,0.69314 -0.3077,1.39312 -0.40718,2.09878c-0.10563,0.74929 0.21155,1.63046 -0.20737,2.2606c-0.66354,0.9981 -2.27596,0.97299 -3.07129,1.86959c-0.80315,0.90541 -0.40556,1.26947 -0.46941,2.3739c-0.01916,0.33145 -0.31341,0.68006 -0.17297,0.9809c0.20507,0.43929 2.79057,1.65249 3.28105,1.97947c2.48962,1.65975 4.50551,3.4305 6.05922,5.97888c-0.14353,0.56688 -0.17053,1.18747 -0.29071,1.7651c0.08127,0.03087 0.13267,0.06513 0.13267,0.06513c1.70041,1.14324 3.24334,3.19084 3.26234,5.29465v0.59667c0,0 0,0.6265 -0.6265,0.6265c-0.6265,0 -0.6265,-0.6265 -0.6265,-0.6265v-0.59667c0.01904,-1.6359 -1.31532,-3.30685 -2.63243,-4.20386c-1.31044,1.71377 -4.37488,1.78811 -5.65219,3.89609c-0.7465,1.23197 -0.22657,2.76188 -0.21988,4.14593c1.58473,1.12042 3.09221,2.32125 4.66341,3.43735c0.23872,0.03939 0.47969,0.06643 0.72471,0.07479c0.26025,-0.07508 0.44113,0.00457 0.56066,0.11272c0.12142,0.07729 0.23118,0.20888 0.25308,0.43283c0.07475,0.06387 0.14361,0.15171 0.17624,0.27027zM244.74701,204.0752c-2.29512,0 -5.05176,-0.10372 -7.26399,-0.77181c-1.50471,-0.45442 -3.14591,-1.83786 -4.54078,-2.29804c-0.1207,0.61325 -0.29878,1.21404 -0.43438,1.76347c-0.39882,1.61606 -0.6469,3.57666 -1.28209,5.12458c0.03696,0.11869 0.06218,0.24112 0.07272,0.36824c0.0642,0.77393 -0.68477,1.3959 -1.08085,2.0639c-0.4749,0.80092 -1.33637,1.73858 -2.31323,2.54805c-0.02485,0.05172 -0.04896,0.10376 -0.07224,0.15616c-0.36068,0.81152 -0.64035,2.75045 -0.14195,3.57855c0.64773,1.07618 1.30585,0.57303 1.66181,-0.20383c0.53556,-2.18347 1.79175,-3.75899 3.02731,-5.61234l0.82276,-1.23415c0.26029,-0.40303 0.71344,-0.66983 1.22891,-0.66983c0.6957,0 1.27789,0.48597 1.42562,1.13696l0.41025,1.64102c0.87334,1.92933 0.53362,4.52608 3.18212,5.22048c1.96118,0.51419 3.507,0.1658 5.02114,-0.5727c-1.51013,-0.42549 -3.25625,-0.93916 -4.04842,-2.08061c-0.77551,-1.11746 -0.49136,-2.84677 -0.49136,-4.10829c0,0 0,-0.6265 0.6265,-0.6265c0.6265,0 0.6265,0.6265 0.6265,0.6265c0,1.03722 -0.27864,2.50645 0.30421,3.44954c0.6568,1.06277 3.26209,1.49665 4.5104,1.88213c0.45649,-0.28145 0.92154,-0.58335 1.40523,-0.8933c0.36727,-0.23534 0.83879,-0.68983 1.24478,-1.23477c-2.30047,-0.63995 -5.5757,-1.83062 -6.2988,-3.99994l-0.03215,-0.39701c0,0 0,-0.6265 0.6265,-0.6265c0.6265,0 0.6265,0.6265 0.6265,0.6265l-0.03215,0.00077c0.60215,1.80643 3.77982,2.77819 5.76147,3.27989c0.23212,-0.55563 0.31929,-1.11846 0.13188,-1.59021c-0.34695,-0.87331 -2.02151,-0.22761 -2.66849,-0.90911c-0.35889,-0.37803 -1.03754,-3.2912 -1.21986,-4.02049c-0.13541,-0.54166 -0.25048,-1.08043 -0.34821,-1.61731zM237.84004,202.10231c2.11308,0.62914 4.71706,0.71986 6.90695,0.71986h0.24929c-0.26848,-1.97944 -0.33121,-3.94375 -0.34049,-5.94375l-0.29627,-0.07424c-3.72714,-1.23945 -7.28065,-2.99854 -10.55071,-5.08717c-0.18139,0.13989 -0.41198,0.13989 -0.41198,0.13989c-0.29864,-0.0027 -0.59728,-0.00539 -0.89592,-0.00809l-0.30068,-0.09654c-0.08959,0.14279 -0.17993,0.28361 -0.27103,0.42231c-0.14486,0.21544 -0.28971,0.43089 -0.43457,0.64634l-0.63817,0.64248c0,0 -0.07313,0.07313 -0.18967,0.13025c0.13888,0.7438 -0.21743,1.6669 0.08906,2.38181c0.43281,1.00962 1.70246,1.51476 2.10204,2.53799c0.15729,0.40277 0.21901,0.82564 0.21963,1.2552c1.57218,0.56225 3.01899,1.81453 4.76253,2.33363zM215.65927,194.05859l0.40743,0.0187c1.92898,-0.48224 4.19649,-1.00934 6.19521,-0.75986c1.35373,0.16898 2.49766,0.89655 3.735,1.32192c0.5763,-0.47787 1.223,-0.68972 1.48182,-1.57272l-0.32262,-1.61316c-0.02246,-0.10185 -0.03431,-0.20769 -0.03431,-0.31629c0,-0.80736 0.65449,-1.46184 1.46184,-1.46184c0.6957,0 1.27789,0.48597 1.42562,1.13696l0.34586,1.38346l0.17053,-0.1692c0.12034,-0.18234 0.24067,-0.36466 0.361,-0.547c1.36748,-2.01286 2.49346,-4.50195 3.40978,-7.04495c-0.17774,-0.10523 -0.26662,-0.28297 -0.26662,-0.28297l0.01395,-0.15668c-1.63861,-1.12703 -2.34895,-3.12644 -3.19863,-4.82051c-0.80392,-1.60282 -1.96883,-3.04121 -2.80003,-4.63625c0.01319,0.46535 0.01881,0.92556 0.01152,1.37764c-0.01678,1.04083 -0.72929,2.0541 -1.33534,2.78389c-1.40192,1.6881 -2.07672,3.82155 -3.58003,5.37004c-0.73456,1.10183 -3.6038,4.60384 -5.06342,4.17321c-1.5626,-0.46102 -2.47045,-3.6031 -3.30365,-5.61182c-0.69384,2.44676 -1.95685,4.83689 -2.28178,7.43162c-0.22633,1.80732 -0.06374,3.56417 0.24522,5.30808c0.75752,-0.48384 1.51186,-0.87381 2.37084,-1.01151c0.16669,-0.30077 0.55081,-0.30077 0.55081,-0.30077zM222.10883,194.56106c-1.32458,-0.16586 -2.7807,0.05261 -4.15703,0.35411c0.00785,0.04357 0.01213,0.09107 0.01213,0.14284c0,0.6265 -0.6265,0.6265 -0.6265,0.6265l-0.71133,-0.01871c-1.47408,-0.37915 -2.54318,0.24671 -3.63273,1.01284c0.10963,0.51962 0.22689,1.03894 0.34534,1.55893c-0.30576,1.31919 -0.79185,2.96627 -1.05727,4.61148c1.17325,-0.38227 2.1502,-0.6917 3.51452,-0.50251c0.06902,0.00957 1.34364,0.38067 1.3803,0.25209c0.26204,-0.91896 -0.9976,-2.27552 -1.62929,-2.69242c0,0 -0.52128,-0.34752 -0.17376,-0.8688c0.34752,-0.52129 0.8688,-0.17376 0.8688,-0.17376c1.02259,0.68753 2.89615,3.01464 1.95074,4.46764c-0.33826,0.51987 -1.51445,0.5117 -2.00083,0.45097c-1.60027,-0.1998 -2.39271,-0.13433 -3.87822,0.37372l0.04599,0.04754c0,0 -0.09849,0.09849 -0.24901,0.15615c-0.10986,1.93938 0.27811,3.72903 1.8613,4.7954c0.57857,0.3897 1.4345,0.6298 2.31171,0.84297c0.25656,-1.41466 -1.5031,-3.0333 -1.97799,-4.44828c0,0 -0.19812,-0.59436 0.39624,-0.79248c0.59435,-0.19812 0.79248,0.39624 0.79248,0.39624c0.62742,1.89372 2.4303,3.21471 2.00599,5.13802c0.45275,0.11559 0.87701,0.23997 1.23292,0.39227c1.31143,0.56121 2.62933,1.33913 4.11162,1.34486c-1.27204,-0.99264 -2.16463,-2.57224 -3.47051,-3.51228l-0.29536,-0.77885c0,0 -0.19812,-0.59435 0.39624,-0.79247c0.59435,-0.19812 0.79248,0.39624 0.79248,0.39624l0.10242,0.4145c1.53081,0.90607 2.34033,3.25112 4.07582,3.76374c0,0 0.07084,0.02362 0.15545,0.07899c0.48025,-0.26504 1.06034,-0.66489 1.56107,-1.04709c0.27548,-0.39745 0.56534,-0.79168 0.85178,-1.19549l-0.25739,-0.00138c-1.86506,-0.45716 -2.70742,-1.46996 -4.24878,-2.48722c0,0 -0.52129,-0.34752 -0.17376,-0.8688c0.34752,-0.52129 0.8688,-0.17376 0.8688,-0.17376c0.3569,0.23995 0.67279,0.48511 0.97454,0.72345c-0.83524,-1.70072 -0.52894,-4.72818 0.21015,-6.10724c0.25254,-0.47122 0.92399,-0.61991 1.17454,-1.09218c0.48015,-0.90506 -0.71022,-2.02714 -0.50749,-3.03143c0.05024,-0.24886 0.11483,-0.46384 0.19049,-0.65162c-1.023,-0.4224 -2.01166,-0.96387 -3.13657,-1.10472zM238.72164,246.67561l0.19889,-0.19889c2.10711,-2.09297 4.55175,-3.36574 7.60306,-3.36574c0,0 0.27529,0 0.4609,0.18247c0.33851,-0.13612 0.70603,-0.26119 1.10618,-0.38091c1.67714,0.48859 2.00083,-1.36143 3.31331,-2.11669c1.95761,-1.12652 4.34971,-1.08055 6.56247,-1.32344c-1.36709,-0.47923 -3.28314,-0.86595 -4.32937,-1.61429c-0.629,-0.44991 -1.10666,-1.01159 -1.46132,-1.64519c-4.22025,0.03148 -8.38277,0.2692 -12.58351,0.35959c0.00001,0.00163 0.00001,0.00326 0.00001,0.0049c0,0.50688 -0.4101,0.60367 -0.5667,0.62214c-0.76162,0.72332 -1.83943,1.53077 -2.9512,1.38741c-0.97906,-0.12625 -1.46597,-1.21429 -2.27898,-1.41519c0,0 -0.36088,-0.12029 -0.4265,-0.4546c-1.15004,0.09083 -2.29607,0.25032 -3.39837,0.52156c-0.66375,1.68459 -1.92451,3.50653 -3.07885,4.1482c0.5902,0.06492 1.01084,0.27692 1.32983,0.58155c0.00206,-0.0067 0.00423,-0.01345 0.00649,-0.02025c0.19812,-0.59435 0.79247,-0.39624 0.79247,-0.39624c1.10007,0.37623 4.23671,3.91145 4.80802,1.91022l0.43929,-0.66893c0,0 0.34752,-0.52129 0.8688,-0.17377c0.52129,0.34752 0.17376,0.86881 0.17376,0.86881l-0.35626,0.52441c-1.31328,3.5637 -4.32643,-0.41163 -6.1463,-1.20215c0.61161,1.2513 0.77307,2.96436 2.34705,3.64496c2.4096,1.04194 4.9842,0.48815 7.49896,0.30407c0.03716,-0.05331 0.06785,-0.08401 0.06785,-0.08401zM245.92693,249.47547c3.61413,0.03263 6.48298,2.326 9.74486,3.41328c0,0 0.59435,0.19812 0.39624,0.79247c-0.00214,0.00642 -0.00432,0.01273 -0.00655,0.01895c1.97909,0.28163 3.9857,0.54262 5.89909,1.01814c1.74053,0.43256 3.82726,1.34816 5.67851,1.01994c2.21611,-0.39291 4.87222,-1.7257 6.64375,-3.10284c0.15505,-0.12052 0.32509,-0.28777 0.50358,-0.47767c-2.18748,0.14504 -4.43317,0.6273 -6.62269,0.55842c-0.84299,-0.02652 -1.33792,-0.71604 -2.02634,-1.05695c-1.90547,-0.94359 -3.88096,-2.45722 -5.94491,-2.97321c-0.98887,-0.65223 -2.05834,-0.76611 -3.14616,-1.1787c-2.75361,-1.0444 -5.85749,-3.05966 -8.93237,-1.98214c0,0 -0.59435,0.19812 -0.79247,-0.39624c-0.19812,-0.59435 0.39624,-0.79247 0.39624,-0.79247c0.17936,-0.05759 0.35778,-0.10705 0.53529,-0.14893c-0.03745,-0.00689 -0.07553,-0.01452 -0.11424,-0.02291c-1.95718,0.77437 -2.70016,1.22898 -3.4075,3.35099l-0.19889,0.59667c0,0 -0.04495,0.13485 -0.15627,0.25468c0.25626,0.33567 0.48762,0.70873 0.77865,1.1085zM241.74199,246.86278c0.74432,0.14194 1.2741,0.34793 1.6841,0.606l0.11646,-0.34938c0.39206,-1.17619 0.8691,-2.00998 1.52014,-2.64038c-1.74072,0.28193 -3.23352,1.07081 -4.57256,2.24091c0.42099,0.01967 0.83864,0.06406 1.25185,0.14286zM236.57908,235.35425c5.05649,0 10.02622,-0.332 15.07325,-0.38939c-0.62363,-2.06657 -0.34687,-4.53671 0.12295,-6.41601c0,-2.41969 0.42004,-5.07647 1.99107,-7.01323c0.79762,-0.98331 3.97781,-2.81287 3.84536,-4.08525c-0.17664,-1.69686 -1.23776,-3.09694 -1.63158,-4.67617c-0.71452,-2.86526 -1.28287,-6.55499 -1.29211,-9.5246c-0.00147,-0.47274 -0.1147,-1.49477 -0.17763,-2.5206c-1.60023,1.11457 -3.52913,1.97629 -5.15272,1.37809c-0.69343,-0.2555 -1.23583,-0.85094 -1.66831,-1.61063c0.10847,1.48988 0.31269,2.97792 0.68996,4.48695c0.21829,0.87317 -0.22595,2.06889 0.45082,2.66223c0.30923,0.27111 0.86092,-0.07014 1.22839,0.11447c0.72973,0.36658 1.57071,0.75947 1.95049,1.48244c1.40776,2.67991 -0.95533,6.36181 -2.98401,7.75349c-2.12388,1.45698 -4.39339,2.67453 -6.71948,2.95394c-0.03719,0.08358 -0.06627,0.13204 -0.06627,0.13204c-1.79638,2.99397 -3.56896,7.09932 -6.35789,9.2756c-0.90123,0.70326 -2.2919,1.36849 -3.41874,1.57172c-0.29314,0.05287 -0.67434,-0.33465 -0.88497,-0.12401c-0.21063,0.21063 0.18925,0.59433 0.12401,0.88496c-0.16604,0.73964 -0.34618,1.5218 -0.80052,2.1286c-0.2274,0.30371 -0.95827,0.01442 -1.07447,0.37559c-0.12492,0.38827 0.62011,0.65126 0.61289,1.05908c-0.00337,0.19057 -0.02532,0.39564 -0.06374,0.6113c2.0291,-0.41364 4.16847,-0.51062 6.20324,-0.51062zM236.57908,236.60726c-0.37794,0 -0.75965,0.0032 -1.1436,0.01126c0.81306,0.48857 1.34928,0.81252 2.37794,-0.01754c-0.41093,0.00408 -0.82233,0.00628 -1.23433,0.00628zM268.64565,244.8856c0.53666,0.54086 1.06524,0.89069 1.69453,1.31396c0.06542,0.04401 1.4594,0.58326 1.41266,0.52129c-1.56665,-2.07727 -3.26742,-3.97697 -5.47859,-5.43866c-0.18544,0.15227 -0.40478,0.2957 -0.66355,0.42892c-0.03186,0.0164 -0.06383,0.0321 -0.09591,0.04714c1.04138,1.04471 2.06239,2.05888 3.13087,3.12736zM285.13507,250.32172c0.55466,-0.27159 0.7777,-0.65339 0.88858,-1.10666c-1.47504,0.42839 -2.92775,0.90945 -4.38248,1.37201c1.15234,0.05005 2.41434,-0.13022 3.49388,-0.26535zM226.90999,208.11096l0.64227,-0.00419c-0.44722,-0.07206 -0.97317,-0.16272 -1.46189,-0.28068c0.25001,0.11179 0.52014,0.20812 0.81963,0.28488zM244.50486,194.01487v-0.39778c0.00402,-0.74579 0.06443,-1.47705 0.16535,-2.19851c0.00459,-0.04961 0.01164,-0.0985 0.02107,-0.14655c0.39977,-2.70762 1.35683,-5.28144 2.02637,-7.9735c0.68754,-2.06749 2.38467,-5.01095 2.56868,-7.08524c0.21665,-2.44216 0.93409,-4.51396 2.02851,-6.70278c0.53372,-1.61566 1.71049,-3.12258 1.94931,-4.83286c0.18058,-1.29322 0.24638,-2.3716 0.61357,-3.65484c0.34549,-1.20738 0.9842,-2.33741 0.96946,-3.60376c0,0 0,-0.6265 0.6265,-0.6265c0.6265,0 0.6265,0.6265 0.6265,0.6265c-0.01275,1.41167 -0.63653,2.61182 -1.01943,3.95408c-0.84655,2.96751 -1.61912,5.67237 -2.60828,8.61688c-1.07255,2.1451 -1.64335,4.06183 -1.94931,6.42399c-0.28884,2.22996 -1.86612,5.03144 -2.60247,7.23487c-0.54452,2.16734 -1.30932,4.27743 -1.76854,6.44439c0.50453,0.00892 0.9467,0.27345 1.20255,0.66959l0.82276,1.23415l-0.04054,0.02702c0.05568,0.06218 0.10945,0.12626 0.16109,0.19246c0.88092,1.12952 0.78098,3.73209 1.28718,5.09626c0.18758,0.5055 0.52845,0.94349 0.72867,1.44412c0.07809,0.19528 -0.10922,0.58799 0.09811,0.62326c1.25883,0.21411 3.31898,-1.62071 4.16422,-2.46154l0.76246,-1.14368c0.04501,-0.0697 0.09579,-0.13532 0.15166,-0.19619c0.00741,-0.66249 0.10384,-1.28314 0.46123,-1.71615c0.43088,-0.52204 1.40914,0.04752 2.01457,-0.2552c0.33161,-0.16581 0.23407,-0.73095 0.49145,-0.99781c0.29328,-0.3041 0.85575,-0.29335 1.09176,-0.64375c0.78639,-1.16752 0.93698,-3.43671 1.52874,-4.76134c1.63667,-3.6637 6.18147,-5.63927 9.29706,-7.72532c0.83534,-0.55689 1.57178,-1.30311 2.50602,-1.67068c0.19772,-0.0778 0.58876,0.30265 0.63044,0.0943c0.04168,-0.20836 -0.46561,-0.00757 -0.61821,-0.15543c-0.3605,-0.34931 -0.5569,-0.83534 -0.83534,-1.25301c-1.16935,-1.75403 -2.34074,-3.28925 -3.67321,-4.89613c-4.09675,-4.94044 -6.53958,-11.46722 -10.1099,-16.82271c-2.85926,-4.28889 -6.30853,-7.86304 -9.84142,-11.47196c-0.66907,-0.68346 -1.66398,-0.96204 -2.39913,-1.57385c-1.30092,-1.08267 -2.22232,-2.31342 -3.64313,-3.25554c-0.52966,-0.35122 -2.32066,-1.49807 -2.89087,-2.11607c-0.47772,0.28397 -1.02119,0.60568 -1.48238,0.92421c0.89276,2.75891 1.34898,6.23307 1.76511,9.09746c0.19122,1.31627 -0.02092,2.0591 0.75009,3.22804c1.35152,5.18692 0.84912,10.99305 0.84912,16.36358c-0.0258,2.85649 -1.16181,6.08346 -2.45039,8.62866c-0.76565,1.51231 -0.81848,3.32581 -1.77987,4.75157c-0.86881,3.65887 -2.37005,7.87042 -4.27408,11.25839c0.04278,-0.0005 0.08556,-0.00099 0.12833,-0.0015c0.0175,-0.03991 0.03997,-0.08106 0.06816,-0.12335c0.34752,-0.52129 0.8688,-0.17376 0.8688,-0.17376c3.25243,2.2096 6.93561,4.00418 10.71246,5.27167c0.00124,-0.37711 0.00322,-0.75583 0.00491,-1.13652c-0.15577,-0.18391 -0.15577,-0.43163 -0.15577,-0.43163zM236.00614,178.84463c0.35112,-0.53234 0.58484,-1.1153 0.77805,-1.71616l-0.20279,-0.41785c-1.47836,-4.43508 -3.0305,-8.84789 -4.18387,-13.34861c-0.17996,-0.53849 -0.6322,-1.40805 -0.62166,-1.96518c0.04794,-2.53181 3.11329,-4.96739 3.2938,-7.69213c-0.51169,0.62755 -1.11152,1.14682 -1.79537,1.49266c-0.44458,0.22484 -1.15325,0.98739 -1.67192,0.82536c-0.37443,-0.11697 -0.43915,-0.65502 -0.59709,-1.0141c-0.14699,-0.3342 -0.27602,-0.65055 -0.40014,-0.95679c-0.13096,0.39288 -0.26192,0.78575 -0.39289,1.17863c-1.55448,4.65162 -2.35454,9.42986 -2.35454,14.32088c0,0.9054 0.04302,1.83166 0.08936,2.75646c0.50256,-0.08794 0.67405,0.42656 0.67405,0.42656c0.68772,2.1352 2.35402,3.89362 3.34958,5.88957c0.72135,1.44622 1.32841,3.41067 2.76808,4.32846l0.0445,0.06905c0.46942,-1.42439 0.87518,-2.84125 1.22282,-4.17682zM237.80629,174.04946c1.16801,-2.36211 2.35383,-5.4274 2.32298,-8.07815c0,-5.22328 0.45423,-10.79534 -0.74201,-15.85666c-0.82134,-1.21808 -0.65,-2.16624 -0.84103,-3.53424c-0.12127,-0.86848 -0.66682,-1.70988 -0.79556,-2.58558c-0.26181,-1.78083 -0.27862,-3.62284 -0.67287,-5.38608c0.03443,0.54505 0.12778,1.34379 0.12778,1.5068c0,2.45298 0,4.90597 0,7.35895c0,1.43826 -0.38256,3.14414 -1.11649,4.62565c0.79561,4.05515 -3.69152,7.29403 -2.48853,10.91153c1.0042,4.09674 2.41655,8.10174 3.77338,12.12228c0.12143,-0.37092 0.25952,-0.735 0.43234,-1.0845zM227.00248,155.43013c0,-0.6265 0.6265,-0.6265 0.6265,-0.6265c0.26519,0 0.72926,0 0.99445,0c0,0 0.19923,0 0.373,0.11235c0.009,-0.02725 0.01805,-0.0545 0.02711,-0.08175c0.26519,-0.79556 0.53037,-1.59112 0.79556,-2.38669l-0.03214,-0.00077c0,0 0,-0.07598 0.02646,-0.17502c-0.14953,-0.28276 -0.31841,-0.57043 -0.51791,-0.86969c-0.20797,-0.32623 -0.49447,-0.61272 -0.8207,-0.82069l0.14863,0.10522c0,0 -0.3345,-0.00001 -0.51466,-0.24441c-1.39452,0.82258 -2.85956,1.52816 -4.30799,2.23773c1.03994,0.89549 1.51186,2.53516 0.79335,3.85446c-0.57691,1.05929 -1.71386,2.01071 -2.39893,3.00405c-1.06869,1.54958 -1.85545,3.50078 -2.95349,5.11704c-0.18378,0.5706 -0.37381,1.13899 -0.56339,1.70769c0.26426,1.0979 0.53489,2.39225 0.40937,2.74699c-0.46305,1.30854 -1.99339,1.34978 -2.83584,2.17722c-0.87306,0.85751 -1.53379,2.54841 -1.67114,3.7393c-0.21563,1.86966 0.51135,3.74459 0.51911,5.57883c0.07915,0.06887 0.12257,0.13398 0.12257,0.13398c1.3389,2.00836 1.92141,4.37284 3.26206,6.31831c0.16011,0.23233 0.34857,-0.4454 0.54701,-0.64598c0.53732,-0.54306 1.22169,-0.91873 1.80752,-1.40907c0.47791,-0.40002 0.98062,-1.19845 1.33324,-1.72737c1.5373,-1.48293 2.18148,-3.69771 3.58003,-5.37004c0.40673,-0.48634 1.07086,-1.26346 1.05133,-1.98949c-0.05562,-2.06853 -0.19889,-4.2412 -0.19889,-6.3645c0,-4.60031 0.69384,-9.10034 2.02988,-13.49502c-0.00723,0.00031 -0.01115,0.00031 -0.01115,0.00031c-0.26519,0 -0.53037,0 -0.79556,0h-0.19889c0,0 -0.6265,0 -0.6265,-0.6265zM223.50379,155.91699c0.45249,-0.73661 0.05886,-1.97442 -0.5979,-2.35228c0,0 -0.16725,-0.11151 -0.24912,-0.30294c-1.39346,0.78979 -2.61725,1.88405 -4.1174,2.469c0.02588,1.01906 -0.49625,2.06569 -0.61727,3.00675c-0.21711,1.68829 -0.13539,3.63499 0.20415,5.352c1.80168,-2.74278 3.68822,-5.42245 5.37753,-8.17252zM230.33808,150.70702c0.55206,0.82809 1.14547,1.58837 1.4653,2.53609c0.02746,0.08138 0.29151,1.12155 0.2934,1.49139c0.3752,-0.37788 1.82622,-1.67123 2.00888,-1.88936c0.2434,-0.29067 0.46295,-0.60431 0.6585,-0.93488c-0.01825,-0.17234 0.00581,-0.46315 0.32819,-0.61641c0.57192,-1.1979 0.86021,-2.55246 0.86021,-3.81934c0,-0.92019 0,-1.8404 0,-2.7606c-0.2266,0.25992 -0.43347,0.53316 -0.72051,0.81691c-1.68697,1.66774 -4.25312,2.47104 -5.91183,4.1161c0.39232,0.29467 0.74069,0.65713 1.01784,1.06009zM235.95255,140.11551c0,-0.68081 -0.21046,-2.17102 0.11826,-2.753c0.43562,-0.77127 2.15095,-1.68414 3.1723,-2.30712c0.17415,-1.78822 1.67471,-3.96975 1.66177,-5.73341c0,-5.51317 -0.27527,-9.80217 -2.76936,-14.80003c-1.26159,-2.52807 -2.83197,-5.20968 -5.54893,-6.41727c-1.4048,-0.62438 -3.26701,-0.38619 -4.77519,-0.75402l-0.06313,0.04365c0,0 -0.08273,0 -0.20883,-0.01968c-0.1261,0.01968 -0.20883,0.01968 -0.20883,0.01968c-2.25973,0 -4.29847,0.16663 -6.50411,0.40672c-2.88577,0.31413 -5.89533,-0.36011 -8.77107,0c-4.47155,0.55995 -9.01644,2.31597 -11.5782,6.15862c-1.9899,1.96226 -2.8091,4.36408 -3.97033,6.76499c-0.1409,0.2913 -0.60506,0.35565 -0.71037,0.66161c-0.21336,0.61993 1.27365,0.52511 1.66019,1.05467c0.31704,0.43433 0.70062,0.8973 0.95708,1.3887c0.16072,-0.04177 0.28285,-0.04177 0.28285,-0.04177c1.72981,0 4.68291,-0.44484 6.13529,0.75176c1.78444,1.47019 1.67063,4.21522 1.42716,6.16295c-0.44072,3.52579 -3.78601,6.43302 -7.55465,5.5842l-0.84793,-0.21198c0.23765,1.12481 1.70405,1.93217 2.50417,1.82037c4.26217,1.06554 9.21375,0.40672 13.60449,0.40672c1.90428,0 3.7865,-0.20921 5.60343,0.54264c1.70681,0.70628 3.94829,1.96741 4.56675,3.83695c0.82222,2.48548 0.03779,6.82788 -2.51038,8.03924c-1.20177,0.57131 -4.20171,0.11128 -5.57146,0.11128c-1.74937,0 -3.12933,0.19922 -4.83343,0.40672c-1.30221,0.15857 -3.10934,0.37224 -4.21298,-0.4275c0.22887,0.20979 0.53257,0.50317 0.65633,0.67175c0.26502,0.36103 0.67039,1.37373 1.29564,1.50012c2.07972,0.42037 4.31393,0.36103 6.43771,0.78357c0.83692,0.1665 1.95781,-0.21966 2.52575,0.41722c0.10187,0.11423 0.18882,0.22985 0.2625,0.34662c1.58996,-0.61147 2.87746,-1.88116 4.39532,-2.64654c1.95445,-0.98553 4.01571,-1.87302 5.84477,-3.10396c1.67414,-1.62529 4.26453,-2.45392 5.92091,-4.1352c0.51121,-0.5189 0.85953,-1.02994 1.42342,-1.47701c0.02095,-0.101 0.06969,-0.2412 0.18309,-0.34687c0,-0.90179 0,-1.80358 0,-2.70537zM189.87613,117.32446c-0.28018,-0.56036 0.28018,-0.84054 0.28018,-0.84054l0.47984,-0.23288c1.72367,-0.57456 3.20325,-0.62605 4.99595,-0.6287c0.45161,-0.80942 0.95567,-1.58906 1.53229,-2.32155c-2.4571,0.36951 -5.29708,1.0131 -7.22241,-0.07972c-1.12752,-0.63999 -0.92756,-2.30061 -0.92756,-3.33684v-0.59667c0,0 0,-0.6265 0.6265,-0.6265c0.6265,0 0.6265,0.6265 0.6265,0.6265v0.59667c0,0.28944 -0.21063,2.06684 0.26579,2.23209c2.39854,0.83193 5.25653,0.01293 7.82403,-0.21736c0.54582,-0.78543 1.16857,-1.49652 1.85288,-2.13806c-1.11709,-1.74591 -0.68455,-2.74895 0.20719,-4.53245l0.19889,-0.39778c0,0 0.28018,-0.56036 0.84054,-0.28018c0.56036,0.28018 0.28018,0.84054 0.28018,0.84054l-0.19889,0.39778c-0.68134,1.3627 -1.13723,1.90277 -0.36887,3.14843c0.59889,-0.47156 1.23391,-0.89856 1.89678,-1.28358c-0.03058,0.0148 -0.06389,0.02837 -0.10014,0.04045c-0.59435,0.19812 -0.79247,-0.39624 -0.79247,-0.39624c-0.54245,-1.63119 -0.27012,-2.89338 0.66974,-4.32456l0.27717,-0.29437c0,0 0.44301,-0.44301 0.88601,0c0.44301,0.44301 0,0.88601 0,0.88601l-0.12061,0.10341c-0.75222,1.10723 -0.93783,1.99373 -0.5236,3.23328c0,0 0.15162,0.45488 -0.20836,0.70139c2.5934,-1.48644 5.60469,-2.3368 8.54453,-2.70374c1.86023,-0.23219 3.77169,-0.02833 5.66833,0.05749c0.00955,-0.01487 0.0156,-0.02295 0.0156,-0.02295c0.69225,-0.92252 1.34318,-1.90638 1.69687,-3.00446l0.35023,-0.44378c0,0 0.44301,-0.44301 0.88601,0c0.44301,0.44301 0,0.88601 0,0.88601l-0.04754,-0.04599c-0.3276,0.95788 -0.81497,1.83212 -1.38356,2.66408c0.53145,-0.00479 1.06032,-0.03078 1.58512,-0.0904c2.31926,-0.26346 4.49151,-0.42862 6.86133,-0.42862c0,0 0.08273,0 0.20883,0.01968c0.1261,-0.01968 0.20883,-0.01968 0.20883,-0.01968l0.77221,0.04365c1.77036,0.45596 3.52782,0.19668 5.24889,0.91666c0.30942,0.12944 0.61301,0.27699 0.9106,0.44123c1.10035,-0.8095 2.42661,-1.97434 3.64387,-2.19881l0.04754,-0.35179c0,0 0.19812,-0.59435 0.79247,-0.39624c0.59435,0.19812 0.39624,0.79247 0.39624,0.79247l-0.35023,0.84156c-1.20137,0.50084 -2.29742,1.28883 -3.38019,2.04933c3.29038,2.40775 5.72707,6.83797 7.02526,11.00297c1.27843,0.00708 2.44719,0.02244 3.66789,0.42933l0.00077,-0.03215c0,0 0.6265,0 0.6265,0.6265c0,0.6265 -0.6265,0.6265 -0.6265,0.6265l-0.39701,-0.03215c-0.95778,-0.31926 -1.90646,-0.36558 -2.91361,-0.36721c0.28987,1.11225 0.49333,2.18776 0.60466,3.18049c0.01546,0.13791 0.02915,0.27651 0.04122,0.41576c0.66563,0.23814 1.42074,0.59745 1.91439,1.10365c0.47469,0.48676 0.3588,1.16119 0.94846,1.24088c0,0 0.59435,0.19812 0.39624,0.79247c-0.19812,0.59435 -0.79247,0.39624 -0.79247,0.39624c-1.10889,-0.46149 -1.38673,-1.51668 -2.39419,-2.12117c0.00964,0.46187 0.0077,0.92755 -0.00054,1.39437c0.13477,0.04492 0.26952,0.08984 0.40429,0.13477c0,0 0.59435,0.19812 0.39624,0.79247c-0.19812,0.59435 -0.79247,0.39624 -0.79247,0.39624c-0.01446,-0.00482 -0.02892,-0.00964 -0.04337,-0.01446c-0.03069,0.92848 -0.06684,1.85147 -0.06684,2.74779c-0.00997,1.68369 0.1354,2.27789 -0.54264,3.93275c-0.2758,0.67313 -1.52104,1.14005 -1.2264,1.80515c0.09777,0.2207 2.97841,1.61643 3.32232,1.90265c1.60001,1.33157 3.65155,2.83164 5.11893,4.27353c3.70933,3.64489 7.26272,7.50154 10.20673,11.91755c3.07748,4.61622 5.66078,9.4701 8.40143,14.27792c1.04473,1.83274 2.5487,3.19993 3.711,4.9349c0.80574,1.20271 3.84602,4.67194 3.55848,6.10962c-0.00692,0.03461 -0.01653,0.06966 -0.0287,0.10512c0.03351,0.16892 0.03351,0.2869 0.03351,0.2869l-0.01989,0.80385c0.68483,4.18414 -0.08155,8.44482 0.27595,12.64985c0.35428,4.16728 1.56626,8.30025 1.56626,12.5301c0.41934,2.46439 1.40864,6.00741 -1.79387,7.25564c-1.04077,0.40565 -2.22853,-0.16127 -3.34448,-0.21018c-0.20583,-0.00902 -0.5188,-0.24856 -0.61451,-0.06613c-0.33668,0.64177 0.21073,1.43499 0.27095,2.15719c0.07229,0.86694 0.00862,1.79061 0.36505,2.58418c0.4857,1.08136 2.7093,1.45625 3.42737,2.28611c0.51859,0.59931 0.82978,1.36267 1.10073,2.10745c0.71346,1.96111 -0.50154,6.55222 1.71545,7.10145c1.98661,-0.019 3.90968,0.38544 5.91031,0.24715c0.6565,-0.04538 1.34201,-0.46782 1.95952,-0.24037c0.96325,0.35479 2.08487,0.90568 2.45073,1.86477c0.28902,0.75765 -0.59546,1.50876 -0.87323,2.27061c-0.51632,1.41614 -0.64939,2.59012 -0.64939,4.08794c0,1.29012 -0.04502,2.81748 0.6054,4.00019c0.42867,0.77948 2.16271,2.14188 2.25513,2.86938c0.09586,0.75466 -0.6296,1.3859 -0.90592,2.09467c-0.7242,1.85765 -0.77281,5.0483 -2.01512,6.56893c-0.48916,0.59875 -1.30427,0.83068 -1.95642,1.24601c-1.78752,0.27596 -3.82863,0.60619 -5.65169,0.33116c-0.45077,-0.06801 -1.81751,-0.82352 -2.52189,-0.40893c-0.77175,0.45423 -1.15086,1.39083 -1.85762,1.94075c-2.13381,1.66031 -5.29399,3.25707 -7.9747,3.6843c-2.31519,0.36898 -4.66341,-0.51789 -6.85159,-1.06841c-2.49798,-0.62846 -5.17705,-0.85829 -7.71926,-1.282c-3.13207,-0.52201 -7.29425,-1.45453 -9.66884,-3.80184c-0.69657,-0.68857 -0.84288,-1.86175 -1.62976,-2.445c-0.99483,-0.73741 -2.71363,-0.0874 -3.74208,-0.0033c-2.56497,0.20975 -6.21703,0.18365 -8.56273,-0.91188c-1.9144,-0.8941 -2.8831,-2.49376 -3.61121,-4.4233c-0.13076,-0.34652 0.05999,-0.83346 -0.2052,-1.09201c-0.48911,-0.47685 -1.22673,-0.60134 -1.84009,-0.90201c0.5661,-3.19554 1.25322,-3.80244 2.8658,-6.5169c0.5104,-0.85916 -0.3782,-2.05085 -0.05784,-2.99744c0.20767,-0.61362 1.12794,-0.68751 1.53596,-1.19067c0.70774,-0.87278 0.0952,-2.45693 0.88975,-3.25149c0.8835,-0.8835 3.40558,-0.78253 4.57179,-1.68482c2.12789,-1.64634 3.62913,-4.83705 5.02012,-7.37071c-0.71293,-0.21743 -1.42733,-0.54957 -2.14073,-1.01572c-1.09123,-0.71304 -2.85898,-2.68945 -3.36373,-4.45077c-0.68555,1.05466 -1.26587,2.10931 -1.60582,3.44503c-0.69463,0.80667 -1.09743,2.01981 -2.08386,2.42001c-2.77142,1.1244 -4.95859,-2.03264 -5.28135,-4.12268c-0.06602,-0.42745 -0.09138,-0.82922 -0.08228,-1.20973c-2.52123,0.60624 -4.81721,-0.45666 -6.99395,-1.39102c-1.54073,-0.66136 -3.87019,-0.89052 -5.26274,-1.81263c-0.48575,-0.32165 -0.61497,-1.00231 -1.02692,-1.41426c-0.41196,-0.41196 -1.10684,-0.53204 -1.41426,-1.02692c-1.68095,-2.706 -0.20883,-8.01475 0.56843,-10.86618c-1.784,-6.27763 0.01623,-11.08976 1.70979,-17.04266c0.52408,-1.84212 -0.71514,-4.48706 -0.44582,-6.52547c0.24348,-1.84283 1.17661,-4.10526 2.50556,-5.44943c0.42016,-0.42498 0.94885,-0.7361 1.4758,-1.018c0.2103,-0.1125 0.6439,0.08556 0.7004,-0.14615c0.20656,-0.84709 -0.67857,-1.61378 -0.89005,-2.45967c-0.55068,-2.25795 -0.73445,-4.88286 -0.45037,-7.21588c0.06939,-0.56982 0.20811,-1.13626 0.41767,-1.67068c0.07542,-0.19235 0.62273,-0.43715 0.41721,-0.45838c-0.30375,-0.03139 -0.51024,0.41727 -0.81561,0.41722c-3.40224,-0.00063 -7.90262,-0.54469 -9.80879,-3.5637c-0.97046,-1.53703 -2.27485,-3.06373 -0.05317,-4.90705c-0.10857,-0.32441 -0.02896,-0.64283 -0.02896,-0.64283c0.098,-0.39202 0.5639,-2.33958 0.71961,-2.53298c0.01869,-0.02322 0.03737,-0.04607 0.05603,-0.06854c-0.09414,-0.04123 -0.18227,-0.08663 -0.26344,-0.13621c-1.44256,-0.88108 -1.19987,-2.11173 -1.31384,-3.46493c-1.4878,-0.05359 -2.95065,-0.20698 -4.34357,-0.55521c-0.72728,-0.054 -1.53859,0.18159 -2.18185,-0.16202c-1.45621,-0.77789 -2.96524,-4.19864 -2.83896,-5.71507c0.03574,-0.42921 0.74792,-0.5779 0.81389,-1.00351c0.03763,-0.24281 -0.4317,-0.25405 -0.58983,-0.44212c-0.21253,-0.2528 -1.82665,-2.7952 -1.85347,-2.89329c-0.46219,-1.69049 0.038,-5.49622 2.0434,-6.06965c-0.00252,-0.00094 -0.00495,-0.00195 -0.00728,-0.00301c-0.45694,-0.20782 -0.93799,-0.44452 -1.25301,-0.83534c-0.54651,-0.67801 -1.19976,-1.41817 -1.2635,-2.28668c-0.05073,-0.69129 0.70733,-1.19907 0.96031,-1.84441c0.35182,-0.89745 0.7268,-1.79183 1.14779,-2.66341c-1.37683,0.01509 -2.56211,0.0991 -3.94857,0.56126l-0.31572,0.1649c0,0 -0.56036,0.28018 -0.84054,-0.28018zM209.36069,148.30946c-0.91431,-2.46167 -1.4971,-3.00377 -2.18601,-0.24812c0,0 -0.01262,0.05049 -0.0435,0.1261c0.25533,0.07398 0.50837,0.13725 0.74759,0.14948c0.49444,0.02529 0.98485,0.0278 1.47275,0.01487zM211.31606,147.5762l0.04176,0.65348c1.55316,-0.13329 3.1018,-0.32136 4.69572,-0.32136c0.19178,0 0.41252,0.01222 0.65231,0.03108l0.00667,-0.66501c0.39182,-3.09301 1.55171,-3.81333 4.44327,-3.49312c-0.33167,-0.98036 -1.14943,-1.53331 -2.76996,-2.26299c-0.27874,-0.12551 -0.58016,-0.21786 -0.89736,-0.28454c0.12632,0.9766 0.25726,1.90787 -0.76186,2.71696c-0.73826,0.58612 -4.01401,0.21431 -4.60984,-0.4352c-0.37615,-0.41003 -0.40575,-1.49515 -0.40179,-2.28638c-0.23987,0.00282 -0.48109,0.0072 -0.72346,0.01272c0.0833,0.6403 0.29679,2.26369 0.1834,2.50337c-0.23869,0.50457 -0.76003,0.88368 -1.40237,1.1364c0.68305,0.77682 1.21942,1.83745 1.54351,2.69458zM221.12218,145.8801c-0.59342,-0.07418 -1.17422,-0.34574 -1.76994,-0.29333c-0.60271,0.05303 -0.53224,1.66046 -0.56747,1.94665l0.00807,0.54415c0,0 0,0.01687 -0.00215,0.04634c0.66064,0.03843 1.28036,0.03041 1.71549,-0.10433c0.60488,-0.1873 0.74602,-1.36997 0.77921,-1.75173c0.01156,-0.13294 0.02146,-0.26125 0.02955,-0.38518c-0.11526,0.00712 -0.19276,-0.00256 -0.19276,-0.00256zM213.67978,142.13055c0.28511,0.35957 0.91882,-0.13881 1.37421,-0.08221c0.33505,0.04163 0.36519,-0.62026 0.31391,-0.96468c-0.55829,0.0123 -1.12002,0.04998 -1.65777,0.08343c-0.10624,0.35229 -0.23547,0.70478 -0.03036,0.96346zM206.66248,142.98466c2.2818,0.70109 2.45916,0.1396 2.23559,-1.64889l-0.01062,-0.02881c-0.8241,0.02821 -1.65447,0.05528 -2.48352,0.06518c0.01767,0.62731 0.0679,1.55393 0.25854,1.61251zM199.21097,134.26083c3.88375,1.12874 7.44639,-5.40702 4.31425,-8.09216c-0.89229,-0.76495 -3.71887,-0.29241 -4.82855,-0.29241c0,0 -0.19777,0 -0.42115,-0.08607c-0.55137,0.53881 -1.48072,0.90476 -1.76858,1.61722c-0.85498,2.11608 0.13468,2.71796 1.13246,4.44509c0.38848,0.67245 1.03216,1.28883 1.08085,2.0639c0.00473,0.07524 -0.00419,0.14689 -0.02357,0.21585zM258.10456,208.03992c0.15951,1.36539 0.3847,2.72153 0.72097,4.06257c0.4346,1.73314 1.8051,3.41056 1.70978,5.3479c-0.14827,3.01386 -2.74696,3.90293 -4.50804,5.93883c-1.22586,1.41716 -1.35029,3.74363 -1.35029,5.51687c-0.38351,1.53403 -1.22591,5.47305 0.64421,6.56219c1.19744,0.69737 3.04039,0.97019 4.34367,1.52874c0.97457,0.41767 1.95036,0.83246 2.92369,1.25301c0.57066,0.24658 1.06655,1.11727 1.64251,0.88335c0.50526,-0.20521 0.0724,-1.08955 0.06328,-1.63482c-0.02312,-1.38292 -0.10169,-2.77823 0.60742,-4.06161c0.08747,-0.1583 2.70691,-2.81691 2.92336,-2.97168c0.75156,-0.53738 2.94112,-0.90543 3.17339,-1.90595c-1.7827,-1.9499 -3.8213,-3.3926 -6.05321,-4.88054c-0.54607,-0.36404 -2.78587,-1.80987 -2.984,-2.19723c-0.89726,-1.75417 -0.11595,-5.25426 1.0283,-6.66927c0.65857,-0.8144 2.19228,-0.6022 2.77608,-1.47177c0.20447,-0.30456 -0.24208,-0.71558 -0.20737,-1.08075c0.04145,-0.43613 0.37456,-0.80777 0.42816,-1.24257c0.13064,-1.05951 -2.13765,-0.21348 -3.15992,-0.52105c-1.67698,-0.50456 -2.81523,-1.77412 -4.59518,-2.29254c-0.04061,-0.05593 -0.08296,-0.11042 -0.12682,-0.16365zM228.92318,205.66931c0.51092,-1.63571 0.81985,-3.53669 1.13327,-5.10434c0.30614,-1.53125 -1.36245,-1.97871 -1.97433,-3.40669c-0.05291,-0.12348 -0.10144,-0.24646 -0.14584,-0.36899c-0.00038,0.00893 -0.00058,0.01796 -0.00058,0.02709c-0.00033,1.22199 0.75648,2.50694 0.32785,3.65129c-0.23598,0.62997 -2.98784,3.45876 -1.5699,4.67195c0.58555,0.501 1.42292,0.47262 2.22954,0.52969zM253.32291,253.27207c-2.26602,-1.07137 -4.49512,-2.44409 -7.03304,-2.53887c1.77257,1.49944 4.74704,2.14103 7.03304,2.53887z" fill="#000000" stroke="none" stroke-width="0.5" stroke-linecap="butt"/><path d="M230.2921,150.72663c-0.27715,-0.40296 -0.62953,-0.78624 -1.02185,-1.08091c1.65871,-1.64506 4.30116,-2.48971 5.98813,-4.15745c0.28704,-0.28375 0.49519,-0.55617 0.72179,-0.81609c0,0.9202 0.01378,1.85403 0.01378,2.77422c0,1.26688 -0.28754,2.67644 -0.85946,3.87434c-0.32238,0.15326 -0.3537,0.45297 -0.33545,0.62531c-0.19555,0.33057 -0.42868,0.65362 -0.67208,0.94429c-0.18266,0.21813 -1.66033,1.51595 -2.03553,1.89383c-0.00189,-0.36984 -0.2721,-1.41107 -0.29956,-1.49245c-0.31983,-0.94772 -0.9477,-1.737 -1.49976,-2.56509z" data-paper-data="{&quot;noHover&quot;:false,&quot;origItem&quot;:[&quot;Path&quot;,{&quot;applyMatrix&quot;:true,&quot;segments&quot;:[[[230.33803,150.70698],[0,0],[0.55206,0.82809]],[[231.80332,153.24307],[-0.31983,-0.94772],[0.02746,0.08138]],[[232.09673,154.73446],[-0.00189,-0.36984],[0.3752,-0.37788]],[[234.1056,152.8451],[-0.18266,0.21813],[0.2434,-0.29067]],[[234.7641,151.91022],[-0.19555,0.33057],[-0.01825,-0.17234]],[[235.0923,151.29381],[-0.32238,0.15326],[0.57192,-1.1979]],[[235.9525,147.47447],[0,1.26688],[0,-0.92019]],[[235.9525,144.71387],[0,0.9202],[-0.2266,0.25992]],[[235.232,145.53078],[0.28704,-0.28375],[-1.68697,1.66774]],[[229.32016,149.64688],[1.65871,-1.64506],[0.39232,0.29467]],[[230.33801,150.70697],[-0.27715,-0.40296],[0,0]]],&quot;closed&quot;:true,&quot;fillColor&quot;:[0,0,0,1]}]}" fill="#8dbed8" stroke="none" stroke-width="0.5" stroke-linecap="butt"/><path d="M236.35603,178.89179c-0.34764,1.33557 -0.7617,2.75457 -1.23112,4.17896l-0.04461,-0.06903c-1.43967,-0.91779 -2.05661,-2.8816 -2.77796,-4.32782c-0.99556,-1.99595 -2.69246,-3.76618 -3.38018,-5.90138c0,0 -0.17632,-0.51918 -0.67888,-0.43124c-0.04634,-0.9248 -0.10055,-1.87168 -0.10055,-2.77708c0,-4.89102 0.84045,-9.73149 2.39493,-14.38311c0.13097,-0.39288 0.2639,-0.78603 0.39486,-1.17891c0.12412,0.30624 0.2542,0.62248 0.40119,0.95668c0.15794,0.35908 0.22466,0.89697 0.59909,1.01394c0.51867,0.16203 1.23386,-0.60047 1.67844,-0.82531c0.68385,-0.34584 1.27085,-0.7661 1.78254,-1.39365c-0.18051,2.72474 -3.23274,5.16102 -3.28068,7.69283c-0.01054,0.55713 0.43857,1.32685 0.61853,1.86534c1.15337,4.50072 2.72747,9.00806 4.20583,13.44314l0.20275,0.41787c-0.19321,0.60086 -0.43303,1.18643 -0.78415,1.71877z" data-paper-data="{&quot;noHover&quot;:false,&quot;origItem&quot;:[&quot;Path&quot;,{&quot;applyMatrix&quot;:true,&quot;segments&quot;:[[[236.00608,178.84459],[0,0],[0.35112,-0.53234]],[[236.78413,177.12843],[-0.19321,0.60086],[0,0]],[[236.58133,176.71058],[0,0],[-1.47836,-4.43508]],[[232.39747,163.36197],[1.15337,4.50072],[-0.17996,-0.53849]],[[231.77581,161.39679],[-0.01054,0.55713],[0.04794,-2.53181]],[[235.06961,153.70466],[-0.18051,2.72474],[-0.51169,0.62755]],[[233.27423,155.19732],[0.68385,-0.34584],[-0.44458,0.22484]],[[231.60231,156.02268],[0.51867,0.16203],[-0.37443,-0.11697]],[[231.00523,155.00858],[0.15794,0.35908],[-0.14699,-0.3342]],[[230.60509,154.05179],[0.12412,0.30624],[-0.13096,0.39288]],[[230.2122,155.23042],[0.13097,-0.39288],[-1.55448,4.65162]],[[227.85766,169.5513],[0,-4.89102],[0,0.9054]],[[227.94702,172.30776],[-0.04634,-0.9248],[0.50256,-0.08794]],[[228.62107,172.73432],[0,0],[0.68772,2.1352]],[[231.97065,178.62389],[-0.99556,-1.99595],[0.72135,1.44622]],[[234.73873,182.95235],[-1.43967,-0.91779],[0,0]],[[234.78323,183.0214],[0,0],[0.46942,-1.42439]],[[236.00605,178.84458],[-0.34764,1.33557],[0,0]]],&quot;closed&quot;:true,&quot;fillColor&quot;:[0,0,0,1]}]}" fill="#8dbed8" stroke="none" stroke-width="0.5" stroke-linecap="butt"/><path d="M281.60132,250.59948c1.45472,-0.46256 2.98716,-0.96858 4.4622,-1.39697c-0.11088,0.45327 -0.33399,0.86033 -0.88864,1.13193c-1.07955,0.13512 -2.42122,0.31509 -3.57355,0.26504z" data-paper-data="{&quot;noHover&quot;:false,&quot;origItem&quot;:[&quot;Path&quot;,{&quot;applyMatrix&quot;:true,&quot;segments&quot;:[[[588.0639,528.36657],[-2.58469,0.32352],[1.32797,-0.65026]],[[590.19139,525.71697],[-0.26549,1.08524],[-3.53159,1.02567]],[[579.69871,529.00188],[3.48295,-1.10747],[2.75898,0.11982]]],&quot;closed&quot;:true}]}" fill="#614425" stroke="none" stroke-width="0.5" stroke-linecap="butt"/><path d="M272.51322,244.64489c0.09082,0.02518 0.20388,0.03929 0.31999,0.00803c0.72309,0.87726 1.78108,1.64243 2.66918,1.10481c0.5178,-0.31345 0.69869,-0.9915 1.17239,-1.41776c0.18443,0.16052 0.51887,0.14319 0.51887,0.14319l0.04693,-0.01875c1.91558,0.46826 4.06934,0.57759 6.01902,0.8116c1.28076,0.15373 2.30464,0.83803 3.50161,1.19054c-0.22419,0.67313 -0.41699,1.25926 -0.42581,1.29434c-0.03661,0.14566 -0.06409,0.29054 -0.08596,0.43196c-2.37678,0.67296 -4.69296,1.51708 -7.04211,2.20102c-0.67841,-0.22036 -1.2041,-0.28238 -2.56861,0.35142c-0.18715,0.08693 -0.39335,0.25216 -0.60557,0.45371c-0.0334,0.0068 -0.06699,0.01381 -0.10041,0.0205c-2.50442,0.01514 -5.16466,0.49182 -7.69099,0.61402c-0.4872,0.02356 -1.18222,-0.74004 -1.56705,-0.93409c-1.89879,-0.95747 -3.95107,-2.50812 -6.01621,-3.02441c-0.99932,-0.67384 -2.11217,-0.80568 -3.21923,-1.21517c-2.527,-0.93472 -5.05493,-2.39511 -7.77151,-2.33493c0.8298,-0.46597 1.24149,-1.51766 2.27717,-2.10308c2.37095,-1.34017 5.36493,-1.00143 7.91934,-1.52052c1.19924,0.66504 2.56924,1.44028 3.87725,1.59943c0.12888,0.12092 0.35894,0.21386 0.44945,0.22509c1.21633,1.20961 2.37503,2.35286 3.60801,3.58585c0.89,0.88402 4.79679,4.01419 5.16562,0.92854c0.0811,-0.67851 -1.14414,-1.89636 -1.53052,-2.36093c-0.08925,-0.10731 -0.10681,-0.25475 -0.19799,-0.36041c0.42203,0.10551 0.84799,0.21886 1.27001,0.32437c0,0 0.00247,0.00064 0.00712,0.00164z" data-paper-data="{&quot;noHover&quot;:false,&quot;origItem&quot;:[&quot;Path&quot;,{&quot;applyMatrix&quot;:true,&quot;segments&quot;:[[[557.73361,514.0253],[0,0],[-1.01043,-0.25261]],[[554.70233,513.26748],[1.01043,0.25261],[0.2183,0.25296]],[[555.3503,514.03233],[-0.21368,-0.25692],[0.92509,1.11227]],[[559.02362,519.74522],[0.19418,-1.62452],[-0.88305,7.38779]],[[546.46296,517.47254],[2.13086,2.11656],[-2.95205,-2.95205]],[[537.84552,508.85248],[2.91218,2.89607],[-0.21673,-0.02689]],[[536.91762,508.44784],[0.30858,0.28952],[-3.13171,-0.38105]],[[527.64291,504.60757],[2.87125,1.59226],[-6.11585,1.24283]],[[508.69597,508.21674],[5.67662,-3.20869],[-2.47968,1.40163]],[[503.24628,513.23831],[1.98673,-1.11565],[6.50411,-0.1441]],[[521.85356,518.81458],[-6.05023,-2.23794],[2.65057,0.98043]],[[529.55902,521.70678],[-2.3926,-1.61332],[4.94442,1.23611]],[[543.89693,528.87393],[-4.54617,-2.29242],[0.92136,0.4646]],[[547.61683,531.10526],[-1.16646,0.05642],[6.04862,-0.29255]],[[565.94724,529.68109],[-5.99617,0.03623],[0.08003,-0.01601]],[[566.18723,529.63266],[-0.07996,0.01628],[0.50809,-0.48255]],[[567.63339,528.55277],[-0.44807,0.20812],[3.26696,-1.51746]],[[573.77791,527.72319],[-1.62429,-0.52759],[5.62443,-1.63751]],[[590.63254,522.47798],[-5.69055,1.61121],[0.05239,-0.33859]],[[590.83814,521.44618],[-0.08766,0.34875],[0.02111,-0.084]],[[591.8573,518.35436],[-0.53676,1.61163],[-2.86581,-0.84399]],[[583.47382,515.51156],[3.06644,0.36805],[-4.66799,-0.56027]],[[569.06458,513.58138],[4.58637,1.12111],[0,0]],[568.95219,513.62617],[[567.90552,513.24184],[0.44156,0.38433],[-1.13414,1.02059]],[[565.10078,516.65156],[1.23975,-0.75048],[-2.12633,1.28718]],[[558.51592,514.04607],[1.73124,2.10037],[-0.27799,0.07484]],[[557.75062,514.02915],[0.21745,0.06028],[-0.01112,-0.00238]]],&quot;closed&quot;:true}]}" fill="#1e668c" stroke="none" stroke-width="0.5" stroke-linecap="butt"/><path d="M273.42868,243.1228c-0.02189,-0.22395 -0.13201,-0.35553 -0.25343,-0.43283c-0.11954,-0.10814 -0.3012,-0.1878 -0.56145,-0.11272c-0.24502,-0.00837 -0.48702,-0.03544 -0.72573,-0.07481c-1.57121,-1.1161 -3.08615,-2.31786 -4.67088,-3.43829c-0.00669,-1.38405 -0.50752,-2.99527 0.23898,-4.22724c1.27732,-2.10798 4.33123,-2.18357 5.64167,-3.89734c1.31712,0.897 2.64664,2.56828 2.6276,4.20417l0.00013,0.59666c0,0 -0.00096,0.62663 0.62554,0.62663c0.6265,0 0.62524,-0.6263 0.62524,-0.6263l0.01476,-0.51445c-0.019,-2.10382 -1.56748,-4.15079 -3.26789,-5.29402c0,0 -0.05492,-0.11772 -0.13619,-0.14859c0.12018,-0.57764 0.15137,-1.11479 0.2949,-1.68167c-1.55372,-2.54838 -3.59264,-4.3244 -6.08226,-5.98414c-0.49048,-0.32699 -3.08735,-1.54956 -3.29243,-1.98884c-0.14044,-0.30084 0.1522,-0.65146 0.17136,-0.98292c0.06385,-1.10443 -0.33784,-1.47521 0.46531,-2.38062c0.79534,-0.8966 2.40663,-0.87401 3.07017,-1.87211c0.41893,-0.63016 0.09876,-1.53032 0.20439,-2.27961c0.09947,-0.70566 0.57856,-1.42393 0.413,-2.11707c-0.77746,-3.25478 -2.89931,-2.19561 -5.12134,-2.7782c-1.33918,-0.35111 -2.29051,-1.62572 -3.83116,-1.92488c-0.41555,-0.70473 -1.23995,-1.08536 -1.73468,-1.73696c-0.93399,-1.23017 0.1055,-4.38264 0.26225,-5.67005c0.07451,-0.61192 0.11479,-1.24306 0.01277,-1.851c-0.04234,-0.25231 -0.66349,-0.53707 -0.42803,-0.63712c0.4145,-0.17611 0.92519,0.45556 1.32801,0.25415c0.5708,-0.28539 0.72571,-1.06422 1.18207,-1.5103c0.41662,-0.40724 1.09541,-0.54291 1.41705,-1.02866c0.91273,-1.37839 1.19513,-3.72341 1.81867,-5.26556c1.2083,-2.9884 5.77521,-4.82894 8.25844,-6.47809c0.34246,-0.22831 0.9482,-0.5737 1.60044,-0.97513c0.48326,3.83654 -0.18382,7.77437 0.13118,11.62634c0.34148,4.17583 1.57661,8.29971 1.57661,12.53181c0.02363,0.14437 0.94405,4.30743 0.19151,4.30438c-1.79249,-0.00726 -3.81085,-1.19559 -5.38478,0.79374c-0.50397,0.63697 -0.21071,1.58665 -0.26418,2.39712c-0.1637,2.48185 0.10276,5.19107 2.0935,6.8484c1.14827,0.95597 2.4459,0.87414 2.8879,2.43278c0.55797,1.96757 -0.1065,4.35679 0.50562,6.2028c0.79643,2.40187 1.40553,2.10638 3.51752,2.88164c1.67679,0.01387 3.24743,0.28369 4.92468,0.28369c0.56228,0 1.12505,0.05258 1.68453,-0.00351c0.13289,-0.01332 0.37858,0.00207 0.58501,-0.06681c-0.34449,0.42446 -0.54823,1.10705 -0.66508,1.84759c-0.18521,-0.17071 -0.44899,-0.17043 -0.44899,-0.17043l-0.79664,0.00063c-1.82502,0 -3.57551,-0.19523 -5.37872,-0.19523c0,0 -0.62801,0.00042 -0.62801,0.62692c0,0.6265 0.60496,0.5458 0.60496,0.5458c1.79738,0 3.53925,0.20224 5.36166,0.20224l0.79449,0.00058c0,0 0.21585,0.07233 0.38048,-0.01942c-0.06991,0.97553 -0.04332,1.90744 -0.04332,2.36876c0,1.81227 0.06516,3.75112 0.95889,5.39835c0.31938,0.58865 0.71854,1.04415 1.20358,1.50593c0.1753,0.1669 0.71204,0.08102 0.71908,0.32297c0.00812,0.27918 -0.52545,0.27214 -0.66125,0.5162c-0.01004,0.01804 -0.14805,0.42233 -0.32387,0.94562c-1.2796,-0.29922 -2.33336,-1.09274 -3.69026,-1.2685c-1.91124,-0.24756 -4.05124,-0.30285 -5.92231,-0.78319l-0.14964,-0.00794c-0.03058,-0.07353 -0.08059,-0.14925 -0.15633,-0.22499c-0.44301,-0.44301 -0.88723,0.00015 -0.88723,0.00015l-0.10357,0.12063c-0.45374,0.31207 -0.87186,0.70531 -1.16994,1.16836c-0.11061,0.17184 -0.17898,0.73336 -0.27025,0.55051c-0.18684,-0.37431 -0.49957,-0.69666 -0.85134,-0.92309c-0.11195,-0.07206 -0.22292,-0.16064 -0.31638,-0.26267c-0.03263,-0.11854 -0.10173,-0.20639 -0.17648,-0.27026z" data-paper-data="{&quot;noHover&quot;:false,&quot;origItem&quot;:[&quot;Path&quot;,{&quot;applyMatrix&quot;:true,&quot;segments&quot;:[[[560.45634,511.67775],[-0.07813,-0.28383],[0.22375,0.24427]],[[561.21281,512.30667],[-0.26804,-0.17254],[0.84221,0.54214]],[[563.24852,514.51688],[-0.44734,-0.89618],[0.21852,0.43777]],[[563.89459,513.19888],[-0.26483,0.41141],[0.71366,-1.10867]],[[566.69157,510.4019],[-1.08636,0.74719],[0,0]],[566.93915,510.11313],[[569.06047,510.11313],[-1.06066,-1.06066],[0.18135,0.18135]],[[569.43438,510.65188],[-0.07323,-0.17605],[0,0]],[[569.79218,510.67096],[0,0],[4.47978,1.15004]],[[583.95437,512.5503],[-4.57596,-0.59272],[3.24872,0.4208]],[[592.78151,515.59058],[-3.06366,-0.71641],[0.42097,-1.25288]],[[593.55513,513.32736],[-0.02403,0.0432],[0.32514,-0.58434]],[[595.13615,512.0925],[0.01943,0.66842],[-0.01684,-0.57928]],[[593.50198,511.49909],[0.41973,0.3996],[-1.1613,-1.1056]],[[590.53545,507.71246],[0.76466,1.40935],[-2.13979,-3.94385]],[[588.23493,494.78986],[0,4.33901],[0,-1.1045]],[[588.33455,489.12078],[-0.16739,2.33567],[-0.39417,0.21968]],[587.52362,489.34046],[[585.61886,489.34046],[0,0],[-4.3633,0]],[[572.76171,488.86426],[4.30334,0],[0,0]],[[571.26171,487.36426],[0,1.5],[0,-1.5]],[[572.76171,485.86426],[0,0],[4.31729,0]],[[585.61886,486.34046],[-4.36952,0],[0,0]],[587.52362,486.34046],[[588.59751,486.74917],[-0.44345,-0.40872],[0.27979,-1.77304]],[[590.18417,482.32943],[-0.82478,1.01625],[-0.49424,0.16492]],[[588.89861,482.65293],[0.31819,-0.0319],[-1.33952,0.13429]],[[584.85993,482.66486],[1.34623,0],[-4.01573,0]],[[573.04929,481.99467],[4.01465,0.03321],[-5.0566,-1.85616]],[[564.61193,475.09913],[1.90684,5.75063],[-1.46555,-4.41978]],[[563.40649,460.24721],[1.3359,4.71083],[-1.05825,-3.73174]],[[556.45599,454.42358],[2.74924,2.28881],[-4.76628,-3.96805]],[[551.35993,437.91486],[-0.39194,5.94214],[0.12799,-1.94045]],[[552.02058,432.11837],[-1.20662,1.52506],[3.76838,-4.76293]],[[565.04181,430.20683],[-4.29164,-0.01738],[1.80176,0.0073]],[[564.49685,420.07854],[0.05658,0.34567],[0,-10.13264]],[[560.74685,390.07854],[0.81759,9.99793],[-0.75418,-9.22256]],[[560.43458,362.24238],[1.15704,9.18558],[-1.5616,0.96111]],[[556.60783,364.57704],[0.81993,-0.54662],[-5.94541,3.94843]],[[536.86718,380.0808],[2.89296,-7.15495],[-1.49289,3.69227]],[[532.52733,392.68103],[2.18528,-3.30018],[-0.77011,1.163]],[[529.14125,395.13973],[0.99748,-0.97503],[-1.09262,1.06803]],[[526.31788,398.75072],[1.36661,-0.6833],[-0.96445,0.48222]],[[523.14125,398.13973],[0.99242,-0.42166],[-0.56377,0.23954]],[[524.16638,399.66486],[-0.10137,-0.6041],[0.24425,1.45556]],[[524.14016,404.0925],[0.1784,-1.46508],[-0.37533,3.08235]],[[523.52733,417.64869],[-2.2362,-2.94531],[1.18448,1.56008]],[[527.68255,421.80391],[-0.99492,-1.6873],[3.68868,0.71625]],[[536.68062,426.31504],[-3.2063,-0.84065],[5.32007,1.39485]],[[549.11503,433.06751],[-1.86142,-7.7927],[0.39641,1.65954]],[[548.14016,438.0925],[0.23817,-1.68952],[-0.2529,1.79398]],[[547.64366,443.50492],[1.00301,-1.50873],[-1.58867,2.38967]],[[540.29025,447.98117],[1.90423,-2.14669],[-1.92293,2.16776]],[[539.16638,453.66486],[0.15286,-2.64426],[-0.04588,0.79359]],[[538.75224,456.01336],[-0.33625,-0.72029],[0.49098,1.05176]],[[546.60783,460.75268],[-1.17432,-0.78288],[5.96074,3.97383]],[[561.11503,475.06751],[-3.71997,-6.10142],[-0.34364,1.35724]],[[560.41899,479.29358],[0.28775,-1.383],[0.19458,0.07391]],[[560.73662,479.44952],[0,0],[4.07117,2.73719]],[[568.54743,492.12617],[-0.04548,-5.03704],[0,0]],[568.54743,493.55474],[[567.04743,495.05474],[1.5,0],[-1.5,0]],[565.54743,493.55474],[[565.54743,492.12617],[0,0],[0.04558,-3.91672]],[[559.24476,482.06116],[3.15349,2.14763],[-3.1375,4.10316]],[[545.71208,491.38931],[3.0582,-5.047],[-1.7873,2.94962]],[[545.18565,501.31562],[-0.01602,-3.31373],[3.79422,2.68257]],[[556.35096,509.54543],[-3.76183,-2.6722],[0.57153,0.09429]],[[558.08608,509.7245],[-0.58663,-0.02003],[0.6231,-0.17976]],[[559.42843,509.99437],[-0.28619,-0.25893],[0.2907,0.18507]],[[560.03437,511.03067],[-0.05243,-0.53621],[0.17897,0.15293]]],&quot;closed&quot;:true}]}" fill="#242b46" stroke="none" stroke-width="0.5" stroke-linecap="butt"/><path d="M265.48089,241.73383c0.03209,-0.01504 0.06468,-0.03158 0.09653,-0.04797c0.25877,-0.13322 0.48403,-0.28297 0.66947,-0.43524c2.21117,1.46169 3.9708,3.42038 5.53745,5.49766c0.04674,0.06197 -1.3531,-0.47173 -1.41853,-0.51574c-0.62929,-0.42327 -1.18296,-0.76432 -1.71961,-1.30518c-1.06848,-1.06848 -2.12393,-2.14882 -3.1653,-3.19352z" data-paper-data="{&quot;noHover&quot;:false,&quot;origItem&quot;:[&quot;Path&quot;,{&quot;applyMatrix&quot;:true,&quot;segments&quot;:[[[548.58428,515.35122],[-2.5582,-2.5582],[1.28488,1.29494]],[[552.64138,518.49714],[-1.50667,-1.0134],[0.15664,0.10536]],[[556.02362,519.74522],[0.1119,0.14837],[-3.75094,-4.97349]],[[542.90658,506.72378],[5.29406,3.49964],[-0.44398,0.36457]],[[541.31788,507.75072],[0.61956,-0.31896],[-0.07627,0.03926]],[[541.08824,507.86358],[0.07682,-0.03599],[2.49331,2.50127]]],&quot;closed&quot;:true}]}" fill="#1e668c" stroke="none" stroke-width="0.5" stroke-linecap="butt"/><path d="M237.85425,236.59223c-1.02865,0.83006 -1.64666,0.50668 -2.45973,0.01812c0.38395,-0.00806 0.79912,-0.04418 1.17706,-0.04418c0.412,0 0.87174,0.03014 1.28267,0.02605z" data-paper-data="{&quot;noHover&quot;:false,&quot;origItem&quot;:[&quot;Path&quot;,{&quot;applyMatrix&quot;:true,&quot;segments&quot;:[[[471.80933,495.53093],[0.98642,0],[-0.90488,0]],[[469.07129,495.55789],[0.91927,-0.01929],[1.94667,1.16973]],[[474.76462,495.51589],[-2.46284,1.98736],[-0.98385,0.00977]]],&quot;closed&quot;:true}]}" fill="#1e668c" stroke="none" stroke-width="0.5" stroke-linecap="butt"/><path d="M240.45044,246.73287c1.33904,-1.17011 2.90651,-1.9948 4.64723,-2.27672c-0.65103,0.63041 -1.13982,1.52177 -1.53188,2.69796l-0.12304,0.35297c-0.41,-0.25807 -0.98811,-0.47514 -1.73243,-0.61708c-0.41321,-0.07881 -0.8389,-0.13746 -1.25988,-0.15713z" data-paper-data="{&quot;noHover&quot;:false,&quot;origItem&quot;:[&quot;Path&quot;,{&quot;applyMatrix&quot;:true,&quot;segments&quot;:[[[484.17057,520.08505],[-0.98932,-0.18867],[1.78208,0.33985]],[[488.20271,521.53595],[-0.98164,-0.61787],[0,0]],[[488.48155,520.69945],[0,0],[0.93869,-2.81608]],[[492.12113,514.37774],[-1.55873,1.50935],[-4.1677,0.675]],[[481.17334,519.743],[3.20598,-2.80151],[1.00795,0.04711]]],&quot;closed&quot;:true}]}" fill="#1e668c" stroke="none" stroke-width="0.5" stroke-linecap="butt"/><path d="M246.25059,251.04516c2.53793,0.09479 4.8456,1.49588 7.11162,2.56723c-2.28601,-0.39784 -5.33905,-1.0678 -7.11162,-2.56723z" data-paper-data="{&quot;noHover&quot;:false,&quot;origItem&quot;:[&quot;Path&quot;,{&quot;applyMatrix&quot;:true,&quot;segments&quot;:[[[511.89802,535.43037],[-5.47324,-0.95252],[-5.42539,-2.56509]],[[495.05925,529.3517],[6.07639,0.22695],[4.24395,3.59002]]],&quot;closed&quot;:true}]}" fill="#1e668c" stroke="none" stroke-width="0.5" stroke-linecap="butt"/><path d="M245.11302,249.80015c-0.29102,-0.39977 -0.52218,-0.77578 -0.77843,-1.11144c0.11131,-0.11982 0.15635,-0.25541 0.15635,-0.25541l0.19914,-0.59836c0.70734,-2.12201 1.45428,-2.58872 3.41147,-3.36308c0.03872,0.00839 0.1512,0.05399 0.18865,0.06088c-0.17752,0.04188 -0.35541,0.09028 -0.53478,0.14786c0,0 -0.59323,0.19554 -0.39512,0.7899c0.19812,0.59435 0.71471,0.36571 0.71471,0.36571c3.07488,-1.07751 6.18782,0.92368 8.94144,1.96808c1.08782,0.41259 2.20492,0.51787 3.19379,1.1701c2.06396,0.51599 4.06215,2.07775 5.96762,3.02133c0.68842,0.3409 1.10307,1.00744 1.94606,1.03396c2.18952,0.06888 4.43367,-0.40663 6.62115,-0.55167c-0.1785,0.1899 -0.26609,0.37046 -0.42114,0.49099c-1.77153,1.37713 -4.43475,2.72678 -6.65086,3.11969c-1.85125,0.32822 -3.95321,-0.57433 -5.69374,-1.00689c-1.9134,-0.47552 -3.9675,-0.7435 -5.94659,-1.02514c0.00222,-0.00622 0.00435,-0.01259 0.00649,-0.019c0.19812,-0.59435 -0.40099,-0.79784 -0.40099,-0.79784c-3.26188,-1.0873 -6.13893,-3.40711 -9.75306,-3.43975z" data-paper-data="{&quot;noHover&quot;:false,&quot;origItem&quot;:[&quot;Path&quot;,{&quot;applyMatrix&quot;:true,&quot;segments&quot;:[[[494.19029,526.34046],[0,0],[8.65308,0.07813]],[[517.52177,534.51267],[-7.8097,-2.60323],[0,0]],[[518.47045,536.41003],[0.47434,-1.42302],[-0.00512,0.01535]],[[518.45478,536.45541],[0.00533,-0.01491],[4.7384,0.67429]],[[532.57861,538.89307],[-4.58113,-1.13851],[4.16723,1.03565]],[[546.17429,541.33505],[-4.43232,0.78584],[5.30589,-0.94072]],[[562.08099,533.90614],[-4.24146,3.29718],[0.37121,-0.28857]],[[563.2867,532.76247],[-0.42737,0.45467],[-5.23733,0.34725]],[[547.43041,534.09946],[5.24222,0.16492],[-2.01831,-0.06349]],[[542.57888,531.56888],[1.64823,0.8162],[-4.56214,-2.25917]],[[528.34536,524.45032],[4.94159,1.2354],[-2.36758,-1.5616]],[[520.81272,521.62824],[2.60449,0.98784],[-6.5928,-2.50055]],[[499.42653,516.88253],[7.36198,-2.57982],[0,0]],[[497.52917,515.93384],[0.47434,1.42302],[-0.47434,-1.42302]],[[498.47785,514.03648],[0,0],[0.42944,-0.13787]],[[499.75948,513.6799],[-0.42502,0.10027],[-0.08967,-0.0165]],[[499.48595,513.62506],[0.0927,0.02007],[-4.68597,1.85402]],[[491.3276,521.64813],[1.69354,-5.08061],[0,0]],[490.85141,523.0767],[[490.47728,523.68645],[0.26651,-0.28689],[0.61353,0.80367]],[[492.34153,526.34046],[-0.69677,-0.95715],[0,0]]],&quot;closed&quot;:true}]}" fill="#1e668c" stroke="none" stroke-width="0.5" stroke-linecap="butt"/><path d="M238.62899,247.1194c-2.51477,0.18407 -5.10297,0.72065 -7.51258,-0.32129c-1.57398,-0.6806 -1.65542,-2.41364 -2.26703,-3.66494c1.81986,0.79053 4.83122,4.7568 6.14449,1.1931l0.27602,-0.5013c0,0 0.34656,-0.52622 -0.17473,-0.87375c-0.52129,-0.34752 -0.78605,0.16238 -0.78605,0.16238l-0.52151,0.68342c-0.57131,2.00122 -3.70885,-1.54292 -4.80892,-1.91915c0,0 -0.51084,-0.19874 -0.70895,0.39562c-0.00226,0.0068 -0.08794,0.0154 -0.09,0.02209c-0.31898,-0.30462 -0.73964,-0.51827 -1.32984,-0.58318c1.15434,-0.64167 2.41747,-2.47684 3.08123,-4.16144c1.1023,-0.27124 2.25102,-0.43676 3.40105,-0.52759c0.06562,0.33431 0.50028,0.49376 0.50028,0.49376c0.81301,0.2009 1.22519,1.25164 2.20425,1.37789c1.11177,0.14337 2.20181,-0.67914 2.96343,-1.40246c0.15661,-0.01848 0.57169,-0.11855 0.57169,-0.62544c0,-0.00164 0.00002,-0.00327 0.00001,-0.0049c4.20073,-0.09038 8.42014,-0.31197 12.64039,-0.34346c0.35467,0.63361 0.83541,1.20225 1.46441,1.65215c1.04623,0.74834 2.96408,1.14264 4.33117,1.62187c-2.21277,0.24288 -4.60464,0.19877 -6.56225,1.32529c-1.31248,0.75526 -1.637,2.61835 -3.31414,2.12976c-0.40016,0.11971 -0.76916,0.24988 -1.10767,0.38599c-0.18561,-0.18248 -0.46085,-0.18261 -0.46085,-0.18261c-3.05131,0 -5.5598,1.29248 -7.66691,3.38545l-0.19913,0.19872c0,0 -0.03072,0.03067 -0.06787,0.08399z" data-paper-data="{&quot;noHover&quot;:false,&quot;origItem&quot;:[&quot;Path&quot;,{&quot;applyMatrix&quot;:true,&quot;segments&quot;:[[476.93915,519.63694],[[477.41534,519.16075],[0,0],[5.04492,-5.01106]],[[495.61886,511.10236],[-7.30556,0],[0,0]],[[496.72235,511.53925],[-0.4444,-0.43689],[0.81048,-0.3259]],[[499.37082,510.62727],[-0.95807,0.28662],[4.01546,1.1698]],[[507.30365,505.55941],[-3.14238,1.80829],[4.68699,-2.69715]],[[523.01576,502.39079],[-5.29789,0.58152],[-3.27314,-1.14737]],[[512.65021,498.52581],[2.50493,1.79169],[-1.50598,-1.07718]],[[509.15146,494.58684],[0.84915,1.51699],[-10.10425,0.07538]],[[479.02359,495.44778],[10.05755,-0.2164],[0.00002,0.0039]],[[479.02362,495.4595],[0,-0.00392],[0,1.2136]],[[477.66679,496.94906],[0.37495,-0.04424],[-1.82351,1.73181]],[[470.60094,500.27083],[2.66184,0.34325],[-2.3441,-0.30227]],[[465.14452,496.88253],[1.94654,0.48099],[0,0]],[[464.12339,495.7941],[0.15712,0.80042],[-2.75347,0.21746]],[[455.98689,497.04284],[2.63916,-0.64943],[-1.58919,4.03331]],[[448.61542,506.97461],[2.76376,-1.53631],[1.41307,0.15543]],[[451.79934,508.36696],[-0.76371,-0.72934],[0.00493,-0.01603]],[[451.81488,508.31849],[-0.00543,0.01628],[0.47434,-1.42302]],[[453.71225,507.36981],[0,0],[2.63382,0.90078]],[[465.22377,511.94333],[-1.36784,4.79139],[0,0]],[466.27554,510.34174],[[468.35567,509.92571],[-1.24808,-0.83205],[1.24808,0.83205]],[468.77169,512.00584],[[467.91871,513.26139],[0,0],[-3.14429,8.53234]],[[453.20303,510.38315],[4.35718,1.89271],[1.46434,2.9959]],[[458.82243,519.11006],[-3.76848,-1.62952],[5.76917,2.49463]],[[476.7767,519.83808],[-6.02094,0.44071],[0.08895,-0.12765]]],&quot;closed&quot;:true}]}" fill="#1e668c" stroke="none" stroke-width="0.5" stroke-linecap="butt"/><path d="M230.35069,235.89821c0.03843,-0.21566 0.05988,-0.42111 0.06325,-0.61168c0.00722,-0.40781 -0.73953,-0.67222 -0.61462,-1.0605c0.1162,-0.36118 0.90091,-0.13574 1.12831,-0.43946c0.45434,-0.60681 0.58026,-1.32543 0.7463,-2.06508c0.06524,-0.29064 -0.27794,-0.73566 -0.06731,-0.94629c0.21063,-0.21063 0.59052,0.17568 0.88366,0.12281c1.12684,-0.20323 2.51384,-0.87135 3.41507,-1.57461c2.78892,-2.17629 4.51194,-6.21444 6.30832,-9.2084c0,0 0.08069,-0.11413 0.11788,-0.19772c2.32609,-0.2794 4.52882,-1.45519 6.6527,-2.91217c2.02867,-1.39168 4.40412,-5.05206 2.99636,-7.73197c-0.37977,-0.72296 -1.21406,-1.1108 -1.94379,-1.47738c-0.36748,-0.1846 -0.9157,0.15853 -1.22493,-0.11257c-0.67678,-0.59334 -0.22821,-1.78725 -0.4465,-2.66042c-0.37726,-1.50903 -0.55841,-3.07721 -0.66688,-4.56709c0.43248,0.75969 0.97955,1.35647 1.67299,1.61197c1.62358,0.5982 3.56063,-0.25962 5.16085,-1.37419c0.06293,1.02585 0.17892,2.04973 0.18039,2.52247c0.00924,2.96962 0.59108,6.67616 1.3056,9.54142c0.39382,1.57923 1.45842,2.99397 1.63506,4.69083c0.13245,1.27237 -3.04983,3.11735 -3.84745,4.10066c-1.57102,1.93675 -2.00505,4.6133 -2.00505,7.03298c-0.46982,1.87931 -0.75435,4.35423 -0.13073,6.42079c-5.04702,0.05739 -10.05064,0.3902 -15.10713,0.3902c-2.03477,0 -4.18326,0.09175 -6.21236,0.50539z" data-paper-data="{&quot;noHover&quot;:false,&quot;origItem&quot;:[&quot;Path&quot;,{&quot;applyMatrix&quot;:true,&quot;segments&quot;:[[[471.80933,492.53093],[-4.87171,0],[12.10643,0]],[[507.89823,491.59866],[-12.08376,0.1374],[-1.49311,-4.94785]],[[508.1926,476.23722],[-1.12487,4.4995],[0,-5.7933]],[[512.95968,459.4459],[-3.76139,4.63705],[1.9097,-2.35429]],[[522.16638,449.66486],[0.31712,3.04636],[-0.42292,-4.06267]],[[518.26001,438.469],[0.9429,3.78106],[-1.71074,-6.86009]],[[515.16638,415.66486],[0.02212,7.10997],[-0.00352,-1.13184]],[[514.7411,409.62993],[0.15067,2.45611],[-3.83131,2.66855]],[[502.40429,412.92939],[3.88725,1.43223],[-1.66025,-0.61171]],[[498.40996,409.07317],[1.03546,1.81888],[0.2597,3.56712]],[[500.06188,419.81599],[-0.90325,-3.61298],[0.52264,2.09057]],[[501.14125,426.18999],[-1.62036,-1.4206],[0.74036,0.64909]],[[504.08232,426.46406],[-0.87983,-0.44198],[1.74715,0.87768]],[[508.75224,430.01336],[-0.90926,-1.73093],[3.37051,6.41633]],[[501.60783,448.57704],[4.85712,-3.332],[-5.08506,3.48837]],[[485.51981,455.64946],[5.56921,-0.66895],[-0.08904,0.20011]],[[485.36115,455.9656],[0,0],[-4.30096,7.16827]],[[470.13887,478.17358],[6.67735,-5.21055],[-2.15775,1.68376]],[[461.95361,481.93665],[2.69792,-0.48658],[-0.70185,0.12658]],[[459.8348,481.63973],[0.50429,-0.50429],[-0.50429,0.50429]],[[460.13172,483.75854],[0.15621,-0.69585],[-0.39754,1.77088]],[[458.21507,488.85491],[1.0878,-1.45284],[-0.54445,0.72716]],[[455.64253,489.75417],[0.27822,-0.86474],[-0.29909,0.92963]],[[457.10993,492.28986],[0.01728,-0.9764],[-0.00808,0.45626]],[[456.95732,493.75346],[0.092,-0.51634],[4.85814,-0.99035]]],&quot;closed&quot;:true}]}" fill="#242b46" stroke="none" stroke-width="0.5" stroke-linecap="butt"/><path d="M245.22812,204.05013c0.09773,0.53689 0.21699,1.08251 0.3524,1.62416c0.18232,0.72929 0.86504,3.66368 1.22392,4.04171c0.64699,0.6815 2.32128,0.03849 2.66822,0.9118c0.18742,0.47175 0.09902,1.04037 -0.13309,1.59601c-1.98166,-0.5017 -5.24122,-1.48344 -5.84337,-3.28987l0.03215,-0.00077c0,0 0.00064,-0.62056 -0.62586,-0.62056c-0.6265,0 -0.54369,0.61706 -0.54369,0.61706l0.03213,0.4013c0.72311,2.16932 3.99522,3.37369 6.29569,4.01363c-0.40599,0.54493 -0.88045,1.0052 -1.24771,1.24054c-0.4837,0.30995 -0.95247,0.61702 -1.40895,0.89847c-1.24832,-0.38548 -3.86216,-0.81167 -4.51896,-1.87444c-0.58285,-0.94311 -0.36671,-2.46153 -0.36671,-3.49875c0,0 0.08021,-0.60434 -0.5463,-0.60434c-0.6265,0 -0.63328,0.64277 -0.63328,0.64277c0,1.26152 -0.3333,2.92797 0.44221,4.04543c0.79217,1.14146 2.57985,1.72626 4.08997,2.15175c-1.51414,0.73849 -3.0815,1.09624 -5.04268,0.58205c-2.6485,-0.6944 -2.34131,-3.30102 -3.21465,-5.23035l-0.42236,-1.65888c-0.14773,-0.65099 -0.73217,-1.153 -1.42786,-1.153c-0.51546,0 -0.88529,0.26565 -1.14559,0.66868l-0.82411,1.22656c-1.23557,1.85334 -2.49939,3.41388 -3.03496,5.59734c-0.35596,0.77687 -1.08102,1.32991 -1.72874,0.25373c-0.49841,-0.8281 -0.22364,-2.77644 0.13705,-3.58796c0.02328,-0.05239 0.04723,-0.10487 0.07209,-0.15658c0.97686,-0.80946 1.83636,-1.75505 2.31126,-2.55597c0.39608,-0.668 1.1449,-1.30095 1.0807,-2.07488c-0.01055,-0.12713 -0.03549,-0.25157 -0.07244,-0.37026c0.63519,-1.54793 0.89584,-3.53201 1.29467,-5.14807c0.13559,-0.54944 0.31874,-1.1543 0.43944,-1.76755c1.39486,0.46018 3.05257,1.83695 4.55728,2.29136c2.21222,0.66809 5.00846,0.78681 7.30358,0.78681z" data-paper-data="{&quot;noHover&quot;:false,&quot;origItem&quot;:[&quot;Path&quot;,{&quot;applyMatrix&quot;:true,&quot;segments&quot;:[[[491.36527,417.64151],[0,0],[-5.49506,0]],[[473.97357,415.79361],[5.29659,1.59955],[-3.60263,-1.08798]],[[463.10187,410.29157],[3.33963,1.10178],[-0.28898,1.46825]],[[462.06188,414.51373],[0.32464,-1.31547],[-0.95488,3.86921]],[[458.99225,426.78319],[1.5208,-3.70609],[0.08848,0.28416]],[[459.16638,427.66486],[-0.02525,-0.30438],[0.1537,1.85299]],[[456.57856,432.60631],[0.94832,-1.59934],[-1.13703,1.9176]],[[451.04014,438.70693],[2.33884,-1.93804],[-0.05951,0.12382]],[[450.86718,439.0808],[0.05575,-0.12544],[-0.86357,1.94297]],[[450.52733,447.64869],[-1.19331,-1.98266],[1.55081,2.57663]],[[454.5061,447.16066],[-0.85225,1.86001],[1.28227,-5.22773]],[[461.7542,433.72341],[-2.95824,4.43735],[0,0]],[[463.72409,430.76858],[0,0],[0.62319,-0.96495]],[[466.66638,429.16486],[-1.23415,0],[1.66565,0]],[[470.07964,431.88701],[-0.3537,-1.55862],[0,0]],[[471.06188,435.81599],[0,0],[2.09099,4.61928]],[[478.68062,448.31504],[-6.34113,-1.66255],[4.69551,1.2311]],[[490.70241,446.94387],[-3.62521,1.76813],[-3.6156,-1.01872]],[[481.00955,441.96239],[1.89664,2.73291],[-1.85676,-2.67545]],[[479.83314,432.12617],[0,3.02038],[0,0]],[[481.33314,430.62617],[-1.5,0],[1.5,0]],[[482.83314,432.12617],[0,0],[0,2.48337]],[[483.5615,440.38519],[-1.39549,-2.25801],[1.57254,2.54451]],[[494.36047,444.89145],[-2.98876,-0.92292],[1.09293,-0.67385]],[[497.72493,442.75268],[-1.15808,0.74209],[0.87932,-0.56346]],[[500.70522,439.79636],[-0.97203,1.3047],[-5.50786,-1.53217]],[[485.6244,430.21956],[1.73129,5.19386],[0,0]],[485.54743,429.26903],[[487.04743,427.76903],[-1.5,0],[1.5,0]],[488.54743,429.26903],[[488.47045,429.27088],[0,0],[1.44167,4.32502]],[[502.26478,437.12369],[-4.74455,-1.20118],[0.55575,-1.33032]],[[502.58052,433.31636],[0.44872,1.12948],[-0.83067,-2.09091]],[[496.19151,431.13973],[1.54904,1.63168],[-0.85926,-0.9051]],[[493.27088,421.51373],[0.43652,1.74609],[-0.32421,-1.29685]],[[492.43718,417.64151],[0.23398,1.28543],[0,0]]],&quot;closed&quot;:true}]}" fill="#41abc2" stroke="none" stroke-width="0.5" stroke-linecap="butt"/><path d="M225.27044,195.63234c-0.07567,0.18778 -0.13937,0.40344 -0.18961,0.6523c-0.20272,1.00429 0.99671,2.13631 0.51656,3.04136c-0.25055,0.47228 -0.92092,0.6227 -1.17347,1.09392c-0.73908,1.37906 -1.04739,4.45178 -0.21215,6.15249c-0.30175,-0.23834 -0.61751,-0.4837 -0.97441,-0.72365c0,0 -0.5257,-0.34223 -0.87321,0.17906c-0.34752,0.52129 0.11748,0.80724 0.11748,0.80724c1.54136,1.01724 2.37831,2.03537 4.24338,2.49254l0.32165,0.05476c-0.28644,0.40382 -0.58059,0.80258 -0.85607,1.20002c-0.50073,0.3822 -1.08724,0.78683 -1.56749,1.05188c-0.08461,-0.05537 -0.15579,-0.07879 -0.15579,-0.07879c-1.73549,-0.51262 -2.55884,-2.85251 -4.08965,-3.75857l-0.10268,-0.41446c0,0 -0.20622,-0.59373 -0.80057,-0.39562c-0.59435,0.19812 -0.39094,0.70918 -0.39094,0.70918l0.29238,0.77864c1.30589,0.94005 2.21173,2.60048 3.48377,3.59312c-1.48229,-0.00573 -2.81946,-0.78125 -4.1309,-1.34246c-0.3559,-0.1523 -0.78731,-0.27811 -1.24005,-0.3937c0.4243,-1.92329 -1.40472,-3.26678 -2.03215,-5.1605c0,0 -0.12032,-0.62423 -0.71467,-0.42612c-0.59435,0.19812 -0.39786,0.78808 -0.39786,0.78808c0.47489,1.41497 2.2145,3.0127 1.95794,4.42737c-0.87722,-0.21317 -1.78012,-0.38538 -2.35869,-0.77508c-1.58319,-1.06637 -1.98375,-2.88027 -1.87389,-4.81964c0.15054,-0.05766 0.24892,-0.15683 0.24892,-0.15683l-0.04603,-0.04784c1.48552,-0.50805 2.3607,-0.58496 3.96096,-0.38515c0.48638,0.06073 1.57957,0.07722 1.91783,-0.44265c0.94541,-1.453 -0.86132,-3.74873 -1.88392,-4.43626c0,0 -0.51703,-0.35119 -0.86454,0.17009c-0.34752,0.52129 0.1764,0.86594 0.1764,0.86594c0.63169,0.4169 1.89955,1.75791 1.6375,2.67687c-0.03666,0.12858 -1.31092,-0.24389 -1.37994,-0.25346c-1.36432,-0.18919 -2.42354,0.10793 -3.59679,0.49019c0.26542,-1.64519 0.76074,-3.31617 1.0665,-4.63535c-0.11845,-0.51999 -0.23272,-1.04263 -0.34235,-1.56225c1.08956,-0.76613 2.17312,-1.40138 3.6472,-1.02222l0.71462,0.01759c0,0 0.63028,-0.00091 0.63028,-0.62742c0,-0.05177 -0.00421,-0.09928 -0.01205,-0.14285c1.37633,-0.3015 2.85208,-0.51903 4.17667,-0.35317c1.12491,0.14085 2.12685,0.68897 3.14984,1.11137z" data-paper-data="{&quot;noHover&quot;:false,&quot;origItem&quot;:[&quot;Path&quot;,{&quot;applyMatrix&quot;:true,&quot;segments&quot;:[[[437.16414,394.86242],[2.6933,0.33724],[-3.17135,-0.3971]],[[427.21123,395.71023],[3.29525,-0.72185],[0.01879,0.10432]],[[427.24027,396.05223],[0,-0.12396],[0,1.5]],[425.74027,397.55223],[[424.03718,397.50744],[0,0],[-3.52929,-0.90779]],[[415.33956,399.93242],[2.60866,-1.83429],[0.26247,1.2441]],[[416.16638,403.66486],[-0.28359,-1.24499],[-0.73205,3.15843]],[[413.63502,414.70581],[0.63548,-3.93899],[2.80903,-0.91523]],[[422.04961,413.50268],[-3.26651,-0.45297],[0.16526,0.02292]],[[425.35437,414.10625],[-0.08779,0.30786],[0.62739,-2.2002]],[[421.45347,407.65996],[1.51243,0.99815],[0,0]],[[421.03745,405.57983],[-0.83205,1.24808],[0.83205,-1.24808]],[[423.11757,405.16381],[0,0],[2.44832,1.64609]],[[427.7881,415.86038],[2.26354,-3.47882],[-0.80988,1.24469]],[[422.99763,416.94013],[1.1645,0.1454],[-3.83142,-0.47838]],[[413.71225,417.83491],[3.55668,-1.2164],[0,0]],[413.82237,417.94873],[[413.22616,418.32259],[0.36042,-0.13806],[-0.26302,4.64332]],[[417.68255,429.80391],[-3.79053,-2.55313],[1.38524,0.93304]],[[423.21733,431.82216],[-2.10026,-0.51038],[0.61426,-3.38704]],[[418.48155,421.17194],[1.13699,3.38778],[0,0]],[[419.43023,419.27457],[-1.42302,0.47434],[1.42302,-0.47434]],[[421.3276,420.22326],[0,0],[1.5022,4.53399]],[[426.13042,432.52487],[1.01588,-4.60483],[1.08397,0.27674]],[[429.08232,433.46406],[-0.85211,-0.36465],[3.13988,1.34365]],[[438.9265,436.68399],[-3.54894,-0.01372],[-3.04556,-2.37661]],[[430.61727,428.27476],[3.12659,2.25069],[0,0]],[429.91012,426.41003],[[430.8588,424.51267],[-1.42302,0.47434],[1.42302,-0.47434]],[432.75617,425.46135],[[433.00139,426.45377],[0,0],[3.66513,2.16933]],[[442.75987,435.46505],[-4.15518,-1.22734],[0,0]],[[443.13205,435.65417],[-0.20258,-0.13259],[1.14984,-0.63457]],[[446.86962,433.1472],[-1.19886,0.91508],[0.65957,-0.95157]],[[448.90898,430.28491],[-0.6858,0.96683],[0,0]],[[448.29272,430.2816],[0,0],[-4.4654,-1.09456]],[[438.12014,424.32663],[3.69038,2.43553],[0,0]],[[437.70411,422.2465],[-0.83205,1.24808],[0.83205,-1.24808]],[[439.78424,421.83048],[0,0],[0.8545,0.57451]],[[442.11753,423.56259],[-0.72247,-0.57064],[-1.99975,-4.07192]],[[442.62068,408.94041],[-1.76955,3.3018],[0.60465,-1.1282]],[[445.4328,406.32547],[-0.59988,1.13074],[1.1496,-2.16693]],[[444.21773,399.06751],[-0.48537,2.40449],[0.12027,-0.59583]],[[444.67382,397.50738],[-0.18117,0.4496],[-2.44929,-1.01132]]],&quot;closed&quot;:true}]}" fill="#41abc2" stroke="none" stroke-width="0.5" stroke-linecap="butt"/><path d="M227.64547,156.01825l0.1994,0.00023c0.26519,0 0.5323,0.00091 0.79749,0.00091c0,0 0.00395,0.00002 0.01117,-0.00029c-1.33604,4.39468 -2.00766,8.93918 -2.00766,13.53949c0,2.1233 0.12484,4.3238 0.18046,6.39233c0.01952,0.72603 -0.6521,1.50698 -1.05882,1.99333c-1.39855,1.67233 -2.05797,3.88999 -3.59527,5.37291c-0.35261,0.52892 -0.85874,1.32721 -1.33665,1.72723c-0.58582,0.49034 -1.2741,0.8655 -1.81142,1.40856c-0.19844,0.20057 -0.38785,0.87813 -0.54795,0.6458c-1.34066,-1.94548 -1.93588,-4.31479 -3.27478,-6.32315c0,0 -0.04386,-0.06538 -0.12302,-0.13425c-0.00775,-1.83425 -0.74553,-3.71847 -0.52991,-5.58813c0.13735,-1.19089 0.79188,-2.89203 1.66493,-3.74954c0.84245,-0.82745 2.36973,-0.88046 2.83277,-2.18901c0.12553,-0.35474 -0.13799,-1.67729 -0.40226,-2.7752c0.18957,-0.5687 0.38975,-1.14741 0.57354,-1.71801c1.09805,-1.61627 1.90914,-3.57522 2.97783,-5.1248c0.68507,-0.99334 1.83004,-1.94398 2.40694,-3.00326c0.71851,-1.31929 0.24269,-2.95954 -0.79725,-3.85503c1.44843,-0.70956 2.92214,-1.41333 4.31665,-2.23591c0.18017,0.2444 0.51582,0.2448 0.51582,0.2448l-0.14899,-0.10534c0.32623,0.20797 0.61489,0.49529 0.82286,0.82151c0.1995,0.29926 0.37008,0.58767 0.51961,0.87043c-0.02646,0.09904 -0.02635,0.17507 -0.02635,0.17507l0.03221,0.0008c-0.26519,0.79556 -0.52966,1.59146 -0.79486,2.38703c-0.00906,0.02724 -0.05494,0.12946 -0.06395,0.15671c-0.17376,-0.11234 -0.37204,-0.1119 -0.37204,-0.1119c-0.26519,0 -0.72695,0.00099 -0.99213,0.00099c0,0 -0.59713,-0.07819 -0.59713,0.54832c0,0.6265 0.62875,0.62739 0.62875,0.62739z" data-paper-data="{&quot;noHover&quot;:false,&quot;origItem&quot;:[&quot;Path&quot;,{&quot;applyMatrix&quot;:true,&quot;segments&quot;:[[[448.88076,301.17379],[0,1.5],[0,-1.5]],[[450.38076,299.67379],[0,0],[0.63492,0]],[[452.76171,299.67379],[-0.63492,0],[0,0]],[[453.65474,299.94278],[-0.41603,-0.26899],[0.02157,-0.06525]],[[453.71964,299.74707],[-0.02169,0.06523],[0.63492,-1.90476]],[[455.6244,294.03278],[-0.63492,1.90476],[0,0]],[455.54743,294.03093],[[455.61078,293.61189],[-0.06335,0.23713],[-0.35803,-0.67701]],[[454.37078,291.52965],[0.47766,0.71649],[-0.49792,-0.78106]],[[452.40585,289.56472],[0.78106,0.49792],[0,0]],[452.76171,289.81665],[[451.5295,289.23148],[0.43136,0.58516],[-3.33879,1.96946]],[[441.21516,294.58913],[3.46788,-1.69887],[2.48986,2.14403]],[[443.11463,303.8176],[1.72029,-3.15869],[-1.38125,2.53617]],[[437.37102,311.01],[1.64022,-2.37828],[-2.5587,3.71006]],[[430.29966,323.26139],[2.62898,-3.86972],[-0.44002,1.36615]],[[428.95078,327.35],[0.45388,-1.36161],[0.63271,2.62864]],[[429.93091,333.92695],[0.30054,-0.84933],[-1.10863,3.13296]],[[423.14125,339.13973],[2.01702,-1.98111],[-2.0903,2.05308]],[[419.14016,348.0925],[0.32884,-2.85126],[-0.51627,4.47641]],[[420.38301,361.44953],[-0.01856,-4.39162],[0.18951,0.16487]],[[420.67646,361.77031],[0,0],[3.20564,4.80847]],[[428.48661,376.89784],[-3.20985,-4.65793],[0.38333,0.55626]],[[429.79629,375.35122],[-0.47513,0.48022],[1.28645,-1.30022]],[[434.12391,371.97758],[-1.4026,1.17398],[1.14425,-0.95774]],[[437.31599,367.84185],[-0.84424,1.26636],[3.68066,-3.55048]],[[445.88742,354.98471],[-3.34846,4.00396],[0.97379,-1.16443]],[[448.40457,350.22141],[0.04674,1.73828],[-0.13316,-4.95255]],[[447.92838,334.98331],[0,5.08368],[0,-11.01423]],[[452.7884,302.67305],[-3.1988,10.5219],[-0.0173,0.00074]],[[452.76171,302.67379],[0,0],[-0.63492,0]],[[450.85695,302.67379],[0.63492,0],[0,0]],[450.38076,302.67379]],&quot;closed&quot;:true}]}" fill="#185272" stroke="none" stroke-width="0.5" stroke-linecap="butt"/><path d="M237.37523,175.17572c-1.35683,-4.02053 -2.78981,-8.03026 -3.79401,-12.127c-1.20299,-3.61751 3.29727,-6.93472 2.50166,-10.98986c0.73393,-1.48151 1.12446,-3.18782 1.12446,-4.62608c0,-2.45298 -0.00278,-4.82248 -0.00278,-7.27546c0,-0.16301 -0.09172,-1.04528 -0.12615,-1.59033c0.39426,1.76324 0.4135,3.60537 0.67531,5.38619c0.12874,0.8757 0.6782,1.71758 0.79947,2.58604c0.19103,1.368 0.02763,2.31834 0.84897,3.53641c1.19624,5.06132 0.74142,10.71163 0.74142,15.93491c0.03084,2.65074 -1.16687,5.7185 -2.33488,8.08061c-0.17283,0.34951 -0.31203,0.71363 -0.43347,1.08456z" data-paper-data="{&quot;noHover&quot;:false,&quot;origItem&quot;:[&quot;Path&quot;,{&quot;applyMatrix&quot;:true,&quot;segments&quot;:[[[474.74757,345.75286],[-0.41379,0.83681],[2.7965,-5.65543]],[[480.30933,326.41188],[0.07385,6.3465],[0,-12.50577]],[[478.5328,288.44729],[2.86407,12.118],[-1.96648,-2.91635]],[[476.51918,279.98549],[0.45735,3.27532],[-0.29035,-2.07933]],[[474.61442,273.79501],[0.30824,2.09663],[-0.62684,-4.26371]],[[473.00339,260.89947],[0.94394,4.22162],[0.08245,1.30497]],[[473.30933,264.50712],[0,-0.39029],[0,5.87302]],[[473.30933,282.12617],[0,-5.87302],[0,3.44353]],[[470.6362,293.20107],[1.7572,-3.54708],[1.90488,9.70898]],[[464.67808,319.32584],[-2.88025,-8.66116],[2.40428,9.80857]],[[473.71245,348.34943],[-3.24858,-9.62611],[0.29074,-0.88809]]],&quot;closed&quot;:true}]}" fill="#154863" stroke="none" stroke-width="0.5" stroke-linecap="butt"/><path d="M244.67341,194.40673c-0.0017,0.38069 -0.02875,0.8391 -0.03,1.2162c-3.77686,-1.26749 -7.47494,-3.07028 -10.72737,-5.27989c0,0 -0.52185,-0.34803 -0.86937,0.17326c-0.02819,0.04228 -0.05064,0.08347 -0.06814,0.12337c-0.04278,0.0005 -0.08565,0.0009 -0.12843,0.0014c1.90403,-3.38797 3.39913,-7.60637 4.26794,-11.26523c0.96138,-1.42577 1.01041,-3.24576 1.77606,-4.75806c1.28859,-2.5452 2.42115,-5.79662 2.44694,-8.65311c0,-5.37054 0.51984,-11.20434 -0.83167,-16.39125c-0.77101,-1.16894 -0.55719,-1.91288 -0.74841,-3.22915c-0.41612,-2.86439 -0.86881,-6.34053 -1.76156,-9.09944c0.46118,-0.31854 1.00658,-0.64115 1.48429,-0.92511c0.57021,0.618 2.36344,1.76395 2.89311,2.11517c1.4208,0.94212 2.34557,2.17179 3.64649,3.25445c0.73515,0.61181 1.73316,0.88967 2.40222,1.57314c3.5329,3.60893 7.00522,7.18514 9.86447,11.47403c3.57032,5.35549 6.03863,11.93114 10.13538,16.87158c1.33247,1.60688 2.50127,3.14952 3.67063,4.90355c0.27844,0.41767 0.47419,0.90506 0.83469,1.25437c0.1526,0.14786 0.66,-0.05316 0.61833,0.1552c-0.04168,0.20836 -0.43288,-0.17176 -0.63061,-0.09397c-0.93424,0.36757 -1.67335,1.11835 -2.50869,1.67524c-3.11558,2.08605 -7.67923,4.07692 -9.3159,7.74063c-0.59175,1.32463 -0.74746,3.59553 -1.53386,4.76305c-0.23601,0.3504 -0.80043,0.34013 -1.09371,0.64422c-0.25738,0.26687 -0.1609,0.83222 -0.49252,0.99803c-0.60543,0.30271 -1.5869,-0.26638 -2.01779,0.25566c-0.35739,0.43301 -0.45478,1.05376 -0.46219,1.71625c-0.05588,0.06087 -0.1069,0.12651 -0.15191,0.1962l-0.76368,1.14376c-0.84524,0.84083 -2.91104,2.67553 -4.16987,2.46142c-0.20733,-0.03526 -0.02022,-0.42799 -0.09832,-0.62326c-0.20021,-0.50063 -0.54229,-0.93875 -0.72987,-1.44425c-0.5062,-1.36417 -0.40942,-3.96725 -1.29032,-5.09677c-0.05163,-0.0662 -0.10574,-0.13035 -0.16141,-0.19253l0.0406,-0.02701l-0.82458,-1.23457c-0.25584,-0.39614 -0.70031,-0.66133 -1.20484,-0.67025c0.45922,-2.16696 1.2499,-4.35648 1.79441,-6.52382c0.73634,-2.20343 2.28791,-4.92543 2.57675,-7.1554c0.30596,-2.36216 0.8757,-4.27924 1.94825,-6.42433c0.98917,-2.9445 1.78689,-5.72899 2.63344,-8.69651c0.38291,-1.34226 0.98389,-2.46206 0.99664,-3.87372c0,0 0.00276,-0.62584 -0.62374,-0.62584c-0.6265,0 -0.62461,0.62686 -0.62461,0.62686c0.01474,1.26634 -0.6216,2.39667 -0.96709,3.60406c-0.36719,1.28322 -0.42974,2.36181 -0.61032,3.65504c-0.23882,1.71027 -1.38316,3.14806 -1.91687,4.76373c-1.09441,2.18882 -1.82568,4.25019 -2.04231,6.69235c-0.18401,2.07429 -1.8827,5.01706 -2.57024,7.08455c-0.66953,2.69207 -1.6285,5.26514 -2.02828,7.97276c-0.00941,0.04805 -0.01653,0.09692 -0.02112,0.14654c-0.10092,0.72147 -0.16219,1.45242 -0.16621,2.19821l-0.00018,0.39772c0,0 -0.00039,0.24759 0.15537,0.43149z" data-paper-data="{&quot;noHover&quot;:false,&quot;origItem&quot;:[&quot;Path&quot;,{&quot;applyMatrix&quot;:true,&quot;segments&quot;:[[490.78552,393.55474],[[490.78552,392.60236],[0,0],[0.00961,-1.7856]],[[491.18139,387.33859],[-0.24161,1.72737],[0.01098,-0.11878]],[[491.23183,386.98771],[-0.02255,0.11504],[0.95715,-6.48269]],[[496.08344,367.89726],[-1.60303,6.44545],[1.64614,-4.95007]],[[502.23346,350.93352],[-0.44056,4.96635],[0.51869,-5.8471]],[[507.09018,334.88548],[-2.62028,5.24056],[1.27785,-3.86828]],[[511.75727,323.31447],[-0.57178,4.09481],[0.43235,-3.09628]],[[513.2263,314.56393],[-0.87913,3.07235],[0.82717,-2.89077]],[[515.54743,305.93569],[0.03528,3.03192],[0,0]],[[517.04743,304.43569],[-1.5,0],[1.5,0]],[[518.54743,305.93569],[0,0],[-0.03052,3.37987]],[[516.10666,315.40269],[0.91677,-3.21368],[-2.02683,7.10492]],[[509.86182,336.03353],[2.36829,-7.04983],[-2.56793,5.13587]],[[505.19473,351.41406],[0.73254,-5.65555],[-0.69154,5.33906]],[[498.9638,368.73603],[1.76298,-5.27553],[-1.3037,5.18912]],[[494.72949,384.16542],[1.09948,-5.18821],[1.20797,0.02136]],[[497.60867,385.76858],[-0.61255,-0.94847],[0,0]],[499.57856,388.72341],[[499.4815,388.78811],[0,0],[0.13331,0.14889]],[[499.86718,389.24892],[-0.12362,-0.1585],[2.10911,2.70435]],[[502.94898,401.45055],[-1.21197,-3.26614],[0.4491,1.21029]],[[504.69357,404.90812],[-0.47935,-1.19863],[0.18697,0.46753]],[[504.92847,406.40033],[-0.4964,-0.08443],[3.01394,0.51262]],[[514.89859,400.50683],[-2.0237,2.01315],[0,0]],[[516.72409,397.76858],[0,0],[0.10777,-0.16687]],[[517.0872,397.29886],[-0.13377,0.14574],[0.01775,-1.58616]],[[518.19151,393.18999],[-0.85568,1.03672],[1.03163,-1.24989]],[[523.01488,392.579],[-1.44954,0.72477],[0.79397,-0.39698]],[[524.19151,390.18999],[-0.61622,0.63894],[0.70218,-0.72807]],[[526.80543,388.64869],[-0.56507,0.83894],[1.88281,-2.79533]],[[530.46558,377.24892],[-1.41679,3.17148],[3.91859,-8.77176]],[[552.72493,358.75268],[-7.45944,4.9945],[2,-1.33333]],[[558.72493,354.75268],[-2.2368,0.88007],[0.47341,-0.18626]],[[560.23435,354.97845],[-0.09977,0.49886],[0.09977,-0.49886]],[[558.7542,354.60631],[0.36536,0.35402],[-0.86312,-0.83634]],[[556.7542,351.60631],[0.66667,1],[-2.7997,-4.19956]],[[547.95968,339.88382],[3.19023,3.84724],[-9.80858,-11.82858]],[[523.7542,299.60631],[8.54819,12.82229],[-6.84573,-10.26859]],[[500.19151,272.13973],[8.45859,8.64062],[-1.60189,-1.63636]],[[494.44742,268.37156],[1.76012,1.46482],[-3.11472,-2.59216]],[[485.72493,260.57704],[3.40174,2.25565],[-1.26814,-0.84089]],[[478.8035,255.51068],[1.36522,1.47964],[-1.14377,0.67988]],[[475.25434,257.72347],[1.10418,-0.76266],[2.13747,6.60548]],[[479.48044,279.50494],[-0.99631,-6.85802],[0.45783,3.15146]],[[481.27634,287.23362],[-1.84597,-2.79871],[3.23585,12.41871]],[[483.30933,326.41188],[0,-12.85833],[-0.06175,6.83912]],[[477.44252,347.07091],[3.08518,-6.09379],[-1.83315,3.62081]],[[473.1811,358.44729],[2.30179,-3.41362],[-2.08014,8.76019]],[[462.94794,385.40253],[4.55869,-8.11161],[0.10242,-0.00119]],[[463.25519,385.39896],[-0.10242,0.00119],[0.0419,-0.09555]],[[463.4184,385.10364],[-0.0675,0.10125],[0.83205,-1.24808]],[[465.49853,384.68762],[0,0],[7.78707,5.29031]],[[491.1467,397.30924],[-9.04268,-3.03467],[0.00298,-0.90287]],[[491.15847,394.58815],[-0.00407,0.91146],[-0.37294,-0.44031]]],&quot;closed&quot;:true}]}" fill="#1e668c" stroke="none" stroke-width="0.5" stroke-linecap="butt"/><path d="M233.04058,199.78819c-0.00062,-0.42956 -0.06592,-0.86176 -0.2232,-1.26453c-0.39958,-1.02323 -1.66979,-1.54608 -2.10262,-2.5557c-0.30648,-0.71492 0.05376,-1.64959 -0.08511,-2.39339c0.11654,-0.05712 0.19017,-0.13119 0.19017,-0.13119l0.64066,-0.64648c0.14486,-0.21544 0.29229,-0.43419 0.43714,-0.64964c0.09109,-0.1387 0.18322,-0.28146 0.27281,-0.42425l0.30123,0.09598c0.29864,0.0027 0.60011,0.00286 0.89874,0.00556c0,0 0.23257,-0.00151 0.41396,-0.14141c3.27007,2.08863 6.88967,3.87864 10.6168,5.11809l0.2963,0.07481c0.00928,2.00001 0.06337,3.99224 0.33185,5.97168l-0.24974,0.00057c-2.18989,0 -4.82623,-0.07506 -6.93931,-0.7042c-1.74354,-0.51911 -3.22751,-1.79365 -4.7997,-2.3559z" data-paper-data="{&quot;noHover&quot;:false,&quot;origItem&quot;:[&quot;Path&quot;,{&quot;applyMatrix&quot;:true,&quot;segments&quot;:[[[474.82841,412.91798],[-4.17444,-1.24287],[5.05922,1.5063]],[[491.36527,414.64151],[-5.2431,0],[0,0]],[[491.96214,414.64151],[0,0],[-0.6428,-4.73924]],[[491.14691,400.41076],[0.02222,4.7885],[0,0]],[[490.43757,400.23302],[0,0],[-8.92364,-2.96754]],[[465.17668,388.05313],[7.82931,5.00067],[-0.4343,0.33495]],[[464.19029,388.38807],[0,0],[-0.71501,-0.00646]],[[462.04525,388.36871],[0.71501,0.00646],[0,0]],[[461.32536,388.13758],[0,0],[-0.2145,0.34189]],[[460.67646,389.1487],[0.21809,-0.33209],[-0.34681,0.51583]],[[459.63601,390.6962],[0.34681,-0.51583],[0,0]],[458.10809,392.23445],[[457.65397,392.5463],[0.27903,-0.13676],[0.3325,1.78084]],[[457.86718,398.24892],[-0.73378,-1.71167],[1.03626,2.41727]],[[462.89996,404.32547],[-0.95669,-2.44985],[0.37658,0.96432]],[[463.4258,407.33071],[-0.00148,-1.02846],[3.76419,1.34616]]],&quot;closed&quot;:true}]}" fill="#1e668c" stroke="none" stroke-width="0.5" stroke-linecap="butt"/><path d="M215.08096,194.39077c-0.85898,0.13771 -1.61561,0.52552 -2.37313,1.00935c-0.30897,-1.74391 -0.47954,-3.51223 -0.25321,-5.31955c0.32492,-2.59472 1.58541,-5.01359 2.27925,-7.46034c0.8332,2.00871 1.8168,5.1396 3.37938,5.60062c1.45962,0.43063 4.28422,-3.08999 5.01877,-4.19181c1.5033,-1.54849 2.20719,-3.67795 3.60911,-5.36606c0.60606,-0.72979 1.27939,-1.66927 1.29617,-2.7101c0.00729,-0.45208 0.03818,-0.98739 0.02499,-1.45274c0.8312,1.59504 2.01201,3.04601 2.81592,4.64883c0.84968,1.69407 1.56853,3.71524 3.20715,4.84226l-0.0139,0.15729c0,0 0.08894,0.17889 0.26668,0.28412c-0.91632,2.543 -2.05244,5.06139 -3.41991,7.07425c-0.12034,0.18234 -0.24249,0.36664 -0.36283,0.54897l-0.22934,0.1099l-0.34819,-1.38102c-0.14773,-0.65099 -0.6675,-1.08144 -1.3632,-1.08144c-0.80736,0 -1.47109,0.66217 -1.47109,1.46953c0,0.1086 0.0112,0.21482 0.03366,0.31668l0.32046,1.61434c-0.25881,0.883 -0.91345,1.09792 -1.48975,1.57579c-1.23733,-0.42537 -2.39765,-1.15179 -3.75139,-1.32077c-1.99873,-0.24949 -4.28692,0.26884 -6.21591,0.75109l-0.40833,-0.01944c0,0 -0.3847,-0.00049 -0.55139,0.30028z" data-paper-data="{&quot;noHover&quot;:false,&quot;origItem&quot;:[&quot;Path&quot;,{&quot;applyMatrix&quot;:true,&quot;segments&quot;:[[421.72241,393.65937],[[422.6979,393.70416],[0,0],[4.61844,-1.15461]],[[437.53069,391.88489],[-4.78541,-0.59734],[3.24116,0.40458]],[[446.47315,395.04986],[-2.96247,-1.01843],[1.37979,-1.14414]],[[450.02097,391.2844],[-0.61966,2.11412],[0,0]],[[449.24852,387.42213],[0,0],[-0.05379,-0.24385]],[[449.16638,386.66486],[0,0.26002],[0,-1.933]],[[452.66638,383.16486],[-1.933,0],[1.66565,0]],[[456.07964,385.88701],[-0.3537,-1.55862],[0,0]],[456.90772,389.19933],[[457.31599,388.79423],[0,0],[0.28811,-0.43655]],[[458.18031,387.4846],[-0.28811,0.43655],[3.27406,-4.81925]],[[466.34413,370.61734],[-2.19388,6.08854],[-0.42556,-0.25193]],[465.70579,369.93985],[[465.73919,369.56472],[0,0],[-3.92323,-2.69837]],[[458.08091,358.02329],[2.03434,4.056],[-1.92477,-3.83754]],[[451.37699,346.92301],[1.99008,3.8189],[0.03158,1.11416]],[[451.40457,350.22141],[0.01746,-1.08237],[-0.04019,2.49201]],[[448.20744,356.88668],[1.45105,-1.74727],[-3.35652,4.04172]],[[439.63601,369.74382],[3.59927,-3.70745],[-1.75869,2.63803]],[[427.513,379.73546],[3.49468,1.03105],[-3.74121,-1.10379]],[[419.60327,366.29945],[1.99489,4.80932],[-1.66122,5.85811]],[[414.14016,384.0925],[0.77795,-6.21238],[-0.54187,4.32716]],[[414.72728,396.8013],[-0.73973,-4.17535],[1.81367,-1.15842]],[[420.40363,394.3795],[-2.0566,0.3297],[0.3991,-0.72013]]],&quot;closed&quot;:true}]}" fill="#1e668c" stroke="none" stroke-width="0.5" stroke-linecap="butt"/><path d="M218.10804,164.12712c-0.33955,-1.71701 -0.4448,-3.70038 -0.2277,-5.38867c0.12102,-0.94106 0.65982,-2.02201 0.63395,-3.04106c1.50015,-0.58495 2.76289,-1.6852 4.15635,-2.47499c0.08187,0.19143 0.25148,0.30384 0.25148,0.30384c0.65675,0.37787 1.06366,1.6246 0.61118,2.36121c-1.68932,2.75007 -3.62358,5.49689 -5.42526,8.23967z" data-paper-data="{&quot;noHover&quot;:false,&quot;origItem&quot;:[&quot;Path&quot;,{&quot;applyMatrix&quot;:true,&quot;segments&quot;:[[[440.50403,302.3395],[-4.04462,6.58432],[1.08336,-1.76362]],[[439.07252,296.70758],[1.57243,0.9047],[0,0]],[[438.47606,295.98229],[0.19602,0.45832],[-3.33625,1.89093]],[[428.61804,301.89364],[3.59171,-1.4005],[0.06195,2.43986]],[[427.14016,309.0925],[0.28974,-2.25312],[-0.51981,4.04216]],[[427.62895,321.90644],[-0.81296,-4.11092],[4.31364,-6.56686]]],&quot;closed&quot;:true}]}" fill="#154863" stroke="none" stroke-width="0.5" stroke-linecap="butt"/><path d="M221.34795,145.85709c-0.00809,0.12393 -0.01339,0.25969 -0.02495,0.39264c-0.0332,0.38177 -0.19666,1.62139 -0.80153,1.80869c-0.43513,0.13473 -1.09966,0.13346 -1.7603,0.09504c0.00215,-0.02947 0.00162,-0.04688 0.00162,-0.04688l-0.01494,-0.5536c0.03523,-0.28619 -0.01839,-1.94985 0.58432,-2.00287c0.59573,-0.05241 1.22738,0.2276 1.82079,0.30177c0,0 0.07972,0.01233 0.19499,0.00521z" data-paper-data="{&quot;noHover&quot;:false,&quot;origItem&quot;:[&quot;Path&quot;,{&quot;applyMatrix&quot;:true,&quot;segments&quot;:[[[434.80186,278.30886],[0,0],[-1.42077,-0.1776]],[[430.56419,277.60655],[1.42631,-0.12548],[-1.44302,0.12695]],[[429.20554,282.26729],[0.08436,-0.68521],[0,0]],[429.22485,283.5701],[[429.21971,283.68106],[0.00514,-0.07055],[1.58173,0.09201]],[[433.32699,283.43128],[-1.0418,0.32259],[1.44822,-0.44844]],[[435.1926,279.23722],[-0.07948,0.91403],[0.02768,-0.31831]],[[435.26337,278.31501],[-0.01939,0.29671],[-0.27596,0.01705]]],&quot;closed&quot;:true}]}" fill="#ffffff" stroke="none" stroke-width="0.5" stroke-linecap="butt"/><path d="M209.38163,148.38073c-0.48791,0.01293 -1.02223,0.02088 -1.51667,-0.0044c-0.23922,-0.01224 -0.51097,-0.0887 -0.7663,-0.16268c0.03088,-0.07561 0.04214,-0.12788 0.04214,-0.12788c0.6889,-2.75564 1.33638,-2.20978 2.25068,0.2519z" data-paper-data="{&quot;noHover&quot;:false,&quot;origItem&quot;:[&quot;Path&quot;,{&quot;applyMatrix&quot;:true,&quot;segments&quot;:[[[406.64209,284.12533],[0,0],[-2.18908,-5.89383]],[[401.40827,283.53128],[1.64941,-6.59766],[0,0]],[[401.30412,283.8332],[0.07393,-0.18104],[0.61132,0.17711]],[[403.09402,284.19108],[-0.57274,-0.02929],[1.1838,0.06054]],[[406.62014,284.22668],[-1.16815,0.03095],[0,0]]],&quot;closed&quot;:true}]}" fill="#ffffff" stroke="none" stroke-width="0.5" stroke-linecap="butt"/><path d="M213.67525,141.14408c0.53774,-0.03345 1.16918,-0.07126 1.72747,-0.08356c0.05127,0.34442 0.0213,1.05224 -0.31375,1.01061c-0.45539,-0.05659 -1.16032,0.43969 -1.44542,0.08012c-0.20511,-0.25868 -0.07454,-0.65487 0.0317,-1.00716z" data-paper-data="{&quot;noHover&quot;:false,&quot;origItem&quot;:[&quot;Path&quot;,{&quot;applyMatrix&quot;:true,&quot;segments&quot;:[[[416.98305,269.33146],[-0.49108,-0.61935],[0.68261,0.86091]],[[420.27323,269.13462],[-1.0903,-0.13549],[0.80219,0.09968]],[[421.0248,266.82495],[0.12276,0.82461],[-1.33667,0.02944]],[[417.05572,267.02469],[1.28749,-0.08009],[-0.25436,0.84345]]],&quot;closed&quot;:true}]}" fill="#ffffff" stroke="none" stroke-width="0.5" stroke-linecap="butt"/><path d="M206.37,141.34778c0.82906,-0.0099 1.72564,-0.03914 2.54975,-0.06735l0.01111,0.02942c0.22356,1.78849 -0.02118,2.39925 -2.30298,1.69815c-0.19065,-0.05857 -0.2402,-1.03293 -0.25788,-1.66023z" data-paper-data="{&quot;noHover&quot;:false,&quot;origItem&quot;:[&quot;Path&quot;,{&quot;applyMatrix&quot;:true,&quot;segments&quot;:[[[400.18193,271.37639],[-0.45645,-0.14025],[5.46316,1.67858]],[[405.53448,267.42858],[0.53526,4.28205],[0,0]],[[405.50906,267.35961],[0,0],[-1.97309,0.06755]],[[399.56293,267.51567],[1.98495,-0.02371],[0.04231,1.50191]]],&quot;closed&quot;:true}]}" fill="#ffffff" stroke="none" stroke-width="0.5" stroke-linecap="butt"/><path d="M242.7249,239.90959c0,0.6265 -0.6265,0.6265 -0.6265,0.6265l-0.05026,-0.10522c-1.35752,0.89149 -2.70081,1.51788 -3.88232,2.70618c0,0 -0.44301,0.44301 -0.88602,0c-0.44301,-0.44301 0,-0.88601 0,-0.88601c1.2474,-1.24101 2.66598,-1.90666 4.07329,-2.86275l0.74531,-0.10522c0,0 0.6265,0 0.6265,0.6265z" fill="#000000" stroke="none" stroke-width="0.5" stroke-linecap="butt"/><path d="M-102.69118,-76.5165v-1069.06907h708.3855v1069.06907z" fill="none" stroke="none" stroke-width="0" stroke-linecap="butt"/><path d="M232.59434,66.18483l7.41106,2.75928l-0.28693,36.90435l9.65993,8.46782c0,0 -22.74171,10.40918 -23.01922,10.34544c-0.44085,-0.10127 -28.83733,-17.3595 -28.83733,-17.3595l10.77907,-5.91772l24.20248,-35.16658" fill="#8dbed8" stroke="#000000" stroke-width="2" stroke-linecap="round"/><path d="M226.07437,123.45952l7.06751,-55.6338l5.75262,2.28873l-0.46562,36.61666l8.52188,7.05009l-8.87806,4.22057z" fill="#5290b1" stroke="none" stroke-width="0" stroke-linecap="butt"/><path d="M239.52824,106.4385c0,0 -3.04675,9.5913 -16.0663,6.72525c-12.49978,-2.75163 -15.1499,-11.2565 -15.1499,-11.2565" fill="none" stroke="#000000" stroke-width="2" stroke-linecap="round"/><path d="M232.5943,66.18481l7.41106,2.75928l-0.28693,36.90435l9.65993,8.46782c0,0 -22.74171,10.40918 -23.01922,10.34544c-0.44085,-0.10127 -28.83733,-17.3595 -28.83733,-17.3595l10.77907,-5.91772l24.20248,-35.16658" fill="#5aa7d0" stroke="#000000" stroke-width="2" stroke-linecap="round"/><path d="M226.07434,123.4595l7.06751,-55.6338l5.75262,2.28873l-0.46562,36.61666l8.52188,7.05009l-8.87806,4.22057z" fill="#2785b8" stroke="none" stroke-width="0" stroke-linecap="butt"/><path d="M239.5282,106.43848c0,0 -3.04675,9.5913 -16.0663,6.72525c-12.49978,-2.75163 -15.1499,-11.2565 -15.1499,-11.2565" fill="none" stroke="#000000" stroke-width="2" stroke-linecap="round"/></g></g></svg>