<svg version="1.1" xmlns="http://www.w3.org/2000/svg" xmlns:xlink="http://www.w3.org/1999/xlink" width="48.11888" height="47.74465" viewBox="0,0,48.11888,47.74465"><defs><linearGradient x1="208.06445" y1="200.43918" x2="273.82836" y2="200.43918" gradientUnits="userSpaceOnUse" id="color-1"><stop offset="0" stop-color="#e1cc6c"/><stop offset="1" stop-color="#b48f32"/></linearGradient><radialGradient cx="244.0441" cy="170.24405" r="9.1" gradientUnits="userSpaceOnUse" id="color-2"><stop offset="0" stop-color="#e4e2e0"/><stop offset="1" stop-color="#8d8888"/></radialGradient></defs><g transform="translate(-218.71189,-159.64405)"><g data-paper-data="{&quot;isPaintingLayer&quot;:true}" fill-rule="nonzero" stroke-linejoin="miter" stroke-miterlimit="10" stroke-dasharray="" stroke-dashoffset="0" style="mix-blend-mode: normal"><path d="M236.23055,197.9332c0,1.51022 -1.20931,2.7345 -2.70106,2.7345c-1.49176,0 -2.39896,-0.62009 -2.39896,-2.13031c0,-1.51022 1.4107,-2.6338 2.90245,-2.6338c1.49176,0 2.19757,0.51938 2.19757,2.02961z" fill="#8c5b37" stroke="none" stroke-width="0" stroke-linecap="butt"/><path d="M258.44422,201.04736c0,1.51022 -1.2093,2.7345 -2.70106,2.7345c-1.49176,0 -2.70106,-1.22428 -2.70106,-2.7345c0,-1.51022 1.20931,-2.7345 2.70106,-2.7345c1.49176,0 2.70106,1.22427 2.70106,2.7345z" fill="#8c5b37" stroke="none" stroke-width="0" stroke-linecap="butt"/><path d="M253.69388,203.16287c0,1.51022 -2.04765,2.7345 -4.57355,2.7345c-2.52591,0 -4.57356,-1.22428 -4.57356,-2.7345c0,-1.51022 2.04766,-2.7345 4.57356,-2.7345c2.52591,0 4.57355,1.22427 4.57355,2.7345z" fill="#8c5b37" stroke="none" stroke-width="0" stroke-linecap="butt"/><path d="M237.07772,203.7737c0,1.51023 -2.04765,2.7345 -4.57356,2.7345c-2.52591,0 -4.57356,-1.22427 -4.57356,-2.7345c0,-1.51023 2.04766,-2.7345 4.57356,-2.7345c2.52591,0 4.57356,1.22427 4.57356,2.7345z" fill="#8c5b37" stroke="none" stroke-width="0" stroke-linecap="butt"/><path d="M245.19855,204.6542c0,1.51022 -2.04765,2.7345 -4.57355,2.7345c-2.52591,0 -4.57356,-1.22428 -4.57356,-2.7345c0,-1.51022 2.04766,-2.73449 4.57356,-2.73449c2.52591,0 4.57355,1.22427 4.57355,2.73449z" fill="#8c5b37" stroke="none" stroke-width="0" stroke-linecap="butt"/><path d="M240.7441,188.90969v-10.56564h6.2v10.56564z" fill="#9a9696" stroke="#000000" stroke-width="3" stroke-linecap="butt"/><path d="M220.617,203.38632c3.53625,-11.44418 15.22648,-17.72399 23.06451,-17.89575c2.69786,0.06943 18.47859,2.45451 21.17308,16.07494" fill="url(#color-1)" stroke="#000000" stroke-width="3" stroke-linecap="round"/><path d="M234.9441,170.24405c0,-5.02579 4.07421,-9.1 9.1,-9.1c5.02579,0 9.1,4.07421 9.1,9.1c0,5.02579 -4.07421,9.1 -9.1,9.1c-5.02579,0 -9.1,-4.07421 -9.1,-9.1z" fill="url(#color-2)" stroke="#000000" stroke-width="3" stroke-linecap="butt"/><path d="M228.99075,203.25367c0,1.70827 -1.73104,3.0931 -3.86638,3.0931c-2.13534,0 -3.86638,-1.38483 -3.86638,-3.0931c0,-1.70827 1.73104,-3.0931 3.86638,-3.0931c2.13534,0 3.86638,1.38483 3.86638,3.0931z" fill="#8c5b37" stroke="none" stroke-width="0" stroke-linecap="butt"/><path d="M258.2716,200.83023c0,1.19579 -1.21172,2.16517 -2.70646,2.16517c-1.49474,0 -2.70647,-0.96938 -2.70647,-2.16517c0,-1.19579 1.21173,-2.16517 2.70647,-2.16517c1.49474,0 2.70646,0.96938 2.70646,2.16517z" fill="#8c5b37" stroke="none" stroke-width="0" stroke-linecap="butt"/><path d="M264.97281,203.66505c0,1.1958 -1.21173,2.16518 -2.70646,2.16518c-1.49474,0 -2.70646,-0.96938 -2.70646,-2.16518c0,-1.1958 1.21173,-2.16517 2.70646,-2.16517c1.49474,0 2.70646,0.96938 2.70646,2.16517z" fill="#8c5b37" stroke="none" stroke-width="0" stroke-linecap="butt"/><path d="M266.55344,200.9157c1.51373,3.69935 -3.52997,6.28508 -6.40303,5.24854c-0.9275,-0.33462 -2.07286,-1.58295 -2.7895,-2.30119c-0.94097,0.33 -1.98087,0.10802 -3.01346,-0.31833c-1.01036,2.69313 -6.31797,3.34134 -8.91742,1.35038c-1.82107,2.53144 -7.19405,3.16607 -9.46745,1.08195c-1.11202,0.39666 -2.61527,0.61629 -3.41912,0.67403c-0.70605,0.05071 -2.65865,0.07056 -3.71466,-0.26952c-0.0504,0.02704 -0.08119,0.04024 -0.08119,0.04024l-2.01984,0.80503c-3.28571,-0.44327 -10.94474,-4.58519 -6.83095,-9.05026c2.76924,-3.00571 7.462,-0.2113 9.54501,1.85014c0.2571,-0.1689 0.52003,-0.32791 0.78984,-0.47237c-0.30224,-0.45258 1.80759,-0.56006 3.69235,-0.58518c1.02703,0.17946 2.04783,0.58857 2.85213,1.16589c1.76251,-1.19477 4.33684,-1.67539 6.01827,-1.30219c0.7758,0.17219 1.41587,1.2425 2.16911,0.98923c0.03101,-0.01043 0.06179,-0.02137 0.09233,-0.03279c0.38986,-0.33336 0.86273,-0.60186 1.37884,-0.80781c0.33623,-0.23346 0.67498,-0.46294 1.04438,-0.62928c1.31663,-0.22075 2.78419,-0.63672 4.11616,-0.08264c0.15503,-0.44901 0.35125,-0.8881 0.68159,-1.21403c3.05444,-3.01359 5.68163,-0.47492 7.1907,2.29569c2.30434,-0.85275 5.97481,-1.15094 7.08592,1.56447zM260.0405,202.36075c0.54663,0.60259 1.20279,1.22108 1.99116,1.07528c0.156,-0.02885 2.11398,-0.84024 1.77499,-1.31402c-0.72614,-1.0149 -3.04434,-0.19551 -3.76615,0.23874zM227.32831,202.15577c-1.16119,-1.17259 -3.46737,-3.12954 -5.31017,-1.85787c-0.39744,0.27426 -0.03436,1.02724 0.23215,1.42992c0.76346,1.15362 2.7718,2.30992 4.08414,2.52492l0.85765,-0.40977c-0.00271,-0.49211 0.12811,-0.97975 0.3619,-1.44529c-0.00449,-0.02364 -0.00825,-0.0471 -0.01132,-0.07034c-0.13576,-0.09299 -0.21434,-0.17156 -0.21434,-0.17156zM234.83738,203.22794c0.00367,-0.14686 0.01711,-0.29048 0.03969,-0.43082c-1.7219,-0.93671 -2.58292,-0.64116 -4.82133,0.92052c-0.20766,0.14488 0.5043,-0.05122 0.75742,-0.05767c0.50571,-0.01288 1.013,0.03445 1.51761,-0.00134c0.35603,-0.02525 1.91974,-0.00779 2.50662,-0.43069zM238.37173,202.87193c-0.01126,0.31944 -0.08261,0.6508 -0.2236,0.99129c1.2249,0.70816 6.00923,-0.01929 4.74792,-1.36611c-0.87206,-0.93118 -2.91377,-0.30935 -4.52432,0.37482zM251.73528,202.27634c-0.84509,-0.13759 -1.73182,-0.81603 -2.60494,-0.74238c-0.50921,0.04296 -1.00071,0.20785 -1.50245,0.30481c-0.07621,0.01473 -0.20008,0.0253 -0.32387,0.03682c-0.08348,0.05955 -0.16686,0.11916 -0.25055,0.17777c1.00263,0.52102 3.3949,1.75277 4.38432,0.73403c0.18681,-0.19235 0.2791,-0.36183 0.29748,-0.51104zM254.15225,200.22039c1.05462,0.69921 2.26096,1.34451 2.52141,-0.05905c-1.47248,-2.2854 -1.88977,-1.24892 -2.52141,0.05905z" fill="#000000" stroke="none" stroke-width="0.5" stroke-linecap="butt"/></g></g></svg>