<svg version="1.1" xmlns="http://www.w3.org/2000/svg" xmlns:xlink="http://www.w3.org/1999/xlink" width="119.33392" height="160.5" viewBox="0,0,119.33392,160.5"><defs><radialGradient cx="239.08828" cy="195.5" r="78" gradientUnits="userSpaceOnUse" id="color-1"><stop offset="0" stop-color="#faffec"/><stop offset="1" stop-color="#f1ffcd"/></radialGradient><radialGradient cx="260.38099" cy="259.2449" r="13.49253" gradientUnits="userSpaceOnUse" id="color-2"><stop offset="0" stop-color="#fff477"/><stop offset="1" stop-color="#fff477" stop-opacity="0"/></radialGradient><radialGradient cx="259.95401" cy="258.56174" r="13.49253" gradientUnits="userSpaceOnUse" id="color-3"><stop offset="0" stop-color="#fff477"/><stop offset="1" stop-color="#fff477" stop-opacity="0"/></radialGradient><radialGradient cx="260.12481" cy="258.56173" r="13.49252" gradientUnits="userSpaceOnUse" id="color-4"><stop offset="0" stop-color="#fff477"/><stop offset="1" stop-color="#fff477" stop-opacity="0"/></radialGradient><radialGradient cx="262.3717" cy="257.20414" r="12.04265" gradientUnits="userSpaceOnUse" id="color-5"><stop offset="0" stop-color="#fefff0"/><stop offset="1" stop-color="#feff66"/></radialGradient><linearGradient x1="260.16751" y1="253.69951" x2="260.16751" y2="264.10712" gradientUnits="userSpaceOnUse" id="color-6"><stop offset="0" stop-color="#fffa6d"/><stop offset="1" stop-color="#fee000"/></linearGradient><linearGradient x1="260.1143" y1="254.58586" x2="260.1143" y2="256.80971" gradientUnits="userSpaceOnUse" id="color-7"><stop offset="0" stop-color="#fefff8"/><stop offset="1" stop-color="#fffd87"/></linearGradient></defs><g transform="translate(-179.42131,-115.25)"><g data-paper-data="{&quot;isPaintingLayer&quot;:true}" fill-rule="nonzero" stroke-linejoin="miter" stroke-miterlimit="10" stroke-dasharray="" stroke-dashoffset="0" style="mix-blend-mode: normal"><path d="M181.67132,273.5v-156h114.83392v156z" fill="url(#color-1)" stroke="#000000" stroke-width="4.5" stroke-linecap="butt"/><path d="M182.64275,243.39198h112" fill="none" stroke="#000000" stroke-width="4.5" stroke-linecap="round"/><g stroke-linecap="butt"><path d="M246.88846,259.2449c0,-7.45172 6.0408,-13.49253 13.49253,-13.49253c7.45172,0 13.49253,6.04082 13.49253,13.49253c0,7.45172 -6.04082,13.49253 -13.49252,13.49253c-7.45172,0 -13.49252,-6.0408 -13.49252,-13.49252z" fill="url(#color-2)" stroke="none" stroke-width="0"/><path d="M246.46149,258.56174c0,-7.45172 6.0408,-13.49254 13.49253,-13.49254c7.45172,0 13.49252,6.04082 13.49252,13.49254c0,7.45172 -6.0408,13.49252 -13.49252,13.49252c-7.45172,0 -13.49252,-6.0408 -13.49252,-13.49252z" fill="url(#color-3)" stroke="none" stroke-width="0"/><path d="M246.63227,258.56173c0,-7.45172 6.04081,-13.49254 13.49253,-13.49254c7.45172,0 13.49253,6.04082 13.49253,13.49254c0,7.45172 -6.0408,13.49252 -13.49252,13.49252c-7.45172,0 -13.49252,-6.0408 -13.49252,-13.49252z" fill="url(#color-4)" stroke="none" stroke-width="0"/><path d="M251.60953,269.24679l1.18325,-6.20836l-5.75283,-0.74182l4.43493,-4.29942l-4.31438,-3.5906l6.08382,-0.89789l-1.15985,-5.53649l5.839,2.62237l2.50073,-5.21549l2.64488,5.33203l5.57682,-2.68677l-1.61416,5.58035l5.89243,0.26102l-4.0184,4.31396l4.38667,4.60423l-5.5415,0.64889l0.81619,6.07921l-5.29076,-2.69957l-3.1875,5.4616l-2.86383,-5.37509z" fill="url(#color-5)" stroke="#540000" stroke-width="1.5"/><path d="M254.9637,258.90332c0,-2.87398 2.32983,-5.20381 5.2038,-5.20381c2.87398,0 5.20381,2.32982 5.20381,5.20381c0,2.87398 -2.32983,5.2038 -5.20381,5.2038c-2.87398,0 -5.2038,-2.32982 -5.2038,-5.2038z" fill="url(#color-6)" stroke="#ffe017" stroke-width="1.5"/><path d="M262.54994,255.69778c0,0.61409 -1.09047,1.11192 -2.43564,1.11192c-1.34517,0 -2.43565,-0.49782 -2.43565,-1.11192c0,-0.6141 1.09048,-1.11192 2.43565,-1.11192c1.34517,0 2.43564,0.49782 2.43564,1.11192z" fill="url(#color-7)" stroke="#ffe017" stroke-width="0"/></g><text transform="translate(211.35575,267.34535) scale(0.63733,0.63733)" font-size="40" xml:space="preserve" fill="#000000" fill-rule="nonzero" stroke="none" stroke-width="1" stroke-linecap="butt" stroke-linejoin="miter" stroke-miterlimit="10" stroke-dasharray="" stroke-dashoffset="0" font-family="Sans Serif" font-weight="normal" text-anchor="start" style="mix-blend-mode: normal"><tspan x="0" dy="0">50</tspan></text><path d="M215.87079,194.21895c0,0 -0.04396,-4.14832 -0.08608,-7.41274c-0.0125,-0.96903 -5.97171,2.33556 -6.01195,0.73515c-0.01713,-0.68153 -2.23025,-0.63612 -2.74309,-1.38922c-0.48022,-0.70521 0.73586,-2.20189 0.77183,-3.04235c0.09707,-2.26807 0.50359,-3.54708 0.8111,-6.29597c0.14983,-1.33941 -3.78314,0.16156 -5.91877,-1.6291c-1.50609,-1.26281 -1.46612,-5.83965 -1.3227,-6.86851c0.3888,-2.78908 1.64894,-2.27343 2.5405,-5.02142c0.88782,-2.73645 3.49846,0.38806 4.58917,-2.35729c0.44321,-1.11558 -4.55494,-1.92729 -4.15315,-3.12241c0.5854,-1.74128 -1.9549,-4.68622 -1.15783,-6.54107c0.81027,-1.88556 11.08402,1.54093 12.01877,-0.29111c0.98438,-1.92932 -2.58718,-3.77805 -2.59754,-5.88108c-0.02077,-4.21898 2.51834,-8.3402 2.51834,-8.3402c0,0 7.88891,-2.17998 11.70834,8.30115c0.4135,1.1347 0.65157,1.34495 0.34292,-0.83873c-2.31119,-16.35155 11.11703,-12.46676 11.11703,-12.46676c0,0 4.65843,1.09239 5.02876,11.8303c0.15609,4.52591 -1.11208,-12.14584 10.60221,-6.8588c3.37095,1.52142 6.02977,4.50195 6.31954,10.93776c0.13469,2.99139 3.39603,-6.80325 9.26367,-1.65847c4.36554,3.82774 2.53603,4.42118 0.39995,12.28958c-0.3955,1.45686 4.72345,-3.39843 7.62583,4.63416c1.28205,3.54819 -2.9962,4.39744 -5.06225,7.82862c-0.91267,1.51571 9.63078,2.24942 6.59818,8.59915c-1.35283,2.83259 -3.86514,4.43217 -7.04398,5.77477c-2.27932,0.9627 -7.15586,-0.9049 -9.09186,-0.41125c-0.79224,0.20201 2.3369,5.3277 2.38146,7.4501c0.07098,3.38071 -2.55579,4.26993 -2.55579,4.26993c0,0 -8.44283,-4.82857 -10.75076,-4.83807c-0.82975,-0.00341 0.44373,5.99406 -0.91169,6.11331c-0.83522,0.07349 -2.88341,1.97721 -3.89708,2.0077c-2.17355,0.06537 -5.77114,-3.18549 -6.31765,-5.24063c-0.81692,-3.07204 -4.46596,3.02927 -7.34295,3.45603c-3.37921,0.50127 -0.73848,-5.3502 -4.17706,-5.92248c-1.06539,-0.17732 -2.73026,2.83854 -4.47112,3.47559c-3.4373,1.25786 -9.02429,-1.27561 -9.02429,-1.27561z" fill="#f1d222" stroke="none" stroke-width="0" stroke-linecap="butt"/><path d="M269.17862,167.49221c0,12.96279 -13.29636,23.4712 -29.69827,23.4712c-16.4019,0 -29.69827,-10.50842 -29.69827,-23.4712c0,-12.96279 13.29638,-23.47121 29.69827,-23.47121c16.40191,0 29.69827,10.50843 29.69827,23.47121z" fill="#c77d3d" stroke="#000000" stroke-width="2.5" stroke-linecap="butt"/><path d="M232.3666,213.49496c0,-1.11208 1.11208,-1.11208 1.11208,-1.11208l-0.16632,0.05707c1.33678,-0.44559 2.605,-0.6895 3.87706,-0.82295c-3.07822,-0.85396 -6.29067,-1.19174 -9.48455,-0.72806l-0.62893,0.16332c0,0 -1.07887,0.26972 -1.34859,-0.80916c-0.26972,-1.07888 0.80916,-1.34859 0.80916,-1.34859l0.85383,-0.20737c5.02435,-0.70744 10.06712,0.32637 14.68165,2.3029c0,0 0.41594,0.17826 0.60344,0.57268c0.29942,0.12631 0.6266,0.40233 0.6266,1.00553c0,1.11208 -1.11208,1.11208 -1.11208,1.11208c-2.9382,0 -5.37744,-0.06261 -8.17426,0.86966l-0.53701,0.05707c0,0 -1.11208,0 -1.11208,-1.11208z" fill="#0a4413" stroke="none" stroke-width="0.5" stroke-linecap="butt"/><path d="M258.50042,205.52508c0,1.11208 -1.11208,1.11208 -1.11208,1.11208l0.16632,-0.05707c-2.15445,0.71168 -4.33073,1.12561 -6.14408,2.59357c0,0 -0.86838,0.69471 -1.5631,-0.17368c-0.69471,-0.86838 0.17368,-1.5631 0.17368,-1.5631c2.0656,-1.63647 4.40223,-2.14902 6.83016,-2.96682l0.53701,-0.05707c0,0 1.11208,0 1.11208,1.11208z" fill="#0a4413" stroke="none" stroke-width="0.5" stroke-linecap="butt"/><path d="M216.61217,228.94048c0,0 -2.24323,-2.16262 -2.17471,-5.18437c0.05371,-2.36848 2.45685,-5.40773 2.26329,-7.39165c-0.53101,-5.44282 10.84686,-6.69999 10.84686,-6.69999c0,0 -1.40344,0.26259 -2.92087,-1.35043c-1.45792,-1.54975 -3.04956,-4.9734 -2.23239,-5.1727c0.45282,-0.11044 0.55118,-1.24358 1.5886,-1.87587c1.28122,-0.78089 3.6053,-1.08992 5.13291,-1.26411c5.58828,-0.63724 3.0311,3.65766 11.40735,3.40655c0.63468,-0.01903 0.67802,-3.95906 1.24469,-4.0303c4.55858,-0.57317 7.55594,1.2255 9.22206,0.33642c0.72847,-0.38873 3.70601,-1.68093 5.12395,-1.50254c2.8037,0.35273 4.36356,2.67994 4.36356,2.67994c0,0 -5.29689,-2.01797 -2.47801,2.77704c0.99714,1.69616 6.94747,-3.66157 9.03897,-0.12754c0.64285,1.08623 2.91,0.34272 3.46459,1.76504c1.84658,4.7358 3.31901,11.20035 2.12247,14.19734c-0.95596,2.39438 -4.48703,1.838 -4.48703,1.838c0,0 3.05987,-5.71044 -0.58096,-4.52485c-1.15204,0.37514 -2.47843,2.41675 -3.93388,3.08183c-2.82042,1.28882 -5.94013,3.86308 -9.40017,5.11101c-1.53817,0.55477 -3.54564,1.79384 -4.52673,0.52325c-0.7824,-1.01329 -0.50723,-4.56725 -1.7681,-4.45997c-1.39607,0.11878 -1.18472,2.00418 -2.23584,3.59254c-0.99658,1.50596 -3.25917,2.72617 -4.42731,2.58843c-6.3264,-0.74599 -13.59325,-3.50273 -16.68338,-3.50273c-4.74043,0 -7.96989,5.1897 -7.96989,5.1897z" fill="#62bc45" stroke="none" stroke-width="0" stroke-linecap="butt"/><path d="M250.54567,205.15186c-0.31453,-2.03154 2.6655,-2.94628 3.99397,-4.54002c1.3854,-0.29269 1.54037,-0.43938 2.87865,-0.33446c0.45993,0.03605 1.01985,0.64815 1.34607,0.32193c0.54436,-0.54436 -1.19375,-1.57927 -1.50795,-1.65289c-1.15457,-0.27052 -3.14956,0.04255 -4.26324,0.35913c-2.49827,0.71019 -7.11615,2.89234 -9.43842,3.90544c0,0 -0.06649,0.02849 -0.17281,0.05399c0.36665,1.71259 0.88508,3.40578 1.78356,4.81161c0.44795,0.7009 0.9405,1.37577 1.33755,2.10672c0.03476,0.064 0.07089,0.14898 0.10515,0.24512c0.11873,-0.23518 0.26178,-0.46504 0.36564,-0.64254c0.70664,-1.20774 1.50183,-2.14185 2.58499,-3.00837c0.3664,-0.46228 0.74501,-0.88531 1.13515,-1.27233zM257.76742,196.65821c1.75583,0.45481 4.15638,2.96383 3.01234,4.94496c1.78488,-0.31945 3.67141,-0.4037 5.62877,-0.40283c4.15829,0.00185 5.35911,1.31443 6.85584,5.62172c1.57028,4.22599 2.4533,10.99521 -1.23338,14.35936c-0.48886,0.44609 -2.18342,1.75682 -2.71137,1.76406c-1.64243,0.02251 -2.98973,-1.64873 -2.81593,-3.23376c0.08338,-0.76043 1.46656,-0.85084 1.65202,-1.59301c0.272,-1.08844 -1.27942,-0.64398 -1.65677,-0.52687c-1.2138,1.28423 -2.21908,2.77252 -3.62623,3.83736c-1.2918,0.97756 -2.78542,1.38889 -4.12782,2.25953c-1.35332,0.87771 -2.3554,1.99254 -3.86815,2.68361c-3.61217,1.65017 -6.00116,0.4104 -6.9056,-2.41121c-1.97741,2.49626 -4.82307,4.31286 -8.09894,4.54308c-2.49587,0.1754 -4.64964,-0.42464 -7.06445,-0.7789c-3.09876,-1.30705 -6.0194,-2.58878 -9.42947,-2.92803c-0.71234,-0.07086 -3.02225,0.23859 -3.39742,0.93725c-0.53012,0.98722 0.75169,3.31844 0.33993,3.94168c-0.40225,0.60884 -1.40495,0.43619 -2.13221,0.4961c-2.95952,0.24377 -4.31052,-2.05582 -4.72349,-4.53814c0,-2.19206 0.29681,-4.48764 1.21152,-6.49071c0.15227,-0.33346 1.39432,-2.08986 1.11861,-2.57193c-0.24939,-0.43605 -1.02061,-0.59808 -1.02969,-1.10032c-0.00844,-0.46684 1.33777,-2.30011 1.79386,-2.75473c1.84114,-1.83518 4.20166,-2.44458 6.38588,-3.51071c-0.23296,-0.21789 -0.43974,-0.45055 -0.53429,-0.7465c-0.22511,-0.70454 0.00391,-1.31514 0.26309,-1.71265c-0.08976,0.07703 -0.19456,0.16394 -0.31613,0.2612c-0.62864,-0.43023 -1.42885,-0.68128 -1.88591,-1.29069c-2.19061,-2.9208 4.9683,-6.35962 7.23828,-7.06108c1.09835,-0.33941 2.15378,-0.61129 3.17408,-0.60856c-0.31169,-0.25716 -0.60822,-0.566 -0.8855,-0.93097c-0.52383,-0.6895 -0.80992,-1.45841 -0.96614,-2.25953c-0.24609,0.28631 -0.51157,0.55369 -0.80072,0.79452c-2.78106,2.31638 -10.8819,3.3295 -12.96739,-0.3451c-1.08052,-1.90386 -0.50763,-4.58719 0.1348,-6.5174c0.03995,-0.08031 0.07956,-0.16004 0.11896,-0.23921c-3.08273,0.76503 -7.1077,1.21046 -9.01362,-1.01608c-0.75993,-0.88776 -0.6365,-1.92475 -0.64265,-2.9528c-0.01474,-2.46565 0.41788,-4.71034 1.74578,-6.53179c-1.101,-0.0547 -2.18229,-0.16749 -3.31127,-0.35881c-1.05277,-0.35628 -2.03435,-0.55079 -2.81104,-1.48019c-2.06703,-2.47343 -1.976,-8.43119 -0.71653,-11.17327c1.06025,-2.30837 2.8239,-3.40791 4.83866,-4.05113c-0.10918,-0.07014 -0.20893,-0.14408 -0.29623,-0.22216c-3.01537,-2.69692 -5.86049,-9.51655 -2.93358,-11.6511c2.01981,-1.47301 8.84868,0.84963 11.36355,1.23616c-1.46496,-2.27036 -2.32074,-5.16044 -2.31888,-7.66888c0.00399,-5.37114 4.95078,-8.33851 9.69282,-6.76023c1.20656,0.60009 2.70095,1.10619 3.59014,2.18175c0.49473,0.59842 0.86464,1.27278 1.18005,1.97869c0.91584,-5.56506 3.68968,-11.09429 10.32385,-10.16784c1.51179,0.21112 2.87127,0.63652 4.22129,1.31366c1.05148,1.0314 2.38616,2.06015 2.97876,3.45875c0.36771,0.86784 0.58443,1.83253 0.70898,2.83759c0.20601,-0.38423 0.44522,-0.74963 0.72828,-1.08897c2.237,-2.68187 5.7859,-1.95233 8.74109,-1.70657c0.90049,0.07489 1.86805,0.07415 2.66388,0.50211c1.18622,0.6379 1.93229,1.85933 2.74645,2.87701c1.54221,1.97794 2.10736,4.69686 1.59041,7.15792c4.86283,-2.82835 11.61601,-2.256 13.26284,4.3895c0.35205,1.42062 0.05295,2.65152 -0.18535,4.05772c-0.37881,1.10132 -1.04632,2.14834 -1.89786,3.02139c1.36178,0.06024 2.68526,0.29457 3.69298,0.99807c3.21955,2.24761 5.51041,8.48936 1.90236,11.405c-0.60989,0.49284 -1.42368,0.798 -2.23769,1.05035c3.6484,2.25269 6.22637,6.62342 4.40747,10.77108c-1.00441,2.2904 -3.42567,4.30235 -5.59422,5.39302c-2.66203,0.86348 -6.00743,0.58657 -8.99505,-0.09115c1.27537,2.2847 2.27034,5.08093 1.68192,7.28912c-1.55064,5.81909 -8.72684,3.9433 -12.06273,1.27224c-0.208,-0.25775 -0.40639,-0.51308 -0.59642,-0.7692c-0.11412,0.96882 -0.36297,2.02884 -0.77323,2.91491c1.42509,-0.45485 2.92915,-0.73351 4.57389,-0.30748zM255.66518,202.53019c-0.303,0.44181 -3.08961,1.0226 -3.06081,1.41252c0.62946,-0.41867 1.28198,-0.76931 1.95542,-1.06243c-0.60059,-0.05966 1.54651,-0.37502 1.10539,-0.3501zM248.67707,219.98208c0.38622,0 0.63831,0.13414 0.80285,0.30923c0.1751,0.16454 0.30923,0.41662 0.30923,0.80285c0,0.00345 -0.00001,0.00691 -0.00004,0.01035c-0.00357,1.01654 -0.1281,3.01424 0.82145,3.7111c1.05733,0.77596 3.65042,-0.6056 4.52501,-1.14586c0.85185,-0.52621 1.53785,-1.29078 2.37902,-1.83393c1.60548,-1.03667 3.65228,-1.48737 4.97765,-2.96772c0.96068,-1.07302 1.77616,-2.14658 2.83738,-3.16823c1.84237,-0.6338 3.39923,-1.14526 4.52707,0.97058c1.25186,2.34849 -0.20462,2.18775 -1.19559,3.58201c-0.13581,0.19108 0.30432,0.56431 0.5203,0.47317c4.58213,-1.9335 3.31694,-9.64884 1.98632,-13.16129c-1.06461,-3.38602 -4.34665,-3.89412 -7.47761,-3.89272c-4.99153,0.00224 -9.16482,0.47179 -12.55857,4.67863c-1.33674,1.06939 -1.83457,2.21971 -2.75723,3.60325c-0.39729,0.59575 -0.60402,1.59451 -1.31215,1.70093c-2.19322,0.32962 -1.94774,-1.37625 -2.51287,-2.4082c-0.55817,-1.01926 -1.53325,-1.94505 -2.05012,-2.98688c-1.01529,-2.04648 1.32119,-5.19302 0.94154,-7.43222l-0.00589,-0.41101c-0.52848,-0.34766 -1.01641,-0.65366 -1.44777,-1.15494c0.35175,4.55652 -0.00409,8.08953 1.44323,12.39936l0.24099,0.29084c0,0 0.61687,0.92531 -0.30843,1.54218c-0.9253,0.61687 -1.54218,-0.30843 -1.54218,-0.30843l-0.5004,-0.82124c-0.67746,-2.04984 -1.99128,-3.70883 -2.76467,-5.70219c-0.21867,-0.5636 -0.41558,-1.148 -0.5899,-1.74604c-0.17254,-0.05846 -0.28491,-0.13337 -0.28491,-0.13337c-0.73999,-0.49734 -1.35562,-1.16072 -2.07219,-1.69125c-2.72927,-2.02071 -8.19414,-3.38715 -11.21575,-1.49379c-1.03244,0.64693 -1.77963,1.67444 -2.03498,3.18647c1.07961,-0.86368 1.74635,-1.8915 2.93965,0.87351c0.29826,0.6911 -1.11449,1.45484 -0.76854,2.12334c0.08643,0.16702 0.26357,0.25643 0.43679,0.3492c0.27218,-0.05626 0.62645,-0.03601 0.93581,0.28302c0.16428,0.13706 0.31481,0.33832 0.35062,0.62626c0.06312,0.2832 -0.01095,0.52338 -0.11956,0.7077c-0.13461,0.29583 -0.34557,0.44923 -0.55689,0.52539c-2.04731,1.27925 -4.49373,1.73018 -6.4448,3.18721c-0.62463,0.46647 -1.04543,1.16542 -1.65042,1.65709c-0.13352,0.10852 -0.59821,-0.03509 -0.5045,0.10921c0.16488,0.25391 0.71775,0.09889 0.82378,0.38245c0.80391,2.14999 -1.025,3.73854 -1.60322,5.61343c-0.395,1.28082 -0.51497,2.89317 -0.51497,4.22925c0.13409,0.80259 0.07011,1.67953 0.90593,2.08039c0.32018,0.15356 0.69624,0.16144 1.0564,0.20526c-0.25642,-1.00149 0.17781,-2.74035 0.41853,-3.12739c0.752,-1.20914 2.79647,-1.80965 4.11727,-2.01772c3.70657,-0.58387 7.97569,1.56986 11.22848,2.99248c5.75786,0.79883 11.10841,1.05664 14.08881,-4.98695l0.24418,-0.12721c0.14943,-0.2534 0.42557,-0.48753 0.93584,-0.48753zM239.71867,198.04944c0,0 0,-0.96801 0.90314,-1.09776c-0.17183,-0.45035 -0.30879,-0.92701 -0.40601,-1.42688c-1.2378,1.65567 -3.10797,3.03985 -5.02415,3.51423c1.66586,0.6438 3.25659,1.58035 4.8166,2.58207c-0.18741,-1.20093 -0.28592,-2.53209 -0.28958,-3.69522zM219.0378,187.20266l-0.37031,0.21221c-0.46736,0.70343 -0.81385,1.4313 -1.21324,2.2253c-0.39502,1.18266 -1.22024,4.24241 0.16468,5.14933c2.13819,1.4002 7.38164,0.66224 9.24428,-0.89107c0.87807,-0.73225 1.47794,-1.89498 1.98748,-2.91777c0.02724,-0.26228 0.18562,-1.02469 1.10642,-1.02469c1.08763,0 1.11154,1.0637 1.11207,1.11048c0.01009,0.0888 0.00838,0.17475 0.00001,0.25403v0.48894c0,1.35688 -0.10408,2.75873 0.69964,3.96023c2.20839,3.30136 7.39073,-1.2271 7.65212,-3.7468c0,0 0.00716,-0.05009 0.0291,-0.12737c0.0522,-0.21116 0.17206,-0.49151 0.44729,-0.66564c0.1697,-0.11578 0.39781,-0.18815 0.7034,-0.15987c0.30651,0.01522 0.5221,0.11912 0.67373,0.25774c0.24784,0.2113 0.32685,0.50579 0.34867,0.72221c0.01079,0.0796 0.01079,0.1302 0.01079,0.1302l-0.00342,0.01223c0.00027,0.08883 -0.00775,0.14504 -0.00775,0.14504c-0.0067,0.03992 -0.01392,0.0799 -0.02163,0.11992c0.24814,0.74464 0.4952,1.48964 0.74139,2.23493c0.6284,3.97962 4.60505,6.39384 7.73901,2.85278c1.64022,-1.85328 1.97841,-4.04415 1.61357,-6.43375c-0.07136,-0.17725 -0.09519,-0.39678 -0.02525,-0.66522c0.03783,-0.20294 0.13112,-0.43774 0.34678,-0.61244c0.20619,-0.18578 0.45267,-0.24131 0.65903,-0.24702c0.45058,-0.04442 0.73353,0.13759 0.90858,0.35189l0.72116,0.44689c0.52324,1.05129 1.10288,1.94171 1.83049,2.86186c1.8479,1.47636 7.46496,3.70187 8.32536,-0.21053c0.50757,-2.308 -1.2424,-5.75397 -2.66518,-7.60699c-0.31673,-0.11111 -0.70079,-0.38058 -0.70079,-1.03413c0,-0.98047 0.86444,-1.0965 1.06904,-1.11023c0.26815,-0.0664 0.50465,-0.00357 0.68873,0.09159c2.87798,0.95633 7.33663,1.92488 10.23485,0.91795c1.71531,-0.85072 3.57093,-2.49945 4.41447,-4.24499c2.05886,-4.26036 -3.27284,-9.12532 -7.18182,-9.1846h-0.32866c0,0 -1.11208,0 -1.11208,-1.11208c0,-1.11208 1.11208,-1.11208 1.11208,-1.11208h1.11208c0.65401,0.00243 1.31101,-0.04477 1.95609,-0.15255c0.87842,-0.29587 2.15989,-0.49737 2.90517,-1.08296c2.50948,-1.97182 0.0638,-6.41511 -1.80457,-7.87101c-1.34513,-1.04818 -4.58521,-0.53148 -6.20756,-0.53148c0,0 -0.07011,0 -0.17513,-0.0176c-0.00425,0.00083 -0.00849,0.00165 -0.01274,0.00247l-0.36817,0.01513c0,0 -1.11208,0 -1.11208,-1.11208c0,-1.11208 1.11208,-1.11208 1.11208,-1.11208l0.00252,0.01513c1.66312,-0.20525 3.60347,-2.02371 4.10789,-3.61943c0.16723,-1.02388 0.44614,-1.95617 0.18535,-2.98544c-1.62161,-6.39989 -9.29159,-4.94609 -12.50934,-0.87078c0,0 -0.69471,0.86838 -1.5631,0.17368c-0.12542,-0.10033 -0.21823,-0.20429 -0.28524,-0.30873c-0.00254,-0.00167 -0.00507,-0.00335 -0.00761,-0.00505c-0.9253,-0.61687 -0.30843,-1.54218 -0.30843,-1.54218l0.42761,-0.63388c1.67392,-1.93052 1.40372,-5.5903 -0.18535,-7.5072c-0.60071,-0.75088 -1.2042,-1.82665 -2.07256,-2.31268c-0.75743,-0.42395 -0.9112,-0.16636 -1.78443,-0.23927c-1.98778,-0.16599 -5.33149,-1.1284 -6.82799,0.88828c-1.38049,1.86033 -1.52375,4.39879 -2.21932,6.51035c0,0 -0.09661,0.28984 -0.34048,0.51505c-0.15639,0.23051 -0.42803,0.43071 -0.89987,0.43071c-1.11208,0 -1.11208,-1.11208 -1.11208,-1.11208v-0.18535c0,-2.61879 0.34392,-6.00218 -0.66346,-8.48767c-0.39044,-0.96332 -1.50712,-1.75042 -2.21094,-2.47233c-0.956,-0.47535 -2.1344,-0.75529 -3.19256,-0.91049c-6.96606,-1.02177 -8.22057,7.56402 -8.2047,12.61188c0,0 0,0.03729 -0.00683,0.09823c0.03104,0.33647 -0.0348,0.90254 -0.75358,1.14213c-1.05501,0.35167 -1.40668,-0.70334 -1.40668,-0.70334l-0.12501,-0.41037c-0.86945,-1.74814 -1.27111,-3.78677 -2.465,-5.35858c-0.56113,-0.73875 -1.92141,-1.12768 -2.71163,-1.52518c-3.3036,-1.10343 -6.62139,0.9875 -6.61765,4.73124c0.00287,2.87992 1.41481,6.60878 3.66033,8.386c0,0 0.86838,0.69471 0.17368,1.5631c-0.05012,0.06265 -0.10114,0.11716 -0.15267,0.16439c-0.43573,0.65358 -1.25273,0.38126 -1.25273,0.38126c-2.45746,-0.81915 -9.16305,-3.32224 -11.44559,-1.66878c-2.85094,2.0652 0.65674,7.15912 3.91009,8.24576l1.02683,0.16769c0,0 0.25579,0.04263 0.49975,0.21024c0.3165,0.07499 0.68572,0.29318 0.78507,0.88922c0.18283,1.09695 -0.91412,1.27977 -0.91412,1.27977c-2.71956,0.44458 -5.77934,0.58214 -7.13727,3.61943c-1.20573,2.69686 -1.18332,8.5405 2.03282,9.58808c1.51279,0.24709 2.92811,0.336 4.45921,0.34169l1.02098,-0.174c0,0 1.09695,-0.18283 1.27977,0.91412c0.09678,0.58068 -0.16506,0.90522 -0.43297,1.08206c-0.12022,0.13661 -0.23245,0.21142 -0.23245,0.21142c-1.89443,1.23229 -2.85272,3.30987 -2.84102,5.56182c0.00225,0.43494 -0.27892,2.22611 0.09874,2.60759c1.86131,1.88014 6.81104,0.40682 8.91759,-0.29795c0.09855,-0.13686 0.2014,-0.27327 0.30933,-0.40951l0.05906,-0.17331c0,0 0.49734,-0.99467 1.49201,-0.49734c0.68387,0.34193 0.66246,0.91896 0.58232,1.24618c0.26938,0.79201 -0.50749,1.25813 -0.50749,1.25813z" fill="#000000" stroke="none" stroke-width="0.5" stroke-linecap="butt"/><path d="M262.60935,172.01799c0,0 -14.3846,15.41649 -38.68288,1.52517" fill="none" stroke="#000000" stroke-width="3.5" stroke-linecap="round"/><path d="M259.38519,162.17897c0,3.64821 -1.42186,6.60567 -3.1758,6.60567c-1.75395,0 -3.1758,-2.95746 -3.1758,-6.60567c0,-3.64821 1.42186,-6.60567 3.1758,-6.60567c1.75395,0 3.1758,2.95747 3.1758,6.60567z" fill="#000000" stroke="#000000" stroke-width="0" stroke-linecap="butt"/><path d="M235.96966,162.13646c0,3.64821 -1.42186,6.60567 -3.1758,6.60567c-1.75395,0 -3.1758,-2.95746 -3.1758,-6.60567c0,-3.64821 1.42186,-6.60567 3.1758,-6.60567c1.75395,0 3.1758,2.95746 3.1758,6.60567z" fill="#000000" stroke="#000000" stroke-width="0" stroke-linecap="butt"/><path d="M232.41142,159.63386c0,0.65147 -0.52812,1.17958 -1.17959,1.17958c-0.65147,0 -1.1796,-0.52811 -1.1796,-1.17958c0,-0.65147 0.52813,-1.1796 1.1796,-1.1796c0.65147,0 1.17959,0.52813 1.17959,1.1796z" fill="#ffffff" stroke="#000000" stroke-width="0" stroke-linecap="butt"/><path d="M255.68175,159.78525c0,0.61138 -0.49562,1.10699 -1.10698,1.10699c-0.61138,0 -1.10699,-0.49562 -1.10699,-1.10699c0,-0.61138 0.49562,-1.10699 1.10699,-1.10699c0.61138,0 1.10698,0.49562 1.10698,1.10699z" fill="#ffffff" stroke="#000000" stroke-width="0" stroke-linecap="butt"/><path d="M243.61494,213.59605c-0.29306,0.87918 -1.17223,0.58612 -1.17223,0.58612l-1.06121,-0.35956c-4.33937,-2.57522 -9.78745,-3.3021 -14.7628,-3.2998c0,0 -0.92673,0 -0.92673,-0.92673c0,-0.92673 0.92673,-0.92673 0.92673,-0.92673c5.17155,0.00228 11.03629,0.73468 15.53729,3.46937l0.87284,0.28511c0,0 0.87918,0.29306 0.58612,1.17223z" fill="#48962e" stroke="none" stroke-width="0.5" stroke-linecap="butt"/><path d="M233.12465,206.86924c0.29305,-0.87917 1.17223,-0.58612 1.17223,-0.58612l0.44833,0.19957c2.88739,0.05958 4.33892,2.28143 6.48712,3.89227c0,0 0.74139,0.55604 0.18535,1.29742c-0.55604,0.74139 -1.29742,0.18535 -1.29742,0.18535c-1.63861,-1.22919 -3.17297,-3.59197 -5.37504,-3.52158l-1.03444,-0.29469c0,0 -0.87917,-0.29305 -0.58612,-1.17223z" fill="#48962e" stroke="none" stroke-width="0.5" stroke-linecap="butt"/><path d="M247.84301,203.0229c0.92673,0 0.92673,0.92673 0.92673,0.92673l-0.09784,0.66157c-1.00208,2.00416 -1.21348,3.76022 -1.65006,5.94551c0,0 -0.18175,0.90874 -1.09048,0.72699c-0.90874,-0.18175 -0.72699,-1.09048 -0.72699,-1.09048c0.46539,-2.32446 0.73425,-4.25994 1.80974,-6.41091l-0.09784,0.16732c0,0 0,-0.92673 0.92673,-0.92673z" fill="#48962e" stroke="none" stroke-width="0.5" stroke-linecap="butt"/><path d="M259.14913,210.37497c0,0.92673 -0.92673,0.92673 -0.92673,0.92673h-0.49426c-3.78157,0 -6.52322,0.15832 -9.96494,1.87919c0,0 -0.82889,0.41445 -1.24334,-0.41445c-0.41445,-0.82889 0.41445,-1.24334 0.41445,-1.24334c3.69366,-1.84683 6.7435,-2.07486 10.79384,-2.07486h0.49426c0,0 0.92673,0 0.92673,0.92673z" fill="#48962e" stroke="none" stroke-width="0.5" stroke-linecap="butt"/><path d="M235.40678,217.21252c-0.04901,0.26642 -0.23125,0.76165 -0.90869,0.76165c-0.92673,0 -0.92673,-0.92673 -0.92673,-0.92673l0.27144,-0.90243c2.44387,-2.44387 5.32674,-2.88789 8.58576,-3.70356c0,0 0.89906,-0.22477 1.12383,0.6743c0.22477,0.89906 -0.6743,1.12383 -0.6743,1.12383c-2.79451,0.69788 -5.35499,1.02624 -7.47131,2.97295z" fill="#48962e" stroke="none" stroke-width="0.5" stroke-linecap="butt"/></g></g></svg>