<svg version="1.1" xmlns="http://www.w3.org/2000/svg" xmlns:xlink="http://www.w3.org/1999/xlink" width="218.14123" height="136.77184" viewBox="0,0,218.14123,136.77184"><g transform="translate(-138.95886,-113.30651)"><g data-paper-data="{&quot;isPaintingLayer&quot;:true}" fill-rule="nonzero" stroke-linecap="butt" stroke-linejoin="miter" stroke-miterlimit="10" stroke-dasharray="" stroke-dashoffset="0" style="mix-blend-mode: normal"><path d="M211.30551,222.92586c0,0 -7.6762,0.71782 -7.97045,-1.90704c-0.4118,-3.67345 1.94226,-2.74973 1.20979,-5.96789c-0.8317,-3.6541 -2.40575,-1.54125 -1.59964,-4.37249c1.61415,-5.66928 11.12363,-4.23499 11.77652,-9.07691c0.44285,-3.28428 -5.02277,-2.42097 -4.378,-4.37559c2.29264,-6.95012 6.07197,0.71496 8.13047,-2.94797c3.80288,-6.76689 13.83657,-8.11131 13.83657,-8.11131l23.63091,0.75019c0,0 1.55143,3.88651 6.07187,6.63599c4.13417,2.51454 12.05409,4.89652 11.42745,7.67288c-1.2417,5.50139 -0.11449,5.24544 0.21699,8.22878c0.53009,4.77085 8.54024,8.22004 8.54024,8.22004c0,0 -4.48456,6.183 -9.21811,8.09189c-5.02814,2.02769 -10.38536,-0.1896 -12.64439,0.60662c-3.74656,1.32053 -2.16758,4.90585 -4.29579,5.31548c-5.12159,0.98577 -1.53553,-2.35462 -7.93174,-1.84261c-13.15789,1.05327 -24.68704,-0.25658 -29.72597,-0.90404c-3.02441,-0.38861 -7.07672,-6.01602 -7.07672,-6.01602z" fill="#c3a57b" stroke="#000000" stroke-width="3"/><text transform="translate(188.45528,184.21155) scale(0.59767,1.02668)" font-size="40" xml:space="preserve" fill="#ff0000" fill-rule="nonzero" stroke="#ffffff" stroke-width="1" stroke-linecap="butt" stroke-linejoin="miter" stroke-miterlimit="10" stroke-dasharray="" stroke-dashoffset="0" font-family="Marker" font-weight="normal" text-anchor="start" style="mix-blend-mode: normal"><tspan x="0" dy="0">SPUDOW!!</tspan></text><path d="M178.57371,183.28308c0,3.32587 -0.97674,6.29781 -3.54242,6.29781c-2.56567,0 -3.81821,-1.59301 -3.81821,-4.91888c0,-3.32587 -3.43583,-6.5736 -0.87016,-6.5736c2.56567,0 8.23078,1.8688 8.23078,5.19467z" fill="#c3a57b" stroke="#000000" stroke-width="1.5"/><path d="M151.10047,196.41774c3.77079,1.62432 6.52051,3.92811 4.89247,6.16698c-1.62804,2.23887 -4.22896,2.55386 -7.99975,0.92954c-3.77079,-1.62432 -9.63318,-0.21228 -8.00514,-2.45115c1.62804,-2.23887 7.34163,-6.26969 11.11242,-4.64537z" fill="#c3a57b" stroke="#000000" stroke-width="1.5"/><path d="M173.8535,139.13162c3.77079,2.99555 6.52051,7.24418 4.89247,11.37308c-1.62804,4.1289 -4.22896,4.70979 -7.99975,1.71424c-3.77079,-2.99555 -9.63318,-0.39148 -8.00514,-4.52038c1.62804,-4.12889 7.34163,-11.56249 11.11242,-8.56694z" fill="#dfdda4" stroke="#000000" stroke-width="1.5"/><path d="M212.05681,134.59035c-2.00571,4.37828 -5.4725,8.06518 -9.87108,7.47295c-4.39858,-0.59223 -5.58526,-2.97845 -3.57955,-7.35673c2.00571,-4.37828 -1.92611,-9.44678 2.47248,-8.85454c4.39858,0.59224 12.98387,4.36005 10.97816,8.73833z" fill="#dfdda4" stroke="#000000" stroke-width="1.5"/><path d="M231.96577,244.61631c-1.25417,2.73773 -3.42194,5.04315 -6.17238,4.67283c-2.75044,-0.37033 -3.49246,-1.86243 -2.23829,-4.60016c1.25417,-2.73773 -1.2044,-5.90706 1.54604,-5.53673c2.75044,0.37033 8.1188,2.72633 6.86463,5.46407z" fill="#dfdda4" stroke="#000000" stroke-width="1.5"/><path d="M331.59756,191.43367c-1.25417,3.75315 -3.42194,6.91364 -6.17238,6.40596c-2.75043,-0.50768 -3.49246,-2.55319 -2.23829,-6.30634c1.25417,-3.75315 -1.20439,-8.09796 1.54604,-7.59028c2.75043,0.50768 8.1188,3.73751 6.86463,7.49066z" fill="#c3a57b" stroke="#000000" stroke-width="1.5"/><path d="M322.83294,149.50216c-1.25417,2.83005 -3.42195,5.2132 -6.17238,4.83039c-2.75043,-0.38281 -3.49246,-1.92522 -2.23829,-4.75527c1.25417,-2.83005 -1.20439,-6.10623 1.54604,-5.72342c2.75043,0.38281 8.1188,2.81825 6.86464,5.6483z" fill="#c3a57b" stroke="#000000" stroke-width="1.5"/><path d="M261.81963,119.73547c-2.19079,2.83004 -5.97751,5.21319 -10.78201,4.83038c-4.8045,-0.38281 -6.10068,-1.92522 -3.90989,-4.75526c2.1908,-2.83004 -2.10385,-6.10623 2.70065,-5.72342c4.8045,0.38281 14.18204,2.81826 11.99125,5.6483z" fill="#c3a57b" stroke="#000000" stroke-width="1.5"/><path d="M356.02366,172.55818c-2.19079,1.35747 -5.97751,2.50058 -10.78201,2.31696c-4.8045,-0.18362 -6.10068,-0.92346 -3.90989,-2.28093c2.19079,-1.35747 -2.10386,-2.92894 2.70065,-2.74532c4.8045,0.18362 14.18205,1.35182 11.99125,2.70929z" fill="#d6b587" stroke="#000000" stroke-width="1.5"/></g></g></svg>