<svg version="1.1" xmlns="http://www.w3.org/2000/svg" xmlns:xlink="http://www.w3.org/1999/xlink" width="220.16652" height="139.58786" viewBox="0,0,220.16652,139.58786"><g transform="translate(-198.47613,-84.1847)"><g data-paper-data="{&quot;isPaintingLayer&quot;:true}" fill-rule="nonzero" stroke="none" stroke-linejoin="miter" stroke-miterlimit="10" stroke-dasharray="" stroke-dashoffset="0" style="mix-blend-mode: normal"><path d="M223.35299,140.78585c-1.27319,0.72628 -2.54938,1.82748 -3.72653,2.77014l-0.54949,-0.6833c-0.16863,-1.26994 0.6502,-1.50656 1.34003,-2.63387c0.17371,-0.28387 0.43657,-0.86025 0.56912,-1.33013c0.70648,0.68156 1.58022,1.26261 2.36688,1.87716z" data-paper-data="{&quot;noHover&quot;:false,&quot;origItem&quot;:[&quot;Path&quot;,{&quot;applyMatrix&quot;:true,&quot;segments&quot;:[[[220.99065,138.95847],[0.70648,0.68156],[-0.13255,0.46988]],[[220.44783,140.27816],[0.17371,-0.28387],[-0.68983,1.12731]],[[219.11655,142.84214],[-0.16863,-1.26994],[0,0]],[[219.65451,143.51459],[0,0],[1.17715,-0.94266]],[[223.30404,140.79608],[-1.27319,0.72628],[-0.78665,-0.61454]]],&quot;closed&quot;:true}]}" fill="#56c4ec" stroke-width="0.5" stroke-linecap="butt"/><path d="M418.64266,84.18471h-45.04505" fill="none" stroke-width="0" stroke-linecap="round"/><path d="M270.88477,139.94028l0.7398,0.24446c7.09956,2.76493 8.97642,11.98948 7.6231,18.72742c-1.54332,3.91727 -3.10839,8.90199 -6.92424,10.83709c-0.76542,0.38816 -2.7821,-1.39307 -3.58664,-1.47563c-1.36753,-0.14034 -2.94258,-0.39595 -4.31811,-0.27162c-2.86985,0.2594 -6.8334,1.8542 -9.12591,3.53405c-2.62942,1.97207 -5.61717,5.09138 -8.81679,6.03253c-3.33614,0.9813 -6.45538,0.00586 -9.81287,-0.32496c-3.96717,-0.39089 -7.75114,-1.4097 -11.36826,-3.19791c-3.67564,-0.75192 -5.35175,-3.72925 -7.50177,-6.59595c-1.30691,-1.74255 -2.7151,-3.50303 -3.64793,-5.44499c-0.67541,-1.40607 -0.30102,-4.57638 -0.15987,-6.10333c0.01974,-0.21348 0.15204,-0.43865 0.22604,-0.65211c0.06533,-0.09236 0.13349,-0.18768 0.20532,-0.28566l-0.0574,-0.31792l0.14928,0.02987l0.26611,-1.33083c0.02086,-0.09455 0.0319,-0.19306 0.0319,-0.29389c0,-0.12169 -0.01596,-0.2399 -0.046,-0.35211c0.11027,-0.05963 0.21991,-0.12621 0.32878,-0.19979c0.6747,-0.45594 1.48561,-2.09789 1.92999,-2.7655c1.00109,-1.504 2.05997,-2.40321 3.48967,-3.47548c1.35028,-1.01271 2.72264,-2.34676 4.19602,-3.16393c3.0846,-1.71078 6.79178,-1.73275 10.1995,-1.73275c4.77425,0 9.01745,0.32776 13.47486,2.11072c2.12988,0.42597 3.37923,1.63463 5.33614,2.41105c2.35554,0.93458 6.01798,1.30221 8.38022,0.25118c1.97527,-0.87887 2.74782,-2.62826 4.16421,-4.04464c1.14933,-1.14933 2.53981,-1.96749 3.98526,-2.57706c0.27626,0.3062 0.63962,0.4277 0.63962,0.4277z" data-paper-data="{&quot;noHover&quot;:false,&quot;origItem&quot;:[&quot;Path&quot;,{&quot;applyMatrix&quot;:true,&quot;segments&quot;:[[[582.56395,239.66962],[1.01776,1.12808],[-5.32512,2.24567]],[[568.03553,249.03553],[4.2342,-4.2342],[-5.21804,5.21804]],[[552.54085,264.06453],[7.27705,-3.2378],[-8.70266,3.8721]],[[521.69702,263.16361],[8.67799,3.44308],[-7.20941,-2.8604]],[[502.07527,254.29272],[7.84661,1.56932],[-16.42139,-6.56855]],[[452.5,246.5],[17.58868,0],[-12.55429,0]],[[414.94963,252.85882],[11.3639,-6.30263],[-5.42799,3.01047]],[[399.5,264.5],[4.97452,-3.73089],[-5.26712,3.95034]],[[386.64924,277.28994],[3.68808,-5.54083],[-1.63711,2.45952]],[[379.54144,287.46859],[2.48563,-1.67971],[-0.4011,0.27105]],[[378.33035,288.20381],[0.40624,-0.2197],[0.11065,0.41339]],[[378.5,289.5],[0,-0.44829],[0,0.37146]],[[378.38266,290.58182],[0.07684,-0.34836],[0,0]],[377.4029,295.48058],[376.85292,295.37058],[[377.06453,296.54085],[0,0],[-0.26466,0.36094]],[[376.3082,297.5923],[0.2407,-0.34025],[-0.27261,0.7864]],[[375.47567,299.99269],[0.0727,-0.78648],[-0.52002,5.62536]],[[376.06453,322.45915],[-2.48827,-5.18009],[3.43659,7.1543]],[[389.5,342.5],[-4.81474,-6.41966],[7.92084,10.56112]],[[417.12268,366.77063],[-13.54132,-2.77016],[13.32573,6.58788]],[[458.9705,378.52219],[-14.6153,-1.44008],[12.36923,1.21877]],[[495.07527,379.70728],[-12.29056,3.61518],[11.78765,-3.46726]],[[527.5,357.5],[-9.68696,7.26522],[8.44577,-6.18867]],[[561.0876,344.51704],[-10.57269,0.95566],[5.06758,-0.45806]],[[576.99269,345.52433],[-5.03807,-0.51702],[2.96398,0.30417]],[[584.45915,345.93547],[-2.81989,1.43002],[14.05786,-7.12902]],[[615.70728,311.07527],[-5.6857,14.4315],[4.98572,-24.82306]],[[587.64305,242.14238],[26.15525,10.18619],[0,0]],[584.91886,241.24342]],&quot;closed&quot;:true}]}" fill="#b2e62e" stroke-width="0.5" stroke-linecap="butt"/><path d="M208.42495,170.24026c-0.28924,-0.24936 -0.79794,-0.88707 -1.14963,-1.53041c-1.69636,-0.00325 -3.38202,-0.20145 -4.91302,-0.58741c-3.45576,-2.04088 -4.67475,-4.58288 -3.3829,-8.45842c0.17082,-0.51245 0.86227,-2.65924 1.11948,-2.73041c2.57228,-0.7117 1.83486,2.84341 3.52639,2.75086c2.06533,-0.11299 4.00887,-3.61326 5.64748,-4.61101c0.4407,-0.25582 1.35907,-0.40005 2.05687,-0.59713c0.57425,-1.89594 1.42159,-3.89064 1.60353,-3.86354c0.43692,0.06507 0.94891,-0.69472 1.32917,-1.37799c0.18937,-0.94634 0.26211,-1.83307 0.17163,-2.47465c-0.21605,-1.53211 -2.06689,-3.15455 -3.67556,-2.71759c-0.31409,0.08532 -0.74252,0.38701 -1.17919,0.75343l0.01994,0.01139l-0.69459,1.21554c-0.16976,0.31029 -0.49925,0.52072 -0.87787,0.52072c-0.55228,0 -1,-0.44772 -1,-1v-1.05634l0.09984,0l-0.07309,-0.22975c2.33918,-4.89613 5.39653,-6.49372 10.73883,-6.04853c1.4708,0.12257 4.22314,0.21025 5.36624,1.51989c-0.30306,-0.54445 -0.59216,-0.92064 -1.52153,-1.32934c-0.61449,-0.27023 -1.68102,-0.11649 -1.86397,-0.76236c-0.55511,-1.95966 2.34671,-2.65378 3.50559,-2.92323c3.10422,-0.72176 5.86813,2.1808 8.38398,4.01974c1.09215,-0.05477 2.18398,-0.06424 3.25714,-0.06424c5.01377,0 9.54897,0.35532 14.23011,2.22778c3.79028,0.75805 7.66083,4.62028 11.81693,2.77633c1.59289,-0.70672 2.24485,-2.37125 3.39443,-3.52083c1.8986,-1.8986 4.27742,-3.02359 6.7736,-3.85658c0,0 1.28755,-0.42918 1.71674,0.85836c0.08399,0.25196 0.10223,0.47107 0.07724,0.6605c8.2061,3.58254 8.56193,14.53721 6.94403,22.65035c-1.78247,4.41234 -2.25159,9.07737 -6.85655,10.97199c-1.91243,0.78684 -5.3312,-0.53132 -7.28623,-0.74472c-1.83838,-0.20066 -3.4136,0.60757 -5.06244,1.26672c-1.35021,0.53977 -2.60834,0.83295 -3.76131,1.7257c-2.94444,2.20833 -6.08701,5.37113 -9.65652,6.45827c-1.17397,0.35755 -2.31808,0.50298 -3.45207,0.52314l-0.70861,0.83038c-1.1496,2.77415 -1.4646,5.86884 -1.07687,8.8968c0.10989,0.85821 0.52604,1.90678 0.7279,2.87863c0.43314,-0.48575 0.97554,-0.90876 1.39626,-1.40047c2.29153,-1.30203 5.27248,-1.93687 7.92926,-1.94569c0.37675,-0.00126 3.03752,-0.01065 3.2437,0.04547c1.5073,0.41032 2.45437,1.98397 3.94457,2.34332c1.33437,0.32176 2.94145,-0.30428 4.30409,-0.00859c4.25341,0.92297 6.52328,5.77803 8.04398,9.32885c1.56889,4.20639 2.3556,8.9082 -0.7597,12.59405c-1.06041,1.25462 -1.18355,1.69521 -2.94125,2.08925c-1.26485,0.28356 -5.81344,0.04778 -5.78692,-2.11528c0.01333,-1.08654 1.27759,-1.86555 2.24173,-2.36677c0.40823,-0.21222 1.34025,0.86501 1.31941,0.40539c-0.09576,-2.11249 -1.53753,-1.60777 -2.89908,-1.09116c-2.95394,1.70065 -5.54333,3.9249 -8.25246,5.99835c-1.19013,0.91087 -2.63305,1.98543 -4.17573,2.24578c-1.54275,0.26036 -2.56571,0.05948 -3.87741,-0.71518c-0.53511,-0.31603 -0.74665,-1.17233 -1.54319,-0.78584c-0.70957,0.34429 -1.15879,1.07119 -1.76468,1.57608c-2.39624,1.99686 -4.13227,3.37971 -7.40405,3.0139c-2.23958,-0.39375 -4.85086,-0.59765 -6.84113,-1.81359c-0.85518,-0.52247 -1.40238,-1.44895 -2.22321,-2.02387c-2.20596,-1.54509 -5.06011,-1.32942 -7.57424,-0.96097c-1.01382,0.14857 0.70061,1.60359 0.71307,1.64917c0.2336,0.85469 0.55629,1.88561 0.11776,2.65552c-0.51809,0.90958 -3.81921,1.95206 -4.8293,1.7593c-2.77012,-0.52864 -3.76089,-3.55837 -4.36462,-5.89769c-1.19853,-4.79413 -1.64215,-10.10878 2.16658,-13.956c1.42108,-1.43544 3.28318,-2.63802 5.15861,-3.37597c0.57341,-0.22562 1.65841,-0.06786 1.71854,-0.68112c0.08503,-0.86716 -0.7215,-1.63116 -0.75768,-2.50172c-0.14197,-3.41638 2.0683,-4.17576 4.75137,-5.17777c1.91614,-0.46969 4.06243,-0.72319 6.02838,-0.956c0.56203,-0.06655 1.13387,-0.05503 1.69783,-0.00754c0.39661,0.03339 1.2137,0.52964 1.18664,0.13256c-0.13077,-1.91914 -0.30865,-4.44583 -0.92852,-6.30691c-0.81985,-2.46152 -2.94539,-4.55846 -4.74036,-6.35004c0,0 -0.47058,-0.47058 -0.42317,-1.08222c-0.73689,-0.29956 -1.46391,-0.62938 -2.17915,-0.99143c-3.17871,-0.62001 -5.04979,-2.61608 -6.86782,-4.97472c-2.64032,0.66343 -7.09124,0.38657 -9.14323,-1.38248zM225.41034,136.77791c-0.28896,-0.12708 -1.34986,-0.05602 -2.27417,0.02334c0.66709,0.39538 1.32655,1.02727 1.48854,1.21813c0.58102,0.68456 0.82695,1.2655 0.83473,1.79794c1.07495,-0.38138 2.18848,-0.63679 3.31946,-0.80754c-1.08032,-0.86368 -2.17379,-1.70643 -3.36856,-2.23187zM211.03914,141.48019c-0.19796,0.19981 -0.38651,0.43081 -0.56648,0.68087c0.94832,-0.15175 1.97845,-0.08175 2.64212,0.15146c2.12948,0.74831 2.99335,2.2883 3.17082,4.04462c0.77628,-0.81524 1.63184,-1.51837 2.61921,-2.25891c1.03983,-0.77987 2.08832,-1.71654 3.18194,-2.50811c-3.40508,-1.6259 -8.18479,-2.99956 -11.0476,-0.10995zM210.30173,156.78844c-2.13595,1.25762 -3.82768,4.94841 -6.67647,4.89603c-0.94255,-0.01733 -2.08686,-0.70405 -2.6775,-1.59593c-0.182,0.53365 -0.38209,1.114 -0.40129,1.1891c-0.62561,2.44759 0.58562,3.77066 2.58119,4.99704c1.48142,0.36583 3.19078,0.51055 4.88511,0.44696c0.2523,-0.04838 0.50965,-0.08772 0.72978,-0.15736c1.16124,-0.36736 2.60361,-0.6574 3.96929,-0.80317l-0.07182,-0.21546l0.31114,-0.10371c-0.48679,-0.756 -0.91973,-1.53146 -1.257,-2.33188c-0.60298,-1.43102 -0.38964,-3.12091 -0.38964,-4.62555c0,-0.20739 -0.011,-0.44545 -0.02556,-0.70277c-0.47822,0.16031 -0.56631,-0.38967 -0.4425,-1.2472c-0.1869,0.06672 -0.36669,0.14826 -0.53473,0.25391zM213.757,167.62731l-0.04849,-0.06062l-0.09832,0.15817c-1.22253,0.42395 -2.5647,0.70896 -3.94572,0.85906c0.58052,0.27363 1.27027,0.58147 1.51955,0.62119c1.8686,0.29777 3.3259,0.91308 5.06497,0.66957c-0.653,-0.85815 -1.35346,-1.72865 -2.02415,-2.62166zM234.35106,184.15455c0.52964,1.58795 0.51072,3.05899 0.61127,4.69198c0.1393,2.2624 1.20765,4.0041 -1.69658,5.18685c-0.96144,0.39155 -2.08234,-0.27346 -3.11135,-0.13631c-1.80548,0.24065 -3.79743,0.40277 -5.55302,0.85359c-0.88214,0.33231 -2.45303,0.43617 -2.73514,1.48583c-0.39274,1.46126 1.01387,2.84112 0.57622,4.22566c-0.27175,0.85969 -0.97854,1.5596 -1.69313,2.1094c-0.45434,0.34956 -1.12405,0.25111 -1.65518,0.46675c-0.80456,0.32666 -1.58916,0.712 -2.33026,1.16455c-4.7834,2.92098 -4.56385,8.22943 -3.37361,12.9904c0.22305,0.93066 0.89419,3.77533 2.14992,3.87412c0.40871,0.03215 0.78717,-0.23344 1.18908,-0.31437c0.28221,-0.05683 0.60583,0.0409 0.85807,-0.09785c0.09996,-0.05498 -0.16944,-0.15363 -0.24417,-0.23984c-0.30856,-0.356 -0.76577,-0.63563 -0.9048,-1.08576c-0.65128,-2.10866 -0.43103,-3.10283 1.61787,-4.14153c0.60085,-0.3046 1.33363,-0.19151 2.00141,-0.28016c2.82172,-0.37464 5.71942,-0.18343 8.15837,1.4907c1.21911,0.83682 0.99937,1.2602 2.1198,1.95723c1.62471,1.01075 3.99391,1.12223 5.82602,1.44368c2.78215,0.40234 4.32615,-1.71688 6.34885,-3.31968c0.4904,-0.3886 0.89028,-0.96882 1.49259,-1.1383c0.81908,-0.23048 1.72987,-0.21679 2.55268,0c1.47844,0.38953 1.49142,1.78166 3.24619,1.39433c2.08643,-0.46055 3.78787,-2.2932 5.41512,-3.54492c2.10675,-1.62057 4.08762,-3.18148 6.40524,-4.4973c1.07673,-0.40042 2.64351,-1.16093 3.85398,-0.79768c2.30604,0.692 3.43863,3.53476 2.50747,5.49495c0.65058,-0.44124 1.23407,-1.3014 1.56326,-1.82544c1.62033,-2.57947 0.50746,-6.34409 -0.4642,-8.91883c-1.12119,-2.61419 -2.11504,-4.66906 -4.31434,-6.52051c-0.51674,-0.43502 -1.03348,-1.0372 -1.7565,-1.16082c-1.40188,-0.2397 -2.98718,0.34765 -4.38195,-0.00859c-1.5708,-0.40121 -2.54988,-1.9844 -4.01763,-2.36163c-0.82241,-0.21137 -1.69786,0.04862 -2.547,0.04546c-1.89477,-0.00706 -4.5496,0.36576 -6.18558,1.31158c-0.64547,0.80417 -2.78611,3.87411 -3.69239,3.75113c-1.4789,-0.20068 -2.08872,-2.83828 -2.31371,-3.99918c-0.87401,-4.50963 -1.0121,-8.98364 0.73713,-13.24051c-1.37267,-0.16794 -2.75775,-0.39998 -4.19042,-0.54142c-1.77622,-0.17536 -3.54306,-0.46204 -5.27879,-0.88279c1.35871,1.53351 2.57781,3.2222 3.20921,5.11523zM270.22413,139.52977c-1.44545,0.60957 -2.79425,1.39295 -3.94358,2.54228c-1.41638,1.41638 -2.23059,3.20059 -4.20587,4.07945c-2.36224,1.05104 -6.01667,0.69004 -8.37222,-0.24455c-1.95692,-0.77642 -3.19623,-1.98193 -5.32611,-2.4079c-4.4574,-1.78296 -8.6824,-2.11525 -13.45666,-2.11525c-3.40773,0 -7.10803,0.01525 -10.19263,1.72603c-1.47336,0.81716 -2.84335,2.14716 -4.19363,3.15987c-1.4297,1.07227 -2.48711,1.96769 -3.48819,3.47169c-0.44438,0.66761 -1.25464,2.30695 -1.92933,2.76288c-0.04395,0.02971 -0.08802,0.05823 -0.13221,0.08562c-0.04884,0.12831 -0.0993,0.26493 -0.15173,0.40684c0.00084,0.01955 0.00126,0.0392 0.00126,0.05896c0,0.10083 -0.011,0.19909 -0.03185,0.29365l-0.26595,1.32971l-0.14928,-0.02986l0.05744,0.31766c-0.07184,0.09797 -0.13996,0.19305 -0.2053,0.2854c-0.074,0.21346 -0.20625,0.43808 -0.22598,0.65156c-0.14115,1.52694 -0.51557,4.69219 0.15984,6.09827c0.93282,1.94196 2.34,3.69732 3.64691,5.43987c2.15002,2.8667 3.82223,5.83606 7.49787,6.58799c3.61712,1.78821 7.39196,2.79894 11.35913,3.18983c3.35749,0.33082 6.4641,1.30298 9.80024,0.32168c3.19963,-0.94115 6.17191,-4.05586 8.80134,-6.02792c2.29251,-1.67984 6.24714,-3.26468 9.11698,-3.52408c1.37554,-0.12434 2.94973,0.13308 4.31726,0.27342c0.80454,0.08256 2.43102,1.08464 3.19644,0.69648c3.81585,-1.93509 3.8193,-5.35019 5.36263,-9.26746c1.35332,-6.73794 1.43141,-16.72597 -5.66814,-19.4909l-0.73945,-0.24402c0,0 -0.36295,-0.12098 -0.63921,-0.42719z" fill="#000000" stroke-width="0.5" stroke-linecap="butt"/><path d="M250.31135,147.09554c-0.90517,0 -0.90517,-1 -0.90517,-1l0.03256,-0.30024c-0.0077,-0.02817 -0.01101,-0.04463 -0.01101,-0.04463c-0.48376,-2.40573 -1.08884,-4.53916 0.9454,-6.32735c1.24827,-1.09729 4.81745,-0.8099 4.65359,1.84702c-0.05014,0.81307 -1.33703,1.52519 -1.88546,1.97479c-0.96285,0.78932 -1.53756,1.76252 -1.99793,2.96343l0.07319,-0.11302c0,0 0,1 -0.90517,1zM250.67782,143.03661c0.68288,-1.05433 1.55864,-1.94969 2.546,-1.94734c0.29375,0.0007 -0.544,-0.24536 -0.81261,-0.37672c-0.60383,-0.29528 -1.14707,0.38928 -1.47744,0.88744c-0.26476,0.39922 -0.31023,0.90602 -0.25594,1.43663z" fill="#000000" stroke-width="0.5" stroke-linecap="butt"/><path d="M250.88504,141.58877c0.33037,-0.49816 0.94052,-1.21808 1.54435,-0.9228c0.26861,0.13136 1.13109,0.39832 0.83733,0.39762c-0.98736,-0.00235 -1.94271,0.95266 -2.62559,2.00699c-0.05429,-0.53061 -0.02086,-1.08259 0.24391,-1.48181z" data-paper-data="{&quot;noHover&quot;:false,&quot;origItem&quot;:[&quot;Path&quot;,{&quot;applyMatrix&quot;:true,&quot;segments&quot;:[[[250.67782,143.03661],[-0.05429,-0.53061],[0.68288,-1.05433]],[[253.22382,141.08927],[-0.98736,-0.00235],[0.29375,0.0007]],[[252.4112,140.71255],[0.26861,0.13136],[-0.60383,-0.29528]],[[250.93376,141.59999],[0.33037,-0.49816],[-0.26476,0.39922]]],&quot;closed&quot;:true}]}" fill="#51b044" stroke-width="0.5" stroke-linecap="butt"/><path d="M214.25924,167.21674c0.67069,0.89301 1.38335,1.81796 2.03635,2.67611c-1.73906,0.24351 -3.29021,-0.37361 -5.15881,-0.67138c-0.24929,-0.03972 -0.94178,-0.36403 -1.5223,-0.63766c1.38102,-0.1501 2.80328,-0.47492 4.02581,-0.89887l0.09779,-0.15856l0.05085,0.06246z" data-paper-data="{&quot;noHover&quot;:false,&quot;origItem&quot;:[&quot;Path&quot;,{&quot;applyMatrix&quot;:true,&quot;segments&quot;:[[213.757,167.62731],[213.70851,167.5667],[[213.61019,167.72487],[0,0],[-1.22253,0.42395]],[[209.66448,168.58393],[1.38102,-0.1501],[0.58052,0.27363]],[[211.18403,169.20512],[-0.24929,-0.03972],[1.8686,0.29777]],[[216.249,169.8747],[-1.73906,0.24351],[-0.653,-0.85815]],[[214.22485,167.25304],[0.67069,0.89301],[0,0]]],&quot;closed&quot;:true}]}" fill="#51b044" stroke-width="0.5" stroke-linecap="butt"/><path d="M210.86811,156.49582c-0.12381,0.85754 -0.029,1.41416 0.44922,1.25386c0.01456,0.25732 0.02855,0.49934 0.02855,0.70673c0,1.50464 -0.20672,3.2367 0.39626,4.66772c0.33727,0.80042 0.765,1.58771 1.25179,2.34371l-0.31207,0.10519l0.07128,0.21626c-1.36568,0.14577 -2.82993,0.4537 -3.99117,0.82106c-0.22013,0.06964 -0.4841,0.11123 -0.73639,0.15961c-1.69433,0.0636 -3.44681,-0.0897 -4.92823,-0.45553c-1.99557,-1.22638 -3.22639,-2.59212 -2.60078,-5.03971c0.01919,-0.07509 0.22093,-0.66559 0.40294,-1.19923c0.59063,0.89188 1.73322,1.59246 2.67577,1.60979c2.84879,0.05238 4.62052,-3.67921 6.75646,-4.93683c0.16803,-0.10566 0.34948,-0.18591 0.53637,-0.25262z" data-paper-data="{&quot;noHover&quot;:false,&quot;origItem&quot;:[&quot;Path&quot;,{&quot;applyMatrix&quot;:true,&quot;segments&quot;:[[[210.30173,156.78844],[0.16803,-0.10566],[-2.13595,1.25762]],[[203.62527,161.68447],[2.84879,0.05238],[-0.94255,-0.01733]],[[200.94777,160.08854],[0.59063,0.89188],[-0.182,0.53365]],[[200.54648,161.27764],[0.01919,-0.07509],[-0.62561,2.44759]],[[203.12767,166.27468],[-1.99557,-1.22638],[1.48142,0.36583]],[[208.01278,166.72163],[-1.69433,0.0636],[0.2523,-0.04838]],[[208.74256,166.56428],[-0.22013,0.06964],[1.16124,-0.36736]],[[212.71184,165.76111],[-1.36568,0.14577],[0,0]],[212.64003,165.54565],[[212.95116,165.44194],[0,0],[-0.48679,-0.756]],[[211.69416,163.11005],[0.33727,0.80042],[-0.60298,-1.43102]],[[211.30452,158.48451],[0,1.50464],[0,-0.20739]],[[211.27896,157.78174],[0.01456,0.25732],[-0.47822,0.16031]],[[210.83646,156.53453],[-0.12381,0.85754],[-0.1869,0.06672]]],&quot;closed&quot;:true}]}" fill="#51b044" stroke-width="0.5" stroke-linecap="butt"/><path d="M222.13517,141.57773c-1.09362,0.79156 -2.14395,1.75876 -3.18377,2.53863c-0.98737,0.74054 -1.88944,1.47555 -2.66572,2.29079c-0.17747,-1.75633 -1.09003,-3.35806 -3.21951,-4.10637c-0.66367,-0.23322 -1.69459,-0.29926 -2.64291,-0.14751c0.17997,-0.25007 0.37008,-0.48784 0.56804,-0.68766c2.86281,-2.88961 7.73879,-1.51378 11.14387,0.11212z" data-paper-data="{&quot;noHover&quot;:false,&quot;origItem&quot;:[&quot;Path&quot;,{&quot;applyMatrix&quot;:true,&quot;segments&quot;:[[[211.03914,141.48019],[2.86281,-2.88961],[-0.19796,0.19981]],[[210.47266,142.16106],[0.17997,-0.25007],[0.94832,-0.15175]],[[213.11478,142.31253],[-0.66367,-0.23322],[2.12948,0.74831]],[[216.28559,146.35715],[-0.17747,-1.75633],[0.77628,-0.81524]],[[218.9048,144.09825],[-0.98737,0.74054],[1.03983,-0.77987]],[[222.08674,141.59014],[-1.09362,0.79156],[-3.40508,-1.6259]]],&quot;closed&quot;:true}]}" fill="#51b044" stroke-width="0.5" stroke-linecap="butt"/><path d="M228.82724,139.02257c-1.13098,0.17075 -2.30811,0.46098 -3.38305,0.84236c-0.00778,-0.53244 -0.28764,-1.16998 -0.86866,-1.85454c-0.16199,-0.19085 -0.81666,-0.83676 -1.48375,-1.23214c0.92431,-0.07936 2.01232,-0.17433 2.30128,-0.04726c1.19477,0.52543 2.35386,1.4279 3.43418,2.29158z" data-paper-data="{&quot;noHover&quot;:false,&quot;origItem&quot;:[&quot;Path&quot;,{&quot;applyMatrix&quot;:true,&quot;segments&quot;:[[[225.41034,136.77791],[1.19477,0.52543],[-0.28896,-0.12708]],[[223.13617,136.80125],[0.92431,-0.07936],[0.66709,0.39538]],[[224.62471,138.01937],[-0.16199,-0.19085],[0.58102,0.68456]],[[225.45944,139.81731],[-0.00778,-0.53244],[1.07495,-0.38138]],[[228.7789,139.00977],[-1.13098,0.17075],[-1.08032,-0.86368]]],&quot;closed&quot;:true}]}" fill="#51b044" stroke-width="0.5" stroke-linecap="butt"/><path d="M231.12982,179.01498c1.73572,0.42075 3.50792,0.70545 5.28414,0.88081c1.43267,0.14145 2.82316,0.37268 4.19583,0.54062c-1.74923,4.25687 -1.60307,8.78427 -0.72907,13.2939c0.22499,1.1609 0.83542,3.74611 2.31432,3.94679c0.90628,0.12298 3.05529,-2.94293 3.70076,-3.7471c1.63598,-0.94582 4.29723,-1.31216 6.19199,-1.3051c0.84913,0.00316 1.72597,-0.25466 2.54837,-0.04329c1.46775,0.37723 2.44926,1.96611 4.02006,2.36731c1.39477,0.35624 2.98047,-0.22961 4.38236,0.01008c0.72302,0.12362 1.24011,0.72754 1.75685,1.16255c2.1993,1.85144 3.19341,3.91338 4.31461,6.52757c0.97167,2.57473 2.08261,6.34713 0.46229,8.9266c-0.32918,0.52404 -0.96203,1.36168 -1.61261,1.80291c0.93116,-1.9602 -0.20298,-4.79918 -2.50902,-5.49118c-1.21047,-0.36325 -2.72651,0.41642 -3.80325,0.81685c-2.31762,1.31581 -4.30384,2.88479 -6.41059,4.50536c-1.62725,1.25173 -3.3362,3.0899 -5.42263,3.55045c-1.75478,0.38734 -1.77133,-1.00333 -3.24977,-1.39285c-0.82281,-0.21679 -1.73774,-0.22947 -2.55682,0.00101c-0.60231,0.16948 -1.0049,0.75001 -1.4953,1.13861c-2.0227,1.6028 -3.57544,3.72112 -6.35759,3.31878c-1.83211,-0.32144 -4.20836,-0.43596 -5.83307,-1.44671c-1.12043,-0.69703 -0.90369,-1.12252 -2.12279,-1.95934c-2.43895,-1.67413 -5.34183,-1.87095 -8.16355,-1.49631c-0.66778,0.08866 -1.35544,-0.05459 -1.95628,0.25001c-2.0489,1.03869 -2.27043,2.03104 -1.61915,4.1397c0.13903,0.45013 0.59547,0.7288 0.90404,1.08481c0.07472,0.08621 0.30279,0.22005 0.20283,0.27503c-0.25224,0.13875 -0.57613,0.0407 -0.85833,0.09753c-0.40191,0.08093 -0.78063,0.3462 -1.18935,0.31405c-1.25573,-0.09879 -1.92894,-2.9464 -2.152,-3.87706c-1.19024,-4.76098 -1.41338,-10.07906 3.37002,-13.00003c0.7411,-0.45255 1.52557,-0.83879 2.33013,-1.16545c0.53113,-0.21565 1.20081,-0.11751 1.65514,-0.46707c0.71459,-0.5498 1.42119,-1.25239 1.69293,-2.11208c0.43765,-1.38454 -0.96847,-2.77016 -0.57573,-4.23142c0.28211,-1.04966 1.85375,-1.15646 2.73589,-1.48877c1.75559,-0.45082 3.74957,-0.61775 5.55505,-0.8584c1.02901,-0.13716 2.15185,0.5248 3.11329,0.13324c2.90422,-1.18275 1.8441,-2.93188 1.7048,-5.19428c-0.10055,-1.63298 -0.07908,-3.10534 -0.60872,-4.69329c-0.6314,-1.89303 -1.85135,-3.58131 -3.21007,-5.11482z" data-paper-data="{&quot;noHover&quot;:false,&quot;origItem&quot;:[&quot;Path&quot;,{&quot;applyMatrix&quot;:true,&quot;segments&quot;:[[[450.40502,404.07043],[-2.32612,-6.97408],[1.95124,5.85012]],[[452.657,421.35598],[-0.37042,-6.01602],[0.5132,8.33483]],[[446.40671,440.46471],[10.69935,-4.35734],[-3.54202,1.4425]],[[434.94425,439.96254],[3.79096,-0.5053],[-6.65151,0.88658]],[[414.48655,443.10724],[6.46772,-1.66086],[-3.24987,1.22425]],[[404.41008,448.58114],[1.03934,-3.86701],[-1.4469,5.38339]],[[406.53291,464.14876],[1.61233,-5.10076],[-1.00113,3.16716]],[[400.29532,471.91992],[2.63259,-2.02549],[-1.6738,1.2878]],[[394.19751,473.63949],[1.95674,-0.79447],[-2.96407,1.20346]],[[385.61265,477.92977],[2.73027,-1.66724],[-17.62236,10.76111]],[[373.18405,525.78732],[-4.38494,-17.53976],[0.82174,3.42861]],[[381.1045,540.05983],[-4.62621,-0.36394],[1.50573,0.11845]],[[385.48514,538.90167],[-1.48066,0.29815],[1.03969,-0.20935]],[[388.64634,538.54121],[-0.92926,0.51114],[0.36826,-0.20256]],[[387.74683,537.65763],[0.27528,0.3176],[-1.13677,-1.31153]],[[384.41349,533.65763],[0.51219,1.65832],[-2.39935,-7.76844]],[[390.37382,518.39996],[-7.54829,3.82663],[2.21355,-1.12216]],[[397.74715,517.36781],[-2.46015,0.32663],[10.39542,-1.3802]],[[427.80314,522.85966],[-8.98526,-6.16764],[4.49126,3.08288]],[[435.61265,530.07023],[-4.12774,-2.56791],[5.98554,3.72366]],[[457.07612,535.38882],[-6.74962,-1.18421],[10.24966,1.48225]],[[480.46574,523.15889],[-7.45177,5.90484],[1.80668,-1.43163]],[[485.96454,518.96531],[-2.21896,0.6244],[3.01756,-0.84911]],[[495.36879,518.96531],[-3.0313,-0.79867],[5.44668,1.43506]],[[507.328,524.10211],[-6.46473,1.42699],[7.68655,-1.69669]],[[527.27766,511.04237],[-5.99488,4.61144],[7.76141,-5.97031]],[[550.87502,494.47403],[-8.53828,4.84756],[3.96677,-1.4752]],[[565.07337,491.53529],[-4.45947,-1.33821],[8.49562,2.54938]],[[574.31106,511.77908],[3.43047,-7.2215],[2.3968,-1.62556]],[[580.07023,505.05402],[-1.21273,1.93059],[5.96941,-9.50295]],[[578.36008,472.19644],[3.57969,9.48549],[-4.13056,-9.63085]],[[562.46574,448.17444],[8.10238,6.82085],[-1.90371,-1.60261]],[[555.99467,443.89789],[2.66366,0.45544],[-5.16464,-0.88306]],[[539.85124,443.86624],[5.13844,1.31243],[-5.78695,-1.47807]],[[525.04999,435.16583],[5.4073,1.38974],[-3.02981,-0.7787]],[[515.66667,435.33333],[3.12825,0.01165],[-6.98046,-0.02601]],[[492.87858,440.16526],[6.02705,-3.48448],[-2.37795,2.96262]],[[479.27556,453.98468],[3.33878,0.45307],[-5.44837,-0.73935]],[[470.75168,439.25143],[0.82889,4.27684],[-3.21989,-16.61378]],[[473.46732,390.47246],[-6.44429,15.68262],[-5.057,-0.6187]],[[458.0295,388.47781],[5.27808,0.52109],[-6.54374,-0.64604]],[[438.58207,385.22556],[6.39455,1.55006],[5.00561,5.64956]]],&quot;closed&quot;:true}]}" fill="#3bbe0b" stroke-width="0.5" stroke-linecap="butt"/><path d="M221.10073,201.66527c-0.42918,-1.28755 0.85836,-1.71673 0.85836,-1.71673l0.6429,-0.21009c4.85201,-1.18143 9.14069,-0.38026 13.77598,0.74937c-1.25836,-2.23087 -2.11651,-4.81777 -2.63921,-6.88478c0,0 -0.32917,-1.31667 0.9875,-1.64584c1.31667,-0.32917 1.64583,0.9875 1.64583,0.9875c0.64918,2.63173 1.88145,5.44758 3.41731,7.69825c0.33769,0.49487 1.05475,1.2884 1.58493,1.60746c0.29628,0.1783 0.68133,0.19686 0.975,0.37013c-0.01296,-0.08372 -0.00728,-0.16543 0.03015,-0.24355c0.14236,-0.29712 0.37118,-0.5351 0.62012,-0.75901c-0.56097,-0.73347 -1.03975,-1.53705 -1.41038,-2.38071l-0.60564,-0.86754c0,0 -0.75284,-1.12925 0.37642,-1.88208c1.12925,-0.75284 1.88208,0.37642 1.88208,0.37642l0.84204,1.30397c0.23144,0.5585 0.53611,1.0921 0.89621,1.58117c1.79239,-1.63042 3.73866,-2.99812 5.86903,-4.21547c1.57126,-0.89785 3.32375,-1.5934 4.6904,-2.7596l1.04981,-0.31457c0,0 1.35719,0 1.35719,1.35719c0,0.90441 -0.60269,1.20615 -1.00482,1.30681c-1.46401,1.10972 -3.13641,1.84723 -4.74588,2.76692c-2.47461,1.41407 -4.53674,3.04865 -6.59012,5.02913c-0.28173,0.27173 -0.65183,0.4661 -0.86441,0.79476c-0.3992,0.6172 -0.26796,1.69676 -0.93986,1.99482c-0.53146,0.23576 -3.18237,-0.72996 -3.84569,-1.14441c-0.58952,-0.36834 -1.13588,-0.83465 -1.64101,-1.37283c-0.50865,0.44752 -1.23625,0.26561 -1.23625,0.26561c-4.6946,-1.17366 -8.98196,-2.33434 -13.81841,-1.08576l-0.44287,0.15183c0,0 -1.28755,0.42919 -1.71673,-0.85836z" fill="#114702" stroke-width="0.5" stroke-linecap="butt"/><path d="M247.86359,152.00072c1.02126,2.44362 0.1859,5.11968 -1.86581,5.97715c-2.05171,0.85747 -4.54285,-0.42836 -5.5641,-2.87197c-1.02126,-2.44362 -0.1859,-5.11968 1.86581,-5.97715c2.05171,-0.85747 4.54285,0.42836 5.56411,2.87197z" fill="#062c02" stroke-width="0" stroke-linecap="butt"/><path d="M254.65483,147.71956c0.80088,1.65921 0.39216,3.51494 -0.91291,4.14487c-1.30507,0.62993 -3.01227,-0.20446 -3.81316,-1.86367c-0.80088,-1.65921 -0.39216,-3.51494 0.91291,-4.14487c1.30507,-0.62993 3.01227,0.20446 3.81315,1.86367z" fill="#062c02" stroke-width="0" stroke-linecap="butt"/><path d="M275.43308,154.6614c0,6.22133 -1.76215,11.26472 -3.93586,11.26472c-2.17372,0 -3.93586,-5.04338 -3.93586,-11.26472c0,-6.22133 1.76215,-11.26472 3.93587,-11.26472c2.17372,0 3.93586,5.04338 3.93586,11.26472z" fill="#062c02" stroke-width="0" stroke-linecap="butt"/><path d="M242.95644,152.03918c0,0.91745 -0.56875,1.6612 -1.27033,1.6612c-0.70158,0 -1.27032,-0.74374 -1.27032,-1.6612c0,-0.91745 0.56874,-1.6612 1.27032,-1.6612c0.70158,0 1.27033,0.74374 1.27033,1.6612z" fill="#e6e6e6" stroke-width="0" stroke-linecap="butt"/><path d="M251.28086,147.7166c0,0.64734 -0.4013,1.17212 -0.89633,1.17212c-0.49502,0 -0.89633,-0.52478 -0.89633,-1.17212c0,-0.64734 0.4013,-1.17211 0.89633,-1.17211c0.49502,0 0.89633,0.52477 0.89633,1.17211z" fill="#e7fc5b" stroke-width="0" stroke-linecap="butt"/><path d="M235.39957,148.87316c2.54152,-2.10008 4.97565,-3.01738 7.81936,-1.76346c-0.20559,-0.50601 -0.41119,-0.99925 -0.66696,-1.29021c-1.40351,-1.59662 -5.38582,-2.01088 -6.61964,-0.00603c-0.56198,0.91317 -0.61244,1.99456 -0.53277,3.05969zM235.54142,151.28978c-0.07136,0.29589 -0.27664,0.72148 -0.86714,0.72148c-0.90517,0 -0.90517,-1 -0.90517,-1l0.00699,-0.29731c-0.22691,-2.00542 -0.47687,-4.23129 0.65716,-6.02174c1.93285,-3.05167 7.11755,-2.76258 9.39883,-0.28693c1.02654,1.114 1.63185,2.53856 1.89661,4.01958l0.24064,-0.07596l0.24852,0.96094c0.02637,0.09381 0.04057,0.19354 0.04057,0.29693c0,0.55228 -0.40526,1 -0.90517,1c-0.1902,0 -0.3667,-0.06481 -0.5124,-0.17553l-0.75249,-0.55421c-3.39728,-2.52685 -5.6243,-1.26375 -8.45323,1.34067c0,0 -0.03419,0.03148 -0.09372,0.07209z" fill="#000000" stroke-width="0.5" stroke-linecap="butt"/><path d="M235.88388,145.80116c1.23382,-2.00485 5.31298,-1.59088 6.71649,0.00574c0.25577,0.29096 0.46266,0.80239 0.66825,1.3084c-2.84371,-1.25392 -5.37104,-0.31758 -7.91256,1.7825c-0.07967,-1.06513 -0.03417,-2.18347 0.52781,-3.09664z" data-paper-data="{&quot;noHover&quot;:false,&quot;origItem&quot;:[&quot;Path&quot;,{&quot;applyMatrix&quot;:true,&quot;segments&quot;:[[[235.39957,148.87316],[-0.07967,-1.06513],[2.54152,-2.10008]],[[243.21894,147.1097],[-2.84371,-1.25392],[-0.20559,-0.50601]],[[242.55198,145.8195],[0.25577,0.29096],[-1.40351,-1.59662]],[[235.93234,145.81347],[1.23382,-2.00485],[-0.56198,0.91317]]],&quot;closed&quot;:true}]}" fill="#51b044" stroke-width="0.5" stroke-linecap="butt"/></g></g></svg>