<svg version="1.1" xmlns="http://www.w3.org/2000/svg" xmlns:xlink="http://www.w3.org/1999/xlink" width="282.28228" height="313.58587" viewBox="0,0,282.28228,313.58587"><g transform="translate(-105.61562,88.4985)"><g data-paper-data="{&quot;isPaintingLayer&quot;:true}" fill-rule="nonzero" stroke="none" stroke-linejoin="miter" stroke-miterlimit="10" stroke-dasharray="" stroke-dashoffset="0" style="mix-blend-mode: normal"><path d="M254.41639,165.16667c0.42135,0 0.78183,0.26059 0.92907,0.6294c0.08193,0.05659 0.1967,0.14986 0.29178,0.27981c0.07097,0.05173 0.11125,0.09202 0.11125,0.09202c3.23929,3.33354 6.72478,6.98354 10.3929,9.65711l-0.1,-0.2c0,0 0.71258,0 0.9347,0.60153c1.20632,-0.14276 2.26355,0.70011 3.65512,1.66139c0.48412,0.33443 -0.08982,-1.17451 -0.08982,-1.76291c0,-0.11345 -0.00338,-0.33154 -0.0043,-0.59929c-6.38731,-1.75671 -8.80531,-7.04612 -13.2028,-11.4436c0,0 -0.35462,-0.35462 -0.31047,-0.81272c-0.5751,-0.1808 -1.14377,-0.52723 -1.72496,-0.67424c-0.39458,-0.09981 -0.84821,-0.71355 -1.14205,-0.43194c-0.33317,0.3193 -0.04114,1.7721 0.02087,3.03213c0.07649,-0.01873 0.15645,-0.02867 0.23872,-0.02867zM264.94139,177.425c-3.70186,-2.88674 -7.17346,-6.48112 -10.60711,-9.84289c0,0 -0.03425,-0.03424 -0.08013,-0.0952c-0.21605,-0.03525 -0.40883,-0.13972 -0.55484,-0.28991l-0.06866,-0.03433c-1.47746,1.14887 -2.66018,0.03327 -4.0818,-0.31752c-0.00664,-0.00164 -1.32184,-0.34438 -1.92305,-0.62896c0.03614,0.83762 -0.59504,3.05429 -0.64653,3.25576c-0.74935,1.32226 -0.67197,1.97984 -2.547,1.89709c-0.45442,-0.02006 -1.23636,-0.35116 -1.77914,-0.70584c-0.13374,1.36114 -1.08765,3.89921 -1.21732,4.15902l-0.03526,0.04112c0.88602,0.94927 1.87099,1.80453 2.94927,2.49816c2.64655,1.70245 6.28565,3.20493 9.99601,4.00295c0.41394,-1.23071 0.95361,-2.52487 1.55113,-3.43666c0.35293,-0.53857 0.53689,-1.49541 1.1799,-1.52951c0.73458,-0.03895 4.63988,3.26731 5.54924,3.91548c0.39931,0.28462 0.51583,1.10658 1.00511,1.07415c0.00298,-0.00019 0.93572,-2.01249 0.97229,-2.10986c0.22147,-0.58969 0.33276,-1.21419 0.48402,-1.82648zM270.75318,173.25959c1.37869,-1.46688 2.97658,-0.16286 4.23542,0.47098c0.1436,0.07231 0.36711,0.18417 0.56867,0.30615c-0.02782,-0.31446 -0.01588,-0.68398 -0.01588,-0.91172c0,-1.3741 -0.00169,-2.74812 0.00749,-4.12219c0.24267,-0.57844 0.18372,-1.42352 0.72802,-1.73531c2.08653,-1.19522 4.37012,2.55449 5.4716,3.65039l0.28485,0.41132c4.0727,0.09785 5.35818,6.24766 4.18452,9.75965c-0.52992,1.58571 -1.10841,2.08865 -2.11581,3.3468c-1.76235,1.41112 -3.90304,2.66983 -6.02162,3.80059c0.09118,2.13742 -2.38714,4.6 -3.32821,5.77412c-1.57091,2.36051 -4.99671,5.38888 -7.33377,7.08149c-2.05554,1.48873 -3.3672,1.82918 -5.75334,2.02802c-6.83854,0.56988 -13.45534,-0.92879 -19.94775,-3.10907c-8.25239,-4.10439 -15.02917,-9.02212 -19.12789,-17.26342c-1.24134,1.2852 -1.68912,4.02482 -3.86431,3.57628c-0.74141,-0.15288 -1.56745,-1.57465 -2.2729,-2.91123c0.30028,1.41354 1.15577,2.86497 2.54623,4.25544c2.37188,2.37188 4.96042,3.7385 7.62761,5.64587c3.48035,2.48888 6.01454,7.49186 7.85317,11.21429c0.25185,0.98541 0.5959,2.07909 0.85611,3.19609c0.07366,-0.06368 0.12395,-0.09722 0.12395,-0.09722c1.60011,-1.06674 3.12376,-2.41299 5.09178,-2.73255c2.76567,-0.44908 7.25438,1.02561 9.8143,2.09481c1.4865,0.62087 2.65288,1.78338 4.29969,1.89093c0.94866,0.06196 2.73158,0.29942 3.58768,-0.28108c0.90197,-0.6116 1.90379,-2.79658 3.03859,-2.72403c1.02559,0.06556 1.54509,1.35545 2.31763,2.03317c1.3013,4.22758 -1.31669,7.56751 -4.77725,9.62534c2.00042,0.17821 3.96711,0.20656 5.95962,0.42196v-0.33047h2.25c0.82842,0 1.5,0.67157 1.5,1.5c0,0.47887 -0.2244,0.90533 -0.57378,1.17996l-1.23917,0.99134l-0.06373,-0.07966l-0.15649,0.22599c-2.29651,0.79801 -4.39341,1.49135 -6.79507,1.87185c-4.62073,2.00936 -10.3134,1.9456 -15.2781,1.55674c-2.83606,-0.22214 -5.81287,0.03534 -8.59091,-0.81446c-4.26156,-1.30359 -6.05986,-3.03071 -10.57841,-1.50875c-9.13987,3.01917 -23.29,4.04653 -30.43989,-3.52859l-0.2215,0.27687l-1.23917,-0.99134c-0.34938,-0.27463 -0.57378,-0.70109 -0.57378,-1.17996c0,-0.82843 0.67157,-1.5 1.5,-1.5c0.09375,0 0.18549,0.0086 0.27447,0.02506l1.37971,0.22995c1.85412,-0.00575 3.6852,0.09073 5.51595,-0.21829c3.03185,-0.87018 4.23669,-2.22265 6.7028,-4.00359c1.88522,-1.36144 4.21006,-1.79375 6.30304,-2.66895c2.51886,-1.05328 5.0236,-2.6997 7.61016,-3.54066c1.86758,-0.60719 4.08512,-0.36172 6.05692,-0.32729c-0.1505,-0.35452 -0.31265,-0.70446 -0.48748,-1.04902c-3.03155,-6.06311 -8.7455,-7.94847 -13.31268,-12.49011c-1.38662,-1.37886 -2.55763,-3.03276 -3.91309,-4.4644c-0.97153,-3.50391 -0.6175,-6.95279 1.12206,-9.87329c-0.89652,-0.42691 -3.12152,-0.83167 -3.45055,-1.80319c-0.29681,-0.87639 0.92677,-2.28625 1.39869,-2.91623c1.35485,-1.80862 2.85673,-3.05623 4.95306,-3.83788c0.13807,-0.05149 0.28868,-0.11279 0.44726,-0.17769c-1.89253,-1.26679 -3.06901,-3.73394 -3.34283,-6.01224c-0.06842,-0.56933 -0.04104,-2.93348 0.46678,-3.22284c0.58648,-0.33417 1.33037,0.24954 1.97295,0.45622c0.17806,0.05727 0.38452,0.14055 0.60985,0.2455c-0.05614,-1.66691 0.34853,-3.65805 1.94294,-3.85108c0.39944,-0.04836 2.24479,1.33118 3.42533,2.23806c0.18454,-0.48875 0.38799,-0.97256 0.60722,-1.45106c-0.66323,-0.5896 -1.36249,-1.29096 -2.02525,-1.66679c-0.65036,-0.36881 -1.54751,-0.29661 -2.09201,-0.80896c-0.48648,-0.45775 -1.22774,-0.9673 -1.16278,-1.63213c0.06882,-0.70424 0.91887,-1.08817 1.47176,-1.52976c1.92875,-1.5405 5.00037,-1.0951 7.26299,-0.21526c0.43243,-0.62131 0.86964,-1.22815 1.30191,-1.81947c0.02683,-0.03671 0.05355,-0.07333 0.08015,-0.10989l-0.26375,-0.30751c-0.60766,-1.31269 -2.50195,-3.22595 -3.65872,-4.11413c-0.69688,-0.53507 -2.14245,-0.22946 -2.41057,-1.06615c-0.41948,-1.30903 2.16509,-3.11247 3.09153,-3.25944c2.47984,-0.39339 6.90803,0.49701 9.59633,1.14517c0.00848,-0.00679 0.01697,-0.01357 0.02547,-0.02035c0.52214,-0.52356 1.0516,-1.01291 1.58881,-1.46928c-0.96521,-1.918 -2.29868,-3.53128 -3.4616,-5.28985l-0.08393,0.08393l-0.75,-0.75l0.25353,-0.25353c-0.16329,-0.27324 -0.32066,-0.55149 -0.4703,-0.83626l0.92388,-0.27536v-0.34196h1v0.04391l0.12219,-0.03642c3.82433,0.95609 7.04313,0.62666 10.17088,3.39939c0.80347,-0.24417 1.62337,-0.44162 2.46059,-0.59516c-0.006,-0.17546 0.0262,-0.30425 0.0262,-0.30425l0.22763,-0.87965c-0.01405,-2.11444 -0.5343,-3.85817 -0.73313,-5.90842c-0.06769,-0.69803 -0.51128,-1.57715 -0.0477,-2.10338c1.27186,-1.44375 2.58417,-0.01996 3.2788,0.72879c2.02098,2.17843 3.60811,4.88772 5.70165,6.94809c0,0 0.61709,0.61709 0.12185,1.27479c2.46205,0.1345 4.73441,0.08152 7.13644,0.65284c3.63489,-2.39599 10.78567,-4.91993 14.22667,-0.63102c0.81852,1.02022 1.18927,2.17964 1.23062,3.40207c0.48117,0.08005 0.72175,0.56121 0.72175,0.56121c0.65958,1.31915 3.47994,5.73055 2.76409,7.11507c-1.04901,2.0289 -3.81389,0.72975 -5.29311,0.87035c-0.82682,0.07859 0.38266,1.63125 0.38459,2.46179c0.00508,2.1909 0.30225,3.66538 -2.25,4c-0.47292,0 -3.91025,-0.19252 -5.03555,-0.63046c0.15498,0.55387 0.28555,1.44467 0.28555,1.88046c0,0.60852 -0.07579,3.2257 -0.46179,3.61541c-2.09988,2.12008 -3.76409,-1.34423 -5.37035,-0.7069c-0.1239,0.04916 -0.42649,3.22341 -0.47997,3.43843c-0.27339,0.54002 -0.57984,1.32385 -1.07816,1.84995c3.88109,3.95205 6.19419,8.9969 11.75624,10.66317c0.02609,-0.10624 0.05767,-0.18487 0.09584,-0.22548zM277.5339,169.24719c0.0056,0.65577 0.18539,2.34412 0.20295,3.89924c0.61133,-0.53918 1.28701,-1.00965 2.09256,-1.34966c-0.93091,-1.01136 -2.51825,-2.80815 -2.29551,-2.54958zM274.09418,175.51943c-0.33375,-0.16582 -0.67233,-0.32247 -1,-0.5c-0.27249,-0.14764 -0.88611,-0.81411 -0.76458,-0.52902c0.36781,0.86283 0.52058,2.44978 0.14944,3.68611c0.79843,-0.54545 1.55318,-1.16366 2.2517,-1.86218c0.10521,-0.10521 0.20876,-0.21171 0.31104,-0.31916c-0.36331,-0.16596 -0.69587,-0.3507 -0.94759,-0.47575zM266.91159,178.1177c-0.13555,0.67736 -0.38421,1.80475 -0.80046,2.84267c1.32835,-0.33793 2.62977,-0.78572 3.86839,-1.36491c-1.22213,-0.54032 -3.0378,-1.67031 -3.06793,-1.47776zM257.68053,178.72456c0.00794,0.03761 0.01059,0.0714 0.00529,0.09766c-0.13371,0.66226 -0.46777,1.26771 -0.70654,1.89973c-0.13805,0.36541 -0.29784,0.69908 -0.45839,1.02568c1.67494,0.2278 3.32766,0.29132 4.87289,0.14388c-1.58369,-1.11904 -2.84296,-1.46337 -3.71325,-3.16694zM240.79139,170.125c0.02054,-0.18609 -0.01576,-0.39584 -0.05795,-0.60624c-0.71947,0.39044 -1.44201,0.77065 -2.16762,1.13974c0.17837,0.36995 0.26824,0.81252 0.48907,1.15807c0.29447,0.46077 0.60836,0.91657 0.94121,1.36201c0.42325,-0.9877 0.67106,-1.92844 0.79529,-3.05358zM245.10351,168.77806c0.0748,-0.30768 0.2035,-1.13372 0.36211,-1.99294c-0.90966,0.55612 -1.82452,1.09846 -2.74455,1.62516c1.06342,0.51477 2.02944,1.43315 2.38244,0.36778zM251.13834,165.18712c0.3913,0.15091 0.99921,0.95247 1.12971,0.55389c0.25625,-0.7826 -0.09589,-2.1717 -0.05447,-3.37205c-1.05846,0.73503 -2.12458,1.45709 -3.19829,2.16293c0.90031,0.22818 1.74875,0.51088 2.12305,0.65523zM258.10351,160.27806c0.16163,-0.64133 0.16463,-1.54472 0.29716,-2.39566c-1.09333,0.823 -2.19554,1.63857 -3.30652,2.44282c1.21403,0.48291 2.22836,1.54731 3.00936,-0.04716zM263.38834,156.43712c0.3222,0.12534 0.95457,0.90634 0.86485,0.57247c-0.11442,-0.42575 -0.22014,-2.01929 -0.20638,-3.48603c-0.96369,0.75955 -1.93484,1.51859 -2.91338,2.27422c0.88869,0.18446 1.88333,0.49478 2.25491,0.63933zM271.04139,151.375c0.38563,0.21237 0.07528,-2.68484 0.22283,-4.56953c-1.26018,1.66036 -2.65282,3.07477 -3.78578,3.99083c-0.06736,0.05389 -0.13475,0.10779 -0.20218,0.1617c1.25123,0.13877 2.45691,0.41699 3.76514,0.41699zM275.29139,145.125c0.36482,0.00552 1.00874,0.43749 1.09149,0.08214c0.09936,-0.42673 -0.50454,-0.71836 -0.71809,-1.10093c-0.53178,-0.95267 -0.93806,-1.91913 -1.37011,-2.89367c-0.40152,1.31562 -1.05888,2.63703 -1.84179,3.88037c0.91854,-0.10703 2.29483,0.02388 2.8385,0.03209zM219.35762,184.42632c-0.01682,0.34613 0.1417,-0.68502 0.28934,-0.99853c0.17154,-0.36425 0.32484,-0.74063 0.54378,-1.07852c0.3863,-0.59616 0.9281,-1.09829 1.5285,-1.49839c-0.02131,-0.0505 -0.04254,-0.10112 -0.06367,-0.15185c-0.55109,-1.32309 -0.86167,-2.68824 -1.15613,-4.05705c-1.80371,0.9472 -3.01155,2.11444 -3.64393,3.40195c0.70977,0.95038 2.55549,3.28377 2.50211,4.38238zM216.73495,158.73266c0.02953,0.24339 0.05109,0.49321 0.05644,0.64235c0.02121,0.58977 -0.1535,1.19387 -0.02675,1.77024c0.01548,0.07036 0.03459,0.13694 0.05705,0.20009c0.47787,0.36626 0.92343,0.76423 1.27292,1.16491c0.26738,0.1347 0.54179,0.26557 0.79091,0.42755c0.0432,-0.43347 0.10095,-0.86776 0.17525,-1.30307c0.0686,-0.40195 0.15331,-0.8013 0.25256,-1.19786c-0.74329,-0.42373 -2.07081,-1.05301 -2.57837,-1.70422zM218.56164,165.34825c-1.16796,0.06172 -2.07919,-1.30224 -2.91796,-2.25356c-0.06608,-0.06621 -0.12995,-0.13607 -0.19131,-0.21026c-0.1671,-0.17691 -0.33182,-0.33133 -0.49568,-0.44819c-0.12024,-0.08575 -0.82268,-0.31333 -1.36538,-0.59889c0.06385,0.50698 0.08548,1.05669 0.13797,1.19071c0.85504,2.18285 1.50254,4.35443 4.1843,4.35443l0.10806,0.07151l0.01229,-0.04915l0.86023,0.21506c-0.06423,-0.76434 -0.10518,-1.52923 -0.11166,-2.2957c-0.0728,0.01189 -0.14638,0.0201 -0.22086,0.02403zM219.01363,169.60022l-0.9797,0.24493l-0.05094,-0.20376c-2.47664,1.1305 -4.89662,1.42725 -6.8916,4.08361c-0.30929,0.41183 -1.04915,0.57137 -1.10131,1.08377c-0.01406,0.13809 0.26003,-0.13434 0.39826,-0.12166c0.8473,0.07777 1.34619,0.42099 2.10027,0.79346l0.05279,-0.10557c0,0 0.14477,0 0.32414,0.05508c0.66655,-0.76021 1.44648,-1.46929 2.34115,-2.11632c1.27893,-0.92494 2.79144,-1.45958 4.09135,-2.28715c-0.06881,-0.48395 -0.13494,-0.96751 -0.19557,-1.45094c-0.02904,0.0095 -0.05868,0.0177 -0.08883,0.02454zM219.41358,152.36751c-0.36048,0.03559 -1.04656,0.49502 -1.57617,0.63183c0.20962,0.06649 0.42418,0.14187 0.55093,0.18778c0.37264,0.13496 0.8021,0.12026 1.14575,0.31768c0.64339,0.36962 1.31784,0.99783 1.96531,1.57347c0.43357,-0.78966 0.901,-1.56267 1.38682,-2.31728c-1.10829,-0.37301 -2.2683,-0.51238 -3.47264,-0.39348zM223.4705,142.37249c-0.51587,-0.04588 -1.19416,-0.34052 -1.55338,0.03256c-0.09035,0.09383 -0.20238,0.24327 -0.31846,0.38676c0.36329,0.01299 0.78888,0.10868 0.99588,0.25011c0.39741,0.27152 0.56111,0.78817 0.90396,1.12598c1.11347,1.0971 2.29761,1.95416 3.13363,3.2417c1.05669,-1.50633 2.0362,-2.8952 3.30825,-4.21665c-2.1255,-0.39747 -4.40066,-0.63643 -6.46988,-0.82045zM232.5315,134.73088c0.97835,1.19152 1.96404,3.0766 2.45746,4.05417c1.26399,-0.89785 2.57058,-1.62985 3.92476,-2.21102c-1.97804,-1.3997 -4.08449,-1.49043 -6.38222,-1.84315zM246.28594,129.7802c-0.08424,-0.09828 -0.6088,-0.7471 -1.0649,-1.36204c0.01456,0.08632 0.02704,0.16052 0.0405,0.21431c0.48338,1.9324 0.53322,3.62713 0.52236,5.61472l-0.15807,0.6502c1.51288,-0.14653 3.08098,-0.16607 4.70927,-0.0736c-1.46062,-1.5488 -2.65416,-3.41608 -4.04917,-5.04359zM254.79054,216.12501c2.35261,-0.84123 7.00752,-3.43437 6.31434,-6.3736c-0.20986,0.43461 -0.62403,0.9994 -1.27489,1.39957c-1.5131,0.93031 -3.70747,0.88289 -5.41232,0.71892c-4.31573,-0.41509 -8.73067,-4.82721 -13.386,-4.01426c-0.884,0.15437 -1.71003,0.67598 -2.48736,1.23705c2.86035,-0.13079 6.10751,0.14305 8.35865,1.16266c2.79579,1.2663 4.49356,4.47263 7.09913,6.07752c0.37726,-0.20229 0.76782,-0.20771 0.78845,-0.20785zM254.76866,216.1328l-0.20161,0.06918c0.06502,-0.02149 0.13229,-0.04456 0.20161,-0.06918zM228.54139,208.125c-1.68682,0 -3.91339,-0.3837 -5.53614,0.17648c-2.51481,0.86812 -4.92156,2.43434 -7.38984,3.45934c-1.85393,0.76988 -4.04004,1.11524 -5.69696,2.33105c-2.7446,2.01391 -4.39213,3.52743 -7.79719,4.49641c-1.0152,0.16756 -2.02043,0.24131 -3.02768,0.27172c0.43254,0.40586 0.83611,0.76649 1.16464,0.94737c1.12709,0.62056 2.75786,0.89476 4.01255,1.08527c6.81955,1.03549 13.47154,1.02388 20.04628,-1.19066c5.16204,-1.70517 7.59886,-0.00356 12.42159,1.49125c2.53635,0.78615 5.31541,0.48943 7.90909,0.68554c4.56751,0.34535 9.5778,0.40419 13.87639,-1.30166c-1.21414,-0.13593 -2.31635,-0.32664 -3.06376,-0.47791c-4.47851,-0.9064 -6.01454,-5.38258 -9.78053,-7.10454c-2.52859,-1.15617 -6.95731,-1.09759 -9.64183,-0.64007l-0.60925,0.01665c-0.62222,1.65072 -2.91011,3.35911 -4.66308,2.10441c-1.33211,-0.95347 -0.81967,-1.57701 -0.96678,-2.72846c-0.15968,-1.24992 -0.37915,-2.50298 -0.69514,-3.73002c-0.30301,0.10783 -0.56235,0.10783 -0.56235,0.10783zM211.5339,182.74719c-0.167,1.3332 0.36167,2.13866 0.62769,3.38511c1.34947,1.23148 2.31593,2.75613 3.58691,4.0356c1.34259,1.35156 3.22715,2.35854 4.81862,3.35646c3.6899,2.31372 6.94869,5.81341 8.8687,9.65344c1.15585,2.3401 1.7771,4.75715 2.09808,7.32503c0.09465,0.75715 -0.41619,1.96648 0.28322,2.27154c0.71693,0.3127 1.59151,-0.40375 1.75102,-1.12911c0.45362,-2.06271 -0.48522,-4.45144 -0.96463,-6.4233c-1.69688,-3.34413 -3.98706,-8.0323 -7.14683,-10.28571c-2.75862,-1.96732 -5.41721,-3.39895 -7.8724,-5.85413c-0.72057,-0.72057 -1.90371,-1.59106 -2.41309,-2.4644c-2.80546,-4.80996 0.21053,-9.6559 4.67299,-11.88713l0.21375,-0.07382c-0.11877,-0.48865 -0.24941,-0.97539 -0.40226,-1.45844c-3.61504,2.38721 -7.48651,4.47748 -8.12177,9.54888zM273.87057,187.03336c2.63155,-1.29775 5.8113,-2.88236 8.11016,-4.71902c1.5859,-1.98501 1.69776,-3.48482 1.33107,-5.94274c-0.1495,-1.00206 -0.65315,-2.71725 -2.15884,-1.87694c-1.92113,1.07217 -2.78605,2.42615 -4.3009,3.941c-3.28772,3.28772 -7.73808,5.16155 -12.23079,5.90262c-7.08628,1.97701 -17.58372,-1.01178 -23.26692,-5.54198c-2.42636,-1.9341 -3.87993,-4.14687 -5.47946,-6.72829c-0.47445,-0.76569 -1.75377,-1.32667 -1.5602,-2.20639c0.20767,-0.94381 1.60178,-1.08163 2.40267,-1.62245c10.26512,-5.16342 19.91779,-12.61013 28.88698,-19.78548c2.57169,-2.03053 4.89094,-5.23398 5.73127,-8.44028c0.21187,-0.80839 0.34521,-2.4962 -0.23629,-3.22793c-1.91849,-2.41411 -6.36126,-0.82065 -8.99009,0.59981c3.65701,2.93169 0.72919,7.86504 -1.85702,11.12508c-3.18692,4.69539 -8.66197,7.82443 -13.494,10.43225c-5.36423,2.89505 -10.44194,6.46264 -15.9084,9.19587c-0.525,0.41944 -1.41881,0.59793 -1.58173,1.24986c-0.1709,0.68389 0.90769,1.08391 1.2868,1.6782c0.88184,1.38236 1.6231,2.57139 2.6578,3.87138c1.31781,1.65568 2.13966,3.59775 3.63935,5.12638c0.68588,0.69911 1.67285,1.01925 2.49777,1.54716c3.55511,2.27514 7.2526,5.19821 11.38488,6.33051c4.23331,1.42444 8.85273,0.54877 13.18296,0.18811c2.1438,-0.17855 4.2441,0.12464 6.37712,-0.2347c0.64934,-0.1094 2.09838,-0.53945 3.55474,-0.84458zM258.99409,138.61983c-2.71821,-0.77657 -5.23143,-0.53481 -8.05904,-0.7486c-6.83925,-0.51712 -12.18693,0.92738 -17.14328,5.87147c-2.75731,2.21202 -4.00753,4.4605 -6.03955,7.26769c-2.34073,3.23365 -5.07313,7.03879 -5.7302,11.1049c-0.55608,3.44116 0.00414,6.75137 0.47924,10.1651c0.80237,2.39962 0.94315,4.91287 1.92595,7.2706c3.65366,8.76517 10.24233,13.56562 18.43821,17.68821c6.05946,2.00261 12.18564,3.42148 18.55225,2.89093c1.8109,-0.15091 3.67257,-0.07008 5.24666,-1.22198c2.08473,-1.52558 3.75351,-4.05289 5.16623,-6.16851c0.20423,-0.25573 0.93414,-1.37018 1.69476,-2.31797c-1.387,0.32333 -2.97836,0.58315 -4.36021,0.69824c-5.98966,0.49888 -13.53066,1.60054 -19.31704,-0.31189c-4.85708,-1.43364 -11.48345,-5.03908 -15.11734,-8.62233c-1.61352,-1.59103 -2.4693,-3.64418 -3.86065,-5.37362c-1.41075,-1.75356 -4.9645,-5.50355 -4.55539,-7.95042c0.22178,-1.32644 1.97371,-2.49382 2.91827,-3.25013c5.53446,-2.76723 10.68213,-6.32595 16.0916,-9.30413c4.37753,-2.41004 9.66315,-5.20983 12.506,-9.56775c1.23051,-1.52372 4.85697,-6.21106 2.04001,-7.27298l-0.63984,-0.53098c0,0 -0.11847,-0.11848 -0.23664,-0.31583z" fill="#000000" stroke-width="0.5" stroke-linecap="butt"/><path d="M279.95723,171.82014c-0.80555,0.34 -1.54693,0.83225 -2.15826,1.37143c-0.01756,-1.55512 -0.20117,-3.33173 -0.20677,-3.98749c-0.22274,-0.25858 1.43412,1.60471 2.36503,2.61607z" data-paper-data="{&quot;noHover&quot;:false,&quot;origItem&quot;:[&quot;Path&quot;,{&quot;applyMatrix&quot;:true,&quot;segments&quot;:[[[555.23502,338.49437],[-0.44548,-0.51715],[0.01119,1.31154]],[[555.64092,346.29284],[-0.03511,-3.11024],[1.22265,-1.07835]],[[559.82605,343.59353],[-1.6111,0.68001],[-1.86182,-2.02271]]],&quot;closed&quot;:true}]}" fill="#ffffff" stroke-width="0.5" stroke-linecap="butt"/><path d="M275.17419,175.98433c-0.10228,0.10745 -0.20465,0.22556 -0.30986,0.33077c-0.69852,0.69852 -1.53017,1.35812 -2.3286,1.90357c0.37115,-1.23633 0.21539,-2.9055 -0.15242,-3.76833c-0.12153,-0.2851 0.50122,0.37597 0.77372,0.52361c0.32767,0.17753 0.71057,0.33558 1.04432,0.50139c0.25173,0.12506 0.60953,0.34303 0.97284,0.509z" data-paper-data="{&quot;noHover&quot;:false,&quot;origItem&quot;:[&quot;Path&quot;,{&quot;applyMatrix&quot;:true,&quot;segments&quot;:[[[548.35557,351.03885],[0.50345,0.25012],[-0.66751,-0.33163]],[[546.35557,350.03885],[0.65535,0.35506],[-0.54499,-0.29527]],[[544.82641,348.98082],[-0.24306,-0.57019],[0.73562,1.72566]],[[545.12528,356.35304],[0.74229,-2.47267],[1.59686,-1.0909]],[[549.62868,352.62868],[-1.39704,1.39704],[0.21041,-0.21041]],[[550.25076,351.99036],[-0.20456,0.2149],[-0.72662,-0.33193]]],&quot;closed&quot;:true}]}" fill="#ffffff" stroke-width="0.5" stroke-linecap="butt"/><path d="M270.1131,179.5972c-1.23862,0.57919 -2.6302,1.055 -3.95855,1.39293c0.41625,-1.03792 0.67377,-2.23404 0.80933,-2.9114c0.03012,-0.19255 1.9271,0.97815 3.14922,1.51847z" data-paper-data="{&quot;noHover&quot;:false,&quot;origItem&quot;:[&quot;Path&quot;,{&quot;applyMatrix&quot;:true,&quot;segments&quot;:[[[533.9904,356.2354],[0.06024,-0.38511],[-0.2711,1.35471]],[[532.38947,361.92075],[0.83251,-2.07584],[2.6567,-0.67586]],[[540.12625,359.19092],[-2.47724,1.15839],[-2.44425,-1.08064]]],&quot;closed&quot;:true}]}" fill="#ffffff" stroke-width="0.5" stroke-linecap="butt"/><path d="M261.51962,181.91827c-1.54523,0.14744 -3.28353,0.08207 -4.95848,-0.14574c0.16055,-0.32659 0.31456,-0.67588 0.45261,-1.04129c0.23877,-0.63202 0.58995,-1.28518 0.72366,-1.94744c0.0053,-0.02626 0.00375,-0.06093 -0.00419,-0.09855c0.87029,1.70358 2.20271,2.11396 3.7864,3.233z" data-paper-data="{&quot;noHover&quot;:false,&quot;origItem&quot;:[&quot;Path&quot;,{&quot;applyMatrix&quot;:true,&quot;segments&quot;:[[[515.52827,357.44911],[1.74059,3.40715],[0.01588,0.07523]],[[515.53885,357.64443],[0.0106,-0.05252],[-0.26741,1.32452]],[[514.12577,361.44389],[0.47754,-1.26405],[-0.2761,0.73082]],[[513.20899,363.49524],[0.32109,-0.65319],[3.34989,0.4556]],[[522.95477,363.783],[-3.09046,0.29488],[-3.16737,-2.23809]]],&quot;closed&quot;:true}]}" fill="#ffffff" stroke-width="0.5" stroke-linecap="butt"/><path d="M240.08818,173.22786c-0.33285,-0.44544 -0.69527,-0.92061 -0.98974,-1.38137c-0.22083,-0.34555 -0.31316,-0.84434 -0.49153,-1.21429c0.72561,-0.36909 1.51559,-0.76634 2.23506,-1.15678c0.04219,0.21041 0.08716,0.42646 0.06662,0.61255c-0.12422,1.12515 -0.39717,2.1522 -0.82041,3.13989z" data-paper-data="{&quot;noHover&quot;:false,&quot;origItem&quot;:[&quot;Path&quot;,{&quot;applyMatrix&quot;:true,&quot;segments&quot;:[[[481.75,340.25],[-0.24845,2.25029],[0.04109,-0.37218]],[[481.6341,339.03752],[0.08439,0.42081],[-1.43893,0.78088]],[[477.29886,341.317],[1.45121,-0.73819],[0.35675,0.7399]],[[478.27701,343.63314],[-0.44167,-0.6911],[0.58894,0.92153]],[[480.15942,346.35716],[-0.6657,-0.89088],[0.84649,-1.9754]]],&quot;closed&quot;:true}]}" fill="#ffffff" stroke-width="0.5" stroke-linecap="butt"/><path d="M242.75651,168.4237c0.92003,-0.5267 1.92012,-1.11603 2.82978,-1.67215c-0.15861,0.85922 -0.28423,1.74863 -0.35903,2.05631c-0.353,1.06537 -1.40732,0.1306 -2.47075,-0.38417z" data-paper-data="{&quot;noHover&quot;:false,&quot;origItem&quot;:[&quot;Path&quot;,{&quot;applyMatrix&quot;:true,&quot;segments&quot;:[[[490.37423,337.55611],[-0.70601,2.13074],[0.14961,-0.61537]],[[491.09846,333.57023],[-0.31722,1.71843],[-1.81932,1.11223]],[[485.60935,336.82055],[1.84006,-1.0534],[2.12685,1.02953]]],&quot;closed&quot;:true}]}" fill="#ffffff" stroke-width="0.5" stroke-linecap="butt"/><path d="M249.05041,164.54411c1.07371,-0.70584 2.22126,-1.47773 3.27972,-2.21276c-0.04142,1.20035 0.31256,2.66298 0.05631,3.44558c-0.1305,0.39857 -0.75393,-0.39276 -1.14523,-0.54367c-0.3743,-0.14435 -1.29049,-0.46097 -2.1908,-0.68915z" data-paper-data="{&quot;noHover&quot;:false,&quot;origItem&quot;:[&quot;Path&quot;,{&quot;applyMatrix&quot;:true,&quot;segments&quot;:[[[502.44389,330.37423],[-0.7486,-0.28871],[0.78261,0.30183]],[[504.70332,331.48202],[-0.26101,0.79715],[0.51249,-1.56521]],[[504.59437,324.73792],[-0.08284,2.4007],[-2.11691,1.47006]],[[498.19779,329.06377],[2.14742,-1.41167],[1.80062,0.45637]]],&quot;closed&quot;:true}]}" fill="#ffffff" stroke-width="0.5" stroke-linecap="butt"/><path d="M255.13299,160.34749c1.11098,-0.80425 2.29366,-1.67709 3.38699,-2.50009c-0.13253,0.85094 -0.12783,1.81414 -0.28946,2.45548c-0.781,1.59447 -1.8835,0.52752 -3.09753,0.04461z" data-paper-data="{&quot;noHover&quot;:false,&quot;origItem&quot;:[&quot;Path&quot;,{&quot;applyMatrix&quot;:true,&quot;segments&quot;:[[[516.37423,320.55611],[-1.562,3.18893],[0.32326,-1.28267]],[[516.96854,315.76479],[-0.26506,1.70188],[-2.18666,1.646]],[[510.35551,320.65043],[2.22196,-1.60849],[2.42806,0.96582]]],&quot;closed&quot;:true}]}" fill="#ffffff" stroke-width="0.5" stroke-linecap="butt"/><path d="M261.16933,155.81273c0.97854,-0.75563 2.02756,-1.5695 2.99124,-2.32904c-0.01376,1.46673 0.09554,3.13706 0.20996,3.56281c0.08972,0.33387 -0.55029,-0.44139 -0.87249,-0.56672c-0.37158,-0.14455 -1.44002,-0.48259 -2.32871,-0.66704z" data-paper-data="{&quot;noHover&quot;:false,&quot;origItem&quot;:[&quot;Path&quot;,{&quot;applyMatrix&quot;:true,&quot;segments&quot;:[[[526.94389,312.87423],[-0.74317,-0.2891],[0.6444,0.25067]],[[528.67359,314.01918],[0.17945,0.66774],[-0.22883,-0.85149]],[[528.26083,307.04713],[-0.02752,2.93346],[-1.92738,1.51909]],[[522.43407,311.59557],[1.95707,-1.51126],[1.77737,0.36891]]],&quot;closed&quot;:true}]}" fill="#ffffff" stroke-width="0.5" stroke-linecap="butt"/><path d="M267.32332,150.99213c0.06743,-0.05391 0.20763,-0.17636 0.27499,-0.23024c1.13296,-0.91606 2.52216,-2.33377 3.78235,-3.99412c-0.14754,1.88468 0.16065,4.85908 -0.22498,4.64672c-1.30822,0 -2.58113,-0.28358 -3.83236,-0.42235z" data-paper-data="{&quot;noHover&quot;:false,&quot;origItem&quot;:[&quot;Path&quot;,{&quot;applyMatrix&quot;:true,&quot;segments&quot;:[[[542.25,302.75],[-2.61645,0],[0.77125,0.42473]],[[542.69565,293.61094],[-0.29509,3.76937],[-2.52037,3.32071]],[[535.12409,301.59261],[2.26592,-1.83212],[-0.13471,0.10777]],[[534.71972,301.91601],[0.13487,-0.10783],[2.50246,0.27754]]],&quot;closed&quot;:true}]}" fill="#ffffff" stroke-width="0.5" stroke-linecap="butt"/><path d="M272.4997,145.12676c0.78291,-1.24334 1.47396,-2.6485 1.87548,-3.96412c0.43205,0.97454 0.88305,2.01861 1.41483,2.97128c0.21355,0.38258 0.81149,0.68157 0.71212,1.10829c-0.08274,0.35535 -0.74104,-0.06645 -1.10585,-0.07196c-0.54368,-0.00822 -1.97805,-0.15052 -2.89658,-0.04349z" data-paper-data="{&quot;noHover&quot;:false,&quot;origItem&quot;:[&quot;Path&quot;,{&quot;applyMatrix&quot;:true,&quot;segments&quot;:[[[550.75,290.25],[-1.08736,-0.01643],[0.72963,0.01103]],[[552.93297,290.41429],[-0.16549,0.7107],[0.19873,-0.85345]],[[551.49679,288.21242],[0.4271,0.76515],[-1.06356,-1.90534]],[[548.75657,282.42508],[0.86411,1.94908],[-0.80304,2.63124]],[[545.07299,290.18581],[1.56581,-2.48667],[1.83707,-0.21406]]],&quot;closed&quot;:true}]}" fill="#ffffff" stroke-width="0.5" stroke-linecap="butt"/><path d="M223.01668,152.74353c-0.48582,0.75462 -0.96824,1.58362 -1.40181,2.37328c-0.64747,-0.57564 -1.40241,-1.25399 -2.0458,-1.6236c-0.34366,-0.19743 -0.77286,-0.18375 -1.1455,-0.31871c-0.12675,-0.04591 -0.34109,-0.12207 -0.55071,-0.18856c0.52961,-0.13681 1.2349,-0.62359 1.59537,-0.65919c1.20434,-0.1189 2.44016,0.04377 3.54845,0.41678z" data-paper-data="{&quot;noHover&quot;:false,&quot;origItem&quot;:[&quot;Path&quot;,{&quot;applyMatrix&quot;:true,&quot;segments&quot;:[[[438.99437,304.73502],[2.40868,-0.2378],[-0.72095,0.07118]],[[435.84204,305.99868],[1.05921,-0.27362],[0.41924,0.13298]],[[436.94389,306.37423],[-0.2535,-0.09182],[0.74528,0.26993]],[[439.2354,307.0096],[-0.68731,-0.39485],[1.28678,0.73923]],[[443.16601,310.15654],[-1.29493,-1.15128],[0.86714,-1.57932]],[[445.93965,305.52198],[-0.97163,1.50923],[-2.21658,-0.74602]]],&quot;closed&quot;:true}]}" fill="#89bc7d" stroke-width="0.5" stroke-linecap="butt"/><path d="M230.0706,143.17483c-1.27205,1.32145 -2.2824,2.77589 -3.33909,4.28221c-0.83603,-1.28754 -2.08402,-2.20573 -3.19749,-3.30283c-0.34285,-0.33781 -0.50211,-0.86514 -0.89953,-1.13666c-0.207,-0.14143 -0.63392,-0.23457 -0.99722,-0.24756c0.11607,-0.14349 0.23071,-0.29762 0.32106,-0.39145c0.35923,-0.37308 1.04563,-0.08833 1.5615,-0.04245c2.06922,0.18402 4.42526,0.44128 6.55076,0.83875z" data-paper-data="{&quot;noHover&quot;:false,&quot;origItem&quot;:[&quot;Path&quot;,{&quot;applyMatrix&quot;:true,&quot;segments&quot;:[[[447.10822,284.74497],[4.13844,0.36805],[-1.03174,-0.09176]],[[444.00145,284.81008],[0.71845,-0.74615],[-0.1807,0.18766]],[[443.36453,285.5836],[0.23215,-0.28698],[0.72659,0.02599]],[[445.35629,286.08383],[-0.414,-0.28286],[0.79483,0.54304]],[[447.16421,288.33579],[-0.6857,-0.67562],[2.22694,2.19421]],[[453.43148,294.81918],[-1.67206,-2.57508],[2.11338,-3.01265]],[[460.04798,286.38588],[-2.54411,2.64291],[-4.251,-0.79494]]],&quot;closed&quot;:true}]}" fill="#89bc7d" stroke-width="0.5" stroke-linecap="butt"/><path d="M239.04724,136.57115c-1.35418,0.58118 -2.7277,1.36307 -3.99169,2.26092c-0.49341,-0.97757 -1.5043,-2.93648 -2.48265,-4.12799c2.29773,0.35272 4.4963,0.46738 6.47434,1.86708z" data-paper-data="{&quot;noHover&quot;:false,&quot;origItem&quot;:[&quot;Path&quot;,{&quot;applyMatrix&quot;:true,&quot;segments&quot;:[[[465.23021,269.46176],[4.59545,0.70544],[1.9567,2.38304]],[[470.14513,277.5701],[-0.98683,-1.95514],[2.52798,-1.7957]],[[477.99465,273.14806],[-2.70836,1.16235],[-3.95607,-2.79939]]],&quot;closed&quot;:true}]}" fill="#89bc7d" stroke-width="0.5" stroke-linecap="butt"/><path d="M250.45013,134.86269c-1.62829,-0.09247 -3.25548,-0.07018 -4.76836,0.07636l0.15523,-0.65224c0.01085,-1.98759 -0.04045,-3.76038 -0.52383,-5.69277c-0.01345,-0.05379 -0.02493,-0.12879 -0.03949,-0.21511c0.4561,0.61495 1.04274,1.34216 1.12698,1.44044c1.39501,1.62751 2.58885,3.49454 4.04948,5.04334z" data-paper-data="{&quot;noHover&quot;:false,&quot;origItem&quot;:[&quot;Path&quot;,{&quot;applyMatrix&quot;:true,&quot;segments&quot;:[[[492.73909,259.5604],[2.79002,3.25502],[-0.16848,-0.19656]],[[490.6093,256.83631],[0.9122,1.22989],[0.02912,0.17265]],[[490.69029,257.26493],[-0.02691,-0.10757],[0.96677,3.86479]],[[491.73502,268.49437],[0.02171,-3.97519],[0,0]],[[491.41888,269.79478],[0,0],[3.02576,-0.29306]],[[500.83743,269.64758],[-3.25658,-0.18494],[-2.92125,-3.0976]]],&quot;closed&quot;:true}]}" fill="#89bc7d" stroke-width="0.5" stroke-linecap="butt"/><path d="M219.73195,173.14885c0.15285,0.48305 0.29766,1.06878 0.41644,1.55743l-0.21316,0.07373c-4.46246,2.23123 -7.44803,7.0604 -4.64256,11.87035c0.50939,0.87334 1.69396,1.74208 2.41454,2.46266c2.45519,2.45519 5.11605,3.88368 7.87467,5.851c3.15976,2.25341 5.44009,6.95245 7.13697,10.29658c0.47941,1.97186 1.41192,4.36501 0.9583,6.42772c-0.15951,0.72536 -1.03832,1.44403 -1.75525,1.13133c-0.69941,-0.30506 -0.2325,-1.60421 -0.32715,-2.36136c-0.32099,-2.56788 -0.9474,-4.98188 -2.10325,-7.32198c-1.92001,-3.84002 -5.19941,-7.28628 -8.88931,-9.6c-1.59148,-0.99792 -3.47363,-2.03612 -4.81623,-3.38768c-1.27097,-1.27946 -2.23301,-2.81242 -3.58248,-4.0439c-0.26602,-1.24645 -0.78961,-2.05839 -0.62261,-3.39159c0.63525,-5.0714 4.53603,-7.17709 8.15107,-9.56431z" data-paper-data="{&quot;noHover&quot;:false,&quot;origItem&quot;:[&quot;Path&quot;,{&quot;applyMatrix&quot;:true,&quot;segments&quot;:[[[423.23502,365.49437],[1.2705,-10.1428],[-0.334,2.6664]],[[424.4904,372.2646],[-0.53204,-2.49291],[2.69893,2.46296]],[[431.66421,380.33579],[-2.54194,-2.55893],[2.68519,2.70313]],[[441.30146,387.0487],[-3.18295,-1.99584],[7.37979,4.62743]],[[459.03885,406.35557],[-3.84002,-7.68004],[2.3117,4.6802]],[[463.23502,421.00563],[-0.64197,-5.13576],[0.18929,1.5143]],[[463.80146,425.5487],[-1.39881,-0.61012],[1.43385,0.6254]],[[467.3035,423.29049],[-0.31903,1.45072],[0.90724,-4.12543]],[[465.37423,410.44389],[0.95882,3.94371],[-3.39376,-6.68826]],[[451.08058,389.87248],[6.31953,4.50682],[-5.51724,-3.93465]],[[435.33579,378.16421],[4.91037,4.91037],[-1.44115,-1.44115]],[[430.5096,373.2354],[1.01877,1.74668],[-5.61093,-9.61991]],[[439.85557,349.46115],[-8.92492,4.46246],[0,0]],[[440.28308,349.3135],[0,0],[-0.23754,-0.97731]],[[439.47855,346.39661],[0.3057,0.9661],[-7.23007,4.77443]]],&quot;closed&quot;:true}]}" fill="#832fa2" stroke-width="0.5" stroke-linecap="butt"/><path d="M216.89025,180.03337c0.63239,-1.28751 1.90384,-2.49197 3.70755,-3.43917c0.29445,1.36881 0.64021,2.78447 1.1913,4.10756c0.02113,0.05074 0.0421,0.10437 0.06341,0.15487c-0.6004,0.4001 -1.16924,0.94107 -1.55554,1.53723c-0.21894,0.33788 -0.38862,0.71929 -0.56016,1.08354c-0.14765,0.31351 -0.3115,1.34504 -0.29468,0.99892c0.05338,-1.09861 -1.84212,-3.49257 -2.55189,-4.44294z" data-paper-data="{&quot;noHover&quot;:false,&quot;origItem&quot;:[&quot;Path&quot;,{&quot;applyMatrix&quot;:true,&quot;segments&quot;:[[[438.88246,368.85263],[0.10677,-2.19723],[-0.03364,0.69225]],[[439.46115,366.85557],[-0.29529,0.62702],[0.34307,-0.72849]],[[440.5487,364.69854],[-0.43788,0.67576],[0.77261,-1.19231]],[[443.60571,361.70176],[-1.20081,0.8002],[-0.04263,-0.101]],[[443.47836,361.39805],[0.04226,0.10147],[-1.10218,-2.64619]],[[441.16611,353.28395],[0.5889,2.73761],[-3.60742,1.8944]],[[433.87824,360.08786],[1.26478,-2.57502],[1.41954,1.90075]]],&quot;closed&quot;:true}]}" fill="#3fab29" stroke-width="0.5" stroke-linecap="butt"/><path d="M219.22776,169.54807c0.06063,0.48343 0.13266,0.97925 0.20147,1.46319c-1.29991,0.82756 -2.83088,1.41821 -4.10981,2.34314c-0.89467,0.64703 -1.72983,1.3581 -2.39639,2.11831c-0.17937,-0.05508 -0.32773,-0.05749 -0.32773,-0.05749l-0.05256,0.10574c-0.75408,-0.37247 -1.26808,-0.73346 -2.11538,-0.81123c-0.13823,-0.01269 -0.41263,0.25913 -0.39857,0.12104c0.05217,-0.5124 0.78954,-0.67798 1.09883,-1.08981c1.99498,-2.65636 4.50016,-3.00178 6.97681,-4.13228l0.05232,0.20543l0.98203,-0.24173c0.03015,-0.00684 0.05993,-0.01482 0.08898,-0.02432z" data-paper-data="{&quot;noHover&quot;:false,&quot;origItem&quot;:[&quot;Path&quot;,{&quot;applyMatrix&quot;:true,&quot;segments&quot;:[[[438.19448,339.20043],[0.0603,-0.01368],[0,0]],[436.23507,339.69029],[[436.13319,339.28277],[0,0],[-4.95329,2.261]],[[422.35,347.45],[3.98996,-5.31273],[-0.61859,0.82367]],[[420.14737,349.61754],[0.10434,-1.0248],[-0.02812,0.27619]],[[420.94389,349.37423],[-0.27646,-0.02538],[1.69459,0.15554]],[[425.14443,350.96115],[-1.50816,-0.74493],[0,0]],[425.25,350.75],[[425.89829,350.86017],[-0.35875,-0.11017],[1.33311,-1.52042]],[[430.58058,346.62752],[-1.78934,1.29407],[2.55786,-1.84987]],[[438.76328,342.05323],[-2.59982,1.65513],[-0.13762,-0.96789]],[[438.37214,339.15134],[0.12126,0.96687],[-0.05809,0.019]]],&quot;closed&quot;:true}]}" fill="#3fab29" stroke-width="0.5" stroke-linecap="butt"/><path d="M218.91479,165.33563c0.00648,0.76647 0.03254,1.55679 0.09677,2.32113l-0.86621,-0.21036l-0.01277,0.04946l-0.10876,-0.07107c-2.68176,0 -3.3973,-2.24192 -4.25235,-4.42477c-0.05249,-0.13402 -0.0665,-0.69255 -0.13036,-1.19954c0.5427,0.28556 1.25447,0.50639 1.37471,0.59214c0.16386,0.11686 0.33335,0.26893 0.50045,0.44584c0.06136,0.0742 0.12772,0.14306 0.19379,0.20928c0.83877,0.95132 1.81552,2.37513 2.98347,2.3134c0.07449,-0.00394 0.14844,-0.01364 0.22124,-0.02552z" data-paper-data="{&quot;noHover&quot;:false,&quot;origItem&quot;:[&quot;Path&quot;,{&quot;applyMatrix&quot;:true,&quot;segments&quot;:[[[437.29049,330.6965],[0.14897,-0.00787],[-2.33591,0.12345]],[[431.45457,326.18938],[1.67754,1.90264],[-0.13215,-0.13243]],[[431.07195,325.76886],[0.12273,0.14839],[-0.3342,-0.35382]],[[430.08058,324.87248],[0.32772,0.23372],[-0.24047,-0.17149]],[[427.34983,323.67469],[1.0854,0.57113],[0.12771,1.01397]],[[427.62577,326.05611],[-0.10499,-0.26803],[1.71009,4.36571]],[[435.99437,334.76498],[-5.36352,0],[0,0]],[436.2105,334.908],[436.23507,334.80971],[[437.95553,335.23983],[0,0],[-0.12846,-1.52868]],[[437.73221,330.64843],[0.01297,1.53293],[-0.14559,0.02377]]],&quot;closed&quot;:true}]}" fill="#3fab29" stroke-width="0.5" stroke-linecap="butt"/><path d="M270.66207,175.55379c0.00092,0.26775 0.0029,0.48782 0.0029,0.60126c0,0.5884 0.57008,2.10188 0.08596,1.76746c-1.39157,-0.96128 -2.4553,-1.79844 -3.66163,-1.65568c-0.22212,-0.60153 -0.93714,-0.59984 -0.93714,-0.59984l0.09985,0.2001c-3.66811,-2.67356 -7.22391,-6.39064 -10.4632,-9.72418c0,0 -0.24868,-0.55492 -1.27291,-0.27065c-0.15593,0.04328 -0.60017,-0.86912 -0.64952,-0.75768c0.34749,-1.25997 -0.12594,-2.54138 0.33781,-2.98582c0.29385,-0.28161 0.74911,0.33049 1.14368,0.4303c0.5812,0.14702 1.15326,0.49048 1.72836,0.67128c-0.04415,0.4581 0.30916,0.8138 0.30916,0.8138c4.39749,4.39748 6.88939,9.75295 13.27669,11.50966z" data-paper-data="{&quot;noHover&quot;:false,&quot;origItem&quot;:[&quot;Path&quot;,{&quot;applyMatrix&quot;:true,&quot;segments&quot;:[[[514.83579,328.16421],[8.79497,8.79497],[0,0]],[[514.21486,326.53878],[-0.0883,0.9162],[-1.1502,-0.3616]],[[510.76493,325.19029],[1.16239,0.29403],[-0.78915,-0.19962]],[[508.48082,324.32641],[0.58769,-0.56322],[-0.9275,0.88888]],[[508.35344,333.01638],[0.69498,-2.51994],[0.0987,-0.22287]],[[508.83579,332.33579],[-0.22886,0.22886],[1.41421,-1.41421]],[[511.66421,332.33579],[0,0],[6.47858,6.66708]],[[532.45,351.65],[-7.33623,-5.34712],[0,0]],[532.25,351.25],[[534.1194,352.45305],[-0.44424,-1.20305],[2.41265,-0.28552]],[[541.42964,355.77583],[-2.78315,-1.92256],[0.96824,0.66885]],[[541.25,352.25],[0,1.1768],[0,-0.22689]],[[541.24139,351.05142],[0.00185,0.53551],[-12.77461,-3.51341]]],&quot;closed&quot;:true}]}" fill="#89bc7d" stroke-width="0.5" stroke-linecap="butt"/><path d="M273.96185,187.09176c-1.45636,0.30514 -2.91033,0.73824 -3.55967,0.84764c-2.13302,0.35934 -4.24316,0.06018 -6.38695,0.23873c-4.33024,0.36067 -8.97427,1.23718 -13.20757,-0.18727c-4.13228,-1.1323 -7.85201,-4.06657 -11.40712,-6.34171c-0.82492,-0.52791 -1.81581,-0.85187 -2.50169,-1.55098c-1.4997,-1.52864 -2.32848,-3.48034 -3.64629,-5.13602c-1.03471,-1.29999 -1.77945,-2.49687 -2.6613,-3.87923c-0.37912,-0.59429 -1.45875,-0.99773 -1.28785,-1.68162c0.16291,-0.65194 1.05636,-0.8319 1.58136,-1.25134c5.46647,-2.73324 10.54539,-6.32803 15.90962,-9.22308c4.83203,-2.60782 10.36824,-5.76918 13.55516,-10.46458c2.58621,-3.26004 5.51162,-8.19401 1.85461,-11.1257c2.62883,-1.42047 7.08542,-3.00845 9.00391,-0.59434c0.5815,0.73173 0.45105,2.42136 0.23919,3.22975c-0.84033,3.2063 -3.21559,6.4926 -5.78728,8.52312c-8.96919,7.17535 -18.54613,14.56579 -28.81125,19.72921c-0.80089,0.54082 -2.19557,0.67694 -2.40324,1.62075c-0.19357,0.87972 1.08356,1.43542 1.55801,2.20111c1.59953,2.58142 3.04158,4.77886 5.46794,6.71296c5.6832,4.53019 16.12974,7.50927 23.21603,5.53225c4.49271,-0.74107 8.92136,-2.59917 12.20908,-5.88689c1.51485,-1.51485 2.37416,-2.86001 4.29529,-3.93218c1.5057,-0.84032 2.0983,0.92055 2.2478,1.92261c0.36669,2.45792 0.24989,3.96532 -1.336,5.95032c-2.29886,1.83666 -5.48913,3.43123 -8.12068,4.72898z" data-paper-data="{&quot;noHover&quot;:false,&quot;origItem&quot;:[&quot;Path&quot;,{&quot;applyMatrix&quot;:true,&quot;segments&quot;:[[[547.90836,374.06672],[0,0],[5.2631,-2.5955]],[[564.12868,364.62868],[-4.59773,3.67331],[3.1718,-3.97001]],[[566.79082,352.7432],[0.73337,4.91584],[-0.29899,-2.00413]],[[562.47313,348.98933],[3.01139,-1.68064],[-3.84225,2.14434]],[[553.87132,356.87132],[3.0297,-3.0297],[-6.57544,6.57544]],[[529.40974,368.67656],[8.98543,-1.48214],[-14.17257,3.95403]],[[482.87591,357.59261],[11.3664,9.06039],[-4.85271,-3.8682]],[[471.917,344.13603],[3.19905,5.16284],[-0.94889,-1.53138]],[[468.7966,339.72326],[-0.38714,1.75944],[0.41534,-1.88762]],[[473.60195,336.47836],[-1.60178,1.08163],[20.53023,-10.32684]],[[531.37591,296.90739],[-17.93838,14.3507],[5.14338,-4.06105]],[[542.83846,280.02684],[-1.68067,6.4126],[0.42374,-1.61678]],[[542.36588,273.57098],[1.16301,1.46346],[-3.83698,-4.82822]],[[524.3857,274.77061],[5.25766,-2.84093],[7.31401,5.86338]],[[520.67166,297.02076],[5.17241,-6.52008],[-6.37384,9.39079]],[[493.68366,317.88527],[9.66406,-5.21564],[-10.72845,5.79009]],[[461.86686,336.27701],[10.93293,-5.46647],[-1.05,0.83889]],[[458.7034,338.77674],[0.32583,-1.30387],[-0.3418,1.36778]],[[461.27701,342.13314],[-0.75823,-1.18859],[1.76369,2.76472]],[[466.59261,349.87591],[-2.06941,-2.59998],[2.63562,3.31136]],[[473.87132,360.12868],[-2.9994,-3.05727],[1.37175,1.39821]],[[478.86686,363.22299],[-1.64983,-1.05582],[7.11022,4.55027]],[[501.63663,375.88401],[-8.26457,-2.2646],[8.46661,2.84889]],[[528.00256,376.26022],[-8.66047,0.72133],[4.28759,-0.35711]],[[540.7568,375.79082],[-4.26605,0.71869],[1.29868,-0.21879]],[[547.86627,374.10165],[-2.91272,0.61027],[0,0]]],&quot;closed&quot;:true}]}" fill="#89bc7d" stroke-width="0.5" stroke-linecap="butt"/><path d="M265.21892,177.46629c-0.15127,0.61229 -0.26529,1.24379 -0.48677,1.83348c-0.03657,0.09737 -0.97398,2.11744 -0.97696,2.11763c-0.48928,0.03243 -0.68725,-0.84753 -1.08656,-1.13215c-0.90936,-0.64817 -4.73218,-3.89788 -5.46676,-3.85893c-0.64301,0.0341 -0.84132,1.00495 -1.19425,1.54352c-0.59752,0.91179 -1.15703,2.21338 -1.57097,3.44409c-3.71036,-0.79802 -7.40309,-2.3314 -10.04964,-4.03386c-1.07827,-0.69363 -2.06663,-1.563 -2.95265,-2.51227l0.03526,-0.04128c0.12966,-0.25981 1.08545,-2.81638 1.21918,-4.17753c0.54279,0.35468 1.32447,0.68668 1.77889,0.70673c1.87503,0.08275 1.80473,-0.58995 2.55407,-1.91221c0.05149,-0.20147 0.69404,-2.4299 0.6579,-3.26752c0.60121,0.28458 1.92271,0.62335 1.92935,0.62499c1.48016,0.36524 2.72899,1.55391 4.29352,0.15818c0.09627,-0.08588 0.17132,-0.20182 0.22677,-0.34134c-0.11414,0.50632 0.29722,0.91503 0.29722,0.91503c3.43364,3.36177 6.94437,7.02018 10.64624,9.90693z" data-paper-data="{&quot;noHover&quot;:false,&quot;origItem&quot;:[&quot;Path&quot;,{&quot;applyMatrix&quot;:true,&quot;segments&quot;:[[[530.05,354.85],[0,0],[-7.40373,-5.77349]],[[508.83579,335.16421],[6.86729,6.72354],[0,0]],[[508.24752,333.33505],[-0.22828,1.01263],[-0.1109,0.27903]],[[507.79668,334.01798],[0.19255,-0.17177],[-3.12906,2.79145]],[[499.26493,333.69029],[2.96033,0.73047],[-0.01328,-0.00328]],[[495.41883,332.43237],[1.20242,0.56916],[0.07227,1.67524]],[[494.12577,338.94389],[0.10298,-0.40293],[-1.49869,2.64452]],[[489.03177,342.73806],[3.75007,0.1655],[-0.90883,-0.04011]],[[485.47348,341.32639],[1.08557,0.70936],[-0.26747,2.72229]],[[483.03885,349.64443],[0.25933,-0.51962],[0,0]],[[482.96832,349.72667],[0,0],[1.77204,1.89854]],[[488.86686,354.72299],[-2.15655,-1.38726],[5.29309,3.40491]],[[508.85888,362.72889],[-7.42072,-1.59604],[0.82787,-2.46141]],[[511.96115,355.85557],[-1.19504,1.82357],[0.70587,-1.07713]],[[514.32095,352.79656],[-1.28601,0.06819],[1.46916,-0.07791]],[[525.41942,360.62752],[-1.81871,-1.29634],[0.79861,0.56923]],[[527.42964,362.77583],[-0.97857,0.06486],[0.00596,-0.00039]],[[529.37423,358.55611],[-0.07314,0.19474],[0.44295,-1.17937]],[[530.34227,354.90314],[-0.30253,1.22458],[0,0]]],&quot;closed&quot;:true}]}" fill="#832fa2" stroke-width="0.5" stroke-linecap="butt"/><path d="M259.3323,138.639l0.64099,0.53144c2.81696,1.06191 -0.84938,5.84095 -2.07989,7.36467c-2.84285,4.35791 -8.09866,7.16139 -12.47619,9.57144c-5.40947,2.97818 -10.51701,6.49678 -16.05147,9.26402c-0.94456,0.75631 -2.69566,1.91498 -2.91744,3.24142c-0.40911,2.44687 3.13998,6.17543 4.55074,7.92899c1.39134,1.72943 2.23681,3.76797 3.85032,5.359c3.63389,3.58326 10.22025,7.17464 15.07733,8.60828c5.78638,1.91243 13.29752,0.82468 19.28718,0.3258c1.38185,-0.11509 2.96956,-0.37096 4.35656,-0.69429c-0.76062,0.9478 -1.41633,2.12916 -1.62056,2.38489c-1.41273,2.11562 -2.89037,4.7001 -4.9751,6.22568c-1.57409,1.15189 -4.04235,1.6246 -5.85325,1.77551c-6.36661,0.53055 -12.52138,-1.48475 -18.58085,-3.48736c-8.19588,-4.12258 -14.4217,-8.95166 -18.07536,-17.71684c-0.9828,-2.35773 -1.12763,-4.8852 -1.93,-7.28482c-0.47511,-3.41373 -1.03403,-6.74337 -0.47795,-10.18453c0.65707,-4.0661 3.40067,-7.89179 5.7414,-11.12544c2.03203,-2.80719 3.29528,-5.06597 6.05258,-7.27799c4.95636,-4.94408 10.33333,-6.39448 17.17257,-5.87736c2.82761,0.2138 5.35306,-0.02508 8.07127,0.75149c0.11816,0.19735 0.23712,0.31601 0.23712,0.31601z" data-paper-data="{&quot;noHover&quot;:false,&quot;origItem&quot;:[&quot;Path&quot;,{&quot;applyMatrix&quot;:true,&quot;segments&quot;:[[[518.1554,277.23966],[0.23633,0.39471],[-5.43642,-1.55313]],[[502.03733,275.74245],[5.65522,0.42759],[-13.67849,-1.03424]],[[467.75076,287.48538],[9.91272,-9.88816],[-5.51462,4.42404]],[[455.67166,302.02076],[4.06405,-5.61437],[-4.68146,6.4673]],[[444.21126,324.23055],[1.31415,-8.13221],[-1.11217,6.88232]],[[445.16975,344.56074],[-0.95021,-6.82746],[1.60474,4.79924]],[[449.02164,359.10195],[-1.96559,-4.71547],[7.30732,17.53035]],[[485.89805,394.47836],[-16.39176,-8.24517],[12.11893,4.00522]],[[523.00256,400.26022],[-12.73323,1.0611],[3.6218,-0.30182]],[[533.49587,397.81627],[-3.14817,2.30379],[4.16946,-3.05115]],[[543.82834,385.47924],[-2.82545,4.23124],[0.40847,-0.51147]],[[547.21786,380.84329],[-1.52124,1.89559],[-2.774,0.64666]],[[538.49744,382.23978],[2.7637,-0.23019],[-11.97932,0.99776]],[[499.86337,381.61599],[11.57276,3.82487],[-9.71416,-2.86728]],[[469.62868,364.37132],[7.26779,7.16651],[-3.22703,-3.18206]],[[461.90739,353.62409],[2.78268,3.45886],[-2.82151,-3.50712]],[[452.7966,337.72326],[-0.81821,4.89374],[0.44355,-2.65287]],[[458.63314,331.22299],[-1.88911,1.51262],[11.06892,-5.53446]],[[490.81634,312.61473],[-10.81895,5.95636],[8.75506,-4.82009]],[[515.82834,293.47924],[-5.68571,8.71582],[2.46102,-3.04743]],[[519.90836,278.93328],[5.63391,2.12383],[0,0]],[518.62868,277.87132]],&quot;closed&quot;:true}]}" fill="#832fa2" stroke-width="0.5" stroke-linecap="butt"/><path d="M254.12043,216.36882c-2.60557,-1.60489 -4.29529,-4.8213 -7.09108,-6.0876c-2.25114,-1.01961 -5.58946,-1.33194 -8.44981,-1.20116c0.77733,-0.56107 1.60657,-1.0915 2.49057,-1.24587c4.65534,-0.81295 9.16541,3.61869 13.48114,4.03378c1.70484,0.16397 3.79944,0.21777 5.31255,-0.71254c0.65087,-0.40017 1.16383,-0.97942 1.37369,-1.41403c0.69317,2.93923 -3.97222,5.57424 -6.32482,6.41547c-0.02063,0.00015 -0.41497,0.00965 -0.79224,0.21194z" data-paper-data="{&quot;noHover&quot;:false,&quot;origItem&quot;:[&quot;Path&quot;,{&quot;applyMatrix&quot;:true,&quot;segments&quot;:[[[509.74829,432.25001],[-0.04127,0.00029],[4.70521,-1.68246]],[[522.37698,419.50281],[1.38635,5.87846],[-0.41973,0.86921]],[[519.82719,422.30195],[1.30173,-0.80034],[-3.02621,1.86061]],[[509.00256,423.73978],[3.40969,0.32795],[-8.63146,-0.83018]],[[482.23055,415.71126],[9.31067,-1.62591],[-1.768,0.30874]],[[477.25583,418.18536],[1.55467,-1.12215],[5.72071,-0.26157]],[[493.97313,420.51067],[-4.50227,-2.03922],[5.59159,2.53261]],[[508.17139,432.66571],[-5.21114,-3.20978],[0.75452,-0.40459]]],&quot;closed&quot;:true}]}" fill="#379624" stroke-width="0.5" stroke-linecap="butt"/><path d="M229.18945,207.96721c0.31599,1.22704 0.54778,2.48218 0.70746,3.7321c0.14711,1.15146 -0.33168,1.80912 1.00043,2.7626c1.75297,1.2547 3.94641,-0.42127 4.56863,-2.07199l0.70251,-0.0527c2.68453,-0.45752 7.11601,-0.50472 9.6446,0.65146c3.76599,1.72197 5.3015,6.21348 9.78,7.11988c0.74742,0.15127 1.84966,0.34181 3.0638,0.47774c-4.29859,1.70585 -9.31213,1.65768 -13.87965,1.31233c-2.59367,-0.19611 -5.37914,0.11144 -7.91549,-0.67471c-4.82273,-1.49481 -7.33372,-3.19107 -12.49576,-1.48589c-6.57474,2.21454 -13.24069,2.20174 -20.06024,1.16625c-1.25469,-0.19052 -2.88614,-0.46807 -4.01324,-1.08864c-0.32853,-0.18088 -0.73237,-0.54337 -1.16491,-0.94923c1.00725,-0.03041 2.01251,-0.10394 3.02771,-0.2715c3.40506,-0.96899 5.05223,-2.49159 7.79683,-4.50551c1.65692,-1.2158 3.84444,-1.57072 5.69836,-2.3406c2.46828,-1.025 4.89092,-2.61705 7.40573,-3.48517c1.62275,-0.56018 3.88001,-0.18856 5.56684,-0.18856c0,0 0.26337,0.00001 0.56638,-0.10783z" data-paper-data="{&quot;noHover&quot;:false,&quot;origItem&quot;:[&quot;Path&quot;,{&quot;applyMatrix&quot;:true,&quot;segments&quot;:[[[457.25,416.25],[0,0],[-3.37365,0]],[[446.17773,416.60295],[3.2455,-1.12036],[-5.02962,1.73625]],[[431.39805,423.52164],[4.93656,-2.05],[-3.70785,1.53976]],[[420.00413,428.18373],[3.31384,-2.43161],[-5.4892,4.02783]],[[404.40974,437.17656],[6.81012,-1.93797],[-2.0304,0.33513]],[[398.35438,437.71999],[2.01451,-0.06081],[0.86508,0.81171]],[[400.68366,439.61473],[-0.65706,-0.36177],[2.25419,1.24113]],[[408.70876,441.78528],[-2.50938,-0.38103],[13.6391,2.07098]],[[448.80132,439.40395],[-13.14948,4.42908],[10.32408,-3.41035]],[[473.6445,442.38646],[-9.64546,-2.98962],[5.07269,1.57229]],[[489.46267,443.75755],[-5.18735,-0.39222],[9.13503,0.6907]],[[517.21545,441.15423],[-8.59718,3.41169],[-2.42828,-0.27186]],[[511.08792,440.19841],[1.49484,0.30254],[-8.95701,-1.81279]],[[491.52687,425.98933],[7.53198,3.44393],[-5.05718,-2.31235]],[[472.2432,424.70918],[5.36905,-0.91504],[0,0]],[[471.02471,424.74249],[0,0],[-1.24444,3.30145]],[[461.69854,428.9513],[3.50594,2.5094],[-2.66423,-1.90694]],[[459.76498,423.49437],[0.29422,2.30292],[-0.31937,-2.49984]],[[458.3747,416.03433],[0.63199,2.45408],[-0.60602,0.21567]]],&quot;closed&quot;:true}]}" fill="#3fab29" stroke-width="0.5" stroke-linecap="butt"/><path d="M105.61562,-88.4985h282.28228" fill="none" stroke-width="0" stroke-linecap="round"/></g></g></svg>