<svg version="1.1" xmlns="http://www.w3.org/2000/svg" xmlns:xlink="http://www.w3.org/1999/xlink" width="80.7866" height="88.24336" viewBox="0,0,80.7866,88.24336"><defs><radialGradient cx="239.48613" cy="178.8465" r="44.74432" gradientUnits="userSpaceOnUse" id="color-1"><stop offset="0" stop-color="#e9bc36"/><stop offset="1" stop-color="#bc921c"/></radialGradient><radialGradient cx="219.46005" cy="179.08806" r="42.37805" gradientUnits="userSpaceOnUse" id="color-2"><stop offset="0" stop-color="#dbb132"/><stop offset="1" stop-color="#000000"/></radialGradient></defs><g transform="translate(-199.60671,-137.52213)"><g data-paper-data="{&quot;isPaintingLayer&quot;:true}" fill-rule="nonzero" stroke-linejoin="miter" stroke-miterlimit="10" stroke-dasharray="" stroke-dashoffset="0" style="mix-blend-mode: normal"><path d="M207.05594,160.23116l6.83806,-14.24669l4.81463,-0.92679l5.48278,-4.54848l7.91694,1.40835l7.42062,-2.7836l5.21525,1.93286l8.22185,0.57399l11.15422,10.66925z" fill="#5c462d" stroke="#000000" stroke-width="0" stroke-linecap="butt"/><path d="M277.86958,181.82946c0,9.84259 -2.22727,19.75942 -6.64508,26.75513c-6.63869,10.51254 -17.28716,15.00623 -30.44455,15.00623c-8.14508,0 -16.86699,-1.6319 -23.16643,-6.01852c-6.92294,-4.82079 -11.823,-12.29951 -14.40426,-21.19563c-0.87095,-3.00165 8.21138,-3.72356 4.88777,-12.31167c-4.57742,-11.82788 -6.99436,-2.59905 -6.99436,-4.61863c0,-9.62747 2.70624,-17.15193 6.6197,-24.38499c0.29671,-0.54839 4.02456,1.8649 4.33449,1.33801c0.45811,-0.77882 -1.36763,-1.68625 0.76427,-1.72863c1.88798,-0.03753 5.89976,-4.93207 8.85383,-4.25818c0.93188,0.21258 1.91697,3.57119 2.95535,3.68303c0.73737,0.07942 6.23857,-6.0305 6.94216,-5.90817c0.90966,0.15815 1.15553,3.50037 1.99733,3.65165c2.3228,0.41744 0.49527,-0.54097 2.66298,-0.06935c1.56613,0.34073 2.5902,1.14629 3.98031,1.43501c1.79545,0.37291 4.17722,-1.63729 5.44288,-1.28572c1.79233,0.49787 2.35002,3.11661 2.61127,3.17852c3.59984,0.85305 3.09515,-5.0118 6.3113,-3.52781c2.63868,1.21754 5.93899,-4.72966 8.57912,-2.44347c10.16218,8.79982 14.71194,18.29777 14.71194,32.70319z" fill="url(#color-1)" stroke="none" stroke-width="0" stroke-linecap="butt"/><path d="M208.86893,158.98705c-2.07396,4.92292 -5.53028,15.92596 -5.53028,15.92596l2.29835,0.84544l5.84613,14.80914l-7.07494,7.4091c0,0 2.08118,4.39709 2.94357,6.8623c1.17122,2.30207 2.35726,4.6577 4.22265,6.51337c2.1498,2.1386 5.3588,3.39959 7.87163,5.07008c2.70368,1.79737 5.25058,4.33166 8.30243,5.59569c2.20588,0.91364 5.06175,0.28148 7.30169,-0.08747c3.87241,-0.53936 7.62585,0.28103 11.50328,-0.01386c7.36073,-0.55981 14.42771,-3.29903 20.22971,-7.76745c2.77735,-4.22136 4.63996,-8.50276 6.84147,-12.90714c0.78597,-1.57242 2.65537,-3.62525 2.89377,-5.31946c0.55662,-3.95569 -0.42989,-7.94996 0.25392,-12.00633c0.29441,-1.74644 0.80667,-3.73049 0.50467,-5.51313c-0.424,-2.50281 -1.87932,-4.90914 -2.50349,-7.37869c-0.86656,-3.42855 -0.60765,-6.97612 -2.58702,-10.05315c-1.47566,-2.29398 -3.53532,-4.24542 -5.06986,-6.51983c-3.56718,-3.63506 -3.65048,-3.3861 -7.99097,-5.42216c-0.53593,-0.52437 -0.88657,3.5299 -1.93782,3.14052c-0.1166,-0.04319 -2.57805,-1.08283 -3.95102,-0.38407c-1.38615,0.70547 -1.69102,3.14873 -3.3126,2.96437c-2.09582,-0.23827 -3.41583,-4.04605 -5.17793,-3.80253c-2.79226,0.38589 -2.07444,3.22374 -4.7155,3.14377c-1.98865,-0.06021 -0.85471,-2.66155 -2.77274,-2.72923c-1.23603,-0.04361 -1.52597,0.43798 -2.68592,0.36405c-2.0453,-0.13037 -0.92826,-3.31119 -2.86155,-3.18605c-3.70275,0.23969 -3.98563,5.02342 -7.39812,5.23115c-2.03754,0.12403 -0.80304,-3.44464 -2.70231,-3.14897c-3.42847,0.53373 -6.75819,5.43386 -9.19336,6.07308c-3.28792,0.86306 -3.07403,1.16681 -3.54785,2.2915zM260.86626,147.44834c1.92882,-0.41846 7.60276,3.6136 8.8315,5.73093c1.52592,2.26449 3.57279,4.19455 5.04465,6.48017c2.21353,3.43738 2.01406,7.14486 2.97595,10.94685c0.64707,2.55763 2.11682,5.01987 2.55378,7.62131c0.35715,2.12628 -0.15507,4.4005 -0.50678,6.48687c-0.67388,3.99753 0.46801,8.11721 -0.25181,11.99367c-0.50901,2.74116 -2.96518,4.81063 -3.84771,7.47359c-1.45896,4.40225 -3.98243,8.42338 -6.64607,12.29981c-6.28784,5.07298 -14.14071,8.11573 -22.25124,8.73255c-3.78746,0.28804 -7.48857,-0.55424 -11.25437,-0.01387c-2.80071,0.46169 -6.13753,1.03903 -8.88153,-0.08746c-3.25599,-1.33668 -6.00871,-4.02186 -8.89225,-5.90431c-2.70547,-1.7662 -5.99298,-3.14855 -8.31158,-5.42992c-2.15893,-2.12428 -3.54432,-4.83066 -4.88042,-7.48664c-0.84913,-2.63861 -2.89295,-4.71681 -3.61083,-7.46245c-0.93574,-3.57885 6.98547,-9.35904 6.98547,-9.35904l-4.37767,-10.86677c0,0 -3.82057,2.88226 -3.91168,1.73795c-0.16824,-2.1131 0.50573,-4.13743 0.50573,-6.24744c0.94885,-5.68356 3.72289,-10.72449 5.92616,-15.95031c0.62257,-1.47663 0.59616,-1.39873 1.20935,-2.90636c0.35728,-0.87844 4.29517,1.22304 4.71767,0.25138c0.17277,-0.39735 2.92695,-4.07417 9.7049,-5.45834c0.84443,-0.17245 1.29694,3.6298 2.28518,3.40234c1.52994,-0.35214 6.00015,-5.77771 7.70655,-5.93335c0.66135,-0.06032 2.02515,4.80403 2.70585,4.74717c0.56802,-0.04745 1.91012,-1.3219 2.48719,-1.36142c0.75813,-0.05193 2.06023,3.73727 2.82764,3.67477c0.72776,-0.05928 4.83487,-3.49949 5.54973,-3.55098c0.91864,-0.06616 3.51053,4.4722 4.38522,4.38307c0.67634,-0.06893 0.87721,-2.52487 1.52307,-2.59873c1.5184,-0.17364 1.19431,-1.19878 2.53605,-1.38315c1.39493,-0.19168 1.8397,0.37302 2.99424,0.15423c2.09539,-0.39707 3.08403,-3.88094 4.16806,-4.11612z" fill="#000000" stroke="#000000" stroke-width="0" stroke-linecap="butt"/><path d="M243.89095,177.24379c0,0 1.73697,-2.29916 4.40963,-2.16547c2.68844,0.13448 4.19686,1.97016 4.19686,1.97016" fill="none" stroke="#000000" stroke-width="1.5" stroke-linecap="round"/><path d="M225.12254,221.4661c0,0 -9.81999,-8.97897 -11.51751,-17.72176c-3.03581,-15.63548 0.93813,-32.9858 2.4675,-43.2458c0.38548,-2.586 1.02785,-5.27823 1.83142,-7.8873" fill="none" stroke="url(#color-2)" stroke-width="1.5" stroke-linecap="round"/><g stroke-linecap="butt"><path d="M222.69192,167.33757c0,-5.45381 4.42119,-9.875 9.875,-9.875c5.45381,0 9.875,4.42119 9.875,9.875c0,5.45381 -4.42119,9.875 -9.875,9.875c-5.45381,0 -9.875,-4.42119 -9.875,-9.875z" fill="#fdf7e7" stroke="#000000" stroke-width="1.5"/><path d="M234.68746,167.0154c0,-0.69036 0.55964,-1.25 1.25,-1.25c0.69036,0 1.25,0.55964 1.25,1.25c0,0.69036 -0.55964,1.25 -1.25,1.25c-0.69036,0 -1.25,-0.55964 -1.25,-1.25z" fill="#000000" stroke="none" stroke-width="0.5"/></g><g stroke-linecap="butt"><path d="M251.22241,163.44734c0,-4.90152 3.97348,-8.875 8.875,-8.875c4.90152,0 8.875,3.97348 8.875,8.875c0,4.90152 -3.97348,8.875 -8.875,8.875c-4.90152,0 -8.875,-3.97348 -8.875,-8.875z" fill="#fdf7e7" stroke="#000000" stroke-width="1.5"/><path d="M257.04749,163.93198c0,-0.69036 0.55964,-1.25 1.25,-1.25c0.69036,0 1.25,0.55964 1.25,1.25c0,0.69036 -0.55964,1.25 -1.25,1.25c-0.69036,0 -1.25,-0.55964 -1.25,-1.25z" fill="#000000" stroke="none" stroke-width="0.5"/></g><g fill="none" stroke-width="1.5" stroke-linecap="round"><path d="M227.18261,214.53388c0,0 -2.03663,-0.99939 -2.59741,-2.09229c-0.66353,-1.29315 -0.98788,-3.32713 -0.98788,-3.32713" stroke="#d8ae32"/><path d="M226.37357,215.10744c0,0 -2.24639,-1.10231 -2.86493,-2.30778c-0.73187,-1.42633 -1.08963,-3.66981 -1.08963,-3.66981" stroke="#6c5719"/></g><g fill="none" stroke-width="1.5" stroke-linecap="round"><path d="M240.45107,215.76079c0,0 -1.71849,0.82502 -2.73151,0.62711c-1.19863,-0.23417 -2.71004,-1.07738 -2.71004,-1.07738" stroke="#d8ae32"/><path d="M240.40915,216.59305c0,0 -1.89548,0.91 -3.01284,0.6917c-1.32208,-0.2583 -2.98916,-1.18834 -2.98916,-1.18834" stroke="#6c5719"/></g><g fill="none" stroke-width="1.5" stroke-linecap="round"><path d="M258.92149,214.27654c0,0 -1.39931,1.29452 -2.4257,1.40371c-1.21444,0.1292 -2.90715,-0.23151 -2.90715,-0.23151" stroke="#d8ae32"/><path d="M259.12652,215.08424c0,0 -1.54343,1.42785 -2.67553,1.54829c-1.33952,0.14251 -3.20656,-0.25536 -3.20656,-0.25536" stroke="#6c5719"/></g><g fill="none" stroke-width="1.5" stroke-linecap="round"><path d="M267.63217,201.58734c0,0 0.01822,1.90618 -0.5907,2.73961c-0.72048,0.98614 -2.12516,1.99719 -2.12516,1.99719" stroke="#d8ae32"/><path d="M268.36807,201.97832c0,0 0.02009,2.10251 -0.65154,3.02178c-0.79469,1.0877 -2.34404,2.20289 -2.34404,2.20289" stroke="#6c5719"/></g><g fill="none" stroke-width="1.5" stroke-linecap="round"><path d="M243.12995,201.92541c0,0 -1.05974,0.50876 -1.68444,0.38672c-0.73916,-0.14441 -1.6712,-0.66439 -1.6712,-0.66439" stroke="#d8ae32"/><path d="M243.1041,202.43865c0,0 -1.16889,0.56117 -1.85793,0.42655c-0.81529,-0.15928 -1.84332,-0.73282 -1.84332,-0.73282" stroke="#6c5719"/></g><path d="M212.9202,153.67425c1.04006,-0.69338 1.34157,0.47524 -0.34985,2.10133c-1.31312,1.2624 -3.20346,2.03273 -4.53407,1.5892c0,0 -1.18586,-0.39528 -0.79057,-1.58113c0.39529,-1.18586 1.20676,-0.62418 1.20676,-0.62418c0.45872,0.15291 1.29273,0.13668 1.75053,0.29232c0.34347,0.11677 1.06983,-0.65007 1.27034,-0.97264z" fill="#000000" stroke="none" stroke-width="0.5" stroke-linecap="butt"/><path d="M261.62523,149.60749c-0.97982,2.06897 -6.53802,5.59384 -8.34413,3.82531c-0.3512,-0.3439 -3.55325,4.23478 -4.11186,3.44457c-2.09079,-2.95765 -0.88631,-1.90292 -3.40891,-4.45007c-1.58154,-0.93303 -6.24442,3.89154 -6.24442,3.89154l-2.89195,-3.76457l-2.65105,1.2573l-2.50433,-4.56055l-7.68397,6.80122c0,0 -2.50958,-4.06756 -2.4081,-4.7782l-8.60582,5.27818l-0.39753,-2.53753l3.08539,-1.8785l6.75979,-3.17551l2.03913,3.96384c0,0 6.03103,-6.32879 7.36888,-6.83872c1.54793,-0.59 2.33115,5.63609 3.27565,4.85189c1.09308,-0.90756 2.46604,-1.3675 2.46604,-1.3675l2.35375,3.3849c0,0 4.34223,-3.9323 6.47212,-2.63642c1.96311,1.94603 3.47244,3.10908 3.47244,3.10908c0,0 4.72003,-4.93757 4.90248,-2.64393c0.04298,0.54033 1.3565,-0.27018 1.88182,-0.40376c0.73554,-0.18704 3.75179,-2.11966 4.22902,-2.93244c0.28233,-0.48084 1.68221,0.60438 0.94556,2.15987z" fill="#000000" stroke="none" stroke-width="0.5" stroke-linecap="butt"/><path d="M208.23059,155.97437l6.01841,-10.41803l4.42147,0.02216l6.8184,-5.66053l5.4415,1.97416l8.19538,-3.29755l6.27747,2.34303l6.5702,0.34894l9.20543,7.26704" fill="none" stroke="#000000" stroke-width="2" stroke-linecap="round"/></g></g></svg>