<svg version="1.1" xmlns="http://www.w3.org/2000/svg" xmlns:xlink="http://www.w3.org/1999/xlink" width="30.95372" height="61.23945" viewBox="0,0,30.95372,61.23945"><g transform="translate(-224.02835,-157.93559)"><g data-paper-data="{&quot;isPaintingLayer&quot;:true}" fill-rule="nonzero" stroke="none" stroke-width="0.5" stroke-linecap="butt" stroke-linejoin="miter" stroke-miterlimit="10" stroke-dasharray="" stroke-dashoffset="0" style="mix-blend-mode: normal"><path d="M245.22815,204.05012c0.09773,0.53689 0.21699,1.08251 0.3524,1.62416c0.18232,0.72929 0.86504,3.66368 1.22392,4.04171c0.64699,0.6815 2.32128,0.03849 2.66822,0.9118c0.18742,0.47175 0.09902,1.04037 -0.13309,1.59601c-1.98166,-0.5017 -5.24122,-1.48344 -5.84337,-3.28987l0.03215,-0.00077c0,0 0.00064,-0.62056 -0.62586,-0.62056c-0.6265,0 -0.54369,0.61706 -0.54369,0.61706l0.03213,0.4013c0.72311,2.16932 3.99522,3.37369 6.29569,4.01363c-0.40599,0.54493 -0.88045,1.0052 -1.24771,1.24054c-0.4837,0.30995 -0.95247,0.61702 -1.40895,0.89847c-1.24832,-0.38548 -3.86216,-0.81167 -4.51896,-1.87444c-0.58285,-0.94311 -0.36671,-2.46153 -0.36671,-3.49875c0,0 0.08021,-0.60434 -0.5463,-0.60434c-0.6265,0 -0.63328,0.64277 -0.63328,0.64277c0,1.26152 -0.3333,2.92797 0.44221,4.04543c0.79217,1.14146 2.57985,1.72626 4.08997,2.15175c-1.51414,0.73849 -3.0815,1.09624 -5.04268,0.58205c-2.6485,-0.6944 -2.34131,-3.30102 -3.21465,-5.23035l-0.42236,-1.65888c-0.14773,-0.65099 -0.73217,-1.153 -1.42786,-1.153c-0.51546,0 -0.88529,0.26565 -1.14559,0.66868l-0.82411,1.22656c-1.23557,1.85334 -1.67878,4.23449 -2.21435,6.41795c-0.35596,0.77687 -1.90163,0.5093 -2.54935,-0.56688c-0.49841,-0.8281 -1.45456,-4.33561 -1.09387,-5.14713c0.02328,-0.05239 1.19609,-1.99228 1.22095,-2.04399c0.97686,-0.80946 0.76956,-0.68825 1.24446,-1.48917c0.39608,-0.668 1.63727,-0.39827 1.57307,-1.1722c-0.01055,-0.12713 -0.28167,-1.97486 -0.31862,-2.09355c0.63519,-1.54793 1.79852,-0.33162 2.19735,-1.94768c0.13559,-0.54944 0.31874,-1.1543 0.43944,-1.76755c1.39486,0.46018 3.05257,1.83695 4.55728,2.29136c2.21222,0.66809 5.00846,0.78681 7.30358,0.78681z" data-paper-data="{&quot;noHover&quot;:false,&quot;origItem&quot;:[&quot;Path&quot;,{&quot;applyMatrix&quot;:true,&quot;segments&quot;:[[[491.36527,417.64151],[0,0],[-5.49506,0]],[[473.97357,415.79361],[5.29659,1.59955],[-3.60263,-1.08798]],[[463.10187,410.29157],[3.33963,1.10178],[-0.28898,1.46825]],[[462.06188,414.51373],[0.32464,-1.31547],[-0.95488,3.86921]],[[458.99225,426.78319],[1.5208,-3.70609],[0.08848,0.28416]],[[459.16638,427.66486],[-0.02525,-0.30438],[0.1537,1.85299]],[[456.57856,432.60631],[0.94832,-1.59934],[-1.13703,1.9176]],[[451.04014,438.70693],[2.33884,-1.93804],[-0.05951,0.12382]],[[450.86718,439.0808],[0.05575,-0.12544],[-0.86357,1.94297]],[[450.52733,447.64869],[-1.19331,-1.98266],[1.55081,2.57663]],[[454.5061,447.16066],[-0.85225,1.86001],[1.28227,-5.22773]],[[461.7542,433.72341],[-2.95824,4.43735],[0,0]],[[463.72409,430.76858],[0,0],[0.62319,-0.96495]],[[466.66638,429.16486],[-1.23415,0],[1.66565,0]],[[470.07964,431.88701],[-0.3537,-1.55862],[0,0]],[[471.06188,435.81599],[0,0],[2.09099,4.61928]],[[478.68062,448.31504],[-6.34113,-1.66255],[4.69551,1.2311]],[[490.70241,446.94387],[-3.62521,1.76813],[-3.6156,-1.01872]],[[481.00955,441.96239],[1.89664,2.73291],[-1.85676,-2.67545]],[[479.83314,432.12617],[0,3.02038],[0,0]],[[481.33314,430.62617],[-1.5,0],[1.5,0]],[[482.83314,432.12617],[0,0],[0,2.48337]],[[483.5615,440.38519],[-1.39549,-2.25801],[1.57254,2.54451]],[[494.36047,444.89145],[-2.98876,-0.92292],[1.09293,-0.67385]],[[497.72493,442.75268],[-1.15808,0.74209],[0.87932,-0.56346]],[[500.70522,439.79636],[-0.97203,1.3047],[-5.50786,-1.53217]],[[485.6244,430.21956],[1.73129,5.19386],[0,0]],[485.54743,429.26903],[[487.04743,427.76903],[-1.5,0],[1.5,0]],[488.54743,429.26903],[[488.47045,429.27088],[0,0],[1.44167,4.32502]],[[502.26478,437.12369],[-4.74455,-1.20118],[0.55575,-1.33032]],[[502.58052,433.31636],[0.44872,1.12948],[-0.83067,-2.09091]],[[496.19151,431.13973],[1.54904,1.63168],[-0.85926,-0.9051]],[[493.27088,421.51373],[0.43652,1.74609],[-0.32421,-1.29685]],[[492.43718,417.64151],[0.23398,1.28543],[0,0]]],&quot;closed&quot;:true}]}" fill="#828f74"/><path d="M244.67344,194.40672c-0.0017,0.38069 -0.02875,0.8391 -0.03,1.2162c-3.77686,-1.26749 -7.47494,-3.07028 -10.72737,-5.27989c0,0 -0.52185,-0.34803 -0.86937,0.17326c-0.02819,0.04228 -0.05064,0.08347 -0.06814,0.12337c-0.04278,0.0005 -0.08565,0.0009 -0.12843,0.0014c1.90403,-3.38797 3.39913,-7.60637 4.26794,-11.26523c0.96138,-1.42577 1.01041,-3.24576 1.77606,-4.75806c1.28859,-2.5452 2.42115,-5.79662 2.44694,-8.65311c0,-5.37054 7.61045,-7.37192 7.26496,-6.16453c-0.36719,1.28322 5.46997,2.36181 5.28939,3.65504c-0.23882,1.71027 -2.01527,4.41228 -2.54898,6.02795c-1.09441,2.18882 -1.82568,4.25019 -2.04231,6.69235c-0.18401,2.07429 -1.8827,5.01706 -2.57024,7.08455c-0.66953,2.69207 -1.6285,5.26514 -2.02828,7.97276c-0.00941,0.04805 -0.01653,0.09692 -0.02112,0.14654c-0.10092,0.72147 -0.16219,1.45242 -0.16621,2.19821l-0.00018,0.39772c0,0 -0.00039,0.24759 0.15537,0.43149z" data-paper-data="{&quot;noHover&quot;:false,&quot;origItem&quot;:[&quot;Path&quot;,{&quot;applyMatrix&quot;:true,&quot;segments&quot;:[[490.78552,393.55474],[[490.78552,392.60236],[0,0],[0.00961,-1.7856]],[[491.18139,387.33859],[-0.24161,1.72737],[0.01098,-0.11878]],[[491.23183,386.98771],[-0.02255,0.11504],[0.95715,-6.48269]],[[496.08344,367.89726],[-1.60303,6.44545],[1.64614,-4.95007]],[[502.23346,350.93352],[-0.44056,4.96635],[0.51869,-5.8471]],[[507.09018,334.88548],[-2.62028,5.24056],[1.27785,-3.86828]],[[511.75727,323.31447],[-0.57178,4.09481],[0.43235,-3.09628]],[[513.2263,314.56393],[-0.87913,3.07235],[0.82717,-2.89077]],[[515.54743,305.93569],[0.03528,3.03192],[0,0]],[[517.04743,304.43569],[-1.5,0],[1.5,0]],[[518.54743,305.93569],[0,0],[-0.03052,3.37987]],[[516.10666,315.40269],[0.91677,-3.21368],[-2.02683,7.10492]],[[509.86182,336.03353],[2.36829,-7.04983],[-2.56793,5.13587]],[[505.19473,351.41406],[0.73254,-5.65555],[-0.69154,5.33906]],[[498.9638,368.73603],[1.76298,-5.27553],[-1.3037,5.18912]],[[494.72949,384.16542],[1.09948,-5.18821],[1.20797,0.02136]],[[497.60867,385.76858],[-0.61255,-0.94847],[0,0]],[499.57856,388.72341],[[499.4815,388.78811],[0,0],[0.13331,0.14889]],[[499.86718,389.24892],[-0.12362,-0.1585],[2.10911,2.70435]],[[502.94898,401.45055],[-1.21197,-3.26614],[0.4491,1.21029]],[[504.69357,404.90812],[-0.47935,-1.19863],[0.18697,0.46753]],[[504.92847,406.40033],[-0.4964,-0.08443],[3.01394,0.51262]],[[514.89859,400.50683],[-2.0237,2.01315],[0,0]],[[516.72409,397.76858],[0,0],[0.10777,-0.16687]],[[517.0872,397.29886],[-0.13377,0.14574],[0.01775,-1.58616]],[[518.19151,393.18999],[-0.85568,1.03672],[1.03163,-1.24989]],[[523.01488,392.579],[-1.44954,0.72477],[0.79397,-0.39698]],[[524.19151,390.18999],[-0.61622,0.63894],[0.70218,-0.72807]],[[526.80543,388.64869],[-0.56507,0.83894],[1.88281,-2.79533]],[[530.46558,377.24892],[-1.41679,3.17148],[3.91859,-8.77176]],[[552.72493,358.75268],[-7.45944,4.9945],[2,-1.33333]],[[558.72493,354.75268],[-2.2368,0.88007],[0.47341,-0.18626]],[[560.23435,354.97845],[-0.09977,0.49886],[0.09977,-0.49886]],[[558.7542,354.60631],[0.36536,0.35402],[-0.86312,-0.83634]],[[556.7542,351.60631],[0.66667,1],[-2.7997,-4.19956]],[[547.95968,339.88382],[3.19023,3.84724],[-9.80858,-11.82858]],[[523.7542,299.60631],[8.54819,12.82229],[-6.84573,-10.26859]],[[500.19151,272.13973],[8.45859,8.64062],[-1.60189,-1.63636]],[[494.44742,268.37156],[1.76012,1.46482],[-3.11472,-2.59216]],[[485.72493,260.57704],[3.40174,2.25565],[-1.26814,-0.84089]],[[478.8035,255.51068],[1.36522,1.47964],[-1.14377,0.67988]],[[475.25434,257.72347],[1.10418,-0.76266],[2.13747,6.60548]],[[479.48044,279.50494],[-0.99631,-6.85802],[0.45783,3.15146]],[[481.27634,287.23362],[-1.84597,-2.79871],[3.23585,12.41871]],[[483.30933,326.41188],[0,-12.85833],[-0.06175,6.83912]],[[477.44252,347.07091],[3.08518,-6.09379],[-1.83315,3.62081]],[[473.1811,358.44729],[2.30179,-3.41362],[-2.08014,8.76019]],[[462.94794,385.40253],[4.55869,-8.11161],[0.10242,-0.00119]],[[463.25519,385.39896],[-0.10242,0.00119],[0.0419,-0.09555]],[[463.4184,385.10364],[-0.0675,0.10125],[0.83205,-1.24808]],[[465.49853,384.68762],[0,0],[7.78707,5.29031]],[[491.1467,397.30924],[-9.04268,-3.03467],[0.00298,-0.90287]],[[491.15847,394.58815],[-0.00407,0.91146],[-0.37294,-0.44031]]],&quot;closed&quot;:true}]}" fill="#593c1d"/><path d="M233.04061,199.78818c-0.00062,-0.42956 -0.06592,-0.86176 -0.2232,-1.26453c-0.39958,-1.02323 -1.66979,-1.54608 -2.10262,-2.5557c-0.30648,-0.71492 0.05376,-1.64959 -0.08511,-2.39339c0.11654,-0.05712 0.19017,-0.13119 0.19017,-0.13119l0.64066,-0.64648c0.14486,-0.21544 0.29229,-0.43419 0.43714,-0.64964c0.09109,-0.1387 0.18322,-0.28146 0.27281,-0.42425l0.30123,0.09598c0.29864,0.0027 0.60011,0.00286 0.89874,0.00556c0,0 0.23257,-0.00151 0.41396,-0.14141c3.27007,2.08863 6.88967,3.87864 10.6168,5.11809l0.2963,0.07481c0.00928,2.00001 0.06337,3.99224 0.33185,5.97168l-0.24974,0.00057c-2.18989,0 -4.82623,-0.07506 -6.93931,-0.7042c-1.74354,-0.51911 -3.22751,-1.79365 -4.7997,-2.3559z" data-paper-data="{&quot;noHover&quot;:false,&quot;origItem&quot;:[&quot;Path&quot;,{&quot;applyMatrix&quot;:true,&quot;segments&quot;:[[[474.82841,412.91798],[-4.17444,-1.24287],[5.05922,1.5063]],[[491.36527,414.64151],[-5.2431,0],[0,0]],[[491.96214,414.64151],[0,0],[-0.6428,-4.73924]],[[491.14691,400.41076],[0.02222,4.7885],[0,0]],[[490.43757,400.23302],[0,0],[-8.92364,-2.96754]],[[465.17668,388.05313],[7.82931,5.00067],[-0.4343,0.33495]],[[464.19029,388.38807],[0,0],[-0.71501,-0.00646]],[[462.04525,388.36871],[0.71501,0.00646],[0,0]],[[461.32536,388.13758],[0,0],[-0.2145,0.34189]],[[460.67646,389.1487],[0.21809,-0.33209],[-0.34681,0.51583]],[[459.63601,390.6962],[0.34681,-0.51583],[0,0]],[458.10809,392.23445],[[457.65397,392.5463],[0.27903,-0.13676],[0.3325,1.78084]],[[457.86718,398.24892],[-0.73378,-1.71167],[1.03626,2.41727]],[[462.89996,404.32547],[-0.95669,-2.44985],[0.37658,0.96432]],[[463.4258,407.33071],[-0.00148,-1.02846],[3.76419,1.34616]]],&quot;closed&quot;:true}]}" fill="#593c1d"/><path d="" data-paper-data="{&quot;noHover&quot;:false,&quot;origItem&quot;:[&quot;Path&quot;,{&quot;applyMatrix&quot;:true,&quot;segments&quot;:[[[440.50403,302.3395],[-4.04462,6.58432],[1.08336,-1.76362]],[[439.07252,296.70758],[1.57243,0.9047],[0,0]],[[438.47606,295.98229],[0.19602,0.45832],[-3.33625,1.89093]],[[428.61804,301.89364],[3.59171,-1.4005],[0.06195,2.43986]],[[427.14016,309.0925],[0.28974,-2.25312],[-0.51981,4.04216]],[[427.62895,321.90644],[-0.81296,-4.11092],[4.31364,-6.56686]]],&quot;closed&quot;:true}]}" fill="#593c1d"/><path d="M244.08206,196.92597l-0.4276,-0.10726c-3.63884,-0.80863 -6.10941,-2.87379 -9.30029,-4.50247c-0.94535,1.66385 -1.68429,3.0071 -0.95844,5.54758c0.00485,0.61824 -0.01937,1.21373 -0.07086,1.79345c3.64053,1.22377 6.69394,2.77645 10.65983,2.77645l0.21067,-0.08344c0,0 0.0196,-0.0049 0.05393,-0.01052c-0.0613,-1.61048 -0.00879,-3.22719 -0.00879,-4.73671c0,-0.21756 -0.00104,-0.43569 -0.00291,-0.65434c-0.09483,-0.00758 -0.15553,-0.02275 -0.15553,-0.02275zM244.08832,194.86634l0.11422,0.02847c-0.08039,-3.58916 -0.20401,-7.2597 0.53977,-10.73164c1.5218,-7.10369 5.35081,-13.35917 7.29149,-20.25865c0.80465,-2.81495 -9.95035,-5.08804 -9.95035,0.88091c0,6.44702 -2.39265,12.32137 -4.54049,18.31777c-0.76941,2.14807 -1.07074,4.47492 -1.89066,6.60482c-0.11442,0.29722 -0.23511,0.57711 -0.35924,0.84306c3.01338,1.55782 5.35691,3.55119 8.79525,4.31526zM243.98468,204.43373c-4.0761,0 -7.24387,-1.51013 -10.95563,-2.76646c-0.38151,1.85181 -1.04598,3.61948 -1.92594,5.56652c-0.89308,1.97607 -2.37764,3.58846 -3.61414,5.33589c-0.29597,0.41826 0.31067,3.02966 1.15979,3.41001c1.48666,0.66591 1.28368,-0.64991 1.62907,-1.57395c0.38549,-1.03131 1.0968,-2.78116 2.14765,-3.83199c0.09651,-0.21338 0.20358,-0.34721 0.20358,-0.34721c0.31951,-0.39939 0.63903,-0.79879 0.95854,-1.19818l0.16286,-0.25446c0,0 0.83205,-1.24808 2.08013,-0.41603c0.68565,0.4571 0.74351,1.03976 0.65642,1.47207c0.08439,0.1876 0.13134,0.39568 0.13134,0.61473l0.00001,0.00001c0,0.22666 -0.05027,0.44158 -0.14028,0.63421c0.03861,0.03873 0.07687,0.07702 0.1148,0.11468c0.45857,0.4553 0.59833,1.14558 0.8975,1.71836c0.37317,0.87074 0.46732,1.91848 1.10636,2.61781c0.8129,0.8896 2.2985,0.78147 3.65462,0.40456c-2.02907,-1.57605 -3.19839,-3.07639 -2.85489,-6.31896l-0.00612,-0.00939c0,0 0,-1 1,-1c1,0 1,1 1,1l-0.00611,0.23025c-0.35129,2.99049 0.97144,3.79764 3.06965,5.25083c0.0512,-0.02492 0.10023,-0.04919 0.14696,-0.07269c0.44836,-0.22538 1.94054,-0.8817 2.98521,-1.71086l-0.297,-0.09371c-2.29007,-1.44675 -3.85723,-1.63513 -5.15714,-4.23496c0,0 -0.44721,-0.89443 0.44721,-1.34164c0.89443,-0.44721 1.34164,0.44721 1.34164,0.44721c1.07891,2.15783 2.40752,2.18177 4.42829,3.43339l0.19181,-0.00233c0,0 0.04233,0.01058 0.1071,0.03617c-0.01479,-0.08842 -0.04194,-0.17688 -0.08269,-0.26519c-0.50267,-1.08948 -2.64555,-1.72748 -3.28836,-3.29872c-0.46601,-1.13909 -0.73081,-2.36997 -0.87887,-3.63502zM254.9184,164.72868c-1.97499,6.8223 -5.73551,13.03196 -7.24203,20.06015c-0.88611,4.13387 -0.43584,8.61113 -0.43584,12.81422c0,3.07349 -0.17883,6.36429 0.83886,9.30993c1.00627,2.9126 4.08811,1.73868 3.07791,5.90525c-1.17881,4.86199 -10.84226,8.52905 -14.68184,4.83282c-0.47334,-0.45566 -1.42432,-2.8183 -1.70658,-3.47689c-0.21959,-0.47224 0.00627,-1.47524 -0.51453,-1.47524c-1.01117,0 -0.8096,1.8537 -1.18057,2.79437c-1.04177,2.64165 -2.39506,4.73132 -5.8721,3.11428c-1.49669,-0.69606 -3.34824,-4.24089 -3.16006,-5.68015c0.32003,-2.4477 3.28836,-4.73893 4.33857,-6.95285c1.23899,-2.61188 2.01628,-4.90261 2.04454,-7.69466c-1.22334,-4.28169 1.02504,-5.99843 2.43166,-9.65948c0.80687,-2.10007 1.10455,-4.40132 1.85992,-6.52223c2.01847,-5.66739 5.13011,-11.27569 4.36715,-17.3128c-1.05352,-8.33619 17.10486,-9.87611 15.83494,-0.05672z" fill="#000000"/></g></g></svg>