<svg version="1.1" xmlns="http://www.w3.org/2000/svg" xmlns:xlink="http://www.w3.org/1999/xlink" width="39.01931" height="31.26516" viewBox="0,0,39.01931,31.26516"><g transform="translate(-216.61327,-164.36742)"><g data-paper-data="{&quot;isPaintingLayer&quot;:true}" fill-rule="nonzero" stroke-linecap="butt" stroke-linejoin="miter" stroke-miterlimit="10" stroke-dasharray="" stroke-dashoffset="0" style="mix-blend-mode: normal"><path d="M225.61742,180c0,-7.94328 6.4393,-14.38258 14.38258,-14.38258c7.94328,0 14.38258,6.4393 14.38258,14.38258c0,7.94328 -6.4393,14.38258 -14.38258,14.38258c-7.94328,0 -14.38258,-6.4393 -14.38258,-14.38258z" fill="#87dfff" stroke="#000000" stroke-width="2.5"/><path d="M250.3011,183.48844c0,0 -1.42292,3.73953 -3.80406,5.6315c-2.38116,1.89197 -6.12094,2.79459 -6.12094,2.79459z" fill="#dbf6ff" stroke="#000000" stroke-width="0"/><path d="M228.33701,182.42936c0.66562,-0.00456 1.33093,-0.00864 1.68252,0.47607c2.35488,3.24653 -4.05585,8.07596 -6.7716,6.93643c-0.38321,-0.16079 -0.83752,-3.10452 -0.95816,-4.98149c-1.95101,0.09354 -3.81272,-0.38806 -4.14541,-1.9951c-0.21572,-1.04203 1.05995,-1.86646 1.77965,-2.65029c0.42,-0.45743 0.87193,-0.81476 1.34856,-1.09391c-0.44271,-0.22602 -0.86207,-0.45468 -1.22161,-0.61026c-1.57695,-0.68238 -3.71389,-0.79732 -3.40822,-3.61595c0.10826,-0.9983 1.27475,-1.59849 2.12068,-2.13954c0.99853,-0.63865 3.15486,-0.77114 4.53502,-0.99836c-0.73436,-0.29449 -1.29869,-0.71609 -1.55928,-1.30794c-0.99989,-2.27103 2.25807,-5.55726 4.24215,-5.57025c1.62322,-0.01063 4.62435,2.18451 6.06449,2.90459c0,0 1.34164,0.67082 0.67082,2.01246c-0.19483,0.38967 -0.44625,0.60957 -0.70495,0.72545l-0.89009,1.58332c-0.09139,0.01494 -0.19199,0.03021 -0.30085,0.04549c0.1317,0.48599 -0.02272,0.94926 -0.02272,0.94926l-0.64705,1.81426c-0.87544,0.9087 -1.7479,2.06291 -2.75013,3.03064c0.40469,-0.15795 0.96975,-0.19496 1.53481,0.3701c1.06066,1.06066 0,2.12132 0,2.12132l-0.13936,0.12638c-0.39024,0.48205 -0.65772,1.06506 -0.95555,1.61934c0.20247,0.05343 0.3653,0.14126 0.49626,0.24798z" fill="#ffffff" stroke="none" stroke-width="0.5"/></g></g></svg>