<svg version="1.1" xmlns="http://www.w3.org/2000/svg" xmlns:xlink="http://www.w3.org/1999/xlink" width="338.05739" height="55.40469" viewBox="0,0,338.05739,55.40469"><defs><radialGradient cx="112.31893" cy="167.4159" r="13.49252" gradientUnits="userSpaceOnUse" id="color-1"><stop offset="0" stop-color="#fff477"/><stop offset="1" stop-color="#fff477" stop-opacity="0"/></radialGradient><radialGradient cx="111.89195" cy="166.73274" r="13.49252" gradientUnits="userSpaceOnUse" id="color-2"><stop offset="0" stop-color="#fff477"/><stop offset="1" stop-color="#fff477" stop-opacity="0"/></radialGradient><radialGradient cx="112.06274" cy="166.73272" r="13.49252" gradientUnits="userSpaceOnUse" id="color-3"><stop offset="0" stop-color="#fff477"/><stop offset="1" stop-color="#fff477" stop-opacity="0"/></radialGradient><radialGradient cx="114.30964" cy="165.37514" r="12.04265" gradientUnits="userSpaceOnUse" id="color-4"><stop offset="0" stop-color="#fefff0"/><stop offset="1" stop-color="#feff66"/></radialGradient><linearGradient x1="112.10544" y1="161.87051" x2="112.10544" y2="172.27812" gradientUnits="userSpaceOnUse" id="color-5"><stop offset="0" stop-color="#fffa6d"/><stop offset="1" stop-color="#fee000"/></linearGradient><linearGradient x1="112.05223" y1="162.75685" x2="112.05223" y2="164.98071" gradientUnits="userSpaceOnUse" id="color-6"><stop offset="0" stop-color="#fefff8"/><stop offset="1" stop-color="#fffd87"/></linearGradient></defs><g transform="translate(-87,-147.79768)"><g data-paper-data="{&quot;isPaintingLayer&quot;:true}" fill-rule="nonzero" stroke-linejoin="miter" stroke-miterlimit="10" stroke-dasharray="" stroke-dashoffset="0" style="mix-blend-mode: normal"><path d="M88,202.20238v-53.40469h336.05739v53.40469z" fill="#cb994c" stroke="#000000" stroke-width="2" stroke-linecap="butt"/><g stroke-linecap="butt"><path d="M98.8264,167.4159c0,-7.45172 6.0408,-13.49253 13.49252,-13.49253c7.45172,0 13.49252,6.04081 13.49252,13.49253c0,7.45172 -6.04081,13.49252 -13.49252,13.49252c-7.45172,0 -13.49252,-6.0408 -13.49252,-13.49252z" fill="url(#color-1)" stroke="none" stroke-width="0"/><path d="M98.39943,166.73274c0,-7.45172 6.0408,-13.49253 13.49252,-13.49253c7.45172,0 13.49252,6.04081 13.49252,13.49253c0,7.45172 -6.0408,13.49252 -13.49252,13.49252c-7.45172,0 -13.49252,-6.0408 -13.49252,-13.49252z" fill="url(#color-2)" stroke="none" stroke-width="0"/><path d="M98.57021,166.73272c0,-7.45172 6.0408,-13.49253 13.49252,-13.49253c7.45172,0 13.49252,6.04081 13.49252,13.49253c0,7.45172 -6.0408,13.49252 -13.49252,13.49252c-7.45172,0 -13.49252,-6.0408 -13.49252,-13.49252z" fill="url(#color-3)" stroke="none" stroke-width="0"/><path d="M103.54746,177.41779l1.18326,-6.20836l-5.75283,-0.74182l4.43494,-4.29942l-4.31438,-3.5906l6.08382,-0.89788l-1.15984,-5.53649l5.83899,2.62237l2.50073,-5.21549l2.64488,5.33203l5.57683,-2.68677l-1.61416,5.58035l5.89242,0.26102l-4.01839,4.31397l4.38668,4.60423l-5.54151,0.6489l0.81619,6.07921l-5.29076,-2.69958l-3.1875,5.4616l-2.86383,-5.3751z" fill="url(#color-4)" stroke="#540000" stroke-width="1.5"/><path d="M106.90164,167.07431c0,-2.87398 2.32983,-5.2038 5.2038,-5.2038c2.87398,0 5.2038,2.32983 5.2038,5.2038c0,2.87398 -2.32983,5.2038 -5.2038,5.2038c-2.87398,0 -5.2038,-2.32983 -5.2038,-5.2038z" fill="url(#color-5)" stroke="#ffe017" stroke-width="1.5"/><path d="M114.48788,163.86878c0,0.61409 -1.09048,1.11192 -2.43564,1.11192c-1.34517,0 -2.43564,-0.49782 -2.43564,-1.11192c0,-0.61409 1.09048,-1.11192 2.43564,-1.11192c1.34517,0 2.43564,0.49782 2.43564,1.11192z" fill="url(#color-6)" stroke="#ffe017" stroke-width="0"/></g><path d="M136.42456,148.93131v52.25" fill="none" stroke="#000000" stroke-width="2" stroke-linecap="round"/><path d="M93.42456,197.68131v-14.25h37.25v14.25z" fill="#ffffe5" stroke="none" stroke-width="NaN" stroke-linecap="butt"/></g></g></svg>