<svg version="1.1" xmlns="http://www.w3.org/2000/svg" xmlns:xlink="http://www.w3.org/1999/xlink" width="77.6035" height="56.2655" viewBox="0,0,77.6035,56.2655"><defs><linearGradient x1="208.06445" y1="194.68805" x2="273.82836" y2="194.68805" gradientUnits="userSpaceOnUse" id="color-1"><stop offset="0" stop-color="#e1cc6c"/><stop offset="1" stop-color="#b48f32"/></linearGradient><radialGradient cx="244.0441" cy="164.22197" r="9.1" gradientUnits="userSpaceOnUse" id="color-2"><stop offset="0" stop-color="#e4e2e0"/><stop offset="1" stop-color="#8d8888"/></radialGradient></defs><g transform="translate(-199.82676,-153.62197)"><g data-paper-data="{&quot;isPaintingLayer&quot;:true}" fill-rule="nonzero" stroke-linejoin="miter" stroke-miterlimit="10" stroke-dasharray="" stroke-dashoffset="0" style="mix-blend-mode: normal"><path d="M240.74409,185.12197v-12.8h6.2v12.8z" fill="#9a9696" stroke="#000000" stroke-width="3" stroke-linecap="butt"/><path d="M210.97808,202.98468c0,0 -3.39306,-0.72294 -2.86207,-2.25725c2.06313,-5.96143 10.62321,-21.03125 33.84533,-21.20301c19.68462,-0.14559 29.1756,16.00498 31.81169,21.44276c0.53312,1.09973 -2.15966,3.90444 -2.15966,3.90444" fill="url(#color-1)" stroke="#000000" stroke-width="3" stroke-linecap="round"/><path d="M234.9441,164.22197c0,-5.02579 4.07421,-9.1 9.1,-9.1c5.02579,0 9.1,4.07421 9.1,9.1c0,5.02579 -4.07421,9.1 -9.1,9.1c-5.02579,0 -9.1,-4.07421 -9.1,-9.1z" fill="url(#color-2)" stroke="#000000" stroke-width="3" stroke-linecap="butt"/><path d="M244.22547,195.31952c0,2.87188 -1.65655,5.2 -3.7,5.2c-2.04345,0 -3.7,-2.32812 -3.7,-5.2c0,-2.87188 1.65654,-5.2 3.7,-5.2c2.04345,0 3.7,2.32812 3.7,5.2z" fill="#000000" stroke="none" stroke-width="0" stroke-linecap="butt"/><path d="M240.64299,193.59616c0,0.65508 -0.6536,1.18614 -1.45986,1.18614c-0.80625,0 -1.45986,-0.53106 -1.45986,-1.18614c0,-0.65508 0.6536,-1.18613 1.45986,-1.18613c0.80625,0 1.45986,0.53105 1.45986,1.18613z" fill="#fffef6" stroke="none" stroke-width="0" stroke-linecap="butt"/><path d="M263.1028,193.06179c0,2.56954 -1.48215,4.65256 -3.31047,4.65256c-1.82833,0 -3.31047,-2.08302 -3.31047,-4.65256c0,-2.56954 1.48215,-4.65256 3.31047,-4.65256c1.82833,0 3.31047,2.08302 3.31047,4.65256z" fill="#000000" stroke="none" stroke-width="0" stroke-linecap="butt"/><path d="M259.89748,191.51986c0,0.58612 -0.58479,1.06126 -1.30616,1.06126c-0.72137,0 -1.30616,-0.47514 -1.30616,-1.06126c0,-0.58612 0.58479,-1.06126 1.30616,-1.06126c0.72137,0 1.30616,0.47514 1.30616,1.06126z" fill="#fffef6" stroke="none" stroke-width="0" stroke-linecap="butt"/><path d="M261.09353,199.05353c0,0 -3.89716,1.29555 -5.80423,1.56524c-2.6271,0.37151 -9.22467,0.89141 -9.22467,0.89141" fill="none" stroke="#000000" stroke-width="1.5" stroke-linecap="round"/><path d="M253.67553,205.79955l-2.84298,-4.01828l3.7739,-0.9487l0.77107,4.64441z" fill="#ffffff" stroke="#000000" stroke-width="1.5" stroke-linecap="butt"/><path d="M256.10051,205.42466l-0.82516,-4.63805l3.94401,0.04054l-1.37562,4.51469z" data-paper-data="{&quot;index&quot;:null}" fill="#ffffff" stroke="#000000" stroke-width="1.5" stroke-linecap="butt"/><path d="M220.6472,202.11072c0,1.786 -2.42156,3.23383 -5.40871,3.23383c-2.98716,0 -5.40872,-1.44783 -5.40872,-3.23383c0,-1.786 2.42157,-3.23383 5.40872,-3.23383c2.98716,0 5.40871,1.44783 5.40871,3.23383z" fill="#8c5b37" stroke="none" stroke-width="0" stroke-linecap="butt"/><path d="M226.9128,202.25748c0,1.1366 -1.32103,2.058 -2.95061,2.058c-1.62958,0 -2.95061,-0.9214 -2.95061,-2.058c0,-1.1366 1.32103,-2.058 2.95061,-2.058c1.62958,0 2.95061,0.9214 2.95061,2.058z" fill="#8c5b37" stroke="none" stroke-width="0" stroke-linecap="butt"/><path d="M236.04921,202.77987c0,1.62949 -2.1198,2.95046 -4.7347,2.95046c-2.6149,0 -4.73469,-1.32097 -4.73469,-2.95046c0,-1.62949 2.11979,-2.95047 4.73469,-2.95047c2.6149,0 4.7347,1.32097 4.7347,2.95047z" fill="#8c5b37" stroke="none" stroke-width="0" stroke-linecap="butt"/><path d="M243.4124,204.74543c0,1.45279 -1.88993,2.63052 -4.22127,2.63052c-2.33135,0 -4.22127,-1.17772 -4.22127,-2.63052c0,-1.45279 1.88992,-2.63052 4.22127,-2.63052c2.33135,0 4.22127,1.17773 4.22127,2.63052z" fill="#8c5b37" stroke="none" stroke-width="0" stroke-linecap="butt"/><path d="M255.99073,205.53322c0,1.59937 -3.07839,2.89591 -6.87577,2.89591c-3.79738,0 -6.87576,-1.29654 -6.87576,-2.89591c0,-1.59937 3.07837,-2.89592 6.87576,-2.89592c3.79738,0 6.87577,1.29655 6.87577,2.89592z" fill="#8c5b37" stroke="none" stroke-width="0" stroke-linecap="butt"/><path d="M263.11389,206.20444c0,1.31109 -1.57877,2.37394 -3.52628,2.37394c-1.94752,0 -3.52628,-1.06285 -3.52628,-2.37394c0,-1.31109 1.57877,-2.37394 3.52628,-2.37394c1.94752,0 3.52628,1.06285 3.52628,2.37394z" fill="#8c5b37" stroke="none" stroke-width="0" stroke-linecap="butt"/><path d="M271.59647,203.87713c0,1.93539 -2.33053,3.50433 -5.20539,3.50433c-2.87486,0 -5.20538,-1.56894 -5.20538,-3.50433c0,-1.93539 2.33052,-3.50433 5.20538,-3.50433c2.87486,0 5.20539,1.56894 5.20539,3.50433z" fill="#8c5b37" stroke="none" stroke-width="0" stroke-linecap="butt"/><path d="M272.71491,201.75907c0,1.92214 -2.10778,3.48035 -4.70788,3.48035c-2.60009,0 -4.70787,-1.55821 -4.70787,-3.48035c0,-1.92214 2.10778,-3.48034 4.70787,-3.48034c2.60009,0 4.70788,1.5582 4.70788,3.48035z" fill="#8c5b37" stroke="none" stroke-width="0" stroke-linecap="butt"/><path d="M210.69167,200.99132c0,1.57992 -2.20545,2.86069 -4.92603,2.86069c-2.72057,0 -4.92603,-1.28078 -4.92603,-2.86069c0,-1.57992 2.20545,-2.8607 4.92603,-2.8607c2.72057,0 4.92603,1.28078 4.92603,2.8607z" fill="#8c5b37" stroke="none" stroke-width="0" stroke-linecap="butt"/><path d="M205.96906,199.29971c-0.83128,0.38204 -1.77226,0.52677 -2.88744,0.51796c-0.40446,0.40305 -1.05515,0.63629 -1.21814,1.17517c-0.59298,1.96054 4.39063,2.0645 5.40082,1.54907c0.98489,-0.29201 1.61619,-0.21842 2.12087,0.00641c-0.02313,-0.08439 -0.03548,-0.17324 -0.03548,-0.26497c0,-0.11876 0.0207,-0.23269 0.0587,-0.33837l0.33046,-0.99137l0.24177,0.08058l0.03987,-0.05981c-0.00779,-0.42091 -0.08469,-0.81763 -0.32215,-1.1596c-0.42577,-0.61318 -2.10989,-0.64249 -3.72927,-0.51508zM212.29027,203.98947c1.69543,0.12092 3.66066,0.11075 5.33166,-0.15941c0.64475,-0.10424 1.30865,-0.4829 1.97414,-0.75c-0.0711,-0.13743 -0.11125,-0.29345 -0.11125,-0.45885v-1.01351h0.13464l0.0125,-0.08746l-0.09076,-0.24354c0.04255,-0.05259 0.09149,-0.10777 0.14628,-0.16509c-0.25921,-0.47047 -0.05706,-1.10859 -0.96171,-1.46242c-1.96003,-0.7666 -5.54131,0.84676 -6.90867,2.23587l-0.62674,0.94011c-0.15601,0.24157 -0.41332,0.41159 -0.71183,0.44998c0.46141,0.33909 0.98274,0.6552 1.81177,0.71433zM223.01177,203.87351c0.66034,0.29985 1.88979,-0.48915 2.74017,-0.56033c-0.00361,-0.01926 -0.00666,-0.03873 -0.00915,-0.05837l-0.16684,-1.16788l0.22021,-0.03146c-0.1006,-0.41463 -0.17068,-0.83802 -0.3725,-1.54289c-0.03841,-0.13413 -1.9064,0.68792 -1.91992,0.69242c-0.51118,0.17025 -1.40968,0.22564 -1.886,0.55674l-0.1409,0.98631c-0.00856,0.06759 -0.02386,0.13307 -0.04521,0.19575c0.54512,0.2291 1.03494,0.68213 1.58013,0.9297zM229.0029,204.86014c1.29861,0.21213 2.96962,-0.06718 4.3058,0.04605l0.24771,-0.74312l0.02813,0.00937l-0.00332,-0.07583c0.29471,-0.57836 0.74408,-1.10614 1.29563,-1.56005c0.19515,-0.43851 0.28617,-0.90213 -0.1359,-1.48264c-0.46739,-0.64285 -1.5774,-0.30436 -2.26288,-0.30436c-2.27756,0 -3.04671,0.06679 -4.49964,1.80985l-0.28763,0.86288c-0.05926,0.19268 -0.17515,0.36054 -0.32827,0.48415c0.52371,0.34986 1.01408,0.75553 1.64038,0.95369zM236.16464,203.94137c-0.21847,0.31552 -0.46139,0.61886 -0.71595,0.90196l0.33138,0.27615l-0.55743,0.66891c0.28584,0.2475 0.57692,0.48589 0.92359,0.60543c1.59964,0.55163 3.46523,-0.66775 5.03651,-0.54563c0.24775,0.01925 0.47843,0.07458 0.69794,0.15297l0.08398,-0.50384l0.26621,0.04437l0.16359,-0.32719l0.03303,0.01651c-0.02563,-0.39533 -0.11222,-0.7676 -0.33894,-1.09027c-1.25144,-1.7811 -4.34528,-1.53711 -5.92389,-0.19939zM244.36322,207.22227c1.97929,0.48406 4.48919,0.14217 6.527,0.14217c1.39728,0 2.91569,-0.51957 4.31137,-0.65541l-0.54417,-0.43534l0.23535,-0.29419c-1.07237,-0.93034 -1.90848,-2.02821 -3.32455,-2.58518c-2.80462,-1.10312 -5.80002,0.79587 -7.42082,2.78642l-0.40633,0.81266c0.19929,0.09554 0.40489,0.17574 0.62214,0.22887zM259.35639,207.88231c1.041,-0.20239 1.56261,-0.92104 2.33031,-1.40625c-0.2436,-0.04511 -0.4562,-0.17852 -0.60339,-0.36577l-0.66991,-0.83738l0.0705,-0.0564l-0.12168,-0.18252l0.0428,-0.02854c-1.11773,-0.78619 -1.81474,-1.12444 -3.27832,0.42049v0.74254c0,0.27303 -0.10943,0.52051 -0.28682,0.70097c0.84968,0.3691 1.76084,1.15976 2.5165,1.01284zM263.2213,206.01309c2.69561,-0.06444 6.73869,0.28677 8.11037,-2.5795c0.13758,-0.15306 0.28422,-0.28373 0.4384,-0.39546l-0.32052,-0.25641c-0.69112,-0.25829 -1.25426,-0.78279 -1.91084,-1.12032c-2.00745,-1.03195 -8.01311,-1.21426 -7.42377,2.39612l0.57948,0.86921c0.11073,0.16096 0.17553,0.35595 0.17553,0.56608c0,0.21487 -0.06776,0.4139 -0.18309,0.57691c0.16435,-0.03221 0.34154,-0.05202 0.53444,-0.05663zM208.27156,197.25448c0.71155,0.04942 1.34302,0.17116 1.81016,0.39955c0.52136,0.25491 1.18061,1.06202 1.55924,1.86299c1.93167,-1.30442 4.59262,-2.28038 6.6434,-1.93627c1.09696,0.18407 2.60229,0.99794 3.20107,2.16943c1.2607,-0.77059 2.78811,-1.435 3.72912,-1.33845c0.95972,0.09847 1.90909,1.01492 2.23599,1.94001c2.02135,-1.6675 4.92077,-2.52897 7.55448,-1.5458c1.5353,0.57313 2.12203,1.47959 2.14195,2.47857c2.43219,-0.84358 5.33191,-0.5296 6.66657,1.84414c0.06313,0.11229 0.121,0.23099 0.1724,0.3534c1.89082,-1.6681 4.13701,-2.45804 6.98676,-2.19529c1.00917,0.09305 3.96723,1.44511 4.70655,2.83805c0.6737,-0.95863 1.30196,-1.77143 2.65214,-1.98396c0.56457,-0.08886 1.35642,0.05261 2.02539,0.34803c0.92115,-3.18128 5.21074,-3.84841 8.49762,-3.11845c-0.50904,-1.09092 -0.20053,-2.15472 1.92341,-2.90961c0.5196,-0.26134 1.19281,-0.27371 1.60532,-0.68373c0.25366,-0.25213 2.83864,1.5483 4.07896,3.43215c1.23608,1.87741 1.12891,3.83767 0.56233,3.93176c-0.97683,0.16223 -3.51109,0.47123 -4.00809,1.3705c-1.39272,2.6889 -4.75663,3.48705 -7.59909,3.50159c-0.66318,0.00339 -2.25113,-0.28857 -2.87845,-0.05637c-1.10744,0.40992 -1.50345,1.68882 -2.88501,1.90336c-1.48033,0.22987 -2.2861,-1.05942 -3.6053,-1.17438c-1.52138,-0.13258 -3.50562,0.67874 -5.15827,0.67874c-2.19423,0 -4.85354,0.34553 -6.98651,-0.19567c-0.96745,-0.24547 -1.88025,-1.25161 -2.90059,-1.32864c-1.74399,-0.13166 -3.58617,1.07251 -5.43646,0.46789c-0.74724,-0.24418 -1.18377,-1.14276 -1.9471,-1.33071c-1.38066,-0.33996 -3.53811,0.08841 -5.09876,-0.17614c-0.89017,-0.30608 -1.92177,-1.36352 -2.77927,-1.5019c-1.16077,-0.18732 -2.06462,0.88387 -3.39177,0.4615c-0.03988,-0.0127 -1.125,-0.98006 -1.5271,-0.95714c-0.91283,0.05202 -1.95957,0.84349 -2.88036,1.0006c-1.81319,0.30937 -3.97892,0.32807 -5.81699,0.17843c-1.83243,-0.14918 -2.78545,-2.13655 -4.09565,-1.59298c-2.44269,1.19973 -9.04909,0.17928 -8.11268,-3.85634c0.09395,-0.40491 0.37374,-0.71342 0.69008,-1.00565c-0.02678,-0.09028 -0.04116,-0.18589 -0.04116,-0.28486c0,-0.3992 0.23391,-0.74377 0.57216,-0.90411l0.53182,-0.26591c-0.00061,-0.47161 6.92435,-1.28029 6.60168,-0.81833z" fill="#000000" stroke="none" stroke-width="0.5" stroke-linecap="butt"/><path d="M219.47444,197.60544c0,0.83552 -1.77146,1.51284 -3.95667,1.51284c-2.1852,0 -3.95667,-0.67732 -3.95667,-1.51284c0,-0.83552 1.77147,-1.51284 3.95667,-1.51284c2.1852,0 3.95667,0.67732 3.95667,1.51284z" fill="#af8a2c" stroke="none" stroke-width="0" stroke-linecap="butt"/><path d="M229.79067,188.47462c0,0.83552 -1.35951,1.51284 -3.03655,1.51284c-1.67704,0 -3.03655,-0.67732 -3.03655,-1.51284c0,-0.83552 1.35951,-1.51284 3.03655,-1.51284c1.67704,0 3.03655,0.67732 3.03655,1.51284z" fill="#af8a2c" stroke="none" stroke-width="0" stroke-linecap="butt"/><path d="M234.17726,198.38191c0,1.06137 -1.35951,1.92178 -3.03655,1.92178c-1.67704,0 -3.03655,-0.86041 -3.03655,-1.92178c0,-1.06137 1.35951,-1.92179 3.03655,-1.92179c1.67704,0 3.03655,0.86042 3.03655,1.92179z" fill="#af8a2c" stroke="none" stroke-width="0" stroke-linecap="butt"/><path d="M247.96948,186.61533c0,1.06137 -1.35951,1.92178 -3.03655,1.92178c-1.67704,0 -3.03655,-0.86041 -3.03655,-1.92178c0,-1.06137 1.35951,-1.92179 3.03655,-1.92179c1.67704,0 3.03655,0.86042 3.03655,1.92179z" fill="#af8a2c" stroke="none" stroke-width="0" stroke-linecap="butt"/><path d="M274.81963,199.32325c0.59806,1.17011 0.46425,2.43486 -0.29887,2.82489c-0.76311,0.39004 -1.86656,-0.24234 -2.46462,-1.41245c-0.59806,-1.17011 -0.46425,-2.43486 0.29887,-2.82489c0.76311,-0.39004 1.86656,0.24234 2.46462,1.41245z" fill="#8c5b37" stroke="none" stroke-width="0" stroke-linecap="butt"/></g></g></svg>