<svg version="1.1" xmlns="http://www.w3.org/2000/svg" xmlns:xlink="http://www.w3.org/1999/xlink" width="238.75171" height="42.66882" viewBox="0,0,238.75171,42.66882"><g transform="translate(-119.92007,-151.1724)"><g data-paper-data="{&quot;isPaintingLayer&quot;:true}" fill-rule="nonzero" stroke-linejoin="miter" stroke-miterlimit="10" stroke-dasharray="" stroke-dashoffset="0" style="mix-blend-mode: normal"><path d="M122.77963,186.58973v-14.64646h7.88343v14.64646z" fill="#8a93c5" stroke="none" stroke-width="0" stroke-linecap="butt"/><path d="M350.10312,187.92241v-16.33333h6.11305v16.33333z" fill="#8a93c5" stroke="none" stroke-width="0" stroke-linecap="butt"/><path d="M123.01353,192.99212v-7.84152h235.14206v7.84152z" fill="#8a93c5" stroke="#000000" stroke-width="0" stroke-linecap="butt"/><path d="M122.30763,174.89688v-7.84152h235.14206v7.84152z" fill="#8a93c5" stroke="#000000" stroke-width="0" stroke-linecap="butt"/><path d="M121.84441,167.00788h235.32737v25.33334h-235.32736z" fill="none" stroke="#000000" stroke-width="3" stroke-linecap="round"/><path d="M130.14759,174.34122h219.61228v11.33333h-219.7624v-11.2827" fill="none" stroke="#000000" stroke-width="2.5" stroke-linecap="round"/><g><path d="M122.46745,153.88436c0,0 3.8198,-1.09494 6.28983,-0.75334c2.37924,0.32905 7.23486,3.1313 11.37664,4.1379c3.56343,0.86605 6.64324,-0.02258 6.64324,-0.02258c0,0 -0.88941,6.42108 -0.94661,9.48093c-0.05774,3.08912 0.6018,8.96687 0.6018,8.96687c0,0 -3.92274,1.95242 -6.54952,1.6217c-2.41327,-0.30383 -8.01655,-2.96131 -12.04249,-4.13239c-3.31914,-0.96549 -5.37289,-0.50649 -5.37289,-0.50649" fill="#c42126" stroke="#000000" stroke-width="1" stroke-linecap="round"/><path d="M132.48229,159.97495c-0.00132,0.05499 -0.0211,0.11656 -0.07322,0.1817c-0.09259,0.11574 -0.19653,0.12942 -0.27847,0.11327c-0.03882,0.04454 -0.20387,0.2083 -0.41493,0.05c-0.14934,-0.11201 -0.13745,-0.24706 -0.10642,-0.33408c-0.78877,-0.26083 -1.64234,0.59175 -2.40795,1.07973c-0.2339,0.14908 -0.45959,0.26414 -0.67271,0.30301c-0.65605,0.11967 -1.15835,-0.08684 -1.68387,0.43868c-0.62587,1.01224 0.09173,1.59137 0.32221,2.52339c0.18681,0.75544 -0.46545,0.86087 -0.47951,1.62078c-0.00513,0.27724 0.64884,0.498 0.81868,0.71928c0.25191,0.3282 0.26687,0.65991 0.33074,1.05022c0.5154,1.56188 1.60352,0.97506 2.77718,1.0957c0.9686,0.09957 2.03542,0.9765 3.09769,0.49034c0.51596,-0.52739 0.78827,-0.41729 1.42061,-0.20253c0.59924,0.20353 1.24061,-0.0899 1.77405,0.1957c0.51308,0.2747 0.61032,0.65922 0.80752,1.13427c0.0427,0.10287 0.63485,0.03229 0.68683,0.03306c0.59405,0.00878 0.85769,0.42912 1.40546,0.08829c0.51988,-0.2209 1.63112,-0.4802 1.70906,-1.21868c0.02564,-0.24299 -0.33668,-0.2192 -0.37676,-0.42264c-0.09079,-0.46073 0.37187,-1.44261 0.32268,-2.03255c-0.05805,-0.69627 -0.48226,-1.2849 -0.49221,-1.95509c-0.26622,-0.69362 -0.28243,-1.47464 -0.92637,-1.95799c-0.40392,-0.30319 -0.8819,0.01208 -1.33605,-0.34085c-0.44038,-0.34222 -0.53452,-0.9589 -0.98805,-1.31956c-0.44561,-0.35437 -1.1526,-0.20789 -1.68141,-0.25668c-0.71425,-1.16398 -2.25284,-1.68828 -3.55478,-1.07679zM132.03549,159.5275c1.25732,-0.63694 3.88979,-0.58096 4.31974,1.00946c1.6559,-0.43605 1.78541,0.81967 2.73176,1.6204c0.3431,0.2903 0.88576,0.03648 1.30945,0.32053c0.80835,0.54193 0.86404,1.51302 1.16797,2.34094c-0.00955,0.55991 0.34592,1.08275 0.44165,1.65768c0.09512,0.57123 0.13801,1.26381 -0.00481,1.83123c-0.04363,0.17334 -0.36422,0.30466 -0.27568,0.45994c0.1144,0.20065 0.38644,0.33859 0.39484,0.56941c0.03784,1.03991 -1.33323,1.45173 -2.03872,1.75749c-0.45837,0.26703 -2.48223,0.17843 -2.86802,-0.31957c-0.30308,-0.39123 -0.16568,-0.62419 -0.62545,-0.96007c-0.16671,-0.12179 -0.71701,0.01751 -0.93437,-0.01348c-0.7023,-0.10013 -1.06644,-0.51957 -1.60288,0.00665c-0.82734,0.34287 -2.16633,0.21837 -3.02659,-0.07565c-0.18374,-0.06279 -0.29547,-0.30728 -0.48945,-0.31584c-1.45929,-0.06447 -2.68163,0.24855 -3.28541,-1.54979c-0.15535,-0.91744 -1.06075,-1.0733 -1.1654,-1.86804c-0.08536,-0.64828 0.3263,-0.91074 0.57959,-1.31111c0.03796,-0.06 -0.47615,-0.94112 -0.50987,-1.04191c-0.26057,-0.77867 -0.20418,-1.50236 0.2139,-2.2109c0.75797,-0.75797 1.5327,-0.29979 2.29847,-0.74095c1.01976,-0.58747 2.16635,-1.7562 3.36927,-1.1664z" fill="#000000" stroke="#fae5ca" stroke-width="3" stroke-linecap="butt"/><path d="M120.42007,193.04365v-40.73945h1.92113v40.73945z" fill="#805e3b" stroke="#000000" stroke-width="1" stroke-linecap="butt"/><path d="M137.23895,169.63167c0,0 -2.17867,-0.19158 -2.57811,-0.51148c-0.22854,-0.18303 -1.46715,0.88541 -1.9092,0.46379c-0.35791,-0.34138 -1.52466,-0.15716 -1.92965,-0.65089c-0.38685,-0.47161 -2.00871,0.59036 -2.37318,0.0182c-0.29536,-0.46367 -0.74536,-1.04869 -0.94544,-1.61367c-0.13837,-0.39074 -0.97597,-1.10589 -1.06886,-1.51256c-0.16351,-0.71588 0.31803,-0.68593 0.34861,-1.30801c0.03892,-0.79158 -0.53379,-1.36608 -0.54557,-2.01418c-0.01009,-0.5554 0.31104,-0.89949 0.31104,-0.89949c0,0 -0.08619,-0.21276 0.86642,-0.43772c0.3376,-0.07972 0.3664,-0.26235 1.18591,-0.29676c1.39169,-0.05845 -0.46486,-0.91768 2.59174,-1.00491c1.10242,-0.03146 1.13003,-0.45684 2.48261,-0.45418c1.36638,0.00269 0.90001,0.96672 2.42782,1.01814c2.2372,0.07528 1.81423,1.16587 2.69024,1.58892c1.03557,0.50011 1.00522,0.72018 1.78138,1.24655c0.22282,-0.72932 0.68886,2.60674 0.68886,2.60674c0,0 0.23696,0.86784 0.2532,1.33679c0.01805,0.52082 -0.14976,1.64889 -0.14976,1.64889c0,0 0.26309,1.09431 -0.12067,1.24743c-0.28013,0.11177 -0.20711,0.25975 -0.92839,0.41546c-0.28486,0.0615 -0.95196,0.31589 -1.26468,0.35223c-1.76732,0.20533 -1.81433,-1.23928 -1.81433,-1.23928z" fill="#facd93" stroke="none" stroke-width="0" stroke-linecap="butt"/><path d="M132.39291,159.94398c-0.00132,0.05499 -0.0211,0.11656 -0.07322,0.1817c-0.09259,0.11574 -0.19653,0.12942 -0.27847,0.11327c-0.03882,0.04454 -0.20386,0.2083 -0.41492,0.05c-0.14934,-0.11201 -0.13745,-0.24705 -0.10642,-0.33407c-0.78877,-0.26083 -1.64234,0.59175 -2.40795,1.07973c-0.2339,0.14908 -0.45959,0.26414 -0.67271,0.30301c-0.65605,0.11967 -1.15834,-0.08683 -1.68386,0.43869c-0.62587,1.01224 0.09173,1.59137 0.32221,2.52339c0.18681,0.75544 -0.46545,0.86086 -0.47952,1.62077c-0.00513,0.27724 0.64884,0.49801 0.81868,0.71929c0.25191,0.3282 0.26687,0.65991 0.33074,1.05022c0.5154,1.56188 1.60352,0.97505 2.77718,1.0957c0.9686,0.09957 2.03542,0.97651 3.09769,0.49034c0.51596,-0.52739 0.78827,-0.4173 1.42061,-0.20253c0.59924,0.20353 1.24061,-0.0899 1.77405,0.1957c0.51308,0.2747 0.61032,0.65922 0.80752,1.13427c0.0427,0.10287 0.63485,0.03229 0.68683,0.03306c0.59405,0.00878 0.8577,0.42912 1.40546,0.08829c0.51988,-0.2209 1.63112,-0.4802 1.70906,-1.21868c0.02564,-0.24299 -0.33668,-0.21921 -0.37676,-0.42265c-0.09078,-0.46073 0.37187,-1.4426 0.32268,-2.03255c-0.05805,-0.69627 -0.48226,-1.2849 -0.49221,-1.95509c-0.26622,-0.69362 -0.28243,-1.47464 -0.92637,-1.95799c-0.40393,-0.30319 -0.88189,0.01208 -1.33605,-0.34085c-0.44038,-0.34222 -0.53452,-0.9589 -0.98805,-1.31956c-0.44561,-0.35437 -1.1526,-0.20789 -1.68141,-0.25668c-0.71425,-1.16398 -2.25284,-1.68827 -3.55478,-1.07679zM131.94611,159.49654c1.25732,-0.63694 3.8898,-0.58096 4.31974,1.00945c1.6559,-0.43605 1.78541,0.81967 2.73176,1.62041c0.34309,0.2903 0.88576,0.03648 1.30945,0.32053c0.80835,0.54193 0.86404,1.51302 1.16797,2.34094c-0.00955,0.55991 0.34591,1.08275 0.44165,1.65768c0.09512,0.57123 0.13801,1.2638 -0.00481,1.83123c-0.04363,0.17334 -0.36422,0.30466 -0.27568,0.45994c0.1144,0.20065 0.38644,0.3386 0.39484,0.56942c0.03783,1.03991 -1.33323,1.45173 -2.03872,1.75749c-0.45836,0.26703 -2.48223,0.17843 -2.86801,-0.31957c-0.30308,-0.39123 -0.16569,-0.62419 -0.62545,-0.96007c-0.16672,-0.12179 -0.71702,0.01751 -0.93437,-0.01348c-0.70229,-0.10013 -1.06643,-0.51957 -1.60287,0.00665c-0.82734,0.34287 -2.16633,0.21837 -3.02659,-0.07565c-0.18374,-0.06279 -0.29547,-0.30728 -0.48945,-0.31584c-1.45929,-0.06447 -2.68162,0.24855 -3.28541,-1.54979c-0.15535,-0.91744 -1.06075,-1.0733 -1.1654,-1.86805c-0.08536,-0.64828 0.3263,-0.91074 0.57959,-1.31111c0.03796,-0.06 -0.47615,-0.94112 -0.50987,-1.04191c-0.26057,-0.77867 -0.20418,-1.50236 0.2139,-2.2109c0.75797,-0.75797 1.5327,-0.29979 2.29847,-0.74095c1.01976,-0.58747 2.16634,-1.7562 3.36926,-1.1664z" fill="#000000" stroke="#000000" stroke-width="0.5" stroke-linecap="butt"/><path d="M130.74181,161.94207c0.13531,0.27063 -0.13531,0.40595 -0.13531,0.40595l-0.16401,0.082c-0.92443,0.45701 -1.49518,0.70294 -1.90437,1.72773c0,0 -0.11237,0.28094 -0.39331,0.16856c-0.28094,-0.11238 -0.16856,-0.39331 -0.16856,-0.39331c0.08504,-0.21225 0.17678,-0.39717 0.27627,-0.56089c-0.13224,-0.03306 -0.26448,-0.06612 -0.39672,-0.09918c0,0 -0.29354,-0.07339 -0.22015,-0.36693c0.07339,-0.29354 0.36693,-0.22016 0.36693,-0.22016c0.21866,0.05466 0.43732,0.10934 0.65599,0.164l0.00862,-0.00904c0,0 0.00057,0 0.00166,0.00003c0.39274,-0.38989 0.88163,-0.63717 1.50302,-0.95208l0.16399,-0.082c0,0 0.27064,-0.13532 0.40596,0.13531z" fill="#000000" stroke="none" stroke-width="0.5" stroke-linecap="butt"/><path d="M136.75972,162.15938c0,0.30258 -0.30258,0.30258 -0.30258,0.30258c-0.06277,0 -0.13229,0 -0.20469,0c0.00967,0.03072 0.01526,0.06628 0.01526,0.10742c0,0.30258 -0.30257,0.30257 -0.30257,0.30257l-0.35264,-0.16726c-0.36752,-0.75815 -1.17622,-0.75826 -1.92069,-0.90461c0,0 -0.2967,-0.05935 -0.23736,-0.35604c0.05934,-0.2967 0.35604,-0.23736 0.35604,-0.23736c0.71436,0.14569 1.39327,0.22135 1.89656,0.65064c0.0077,-0.00053 0.01208,-0.00053 0.01208,-0.00053c0.21866,0 0.43734,0 0.656,0h0.082c0,0 0.30257,-0.00001 0.30257,0.30257z" fill="#000000" stroke="none" stroke-width="0.5" stroke-linecap="butt"/><path d="M140.68017,166.51905c-0.09569,0.28705 -0.38274,0.19136 -0.38274,0.19136l-0.2237,-0.07551c-0.11584,-0.02896 -0.23168,-0.05792 -0.34752,-0.08688c-0.01621,0.38451 -0.08269,0.75046 -0.20015,1.05371l0.02164,0.05162c0,0 0,0.30258 -0.30258,0.30258c-0.30258,0 -0.30258,-0.30258 -0.30258,-0.30258l0.02164,-0.27638c0.30124,-0.72315 0.19898,-2.11193 -0.28913,-2.74006c0,0 -0.18155,-0.24206 0.06052,-0.42361c0.24206,-0.18154 0.4236,0.06051 0.4236,0.06051c0.30622,0.41932 0.49045,1.02631 0.54981,1.64612c0.1705,0.04262 0.341,0.08525 0.51151,0.12787l0.2683,0.08849c0,0 0.28705,0.09569 0.19137,0.38274z" fill="#000000" stroke="none" stroke-width="0.5" stroke-linecap="butt"/><path d="M137.31819,165.28905c-0.09569,0.28705 -0.38274,0.19137 -0.38274,0.19137l-0.15031,-0.06647c-0.78677,0 -2.13467,0.12847 -2.33045,1.0828c0,0 -0.07339,0.29354 -0.36693,0.22016c-0.29354,-0.07339 -0.22016,-0.36693 -0.22016,-0.36693c0.12894,-0.46374 0.4042,-0.79505 0.75762,-1.02853l-0.11579,-0.25457c-0.22627,-0.13308 -0.47199,-0.23046 -0.71347,-0.33339c0,0 -0.27811,-0.11919 -0.15892,-0.3973c0.11919,-0.27812 0.3973,-0.15893 0.3973,-0.15893c0.32039,0.13798 0.63848,0.28983 0.92652,0.4866l0.20665,0.3899c0.51153,-0.18543 1.09429,-0.24497 1.61763,-0.24497l0.34168,0.09752c0,0 0.28705,0.09569 0.19137,0.38274z" fill="#000000" stroke="none" stroke-width="0.5" stroke-linecap="butt"/><path d="M133.06974,165.43936c0,0.30258 -0.30258,0.30258 -0.30258,0.30258h-0.082c-0.30563,-0.00238 -0.41892,-0.01653 -0.60157,0.15197c0.00122,0.03849 0.00189,0.07824 0.00216,0.11945v0.082c0,0 0,0.30258 -0.30258,0.30258c-0.30258,0 -0.30257,-0.30258 -0.30257,-0.30258v-0.082c0.00556,-0.71368 -0.88246,-0.95137 -0.902,-1.47599c-0.01664,-0.44696 0.53073,-0.73714 0.67152,-1.16168c0,0 0.09569,-0.28705 0.38273,-0.19137c0.28705,0.09569 0.19137,0.38273 0.19137,0.38273c-0.14026,0.4188 -0.53283,0.75054 -0.64047,0.97031c-0.08502,0.17361 0.37541,0.14596 0.5,0.29375c0.12938,0.15347 0.21841,0.29048 0.27912,0.42999c0.20078,-0.09941 0.40942,-0.12238 0.72229,-0.12432h0.082c0,0 0.30258,0 0.30258,0.30258z" fill="#000000" stroke="none" stroke-width="0.5" stroke-linecap="butt"/><path d="M131.55085,168.5144c-0.28705,0.09569 -0.38273,-0.19136 -0.38273,-0.19136l-0.06558,-0.20637c-0.05466,-0.10933 -0.10933,-0.21867 -0.164,-0.328c0,0 -0.03912,-0.07824 -0.03323,-0.1716c-0.27482,-0.12366 -0.53312,-0.26096 -0.78654,-0.41511c-0.01852,0.02044 -0.03258,0.03168 -0.03258,0.03168c-0.13666,0.10933 -0.27333,0.21867 -0.41,0.328l-0.05707,0.05968c0,0 -0.21395,0.21395 -0.42791,0c-0.21395,-0.21395 0,-0.42791 0,-0.42791l0.10693,-0.10432c0.09796,-0.07837 0.19592,-0.15673 0.29388,-0.2351c-0.25609,-0.18191 -0.51554,-0.38351 -0.79056,-0.60817c0,0 -0.23244,-0.1937 -0.03874,-0.42615c0.1937,-0.23245 0.42615,-0.03874 0.42615,-0.03874c1.07567,0.91125 1.88654,1.38361 3.32366,1.74289l0.17261,-0.00904c0,0 0.30258,0 0.30258,0.30258c0,0.30258 -0.30258,0.30258 -0.30258,0.30258l-0.31939,-0.00904c-0.24903,-0.06225 -0.48096,-0.12871 -0.69979,-0.20049l0.07624,0.22127c0,0 0.09568,0.28705 -0.19137,0.38273z" fill="#000000" stroke="none" stroke-width="0.5" stroke-linecap="butt"/><path d="M137.95777,167.76403c0.13531,0.27063 -0.13531,0.40595 -0.13531,0.40595l-0.08537,0.02533c-0.50451,0.45494 -0.82055,0.33244 -1.48148,0.25028c0,0 -0.30024,-0.03753 -0.26271,-0.33777c0.03753,-0.30024 0.33777,-0.26271 0.33777,-0.26271c0.39443,0.0496 0.72807,0.23145 0.97851,-0.07771l0.24263,-0.13868c0,0 0.27064,-0.13532 0.40595,0.13531z" fill="#000000" stroke="none" stroke-width="0.5" stroke-linecap="butt"/></g><g><path d="M230.76381,153.25257c0,0 3.8198,-1.09494 6.28983,-0.75334c2.37924,0.32905 7.23486,3.13131 11.37664,4.13791c3.56344,0.86605 6.64324,-0.02259 6.64324,-0.02259c0,0 -0.88941,6.42108 -0.94661,9.48094c-0.05774,3.08912 0.6018,8.96686 0.6018,8.96686c0,0 -3.92274,1.95242 -6.54952,1.62171c-2.41326,-0.30383 -8.01654,-2.96131 -12.04248,-4.13239c-3.31914,-0.96549 -5.37289,-0.50648 -5.37289,-0.50648" fill="#c42126" stroke="#000000" stroke-width="1" stroke-linecap="round"/><path d="M240.77865,159.34315c-0.00132,0.05499 -0.0211,0.11656 -0.07322,0.1817c-0.09259,0.11574 -0.19653,0.12942 -0.27847,0.11327c-0.03882,0.04454 -0.20387,0.2083 -0.41493,0.05c-0.14935,-0.11201 -0.13744,-0.24705 -0.10641,-0.33407c-0.78877,-0.26083 -1.64234,0.59175 -2.40795,1.07973c-0.2339,0.14908 -0.45959,0.26414 -0.67272,0.30301c-0.65605,0.11967 -1.15834,-0.08683 -1.68386,0.43869c-0.62587,1.01224 0.09173,1.59137 0.32221,2.52339c0.18681,0.75544 -0.46545,0.86086 -0.47951,1.62077c-0.00513,0.27724 0.64884,0.49801 0.81868,0.71929c0.25191,0.3282 0.26687,0.65991 0.33073,1.05022c0.5154,1.56188 1.60353,0.97505 2.77718,1.0957c0.9686,0.09957 2.03542,0.97651 3.09769,0.49034c0.51596,-0.52739 0.78827,-0.41729 1.42061,-0.20253c0.59924,0.20353 1.24061,-0.0899 1.77406,0.1957c0.51308,0.2747 0.61032,0.65923 0.80752,1.13427c0.0427,0.10287 0.63485,0.03229 0.68683,0.03305c0.59405,0.00878 0.85769,0.42912 1.40546,0.08829c0.51988,-0.2209 1.63112,-0.4802 1.70906,-1.21868c0.02565,-0.24299 -0.33668,-0.21921 -0.37676,-0.42265c-0.09078,-0.46073 0.37187,-1.4426 0.32268,-2.03255c-0.05805,-0.69627 -0.48226,-1.2849 -0.49221,-1.95509c-0.26622,-0.69362 -0.28243,-1.47464 -0.92637,-1.95799c-0.40393,-0.30319 -0.8819,0.01208 -1.33605,-0.34085c-0.44038,-0.34222 -0.53452,-0.9589 -0.98805,-1.31956c-0.44561,-0.35437 -1.1526,-0.20789 -1.68141,-0.25668c-0.71425,-1.16398 -2.25285,-1.68827 -3.55478,-1.07679zM240.33185,158.8957c1.25732,-0.63694 3.8898,-0.58096 4.31974,1.00946c1.65591,-0.43605 1.78542,0.81967 2.73176,1.62041c0.3431,0.2903 0.88576,0.03648 1.30945,0.32053c0.80835,0.54193 0.86404,1.51303 1.16797,2.34094c-0.00955,0.55991 0.34592,1.08275 0.44165,1.65767c0.09512,0.57123 0.13801,1.26381 -0.0048,1.83123c-0.04363,0.17334 -0.36422,0.30466 -0.27569,0.45994c0.11441,0.20065 0.38644,0.33859 0.39484,0.56941c0.03783,1.03991 -1.33323,1.45174 -2.03872,1.75749c-0.45837,0.26703 -2.48223,0.17843 -2.86802,-0.31957c-0.30308,-0.39123 -0.16568,-0.6242 -0.62545,-0.96008c-0.16671,-0.12179 -0.71701,0.01751 -0.93437,-0.01348c-0.70229,-0.10013 -1.06644,-0.51957 -1.60287,0.00665c-0.82734,0.34287 -2.16633,0.21837 -3.02659,-0.07565c-0.18374,-0.06279 -0.29547,-0.30728 -0.48945,-0.31584c-1.45928,-0.06447 -2.68162,0.24854 -3.28541,-1.5498c-0.15535,-0.91744 -1.06075,-1.0733 -1.1654,-1.86804c-0.08536,-0.64828 0.3263,-0.91074 0.57959,-1.31111c0.03796,-0.06 -0.47615,-0.94112 -0.50987,-1.04191c-0.26057,-0.77867 -0.20418,-1.50236 0.2139,-2.2109c0.75797,-0.75797 1.5327,-0.29979 2.29847,-0.74095c1.01976,-0.58747 2.16635,-1.75621 3.36927,-1.1664z" fill="#000000" stroke="#fae5ca" stroke-width="3" stroke-linecap="butt"/><path d="M228.71643,192.41185v-40.73945h1.92113v40.73945z" fill="#805e3b" stroke="#000000" stroke-width="1" stroke-linecap="butt"/><path d="M245.53531,168.99987c0,0 -2.17867,-0.19158 -2.57811,-0.51148c-0.22854,-0.18303 -1.46715,0.88541 -1.9092,0.46379c-0.35791,-0.34138 -1.52466,-0.15717 -1.92965,-0.6509c-0.38685,-0.47161 -2.00871,0.59036 -2.37319,0.0182c-0.29536,-0.46367 -0.74535,-1.04869 -0.94544,-1.61366c-0.13837,-0.39074 -0.97597,-1.10589 -1.06886,-1.51256c-0.16351,-0.71588 0.31803,-0.68593 0.34861,-1.308c0.03892,-0.79158 -0.53379,-1.36608 -0.54557,-2.01418c-0.01009,-0.5554 0.31104,-0.89949 0.31104,-0.89949c0,0 -0.0862,-0.21277 0.86642,-0.43772c0.3376,-0.07972 0.3664,-0.26235 1.18591,-0.29676c1.39169,-0.05845 -0.46486,-0.91768 2.59174,-1.00491c1.10242,-0.03146 1.13003,-0.45684 2.48261,-0.45418c1.36638,0.00269 0.90001,0.96672 2.42782,1.01814c2.2372,0.07528 1.81423,1.16587 2.69024,1.58893c1.03557,0.50011 1.00522,0.72018 1.78138,1.24655c0.22282,-0.72932 0.68886,2.60675 0.68886,2.60675c0,0 0.23696,0.86784 0.2532,1.33679c0.01805,0.52082 -0.14976,1.64889 -0.14976,1.64889c0,0 0.26309,1.09431 -0.12067,1.24743c-0.28014,0.11177 -0.20712,0.25975 -0.9284,0.41546c-0.28486,0.0615 -0.95196,0.3159 -1.26468,0.35223c-1.76732,0.20533 -1.81433,-1.23928 -1.81433,-1.23928z" fill="#facd93" stroke="none" stroke-width="0" stroke-linecap="butt"/><path d="M240.68927,159.31219c-0.00132,0.05499 -0.0211,0.11656 -0.07323,0.1817c-0.09259,0.11574 -0.19652,0.12942 -0.27846,0.11327c-0.03882,0.04454 -0.20387,0.2083 -0.41493,0.05c-0.14935,-0.11201 -0.13744,-0.24706 -0.10641,-0.33408c-0.78877,-0.26083 -1.64234,0.59175 -2.40795,1.07973c-0.2339,0.14908 -0.45959,0.26414 -0.67271,0.30301c-0.65605,0.11967 -1.15834,-0.08683 -1.68386,0.43869c-0.62587,1.01224 0.09173,1.59137 0.32221,2.52339c0.18681,0.75544 -0.46545,0.86086 -0.47952,1.62077c-0.00513,0.27724 0.64884,0.49801 0.81868,0.71929c0.25191,0.3282 0.26687,0.65991 0.33074,1.05022c0.5154,1.56188 1.60352,0.97505 2.77718,1.0957c0.9686,0.09957 2.03542,0.97651 3.09769,0.49035c0.51596,-0.52739 0.78827,-0.4173 1.42061,-0.20254c0.59924,0.20353 1.24061,-0.0899 1.77405,0.1957c0.51308,0.2747 0.61032,0.65922 0.80752,1.13427c0.0427,0.10287 0.63485,0.03229 0.68683,0.03305c0.59405,0.00878 0.8577,0.42912 1.40546,0.08829c0.51988,-0.2209 1.63113,-0.4802 1.70906,-1.21868c0.02565,-0.24299 -0.33668,-0.2192 -0.37676,-0.42264c-0.09078,-0.46073 0.37187,-1.44261 0.32268,-2.03255c-0.05805,-0.69627 -0.48226,-1.2849 -0.49221,-1.95509c-0.26622,-0.69362 -0.28243,-1.47464 -0.92638,-1.95799c-0.40392,-0.30319 -0.88189,0.01208 -1.33605,-0.34085c-0.44038,-0.34222 -0.53452,-0.9589 -0.98805,-1.31956c-0.44562,-0.35437 -1.1526,-0.20789 -1.68141,-0.25668c-0.71425,-1.16398 -2.25285,-1.68827 -3.55478,-1.07679zM240.24247,158.86474c1.25732,-0.63694 3.8898,-0.58096 4.31974,1.00946c1.65591,-0.43605 1.78541,0.81967 2.73175,1.62041c0.3431,0.2903 0.88576,0.03648 1.30945,0.32053c0.80836,0.54193 0.86404,1.51303 1.16797,2.34094c-0.00955,0.55991 0.34591,1.08275 0.44165,1.65767c0.09512,0.57123 0.13801,1.26381 -0.00481,1.83123c-0.04363,0.17334 -0.36422,0.30466 -0.27568,0.45994c0.11441,0.20065 0.38644,0.33859 0.39484,0.56941c0.03783,1.03991 -1.33324,1.45173 -2.03872,1.75749c-0.45837,0.26703 -2.48222,0.17843 -2.86801,-0.31957c-0.30308,-0.39123 -0.16569,-0.62419 -0.62545,-0.96007c-0.16671,-0.12179 -0.71701,0.01751 -0.93437,-0.01348c-0.70229,-0.10013 -1.06643,-0.51957 -1.60287,0.00665c-0.82733,0.34287 -2.16632,0.21837 -3.02659,-0.07564c-0.18374,-0.06279 -0.29547,-0.30728 -0.48945,-0.31584c-1.45928,-0.06447 -2.68162,0.24854 -3.2854,-1.5498c-0.15535,-0.91744 -1.06075,-1.0733 -1.1654,-1.86804c-0.08536,-0.64828 0.3263,-0.91074 0.57959,-1.31111c0.03796,-0.06 -0.47615,-0.94112 -0.50987,-1.04191c-0.26057,-0.77867 -0.20418,-1.50236 0.2139,-2.2109c0.75797,-0.75797 1.5327,-0.29979 2.29848,-0.74095c1.01976,-0.58747 2.16634,-1.75621 3.36927,-1.1664z" fill="#000000" stroke="#000000" stroke-width="0.5" stroke-linecap="butt"/><path d="M239.03817,161.31027c0.13531,0.27063 -0.13531,0.40595 -0.13531,0.40595l-0.16401,0.082c-0.92443,0.45701 -1.49518,0.70294 -1.90437,1.72773c0,0 -0.11237,0.28094 -0.39331,0.16856c-0.28094,-0.11238 -0.16856,-0.39331 -0.16856,-0.39331c0.08504,-0.21225 0.17678,-0.39718 0.27627,-0.5609c-0.13224,-0.03306 -0.26448,-0.06612 -0.39672,-0.09918c0,0 -0.29354,-0.07339 -0.22016,-0.36693c0.07339,-0.29354 0.36693,-0.22016 0.36693,-0.22016c0.21866,0.05466 0.43732,0.10933 0.65599,0.164l0.00862,-0.00903c0,0 0.00057,0 0.00166,0.00002c0.39274,-0.38989 0.88163,-0.63717 1.50302,-0.95208l0.16399,-0.082c0,0 0.27064,-0.13532 0.40596,0.13531z" fill="#000000" stroke="none" stroke-width="0.5" stroke-linecap="butt"/><path d="M245.05608,161.52759c0,0.30258 -0.30258,0.30258 -0.30258,0.30258c-0.06277,0 -0.13229,0 -0.20469,0c0.00967,0.03072 0.01526,0.06627 0.01526,0.10742c0,0.30258 -0.30257,0.30257 -0.30257,0.30257l-0.35264,-0.16726c-0.36752,-0.75815 -1.17622,-0.75826 -1.92069,-0.90461c0,0 -0.2967,-0.05935 -0.23736,-0.35604c0.05934,-0.2967 0.35604,-0.23736 0.35604,-0.23736c0.71436,0.14569 1.39326,0.22135 1.89656,0.65064c0.0077,-0.00053 0.01209,-0.00052 0.01209,-0.00052c0.21866,0 0.43733,0 0.656,0h0.082c0,0 0.30258,-0.00001 0.30258,0.30257z" fill="#000000" stroke="none" stroke-width="0.5" stroke-linecap="butt"/><path d="M248.97653,165.88725c-0.09569,0.28705 -0.38274,0.19136 -0.38274,0.19136l-0.2237,-0.07551c-0.11585,-0.02896 -0.23168,-0.05792 -0.34753,-0.08688c-0.01621,0.38451 -0.08268,0.75046 -0.20015,1.05371l0.02164,0.05162c0,0 0,0.30258 -0.30258,0.30258c-0.30258,0 -0.30258,-0.30258 -0.30258,-0.30258l0.02164,-0.27638c0.30124,-0.72315 0.19898,-2.11193 -0.28913,-2.74006c0,0 -0.18154,-0.24206 0.06052,-0.42361c0.24207,-0.18154 0.42361,0.06052 0.42361,0.06052c0.30621,0.41932 0.49045,1.02631 0.54981,1.64612c0.1705,0.04262 0.341,0.08525 0.51151,0.12787l0.2683,0.08849c0,0 0.28705,0.09569 0.19137,0.38274z" fill="#000000" stroke="none" stroke-width="0.5" stroke-linecap="butt"/><path d="M245.61455,164.65726c-0.09569,0.28705 -0.38274,0.19136 -0.38274,0.19136l-0.15031,-0.06647c-0.78677,0 -2.13467,0.12848 -2.33045,1.0828c0,0 -0.07339,0.29354 -0.36693,0.22016c-0.29354,-0.07339 -0.22015,-0.36693 -0.22015,-0.36693c0.12894,-0.46374 0.4042,-0.79505 0.75761,-1.02853l-0.11579,-0.25457c-0.22627,-0.13308 -0.47199,-0.23046 -0.71347,-0.33339c0,0 -0.27811,-0.11919 -0.15892,-0.39731c0.11919,-0.27812 0.3973,-0.15892 0.3973,-0.15892c0.32039,0.13798 0.63848,0.28982 0.92652,0.4866l0.20665,0.3899c0.51153,-0.18543 1.09429,-0.24497 1.61763,-0.24497l0.34168,0.09753c0,0 0.28705,0.09569 0.19137,0.38274z" fill="#000000" stroke="none" stroke-width="0.5" stroke-linecap="butt"/><path d="M241.3661,164.80757c0,0.30258 -0.30258,0.30258 -0.30258,0.30258h-0.082c-0.30563,-0.00238 -0.41892,-0.01654 -0.60157,0.15196c0.00122,0.03849 0.00189,0.07824 0.00216,0.11946v0.082c0,0 0,0.30258 -0.30258,0.30258c-0.30258,0 -0.30257,-0.30258 -0.30257,-0.30258v-0.082c0.00556,-0.71368 -0.88245,-0.95137 -0.90199,-1.47599c-0.01665,-0.44696 0.53073,-0.73715 0.67152,-1.16168c0,0 0.09569,-0.28705 0.38274,-0.19136c0.28705,0.09569 0.19136,0.38273 0.19136,0.38273c-0.14026,0.4188 -0.53284,0.75054 -0.64047,0.97031c-0.08502,0.17361 0.37541,0.14595 0.5,0.29374c0.12938,0.15347 0.21842,0.29048 0.27912,0.42999c0.20078,-0.09941 0.40941,-0.12238 0.72228,-0.12432h0.082c0,0 0.30258,-0.00001 0.30258,0.30257z" fill="#000000" stroke="none" stroke-width="0.5" stroke-linecap="butt"/><path d="M239.84721,167.8826c-0.28705,0.09569 -0.38273,-0.19137 -0.38273,-0.19137l-0.06558,-0.20637c-0.05466,-0.10933 -0.10934,-0.21866 -0.164,-0.328c0,0 -0.03912,-0.07824 -0.03322,-0.1716c-0.27482,-0.12366 -0.53312,-0.26096 -0.78654,-0.41512c-0.01852,0.02044 -0.03258,0.03169 -0.03258,0.03169c-0.13666,0.10933 -0.27333,0.21866 -0.41,0.32799l-0.05706,0.05968c0,0 -0.21395,0.21395 -0.42791,0c-0.21395,-0.21395 0,-0.42791 0,-0.42791l0.10693,-0.10432c0.09796,-0.07837 0.19591,-0.15673 0.29387,-0.2351c-0.25609,-0.18191 -0.51554,-0.38351 -0.79056,-0.60817c0,0 -0.23244,-0.1937 -0.03874,-0.42615c0.1937,-0.23245 0.42615,-0.03874 0.42615,-0.03874c1.07566,0.91125 1.88654,1.38361 3.32366,1.74289l0.17261,-0.00904c0,0 0.30258,0 0.30258,0.30258c0,0.30258 -0.30258,0.30258 -0.30258,0.30258l-0.31939,-0.00904c-0.24903,-0.06225 -0.48096,-0.12871 -0.69979,-0.20049l0.07624,0.22127c0,0 0.09568,0.28705 -0.19137,0.38273z" fill="#000000" stroke="none" stroke-width="0.5" stroke-linecap="butt"/><path d="M246.25413,167.13224c0.13531,0.27063 -0.13531,0.40595 -0.13531,0.40595l-0.08537,0.02532c-0.50451,0.45494 -0.82055,0.33244 -1.48147,0.25029c0,0 -0.30024,-0.03753 -0.26271,-0.33777c0.03753,-0.30024 0.33777,-0.26271 0.33777,-0.26271c0.39443,0.0496 0.72807,0.23145 0.97851,-0.07771l0.24264,-0.13868c0,0 0.27063,-0.13532 0.40595,0.13532z" fill="#000000" stroke="none" stroke-width="0.5" stroke-linecap="butt"/></g></g></g></svg>