<svg version="1.1" xmlns="http://www.w3.org/2000/svg" xmlns:xlink="http://www.w3.org/1999/xlink" width="490.99099" height="369.36937" viewBox="0,0,490.99099,369.36937"><g transform="translate(5.4955,4.68469)"><g data-paper-data="{&quot;isPaintingLayer&quot;:true}" fill-rule="nonzero" stroke-linecap="butt" stroke-linejoin="miter" stroke-miterlimit="10" stroke-dasharray="" stroke-dashoffset="0" style="mix-blend-mode: normal"><path d="M-5.4955,364.68468v-369.36937h490.99099v369.36937z" fill="#000000" stroke="none" stroke-width="0"/><text transform="translate(57.44003,147.75) scale(0.60417,0.60417)" font-size="40" xml:space="preserve" fill="#ffffff" fill-rule="nonzero" stroke="none" stroke-width="1" stroke-linecap="butt" stroke-linejoin="miter" stroke-miterlimit="10" stroke-dasharray="" stroke-dashoffset="0" font-family="Sans Serif" font-weight="normal" text-anchor="start" style="mix-blend-mode: normal"><tspan x="0" dy="0">The zombies got to your house!</tspan></text><text transform="translate(154.5,221.05126) scale(0.45222,0.45222)" font-size="40" xml:space="preserve" fill="#ffffff" fill-rule="nonzero" stroke="none" stroke-width="1" stroke-linecap="butt" stroke-linejoin="miter" stroke-miterlimit="10" stroke-dasharray="" stroke-dashoffset="0" font-family="Sans Serif" font-weight="normal" text-anchor="start" style="mix-blend-mode: normal"><tspan x="0" dy="0">Click to restart level</tspan></text><g stroke="#c0c0c0" stroke-width="1.5"><path d="M462.51414,308.81467c0,4.74874 -5.35113,8.99873 -7.01407,12.40504c-1.30965,2.68262 0.33783,5.31028 -0.95429,7.41871c-4.29053,7.0011 -6.3013,5.60261 -16.96382,11.96154c-0.46516,0.2774 -11.68369,11.54804 -17.76507,7.25139c-5.51476,-3.8963 -11.53812,-4.17809 -11.55431,-6.51813c-0.03212,-4.63872 22.6101,-0.43497 23.36588,-2.532c1.78079,-4.94114 5.72839,-10.29921 2.51721,-12.80602c-6.98484,-5.45271 -31.80884,0.53355 -36.48084,-4.55353c-6.28666,-6.8452 -5.98461,-5.36644 -5.98461,-14.13745c0,-4.89194 2.30808,-5.82003 0.60948,-10.00526c-2.34536,-5.77875 3.46631,-12.36542 7.13947,-16.39276c5.03579,-5.52137 26.15013,-9.36859 33.23908,-9.36859c8.48159,0 17.15641,0.06061 22.45592,7.64703c4.70053,6.72895 7.39,19.80279 7.39,29.63008z" fill="#809074"/><path d="M395.99556,314.87176c0.03004,-0.10691 0.04297,-0.21837 0.03565,-0.335c-0.07548,-1.20148 -1.10136,-2.18123 -1.70356,-3.22363c-1.54672,-2.67732 -3.07995,-3.68125 -1.75461,-6.96151c0.44623,-1.10441 1.9112,-1.69325 2.76591,-2.52849c0.34629,0.13342 0.6572,0.13139 0.6572,0.13139c1.72016,0 6.16698,-0.72363 7.55018,0.46216c4.85531,4.16239 -0.72581,14.40674 -6.74624,12.65703z" data-paper-data="{&quot;noHover&quot;:false,&quot;origItem&quot;:[&quot;Path&quot;,{&quot;applyMatrix&quot;:true,&quot;segments&quot;:[[[382.34127,250.4895],[0,0],[9.2986,2.70246]],[[392.67061,231.11496],[7.49908,6.42886],[-2.13637,-1.83148]],[[381.10993,230.41486],[2.65682,0],[0,0]],[[380.10159,230.2088],[0.53485,0.20606],[-1.3201,1.29004]],[[375.86718,234.0808],[0.6892,-1.70578],[-2.04701,5.0664]],[[378.57856,244.72341],[-2.38891,-4.13516],[0.93011,1.61]],[[381.16638,249.66486],[-0.11659,-1.85569],[0.01132,0.18014]],[[381.10994,250.18167],[0.0464,-0.16513],[0,0]]],&quot;closed&quot;:true}]}" fill="#ded8b6"/><g><path d="M432.69132,297.11002c-3.28227,2.51955 -6.26695,8.03106 -5.36181,11.83658c1.05871,4.4512 5.2422,6.25361 9.14357,7.2632c2.7542,-0.0235 7.03463,0.81693 9.52586,-0.61135c7.22769,-4.14379 4.65977,-16.64652 -2.83234,-18.46806c-2.90499,-0.75176 -6.38821,-1.16628 -9.33131,-0.40465l-1.09469,0.36991c0,0 -0.01745,0.00583 -0.04926,0.01435zM434.29913,293.3352c3.18289,-0.50665 6.56512,-0.09599 9.65263,0.6546c10.14862,2.59371 13.46059,18.82604 3.64219,24.42577c-3.1937,1.82145 -8.00125,1.03076 -11.5164,1.00728c-2.46889,-0.60021 -5.12538,-1.17358 -7.22321,-2.72135c-8.40536,-6.20142 -4.17608,-19.17669 3.86448,-23.39846c0,0 0.85569,-0.42784 1.58029,0.03217z" fill="#000000"/><path d="M432.70549,297.04126l1.10053,-0.37328c2.94311,-0.76161 6.48361,-0.3477 9.38862,0.40406c7.49211,1.82153 10.0721,14.43347 2.84441,18.57727c-2.49124,1.42827 -6.82623,0.60013 -9.58042,0.62363c-3.90137,-1.00959 -8.13357,-2.86089 -9.19226,-7.31209c-0.90512,-3.80551 2.10738,-9.38554 5.38963,-11.90508c0.03181,-0.00853 0.04951,-0.01451 0.04951,-0.01451z" data-paper-data="{&quot;noHover&quot;:false,&quot;origItem&quot;:[&quot;Path&quot;,{&quot;applyMatrix&quot;:true,&quot;segments&quot;:[[[341.31875,140.25102],[0.04912,-0.01318],[-5.0695,3.89148]],[[333.03738,158.53276],[-1.39799,-5.87767],[1.63518,6.87491]],[[347.15972,169.75087],[-6.02571,-1.55933],[4.25387,-0.03631]],[[361.87251,168.80664],[-3.84773,2.20599],[11.16324,-6.40013]],[[357.49792,140.2825],[11.57166,2.81339],[-4.48681,-1.1611]],[[343.0856,139.6575],[4.54565,-1.17632],[0,0]],[341.39483,140.22885]],&quot;closed&quot;:true}]}" fill="#ded8b6"/></g><path d="M437.83612,306.19683c0,-0.89394 0.72468,-1.61863 1.61863,-1.61863c0.89396,0 1.61863,0.7247 1.61863,1.61863c0,0.89394 -0.72468,1.61863 -1.61863,1.61863c-0.89396,0 -1.61863,-0.7247 -1.61863,-1.61863z" fill="#000000"/><path d="M395.7516,308.22014c0,-0.89394 0.72468,-1.61863 1.61863,-1.61863c0.89396,0 1.61863,0.7247 1.61863,1.61863c0,0.89394 -0.72468,1.61863 -1.61863,1.61863c-0.89396,0 -1.61863,-0.7247 -1.61863,-1.61863z" fill="#000000"/><path d="M411.93792,317.52729c-1.61863,0 -1.61863,-1.61863 -1.61863,-1.61863l0.04832,-1.2019c0.13488,-0.53953 0.26977,-1.0791 0.40465,-1.61863c0,0 0.39258,-1.57031 1.96289,-1.17773c1.57031,0.39258 1.17772,1.96289 1.17772,1.96289c-0.13488,0.53953 -0.26977,1.0791 -0.40465,1.61863l0.04833,0.41674c0,0 0,1.61863 -1.61863,1.61863z" fill="#000000"/><path d="M421.62278,313.10897c1.24093,0.22984 1.24093,1.58572 1.24093,1.58572l-2.76319,1.54921c-1.30145,-1.32928 -1.9255,-2.7719 -3.23727,-4.04659c0,0 -1.14454,-1.14456 0,-2.2891c1.14454,-1.14456 2.2891,0 2.2891,0c1.02061,1.04243 1.62463,2.15458 2.47041,3.20076z" fill="#000000"/><path d="M446.5818,328.70625c-0.68674,-0.68674 0,-1.37345 0,-1.37345l0.07371,0.07131c0.53113,-1.55299 1.71666,-3.05722 2.15001,-4.59899c0.70276,-2.5002 -0.01817,-3.73365 2.54897,-5.45962c0,0 0.80808,-0.53873 1.34678,0.26936c0.53871,0.80808 -0.26936,1.34679 -0.26936,1.34679c-2.03731,1.34454 -1.15222,2.28008 -1.7674,4.40634c-0.45789,1.58268 -1.65506,3.06296 -2.16634,4.65035l-0.54293,0.68793c0,0 -0.68674,0.68674 -1.37345,0z" fill="#000000"/><path d="M426.96622,288.86396c0,0.97117 -0.97117,0.97117 -0.97117,0.97117l-0.6894,-0.029c-5.83196,1.4544 -11.25903,1.50151 -17.19267,1.57056c0,0 -0.97117,0 -0.97117,-0.97117c0,-0.97117 0.97117,-0.97117 0.97117,-0.97117c5.775,0.05215 11.06092,-0.09409 16.72158,-1.51255l1.16048,-0.02899c0,0 0.97117,0 0.97117,0.97117z" fill="#000000"/><path d="M422.29169,286.09036c0.30712,0.92134 -0.61423,1.22845 -0.61423,1.22845l-0.92493,0.30831c-3.11622,1.03874 -5.64727,1.28308 -8.93983,1.28308c0,0 -0.97117,0 -0.97117,-0.97117c0,-0.97117 0.97117,-0.97117 0.97117,-0.97117c3.11816,0 5.38244,-0.20236 8.32562,-1.18341l0.92493,-0.30831c0,0 0.92134,-0.30712 1.22845,0.61423z" fill="#000000"/><path d="M431.13425,332.9877c-0.01254,0.19211 -0.02076,0.40256 -0.03868,0.60865c-0.05147,0.5918 -0.30485,2.51341 -1.2425,2.80375c-0.67452,0.20885 -1.70465,0.20688 -2.72874,0.14733c0.00333,-0.04568 0.00251,-0.07267 0.00251,-0.07267l-0.02316,-0.85817c0.05461,-0.44364 -0.02851,-3.02257 0.90579,-3.10476c0.92348,-0.08124 1.90263,0.35282 2.82251,0.46779c0,0 0.12358,0.01911 0.30227,0.00808z" data-paper-data="{&quot;noHover&quot;:false,&quot;origItem&quot;:[&quot;Path&quot;,{&quot;applyMatrix&quot;:true,&quot;segments&quot;:[[[434.80186,278.30886],[0,0],[-1.42077,-0.1776]],[[430.56419,277.60655],[1.42631,-0.12548],[-1.44302,0.12695]],[[429.20554,282.26729],[0.08436,-0.68521],[0,0]],[429.22485,283.5701],[[429.21971,283.68106],[0.00514,-0.07055],[1.58173,0.09201]],[[433.32699,283.43128],[-1.0418,0.32259],[1.44822,-0.44844]],[[435.1926,279.23722],[-0.07948,0.91403],[0.02768,-0.31831]],[[435.26337,278.31501],[-0.01939,0.29671],[-0.27596,0.01705]]],&quot;closed&quot;:true}]}" fill="#ffffff"/><path d="M412.58457,336.89974c-0.75634,0.02004 -1.58462,0.03237 -2.35108,-0.00682c-0.37083,-0.01897 -0.79208,-0.1375 -1.18789,-0.25218c0.04787,-0.11721 0.06532,-0.19823 0.06532,-0.19823c1.0679,-4.27168 2.0716,-3.42551 3.48891,0.39048z" data-paper-data="{&quot;noHover&quot;:false,&quot;origItem&quot;:[&quot;Path&quot;,{&quot;applyMatrix&quot;:true,&quot;segments&quot;:[[[406.64209,284.12533],[0,0],[-2.18908,-5.89383]],[[401.40827,283.53128],[1.64941,-6.59766],[0,0]],[[401.30412,283.8332],[0.07393,-0.18104],[0.61132,0.17711]],[[403.09402,284.19108],[-0.57274,-0.02929],[1.1838,0.06054]],[[406.62014,284.22668],[-1.16815,0.03095],[0,0]]],&quot;closed&quot;:true}]}" fill="#ffffff"/><path d="M419.24034,325.6818c0.83358,-0.05185 1.81241,-0.11046 2.67785,-0.12953c0.07948,0.53391 0.03302,1.63114 -0.48636,1.5666c-0.70593,-0.08772 -1.79868,0.68159 -2.24063,0.1242c-0.31795,-0.40099 -0.11555,-1.01515 0.04914,-1.56126z" data-paper-data="{&quot;noHover&quot;:false,&quot;origItem&quot;:[&quot;Path&quot;,{&quot;applyMatrix&quot;:true,&quot;segments&quot;:[[[416.98305,269.33146],[-0.49108,-0.61935],[0.68261,0.86091]],[[420.27323,269.13462],[-1.0903,-0.13549],[0.80219,0.09968]],[[421.0248,266.82495],[0.12276,0.82461],[-1.33667,0.02944]],[[417.05572,267.02469],[1.28749,-0.08009],[-0.25436,0.84345]]],&quot;closed&quot;:true}]}" fill="#ffffff"/><path d="M407.91605,325.99755c1.28517,-0.01535 2.67501,-0.06067 3.95251,-0.1044l0.01722,0.04561c0.34655,2.77244 -0.03283,3.71921 -3.56998,2.6324c-0.29554,-0.09079 -0.37235,-1.6012 -0.39975,-2.57362z" data-paper-data="{&quot;noHover&quot;:false,&quot;origItem&quot;:[&quot;Path&quot;,{&quot;applyMatrix&quot;:true,&quot;segments&quot;:[[[400.18193,271.37639],[-0.45645,-0.14025],[5.46316,1.67858]],[[405.53448,267.42858],[0.53526,4.28205],[0,0]],[[405.50906,267.35961],[0,0],[-1.97309,0.06755]],[[399.56293,267.51567],[1.98495,-0.02371],[0.04231,1.50191]]],&quot;closed&quot;:true}]}" fill="#ffffff"/><path d="M453.70389,324.3841c0,-1.05536 -0.32625,-3.36542 0.18332,-4.26758c0.67528,-1.19559 3.33431,-2.61068 4.91756,-3.5764c0.26996,-2.77202 2.59606,-6.15374 2.576,-8.88769c0,-8.54628 -0.42671,-15.19491 -4.29294,-22.94238c-1.95566,-3.91891 -4.39,-8.07582 -8.60171,-9.94778c-2.17766,-0.96789 -5.06438,-0.59866 -7.4023,-1.16885l-0.09786,0.06766c0,0 -0.12824,0 -0.32372,-0.03051c-0.19547,0.03051 -0.32372,0.03051 -0.32372,0.03051c-3.50294,0 -6.6633,0.2583 -10.08239,0.63048c-4.4734,0.48695 -9.13869,-0.55823 -13.59654,0c-6.93161,0.86801 -13.9769,3.59012 -17.94803,9.54683c-3.08466,3.04181 -4.35455,6.76501 -6.15464,10.4868c-0.21842,0.45156 -0.93794,0.55131 -1.10119,1.0256c-0.33074,0.96099 1.97436,0.814 2.57356,1.6349c0.49146,0.67328 1.08607,1.39096 1.48362,2.1527c0.24914,-0.06475 0.43846,-0.06475 0.43846,-0.06475c2.68148,0 7.25925,-0.68957 9.51066,1.16535c2.76616,2.27903 2.58974,6.53425 2.21232,9.55354c-0.68319,5.46553 -5.86891,9.97219 -11.7109,8.65639l-1.31442,-0.3286c0.36839,1.74363 2.64155,2.99517 3.88186,2.82186c6.60703,1.65175 14.28276,0.63048 21.0891,0.63048c2.95193,0 5.86967,-0.32431 8.6862,0.84118c2.64582,1.09485 6.12047,3.0498 7.07918,5.94788c1.27457,3.85289 0.05858,10.58429 -3.89148,12.46209c-1.86293,0.88562 -6.51331,0.1725 -8.63664,0.1725c-2.7118,0 -4.85095,0.30882 -7.49258,0.63048c-2.01863,0.24581 -4.81997,0.57703 -6.53078,-0.66269c0.35478,0.32521 0.82557,0.77999 1.01741,1.04132c0.41082,0.55965 1.03921,2.1295 2.00845,2.32542c3.22389,0.65164 6.68727,0.55965 9.97946,1.21466c1.29736,0.2581 3.03491,-0.34051 3.91531,0.64676c0.15791,0.17707 0.2927,0.3563 0.40692,0.53732c2.46469,-0.94787 4.46052,-2.91609 6.81344,-4.10255c3.02971,-1.52773 6.22498,-2.90348 9.06031,-4.81163c2.59518,-2.51946 6.61069,-3.80396 9.17834,-6.41021c0.79246,-0.80438 1.33241,-1.59657 2.20652,-2.2896c0.03248,-0.15657 0.10803,-0.3739 0.28382,-0.5377c0,-1.39792 0,-2.79583 0,-4.19375zM382.2782,289.05432c-0.43432,-0.86865 0.43432,-1.30297 0.43432,-1.30297l0.74383,-0.361c2.67196,-0.89066 4.96554,-0.97048 7.74451,-0.97458c0.70007,-1.25473 1.48144,-2.46329 2.37529,-3.59877c-3.80889,0.5728 -8.21131,1.57046 -11.19587,-0.12358c-1.74783,-0.99209 -1.43786,-3.56631 -1.43786,-5.17263v-0.92493c0,0 0,-0.97117 0.97117,-0.97117c0.97117,0 0.97117,0.97117 0.97117,0.97117v0.92493c0,0.44868 -0.32651,3.20393 0.41202,3.46009c3.71811,1.28962 8.14845,0.02004 12.12848,-0.33694c0.84611,-1.21754 1.81147,-2.31984 2.87226,-3.31433c-1.73167,-2.70644 -1.06116,-4.26131 0.32118,-7.02601l0.30831,-0.61662c0,0 0.43432,-0.86865 1.30297,-0.43432c0.86865,0.43432 0.43432,1.30297 0.43432,1.30297l-0.30831,0.61662c-1.05618,2.1124 -1.76289,2.94959 -0.57181,4.88056c0.92837,-0.73099 1.91275,-1.39291 2.94031,-1.98975c-0.0474,0.02294 -0.09904,0.04398 -0.15523,0.0627c-0.92134,0.30712 -1.22845,-0.61423 -1.22845,-0.61423c-0.84088,-2.5286 -0.41873,-4.48519 1.0382,-6.70375l0.42966,-0.45632c0,0 0.68674,-0.68674 1.37345,0c0.68674,0.68674 0,1.37345 0,1.37345l-0.18696,0.1603c-1.16606,1.71638 -1.45378,3.0906 -0.81166,5.01209c0,0 0.23503,0.70514 -0.32299,1.08726c4.02018,-2.30422 8.68815,-3.62241 13.24537,-4.19122c2.88365,-0.35993 5.84671,-0.04392 8.7868,0.08912c0.0148,-0.02305 0.02418,-0.03558 0.02418,-0.03558c1.0731,-1.43005 2.08214,-2.95519 2.63042,-4.65739l0.54291,-0.68793c0,0 0.68674,-0.68674 1.37345,0c0.68674,0.68674 0,1.37345 0,1.37345l-0.07369,-0.07129c-0.50783,1.48486 -1.26333,2.84007 -2.14474,4.12974c0.82383,-0.00743 1.64366,-0.04771 2.45719,-0.14013c3.59522,-0.4084 6.96255,-0.66443 10.63614,-0.66443c0,0 0.12824,0 0.32372,0.03051c0.19547,-0.03051 0.32372,-0.03051 0.32372,-0.03051l1.19705,0.06766c2.74434,0.70681 5.46868,0.30488 8.13661,1.42097c0.47965,0.20065 0.95026,0.42938 1.41157,0.68398c1.70572,-1.25485 3.76163,-3.06054 5.64857,-3.4085l0.07369,-0.54533c0,0 0.30712,-0.92134 1.22845,-0.61423c0.92134,0.30712 0.61423,1.22845 0.61423,1.22845l-0.54291,1.30455c-1.86231,0.77638 -3.56136,1.99789 -5.23983,3.17678c5.10061,3.73239 8.87786,10.59993 10.89026,17.05633c1.98177,0.01098 3.79353,0.03479 5.68581,0.66553l0.00119,-0.04984c0,0 0.97117,0 0.97117,0.97117c0,0.97117 -0.97117,0.97117 -0.97117,0.97117l-0.61543,-0.04984c-1.48471,-0.4949 -2.95531,-0.56671 -4.51655,-0.56923c0.44934,1.72416 0.76474,3.39137 0.93732,4.93026c0.02397,0.21378 0.04519,0.42863 0.0639,0.64449c1.03183,0.36915 2.20237,0.92614 2.96761,1.71083c0.73584,0.75455 0.5562,1.80003 1.47026,1.92356c0,0 0.92134,0.30712 0.61423,1.22845c-0.30712,0.92134 -1.22845,0.61423 -1.22845,0.61423c-1.71895,-0.71538 -2.14965,-2.35109 -3.71137,-3.28815c0.01494,0.71597 0.01194,1.43785 -0.00084,2.16149c0.20891,0.06963 0.4178,0.13927 0.62671,0.20891c0,0 0.92134,0.30712 0.61423,1.22845c-0.30712,0.92134 -1.22845,0.61423 -1.22845,0.61423c-0.02242,-0.00747 -0.04483,-0.01494 -0.06723,-0.02242c-0.04757,1.43929 -0.10361,2.87007 -0.10361,4.25951c-0.01546,2.60998 0.20989,3.53109 -0.84118,6.09638c-0.42753,1.04346 -2.35785,1.76726 -1.90111,2.79827c0.15156,0.34212 -6.45555,5.40568 -5.92244,5.84936c0.30141,0.25085 0.91132,6.15848 -0.10664,7.86697c-2.93077,4.91885 -11.66853,9.62004 -19.98345,14.8794c-12.56266,7.94614 -14.56176,5.51081 -14.88035,5.4779c-0.47086,-0.04866 -0.51899,-0.57697 -0.99236,-0.57705c-5.27401,-0.00098 -12.2503,-0.84436 -15.20517,-5.5243c-1.50437,-2.38264 -3.52638,-4.74926 -0.08242,-7.6067c-0.1683,-0.50289 -0.04489,-0.99649 -0.04489,-0.99649c0.15192,-0.60769 0.87413,-3.62672 1.11551,-3.92652c0.02897,-0.03599 0.05793,-0.07142 0.08686,-0.10625c-0.14593,-0.06391 -0.28255,-0.13429 -0.40837,-0.21115c-2.23619,-1.36581 -1.85999,-3.27351 -2.03666,-5.37119c-2.30632,-0.08307 -4.57397,-0.32085 -6.73322,-0.86066c-1.1274,-0.08371 -2.38506,0.28149 -3.38221,-0.25116c-2.25735,-1.20585 -4.59659,-6.50855 -4.40083,-8.85926c0.0554,-0.66534 1.15939,-0.89584 1.26166,-1.5556c0.05833,-0.37639 -0.6692,-0.39382 -0.91433,-0.68536c-0.32945,-0.39188 -2.83159,-4.333 -2.87317,-4.48505c-0.71647,-2.62053 0.05891,-8.52001 3.16759,-9.40891c-0.00391,-0.00146 -0.00767,-0.00302 -0.01129,-0.00467c-0.70833,-0.32215 -1.45403,-0.68908 -1.94236,-1.29491c-0.84718,-1.05102 -1.85982,-2.19839 -1.95862,-3.54471c-0.07864,-1.07161 1.09647,-1.85875 1.48863,-2.85913c0.54538,-1.39119 1.12665,-2.77762 1.77926,-4.1287c-2.1343,0.02339 -3.97167,0.15362 -6.1209,0.87004l-0.48942,0.25562c0,0 -0.86865,0.43432 -1.30297,-0.43432zM412.48231,337.08601c-1.41732,-3.81598 -2.32074,-4.65632 -3.38866,-0.38463c0,0 -0.01956,0.07827 -0.06743,0.19547c0.3958,0.11468 0.78805,0.21276 1.15888,0.23172c0.76646,0.0392 1.52667,0.04309 2.28299,0.02305zM415.51347,335.94932l0.06473,1.013c2.40764,-0.20662 4.80828,-0.49816 7.2791,-0.49816c0.29729,0 0.63947,0.01894 1.01118,0.04818l0.01034,-1.03087c0.60738,-4.79465 2.40539,-5.91126 6.88777,-5.41489c-0.51414,-1.51971 -1.7818,-2.37687 -4.29387,-3.50799c-0.43209,-0.19456 -0.89934,-0.33772 -1.39105,-0.44108c0.19582,1.51388 0.39879,2.9575 -1.181,4.21172c-1.14442,0.90858 -6.22235,0.33221 -7.14598,-0.67463c-0.58309,-0.63561 -0.62898,-2.31772 -0.62284,-3.54425c-0.37184,0.00437 -0.74577,0.01116 -1.12148,0.01972c0.12913,0.99257 0.46007,3.50908 0.2843,3.88062c-0.37001,0.78216 -1.17817,1.36984 -2.17389,1.7616c1.05883,1.20419 1.89029,2.84834 2.39268,4.17702zM430.71448,333.32012c-0.91989,-0.11499 -1.82023,-0.53595 -2.74369,-0.45471c-0.9343,0.0822 -0.82506,2.57397 -0.87967,3.01761l0.01251,0.84352c0,0 0,0.02615 -0.00333,0.07183c1.0241,0.05957 1.98476,0.04714 2.65928,-0.16173c0.93766,-0.29034 1.15645,-2.12367 1.2079,-2.71546c0.01792,-0.20608 0.03327,-0.40498 0.04581,-0.59709c-0.17867,0.01104 -0.29881,-0.00397 -0.29881,-0.00397zM419.17761,327.50766c0.44197,0.55739 1.42432,-0.21518 2.13024,-0.12744c0.51938,0.06453 0.5661,-0.9615 0.48661,-1.49541c-0.86544,0.01907 -1.73621,0.07748 -2.5698,0.12933c-0.16469,0.5461 -0.36502,1.09252 -0.04706,1.49351zM408.29967,328.83165c3.53715,1.0868 3.81208,0.2164 3.46552,-2.55604l-0.01646,-0.04466c-1.27748,0.04373 -2.56469,0.08569 -3.84985,0.10104c0.02739,0.97243 0.10526,2.40884 0.40078,2.49964zM396.74866,315.30836c6.02042,1.74972 11.54308,-8.38173 6.68777,-12.54412c-1.38319,-1.18579 -5.76483,-0.45328 -7.48501,-0.45328c0,0 -0.30657,0 -0.65285,-0.13342c-0.85471,0.83524 -2.29535,1.40252 -2.74158,2.50695c-1.32535,3.28026 0.20878,4.21327 1.75549,6.89059c0.60221,1.0424 1.60001,1.99789 1.67549,3.19937c0.00733,0.11663 -0.0065,0.2277 -0.03654,0.3346z" fill="#000000"/></g></g></g></svg>