<svg version="1.1" xmlns="http://www.w3.org/2000/svg" xmlns:xlink="http://www.w3.org/1999/xlink" width="53.49998" height="54.00001" viewBox="0,0,53.49998,54.00001"><defs><radialGradient cx="240.41669" cy="180.66667" r="26.33333" gradientUnits="userSpaceOnUse" id="color-1"><stop offset="0" stop-color="#fff477"/><stop offset="1" stop-color="#fff477" stop-opacity="0"/></radialGradient><radialGradient cx="239.58335" cy="179.33334" r="26.33333" gradientUnits="userSpaceOnUse" id="color-2"><stop offset="0" stop-color="#fff477"/><stop offset="1" stop-color="#fff477" stop-opacity="0"/></radialGradient><radialGradient cx="239.91669" cy="179.33333" r="26.33333" gradientUnits="userSpaceOnUse" id="color-3"><stop offset="0" stop-color="#fff477"/><stop offset="1" stop-color="#fff477" stop-opacity="0"/></radialGradient><radialGradient cx="244.30196" cy="176.68371" r="23.50361" gradientUnits="userSpaceOnUse" id="color-4"><stop offset="0" stop-color="#fefff0"/><stop offset="1" stop-color="#feff66"/></radialGradient><linearGradient x1="240.00003" y1="169.84375" x2="240.00003" y2="190.15625" gradientUnits="userSpaceOnUse" id="color-5"><stop offset="0" stop-color="#fffa6d"/><stop offset="1" stop-color="#fee000"/></linearGradient><linearGradient x1="239.89619" y1="171.57362" x2="239.89619" y2="175.9139" gradientUnits="userSpaceOnUse" id="color-6"><stop offset="0" stop-color="#fefff8"/><stop offset="1" stop-color="#fffd87"/></linearGradient></defs><g transform="translate(-213.25002,-152.99999)"><g data-paper-data="{&quot;isPaintingLayer&quot;:true}" fill-rule="nonzero" stroke-linecap="butt" stroke-linejoin="miter" stroke-miterlimit="10" stroke-dasharray="" stroke-dashoffset="0" style="mix-blend-mode: normal"><path d="M214.08335,180.66667c0,-14.5435 11.78983,-26.33334 26.33333,-26.33334c14.5435,0 26.33333,11.78984 26.33333,26.33334c0,14.5435 -11.78984,26.33333 -26.33333,26.33333c-14.5435,0 -26.33333,-11.78983 -26.33333,-26.33333z" fill="url(#color-1)" stroke="none" stroke-width="0"/><path d="M213.25003,179.33334c0,-14.5435 11.78983,-26.33334 26.33333,-26.33334c14.5435,0 26.33333,11.78984 26.33333,26.33334c0,14.5435 -11.78983,26.33333 -26.33333,26.33333c-14.5435,0 -26.33333,-11.78983 -26.33333,-26.33333z" fill="url(#color-2)" stroke="none" stroke-width="0"/><path d="M213.58335,179.33333c0,-14.5435 11.78983,-26.33334 26.33333,-26.33334c14.5435,0 26.33333,11.78984 26.33333,26.33334c0,14.5435 -11.78983,26.33333 -26.33333,26.33333c-14.5435,0 -26.33333,-11.78983 -26.33333,-26.33333z" fill="url(#color-3)" stroke="none" stroke-width="0"/><path d="M223.29744,200.18733l2.30936,-12.11685l-11.2278,-1.44782l8.65565,-8.39116l-8.42037,-7.00776l11.87377,-1.75239l-2.26366,-10.80556l11.39595,5.11808l4.88067,-10.17906l5.16201,10.40651l10.88429,-5.24376l-3.15036,10.89116l11.50023,0.50943l-7.84268,8.41955l8.56146,8.98607l-10.81536,1.26646l1.59296,11.86478l-10.32595,-5.26876l-6.22104,10.6594l-5.58932,-10.49057z" fill="url(#color-4)" stroke="none" stroke-width="0"/><path d="M229.84378,180c0,-5.60914 4.54711,-10.15625 10.15625,-10.15625c5.60914,0 10.15625,4.54711 10.15625,10.15625c0,5.60914 -4.54711,10.15625 -10.15625,10.15625c-5.60914,0 -10.15625,-4.54711 -10.15625,-10.15625z" fill="url(#color-5)" stroke="#ffe017" stroke-width="1.5"/><path d="M244.64983,173.74376c0,1.19853 -2.12828,2.17014 -4.75364,2.17014c-2.62536,0 -4.75364,-0.9716 -4.75364,-2.17014c0,-1.19853 2.12828,-2.17014 4.75364,-2.17014c2.62536,0 4.75364,0.9716 4.75364,2.17014z" fill="url(#color-6)" stroke="#ffe017" stroke-width="0"/></g></g></svg>