<svg version="1.1" xmlns="http://www.w3.org/2000/svg" xmlns:xlink="http://www.w3.org/1999/xlink" width="32.43987" height="39.06229" viewBox="0,0,32.43987,39.06229"><defs><linearGradient x1="208.06445" y1="210.30931" x2="273.82836" y2="210.30931" gradientUnits="userSpaceOnUse" id="color-1"><stop offset="0" stop-color="#e1cc6c"/><stop offset="1" stop-color="#b48f32"/></linearGradient><radialGradient cx="244.0441" cy="180.11418" r="9.1" gradientUnits="userSpaceOnUse" id="color-2"><stop offset="0" stop-color="#e4e2e0"/><stop offset="1" stop-color="#8d8888"/></radialGradient></defs><g transform="translate(-227.19202,-169.51418)"><g data-paper-data="{&quot;isPaintingLayer&quot;:true}" fill-rule="nonzero" stroke-linejoin="miter" stroke-miterlimit="10" stroke-dasharray="" stroke-dashoffset="0" style="mix-blend-mode: normal"><path d="M236.23055,198.32201c0,1.51022 -1.20931,2.7345 -2.70106,2.7345c-1.49176,0 -2.39896,-0.62009 -2.39896,-2.13031c0,-1.51022 1.4107,-2.6338 2.90245,-2.6338c1.49176,0 2.19757,0.51938 2.19757,2.02961z" fill="#8c5b37" stroke="none" stroke-width="0" stroke-linecap="butt"/><path d="M258.44422,201.43617c0,1.51022 -1.2093,2.7345 -2.70106,2.7345c-1.49176,0 -2.70106,-1.22428 -2.70106,-2.7345c0,-1.51022 1.20931,-2.7345 2.70106,-2.7345c1.49176,0 2.70106,1.22427 2.70106,2.7345z" fill="#8c5b37" stroke="none" stroke-width="0" stroke-linecap="butt"/><path d="M253.69388,203.55168c0,1.51022 -2.04765,2.7345 -4.57355,2.7345c-2.52591,0 -4.57356,-1.22428 -4.57356,-2.7345c0,-1.51022 2.04766,-2.7345 4.57356,-2.7345c2.52591,0 4.57355,1.22427 4.57355,2.7345z" fill="#8c5b37" stroke="none" stroke-width="0" stroke-linecap="butt"/><path d="M237.07772,204.16251c0,1.51023 -2.04765,2.7345 -4.57356,2.7345c-2.52591,0 -4.57356,-1.22427 -4.57356,-2.7345c0,-1.51023 2.04766,-2.7345 4.57356,-2.7345c2.52591,0 4.57356,1.22427 4.57356,2.7345z" fill="#8c5b37" stroke="none" stroke-width="0" stroke-linecap="butt"/><path d="M245.19855,205.04301c0,1.51022 -2.04765,2.7345 -4.57355,2.7345c-2.52591,0 -4.57356,-1.22428 -4.57356,-2.7345c0,-1.51022 2.04766,-2.73449 4.57356,-2.73449c2.52591,0 4.57355,1.22427 4.57355,2.73449z" fill="#8c5b37" stroke="none" stroke-width="0" stroke-linecap="butt"/><path d="M240.7441,198.77982v-10.56564h6.2v10.56564z" fill="#9a9696" stroke="#000000" stroke-width="3" stroke-linecap="butt"/><path d="M234.27944,201.77556c4.37283,-5.30921 5.74698,-6.2431 9.40207,-6.41486c2.69786,0.06943 6.39698,0.50248 8.53374,6.31476" fill="url(#color-1)" stroke="#000000" stroke-width="3" stroke-linecap="round"/><path d="M234.9441,180.11418c0,-5.02579 4.07421,-9.1 9.1,-9.1c5.02579,0 9.1,4.07421 9.1,9.1c0,5.02579 -4.07421,9.1 -9.1,9.1c-5.02579,0 -9.1,-4.07421 -9.1,-9.1z" fill="url(#color-2)" stroke="#000000" stroke-width="3" stroke-linecap="butt"/><path d="M236.49538,200.25395c-1.48842,-0.18605 -1.44919,-0.94033 -1.44919,-0.94033l0.41209,-0.83488c0.37044,-1.35192 -3.7448,-0.18085 -2.06824,1.76842c0.13997,0.0134 0.28051,0.0313 0.42107,0.05355c1.06483,0.16851 2.13127,0.58622 2.96503,1.18469c1.76251,-1.19477 4.33684,-1.67539 6.01827,-1.30219c0.7758,0.17219 1.41587,1.2425 2.16911,0.98923c0.03101,-0.01043 0.06179,-0.02137 0.09233,-0.03279c0.38986,-0.33336 0.86273,-0.60186 1.37884,-0.80781c0.33623,-0.23346 0.67498,-0.46294 1.04438,-0.62928c1.31663,-0.22075 2.78419,-0.63672 4.11616,-0.08264c0.15503,-0.44901 0.35125,-0.8881 0.68159,-1.21403c3.16852,-3.12615 5.87728,-0.27754 7.35507,2.60683c-0.13167,0.81128 0.00315,1.71484 -0.39502,2.43385c-1.28087,2.31297 -3.09617,2.18893 -4.88942,1.4485c-1.01036,2.69313 -6.31797,3.34134 -8.91742,1.35038c-1.82107,2.53144 -7.19405,3.16607 -9.46745,1.08195c-1.11202,0.39666 -2.61527,0.61629 -3.41912,0.67403c-0.86424,0.06207 -3.59619,0.07791 -4.26533,-0.55601c-1.24706,-1.1814 -1.31988,-2.51115 -0.72416,-3.6974c-0.15669,-0.82427 0.57562,-1.41012 0.57562,-1.41012c0.66276,-0.52323 1.35617,-1.03383 2.10207,-1.43321c-0.58103,-0.87005 -0.40307,-0.39848 0.22462,-2.16943c0.94924,-2.67817 4.1012,-4.44719 6.52358,-1.77817c0.52467,0.57809 1.1745,-0.08157 1.32126,0.6852l-0.13124,1.30929c0,0 -0.18605,1.48842 -1.67447,1.30236zM234.83738,204.57829c0.00367,-0.14686 0.01711,-0.29048 0.03969,-0.43082c-1.7219,-0.93671 -2.58292,-0.64116 -4.82133,0.92052c-0.20766,0.14488 0.5043,-0.05122 0.75742,-0.05767c0.50571,-0.01288 1.013,0.03445 1.51761,-0.00134c0.35603,-0.02525 1.91974,-0.00779 2.50662,-0.43069zM238.37173,204.22228c-0.01126,0.31944 -0.08261,0.6508 -0.2236,0.99129c1.2249,0.70816 6.00923,-0.01929 4.74792,-1.36611c-0.87206,-0.93118 -2.91377,-0.30935 -4.52432,0.37482zM251.73528,203.62669c-0.84509,-0.13759 -1.73182,-0.81603 -2.60494,-0.74238c-0.50921,0.04296 -1.00071,0.20785 -1.50245,0.30481c-0.07621,0.01473 -0.20008,0.0253 -0.32387,0.03682c-0.08348,0.05955 -0.16686,0.11916 -0.25055,0.17777c1.00263,0.52102 3.3949,1.75277 4.38432,0.73403c0.18681,-0.19235 0.2791,-0.36183 0.29748,-0.51104zM254.15225,201.57074c1.05462,0.69921 2.26096,1.34451 2.52141,-0.05905c-1.47248,-2.2854 -1.88977,-1.24892 -2.52141,0.05905z" fill="#000000" stroke="none" stroke-width="0.5" stroke-linecap="butt"/></g></g></svg>