<svg version="1.1" xmlns="http://www.w3.org/2000/svg" xmlns:xlink="http://www.w3.org/1999/xlink" width="119.33392" height="160.5" viewBox="0,0,119.33392,160.5"><defs><radialGradient cx="239.08828" cy="195.5" r="78" gradientUnits="userSpaceOnUse" id="color-1"><stop offset="0" stop-color="#faffec"/><stop offset="1" stop-color="#f1ffcd"/></radialGradient><radialGradient cx="261.00377" cy="259.2449" r="13.49253" gradientUnits="userSpaceOnUse" id="color-2"><stop offset="0" stop-color="#fff477"/><stop offset="1" stop-color="#fff477" stop-opacity="0"/></radialGradient><radialGradient cx="260.57678" cy="258.56174" r="13.49253" gradientUnits="userSpaceOnUse" id="color-3"><stop offset="0" stop-color="#fff477"/><stop offset="1" stop-color="#fff477" stop-opacity="0"/></radialGradient><radialGradient cx="260.74759" cy="258.56173" r="13.49252" gradientUnits="userSpaceOnUse" id="color-4"><stop offset="0" stop-color="#fff477"/><stop offset="1" stop-color="#fff477" stop-opacity="0"/></radialGradient><radialGradient cx="262.99447" cy="257.20414" r="12.04265" gradientUnits="userSpaceOnUse" id="color-5"><stop offset="0" stop-color="#fefff0"/><stop offset="1" stop-color="#feff66"/></radialGradient><linearGradient x1="260.79029" y1="253.69951" x2="260.79029" y2="264.10712" gradientUnits="userSpaceOnUse" id="color-6"><stop offset="0" stop-color="#fffa6d"/><stop offset="1" stop-color="#fee000"/></linearGradient><linearGradient x1="260.73706" y1="254.58586" x2="260.73706" y2="256.80971" gradientUnits="userSpaceOnUse" id="color-7"><stop offset="0" stop-color="#fefff8"/><stop offset="1" stop-color="#fffd87"/></linearGradient><radialGradient cx="239.48613" cy="178.99441" r="44.74432" gradientUnits="userSpaceOnUse" id="color-8"><stop offset="0" stop-color="#e9bc36"/><stop offset="1" stop-color="#bc921c"/></radialGradient><radialGradient cx="219.46004" cy="179.08804" r="42.37805" gradientUnits="userSpaceOnUse" id="color-9"><stop offset="0" stop-color="#dbb132"/><stop offset="1" stop-color="#000000"/></radialGradient></defs><g transform="translate(-179.42131,-115.25)"><g data-paper-data="{&quot;isPaintingLayer&quot;:true}" fill-rule="nonzero" stroke-linejoin="miter" stroke-miterlimit="10" stroke-dasharray="" stroke-dashoffset="0" style="mix-blend-mode: normal"><path d="M181.67132,273.5v-156h114.83392v156z" fill="url(#color-1)" stroke="#000000" stroke-width="4.5" stroke-linecap="butt"/><path d="M294.64277,243.39198h-112" fill="none" stroke="#000000" stroke-width="4.5" stroke-linecap="round"/><g stroke-linecap="butt"><path d="M247.51124,259.2449c0,-7.45172 6.0408,-13.49253 13.49253,-13.49253c7.45172,0 13.49253,6.04082 13.49253,13.49253c0,7.45172 -6.04082,13.49253 -13.49252,13.49253c-7.45172,0 -13.49252,-6.0408 -13.49252,-13.49252z" fill="url(#color-2)" stroke="none" stroke-width="0"/><path d="M247.08427,258.56174c0,-7.45172 6.0408,-13.49254 13.49253,-13.49254c7.45172,0 13.49252,6.04082 13.49252,13.49254c0,7.45172 -6.0408,13.49252 -13.49252,13.49252c-7.45172,0 -13.49252,-6.0408 -13.49252,-13.49252z" fill="url(#color-3)" stroke="none" stroke-width="0"/><path d="M247.25505,258.56173c0,-7.45172 6.04081,-13.49254 13.49253,-13.49254c7.45172,0 13.49253,6.04082 13.49253,13.49254c0,7.45172 -6.0408,13.49252 -13.49252,13.49252c-7.45172,0 -13.49252,-6.0408 -13.49252,-13.49252z" fill="url(#color-4)" stroke="none" stroke-width="0"/><path d="M252.23231,269.24679l1.18325,-6.20836l-5.75283,-0.74182l4.43493,-4.29942l-4.31438,-3.5906l6.08382,-0.89789l-1.15985,-5.53649l5.839,2.62237l2.50073,-5.21549l2.64488,5.33203l5.57682,-2.68677l-1.61416,5.58035l5.89243,0.26102l-4.0184,4.31396l4.38667,4.60423l-5.5415,0.64889l0.81619,6.07921l-5.29076,-2.69957l-3.1875,5.4616l-2.86383,-5.37509z" fill="url(#color-5)" stroke="#540000" stroke-width="1.5"/><path d="M255.58647,258.90332c0,-2.87398 2.32983,-5.20381 5.2038,-5.20381c2.87398,0 5.20381,2.32982 5.20381,5.20381c0,2.87398 -2.32983,5.2038 -5.20381,5.2038c-2.87398,0 -5.2038,-2.32982 -5.2038,-5.2038z" fill="url(#color-6)" stroke="#ffe017" stroke-width="1.5"/><path d="M263.17272,255.69778c0,0.61409 -1.09047,1.11192 -2.43564,1.11192c-1.34517,0 -2.43565,-0.49782 -2.43565,-1.11192c0,-0.6141 1.09048,-1.11192 2.43565,-1.11192c1.34517,0 2.43564,0.49782 2.43564,1.11192z" fill="url(#color-7)" stroke="#ffe017" stroke-width="0"/></g><text transform="translate(211.97853,267.34535) scale(0.63733,0.63733)" font-size="40" xml:space="preserve" fill="#000000" fill-rule="nonzero" stroke="none" stroke-width="1" stroke-linecap="butt" stroke-linejoin="miter" stroke-miterlimit="10" stroke-dasharray="" stroke-dashoffset="0" font-family="Sans Serif" font-weight="normal" text-anchor="start" style="mix-blend-mode: normal"><tspan x="0" dy="0">50</tspan></text><path d="M277.86958,181.97737c0,9.84259 -2.22727,19.75942 -6.64508,26.75513c-6.63869,10.51254 -17.28716,15.00623 -30.44455,15.00623c-8.14508,0 -16.86699,-1.6319 -23.16643,-6.01852c-10.6483,-7.41495 -16.51085,-21.11805 -16.51085,-36.59512c0,-24.63315 15.17647,-46.875 37.08963,-46.875c9.09838,0 15.05243,5.53888 22.2675,11.78668c10.16218,8.79982 17.40978,21.53518 17.40978,35.9406z" fill="url(#color-8)" stroke="none" stroke-width="0" stroke-linecap="butt"/><path d="M243.5056,137.06634c-0.48768,0.31149 -1.07861,0.23845 -1.07861,0.23845c-0.76251,-0.09682 -1.53793,-0.18708 -2.32225,-0.2661c-0.25963,0.05276 -0.60895,0.06913 -0.94324,-0.08895c-7.93523,-0.69531 -16.60592,-0.06966 -21.96644,6.61702c-4.25118,4.20305 -6.04819,10.16653 -8.32613,15.57365c-2.07396,4.92292 -4.792,9.69883 -5.70553,15.04969c0,1.92933 -0.67873,3.83603 -0.50572,5.75256c0.23446,2.59721 0.76376,4.98923 0.76376,7.62372c0,3.43124 -0.35126,7.0254 0.46099,10.38842c0.61745,2.5565 2.60694,4.57234 3.46933,7.03755c1.17122,2.30207 2.35726,4.6577 4.22265,6.51337c2.1498,2.1386 5.3588,3.39959 7.87163,5.07008c2.70368,1.79737 5.25058,4.33166 8.30243,5.59569c2.20588,0.91364 5.06175,0.28148 7.30169,-0.08747c3.87241,-0.53936 7.62585,0.28103 11.50328,-0.01386c7.36073,-0.55981 14.42771,-3.29903 20.22971,-7.76745c2.77735,-4.22136 4.63996,-8.50276 6.84147,-12.90714c0.78597,-1.57242 2.65537,-3.62525 2.89377,-5.31946c0.55662,-3.95569 -0.42989,-7.94996 0.25392,-12.00633c0.29441,-1.74644 0.80667,-3.73049 0.50467,-5.51313c-0.424,-2.50281 -1.87932,-4.90914 -2.50349,-7.37869c-0.86656,-3.42855 -0.60765,-6.97612 -2.58702,-10.05315c-1.47566,-2.29398 -3.53532,-4.24542 -5.06986,-6.51983c-2.49025,-4.32737 -6.22645,-5.38419 -9.64387,-8.72794c-4.29013,-4.19764 -8.20397,-7.8442 -13.96713,-8.8107zM239.76814,134.31824l0.57127,-0.197c8.36996,0.02605 13.73249,4.38932 19.27893,9.93934c1.49565,1.49661 3.56335,2.42525 5.30786,3.54716c2.1194,1.36299 3.54282,3.60758 4.77157,5.72491c1.52592,2.26449 3.57279,4.19455 5.04465,6.48017c2.21353,3.43738 2.01406,7.14486 2.97595,10.94685c0.64707,2.55763 2.11682,5.01987 2.55378,7.62131c0.35715,2.12628 -0.15507,4.4005 -0.50678,6.48687c-0.67388,3.99753 0.46801,8.11721 -0.25181,11.99367c-0.50901,2.74116 -2.96518,4.81063 -3.84771,7.47359c-1.45896,4.40225 -3.98243,8.42338 -6.64607,12.29981c-6.28784,5.07298 -14.14071,8.11573 -22.25124,8.73255c-3.78746,0.28804 -7.48857,-0.55424 -11.25437,-0.01387c-2.80071,0.46169 -6.13753,1.03903 -8.88153,-0.08746c-3.25599,-1.33668 -6.00871,-4.02186 -8.89225,-5.90431c-2.70547,-1.7662 -5.99298,-3.14855 -8.31158,-5.42992c-2.15893,-2.12428 -3.54432,-4.83066 -4.88042,-7.48664c-0.84913,-2.63861 -2.89295,-4.71681 -3.61083,-7.46245c-0.93574,-3.57885 -0.55046,-7.45 -0.55046,-11.11158c0,-2.55054 -0.55288,-4.85743 -0.75342,-7.37628c-0.16824,-2.1131 0.50573,-4.13743 0.50573,-6.24744c0.94885,-5.68356 3.72289,-10.72449 5.92616,-15.95031c2.41135,-5.71937 4.3636,-11.97242 8.86854,-16.42635c6.16831,-7.55956 15.83749,-8.32351 24.83404,-7.55263z" fill="#000000" stroke="#000000" stroke-width="0" stroke-linecap="butt"/><path d="M252.7933,177.04846c0,0 -2.8951,0.45703 -4.25,0.45703c-1.60314,0 -4.65235,-0.26172 -4.65235,-0.26172" fill="none" stroke="#000000" stroke-width="1.5" stroke-linecap="round"/><path d="M225.12254,221.46608c0,0 -9.81999,-8.97897 -11.51751,-17.72176c-3.03581,-15.63548 0.93813,-32.9858 2.4675,-43.2458c0.97978,-6.57295 3.61925,-13.83213 6.34675,-18.66783c1.54755,-2.74372 4.00844,-5.12071 4.00844,-5.12071" fill="none" stroke="url(#color-9)" stroke-width="1.5" stroke-linecap="round"/><g stroke-linecap="butt"><path d="M222.69192,167.33757c0,-5.45381 4.42119,-9.875 9.875,-9.875c5.45381,0 9.875,4.42119 9.875,9.875c0,5.45381 -4.42119,9.875 -9.875,9.875c-5.45381,0 -9.875,-4.42119 -9.875,-9.875z" fill="#fdf7e7" stroke="#000000" stroke-width="1.5"/><path d="M234.68746,167.01539c0,-0.69036 0.55964,-1.25 1.25,-1.25c0.69036,0 1.25,0.55964 1.25,1.25c0,0.69036 -0.55964,1.25 -1.25,1.25c-0.69036,0 -1.25,-0.55964 -1.25,-1.25z" fill="#000000" stroke="none" stroke-width="0.5"/></g><g stroke-linecap="butt"><path d="M251.2224,163.44732c0,-4.90152 3.97348,-8.875 8.875,-8.875c4.90152,0 8.875,3.97348 8.875,8.875c0,4.90152 -3.97348,8.875 -8.875,8.875c-4.90152,0 -8.875,-3.97348 -8.875,-8.875z" fill="#fdf7e7" stroke="#000000" stroke-width="1.5"/><path d="M257.04749,163.93197c0,-0.69036 0.55964,-1.25 1.25,-1.25c0.69036,0 1.25,0.55964 1.25,1.25c0,0.69036 -0.55964,1.25 -1.25,1.25c-0.69036,0 -1.25,-0.55964 -1.25,-1.25z" fill="#000000" stroke="none" stroke-width="0.5"/></g><g fill="none" stroke-width="1.5" stroke-linecap="round"><path d="M225.27592,149.05196c0,0 0.64324,-2.17551 1.62647,-2.91183c1.16338,-0.87123 3.11403,-1.53249 3.11403,-1.53249" stroke="#d8ae32"/><path d="M224.57467,148.3507c0,0 0.70949,-2.39958 1.79399,-3.21174c1.2832,-0.96096 3.43476,-1.69033 3.43476,-1.69033" stroke="#6c5719"/></g><g fill="none" stroke-width="1.5" stroke-linecap="round"><path d="M227.18261,214.53386c0,0 -2.03663,-0.99939 -2.59741,-2.09229c-0.66353,-1.29315 -0.98788,-3.32713 -0.98788,-3.32713" stroke="#d8ae32"/><path d="M226.37357,215.10742c0,0 -2.24639,-1.10231 -2.86493,-2.30778c-0.73187,-1.42633 -1.08963,-3.66981 -1.08963,-3.66981" stroke="#6c5719"/></g><g fill="none" stroke-width="1.5" stroke-linecap="round"><path d="M240.45107,215.76077c0,0 -1.71849,0.82502 -2.73151,0.62711c-1.19863,-0.23417 -2.71004,-1.07738 -2.71004,-1.07738" stroke="#d8ae32"/><path d="M240.40915,216.59303c0,0 -1.89548,0.91 -3.01284,0.6917c-1.32208,-0.2583 -2.98916,-1.18834 -2.98916,-1.18834" stroke="#6c5719"/></g><g fill="none" stroke-width="1.5" stroke-linecap="round"><path d="M258.92148,214.27652c0,0 -1.39931,1.29452 -2.4257,1.40371c-1.21444,0.1292 -2.90715,-0.23151 -2.90715,-0.23151" stroke="#d8ae32"/><path d="M259.12652,215.08422c0,0 -1.54343,1.42785 -2.67553,1.54829c-1.33952,0.14251 -3.20656,-0.25536 -3.20656,-0.25536" stroke="#6c5719"/></g><g fill="none" stroke-width="1.5" stroke-linecap="round"><path d="M267.63217,201.58732c0,0 0.01822,1.90618 -0.5907,2.73961c-0.72048,0.98614 -2.12516,1.99719 -2.12516,1.99719" stroke="#d8ae32"/><path d="M268.36807,201.9783c0,0 0.02009,2.10251 -0.65154,3.02178c-0.79469,1.0877 -2.34404,2.20289 -2.34404,2.20289" stroke="#6c5719"/></g><g fill="none" stroke-width="1.5" stroke-linecap="round"><path d="M243.12995,201.9254c0,0 -1.05974,0.50876 -1.68444,0.38672c-0.73916,-0.14441 -1.6712,-0.66439 -1.6712,-0.66439" stroke="#d8ae32"/><path d="M243.1041,202.43863c0,0 -1.16889,0.56117 -1.85793,0.42655c-0.81529,-0.15928 -1.84332,-0.73282 -1.84332,-0.73282" stroke="#6c5719"/></g></g></g></svg>