<svg version="1.1" xmlns="http://www.w3.org/2000/svg" xmlns:xlink="http://www.w3.org/1999/xlink" width="80.7866" height="91.83773" viewBox="0,0,80.7866,91.83773"><defs><radialGradient cx="239.48612" cy="178.9944" r="44.74432" gradientUnits="userSpaceOnUse" id="color-1"><stop offset="0" stop-color="#e9bc36"/><stop offset="1" stop-color="#bc921c"/></radialGradient><radialGradient cx="219.46004" cy="179.08803" r="42.37805" gradientUnits="userSpaceOnUse" id="color-2"><stop offset="0" stop-color="#dbb132"/><stop offset="1" stop-color="#000000"/></radialGradient></defs><g transform="translate(-199.60671,-134.08114)"><g data-paper-data="{&quot;isPaintingLayer&quot;:true}" fill-rule="nonzero" stroke-linejoin="miter" stroke-miterlimit="10" stroke-dasharray="" stroke-dashoffset="0" style="mix-blend-mode: normal"><path d="M277.86958,181.97736c0,9.84259 -2.22727,19.75942 -6.64508,26.75513c-6.63869,10.51254 -17.28716,15.00623 -30.44455,15.00623c-8.14508,0 -16.86699,-1.6319 -23.16643,-6.01852c-10.6483,-7.41495 -16.51085,-21.11805 -16.51085,-36.59512c0,-24.63315 15.17647,-46.875 37.08963,-46.875c9.09838,0 15.05243,5.53888 22.2675,11.78668c10.16218,8.79982 17.40978,21.53518 17.40978,35.9406z" fill="url(#color-1)" stroke="none" stroke-width="0" stroke-linecap="butt"/><path d="M243.5056,137.06633c-0.48768,0.31149 -1.07861,0.23845 -1.07861,0.23845c-0.76251,-0.09682 -1.53793,-0.18708 -2.32225,-0.2661c-0.25963,0.05276 -0.60895,0.06913 -0.94324,-0.08895c-7.93523,-0.69531 -16.60592,-0.06966 -21.96644,6.61702c-4.25118,4.20305 -6.04819,10.16653 -8.32613,15.57365c-2.07396,4.92292 -4.792,9.69883 -5.70553,15.04969c0,1.92933 -0.67873,3.83603 -0.50572,5.75256c0.23446,2.59721 0.76376,4.98923 0.76376,7.62372c0,3.43124 -0.35126,7.0254 0.46099,10.38842c0.61745,2.5565 2.60694,4.57234 3.46933,7.03755c1.17122,2.30207 2.35726,4.6577 4.22265,6.51337c2.1498,2.1386 5.3588,3.39959 7.87163,5.07008c2.70368,1.79737 5.25058,4.33166 8.30243,5.59569c2.20588,0.91364 5.06175,0.28148 7.30169,-0.08747c3.87241,-0.53936 7.62585,0.28103 11.50328,-0.01386c7.36073,-0.55981 14.42771,-3.29903 20.22971,-7.76745c2.77735,-4.22136 4.63996,-8.50276 6.84147,-12.90714c0.78597,-1.57242 2.65537,-3.62525 2.89377,-5.31946c0.55662,-3.95569 -0.42989,-7.94996 0.25392,-12.00633c0.29441,-1.74644 0.80667,-3.73049 0.50467,-5.51313c-0.424,-2.50281 -1.87932,-4.90914 -2.50349,-7.37869c-0.86656,-3.42855 -0.60765,-6.97612 -2.58702,-10.05315c-1.47566,-2.29398 -3.53532,-4.24542 -5.06986,-6.51983c-2.49025,-4.32737 -6.22645,-5.38419 -9.64387,-8.72794c-4.29013,-4.19764 -8.20397,-7.8442 -13.96713,-8.8107zM239.76813,134.31824l0.57127,-0.197c8.36996,0.02605 13.73249,4.38932 19.27893,9.93934c1.49565,1.49661 3.56335,2.42525 5.30786,3.54716c2.1194,1.36299 3.54282,3.60758 4.77157,5.72491c1.52592,2.26449 3.57279,4.19455 5.04465,6.48017c2.21353,3.43738 2.01406,7.14486 2.97595,10.94685c0.64707,2.55763 2.11682,5.01987 2.55378,7.62131c0.35715,2.12628 -0.15507,4.4005 -0.50678,6.48687c-0.67388,3.99753 0.46801,8.11721 -0.25181,11.99367c-0.50901,2.74116 -2.96518,4.81063 -3.84771,7.47359c-1.45896,4.40225 -3.98243,8.42338 -6.64607,12.29981c-6.28784,5.07298 -14.14071,8.11573 -22.25124,8.73255c-3.78746,0.28804 -7.48857,-0.55424 -11.25437,-0.01387c-2.80071,0.46169 -6.13753,1.03903 -8.88153,-0.08746c-3.25599,-1.33668 -6.00871,-4.02186 -8.89225,-5.90431c-2.70547,-1.7662 -5.99298,-3.14855 -8.31158,-5.42992c-2.15893,-2.12428 -3.54432,-4.83066 -4.88042,-7.48664c-0.84913,-2.63861 -2.89295,-4.71681 -3.61083,-7.46245c-0.93574,-3.57885 -0.55046,-7.45 -0.55046,-11.11158c0,-2.55054 -0.55288,-4.85743 -0.75342,-7.37628c-0.16824,-2.1131 0.50573,-4.13743 0.50573,-6.24744c0.94885,-5.68356 3.72289,-10.72449 5.92616,-15.95031c2.41135,-5.71937 4.3636,-11.97242 8.86854,-16.42635c6.16831,-7.55956 15.83749,-8.32351 24.83404,-7.55263z" fill="#000000" stroke="#000000" stroke-width="0" stroke-linecap="butt"/><path d="M252.79329,177.04845c0,0 -2.8951,0.45703 -4.25,0.45703c-1.60314,0 -4.65235,-0.26172 -4.65235,-0.26172" fill="none" stroke="#000000" stroke-width="1.5" stroke-linecap="round"/><path d="M225.12253,221.46607c0,0 -9.81999,-8.97897 -11.51751,-17.72176c-3.03581,-15.63548 0.93813,-32.9858 2.4675,-43.2458c0.97978,-6.57295 3.61925,-13.83213 6.34675,-18.66783c1.54755,-2.74372 4.00844,-5.12071 4.00844,-5.12071" fill="none" stroke="url(#color-2)" stroke-width="1.5" stroke-linecap="round"/><g stroke-linecap="butt"><path d="M222.69191,167.33756c0,-5.45381 4.42119,-9.875 9.875,-9.875c5.45381,0 9.875,4.42119 9.875,9.875c0,5.45381 -4.42119,9.875 -9.875,9.875c-5.45381,0 -9.875,-4.42119 -9.875,-9.875z" fill="#fdf7e7" stroke="#000000" stroke-width="1.5"/><path d="M234.68745,167.01538c0,-0.69036 0.55964,-1.25 1.25,-1.25c0.69036,0 1.25,0.55964 1.25,1.25c0,0.69036 -0.55964,1.25 -1.25,1.25c-0.69036,0 -1.25,-0.55964 -1.25,-1.25z" fill="#000000" stroke="none" stroke-width="0.5"/></g><g stroke-linecap="butt"><path d="M251.2224,163.44731c0,-4.90152 3.97348,-8.875 8.875,-8.875c4.90152,0 8.875,3.97348 8.875,8.875c0,4.90152 -3.97348,8.875 -8.875,8.875c-4.90152,0 -8.875,-3.97348 -8.875,-8.875z" fill="#fdf7e7" stroke="#000000" stroke-width="1.5"/><path d="M257.04748,163.93196c0,-0.69036 0.55964,-1.25 1.25,-1.25c0.69036,0 1.25,0.55964 1.25,1.25c0,0.69036 -0.55964,1.25 -1.25,1.25c-0.69036,0 -1.25,-0.55964 -1.25,-1.25z" fill="#000000" stroke="none" stroke-width="0.5"/></g><g fill="none" stroke-width="1.5" stroke-linecap="round"><path d="M225.27591,149.05195c0,0 0.64324,-2.17551 1.62647,-2.91183c1.16338,-0.87123 3.11403,-1.53249 3.11403,-1.53249" stroke="#d8ae32"/><path d="M224.57466,148.35069c0,0 0.70949,-2.39958 1.79399,-3.21174c1.2832,-0.96096 3.43476,-1.69033 3.43476,-1.69033" stroke="#6c5719"/></g><g fill="none" stroke-width="1.5" stroke-linecap="round"><path d="M227.1826,214.53385c0,0 -2.03663,-0.99939 -2.59741,-2.09229c-0.66353,-1.29315 -0.98788,-3.32713 -0.98788,-3.32713" stroke="#d8ae32"/><path d="M226.37356,215.10741c0,0 -2.24639,-1.10231 -2.86493,-2.30778c-0.73187,-1.42633 -1.08963,-3.66981 -1.08963,-3.66981" stroke="#6c5719"/></g><g fill="none" stroke-width="1.5" stroke-linecap="round"><path d="M240.45106,215.76076c0,0 -1.71849,0.82502 -2.73151,0.62711c-1.19863,-0.23417 -2.71004,-1.07738 -2.71004,-1.07738" stroke="#d8ae32"/><path d="M240.40914,216.59302c0,0 -1.89548,0.91 -3.01284,0.6917c-1.32208,-0.2583 -2.98916,-1.18834 -2.98916,-1.18834" stroke="#6c5719"/></g><g fill="none" stroke-width="1.5" stroke-linecap="round"><path d="M258.92148,214.27651c0,0 -1.39931,1.29452 -2.4257,1.40371c-1.21444,0.1292 -2.90715,-0.23151 -2.90715,-0.23151" stroke="#d8ae32"/><path d="M259.12651,215.08421c0,0 -1.54343,1.42785 -2.67553,1.54829c-1.33952,0.14251 -3.20656,-0.25536 -3.20656,-0.25536" stroke="#6c5719"/></g><g fill="none" stroke-width="1.5" stroke-linecap="round"><path d="M267.63216,201.58731c0,0 0.01822,1.90618 -0.5907,2.73961c-0.72048,0.98614 -2.12516,1.99719 -2.12516,1.99719" stroke="#d8ae32"/><path d="M268.36807,201.97829c0,0 0.02009,2.10251 -0.65154,3.02178c-0.79469,1.0877 -2.34404,2.20289 -2.34404,2.20289" stroke="#6c5719"/></g><g fill="none" stroke-width="1.5" stroke-linecap="round"><path d="M243.12994,201.92539c0,0 -1.05974,0.50876 -1.68444,0.38672c-0.73916,-0.14441 -1.6712,-0.66439 -1.6712,-0.66439" stroke="#d8ae32"/><path d="M243.10409,202.43862c0,0 -1.16889,0.56117 -1.85793,0.42655c-0.81529,-0.15928 -1.84332,-0.73282 -1.84332,-0.73282" stroke="#6c5719"/></g></g></g></svg>