<svg version="1.1" xmlns="http://www.w3.org/2000/svg" xmlns:xlink="http://www.w3.org/1999/xlink" width="232.96854" height="234.26218" viewBox="0,0,232.96854,234.26218"><g transform="translate(-101.64544,-21.62271)"><g data-paper-data="{&quot;isPaintingLayer&quot;:true}" fill="#00a043" fill-rule="nonzero" stroke="#000000" stroke-width="5" stroke-linecap="butt" stroke-linejoin="miter" stroke-miterlimit="10" stroke-dasharray="" stroke-dashoffset="0" style="mix-blend-mode: normal"><g data-paper-data="{&quot;index&quot;:null}"><path d="M327.77866,29.76428c0,0 1.14788,1.69287 1.14778,4.26558c-0.00017,4.45254 -0.00075,18.91197 -0.00109,27.2633c-0.00015,3.629 -0.86114,4.66968 -0.86114,4.66968c0,0 -2.26265,1.4348 -5.01709,1.43469c-4.80259,-0.00019 -20.39615,-0.00081 -28.26774,-0.00113c-2.80977,-0.00011 -4.06163,-1.43505 -4.06163,-1.43505c0,0 -0.57395,-0.52735 -0.57383,-3.52179c0.00033,-8.18621 0.00096,-24.0866 0.00115,-28.69822c0.0001,-2.45823 1.43507,-4.26547 1.43507,-4.26547c0,0 1.28318,-0.8609 3.77476,-0.8608c4.51029,0.00018 19.65927,0.00079 27.98076,0.00112c3.34811,0.00014 4.443,1.14812 4.443,1.14812z" data-paper-data="{&quot;index&quot;:null}"/><path d="M328.70677,75.33213c0,0 1.14788,1.69287 1.14778,4.26558c-0.00017,4.45254 -0.00075,18.91197 -0.00109,27.2633c-0.00015,3.629 -0.86113,4.66968 -0.86113,4.66968c0,0 -2.26265,1.4348 -5.01709,1.43469c-4.80259,-0.00019 -20.39615,-0.00081 -28.26774,-0.00113c-2.80977,-0.00011 -4.06163,-1.43505 -4.06163,-1.43505c0,0 -0.57395,-0.52735 -0.57383,-3.52179c0.00033,-8.18621 0.00096,-24.0866 0.00115,-28.69822c0.0001,-2.45823 1.43507,-4.26547 1.43507,-4.26547c0,0 1.28318,-0.8609 3.77476,-0.8608c4.51029,0.00018 19.65927,0.00079 27.98076,0.00112c3.34811,0.00014 4.443,1.14812 4.443,1.14812z" data-paper-data="{&quot;index&quot;:null}"/><path d="M328.70487,122.75985c0,0 1.14788,1.69287 1.14778,4.26558c-0.00017,4.45254 -0.00075,18.91197 -0.00109,27.2633c-0.00015,3.629 -0.86114,4.66968 -0.86114,4.66968c0,0 -2.26265,1.4348 -5.01709,1.43469c-4.80259,-0.00019 -20.39615,-0.00081 -28.26774,-0.00113c-2.80977,-0.00011 -4.06163,-1.43505 -4.06163,-1.43505c0,0 -0.57395,-0.52735 -0.57383,-3.52179c0.00033,-8.18621 0.00096,-24.0866 0.00115,-28.69822c0.0001,-2.45823 1.43507,-4.26547 1.43507,-4.26547c0,0 1.28318,-0.8609 3.77476,-0.8608c4.51029,0.00018 19.65927,0.00079 27.98076,0.00112c3.34811,0.00014 4.443,1.14812 4.443,1.14812z" data-paper-data="{&quot;index&quot;:null}"/><path d="M283.13705,122.75802c0,0 1.14788,1.69287 1.14778,4.26558c-0.00017,4.45254 -0.00075,18.91197 -0.00109,27.2633c-0.00015,3.629 -0.86114,4.66968 -0.86114,4.66968c0,0 -2.26265,1.4348 -5.01709,1.43469c-4.80259,-0.00019 -20.39615,-0.00081 -28.26774,-0.00113c-2.80977,-0.00011 -4.06163,-1.43505 -4.06163,-1.43505c0,0 -0.57395,-0.52735 -0.57383,-3.52179c0.00033,-8.18621 0.00096,-24.0866 0.00115,-28.69822c0.0001,-2.45823 1.43507,-4.26547 1.43507,-4.26547c0,0 1.28318,-0.8609 3.77476,-0.8608c4.51029,0.00018 19.65927,0.00079 27.98076,0.00112c3.34811,0.00014 4.443,1.14812 4.443,1.14812z" data-paper-data="{&quot;index&quot;:null}"/><path d="M236.63928,122.75616c0,0 1.14789,1.69287 1.14778,4.26558c-0.00017,4.45254 -0.00075,18.91197 -0.00109,27.2633c-0.00015,3.629 -0.86115,4.66968 -0.86115,4.66968c0,0 -2.26264,1.4348 -5.01708,1.43469c-4.80259,-0.00019 -20.39616,-0.00081 -28.26775,-0.00113c-2.80977,-0.00011 -4.06163,-1.43505 -4.06163,-1.43505c0,0 -0.57395,-0.52735 -0.57382,-3.52179c0.00033,-8.18621 0.00095,-24.0866 0.00114,-28.69822c0.0001,-2.45823 1.43507,-4.26547 1.43507,-4.26547c0,0 1.28318,-0.8609 3.77476,-0.8608c4.51029,0.00018 19.65927,0.00079 27.98076,0.00112c3.34811,0.00014 4.443,1.14812 4.443,1.14812z" data-paper-data="{&quot;index&quot;:null}"/><path d="M236.64111,77.18834c0,0 1.14788,1.69287 1.14778,4.26558c-0.00017,4.45254 -0.00075,18.91197 -0.00109,27.2633c-0.00015,3.629 -0.86114,4.66968 -0.86114,4.66968c0,0 -2.26265,1.4348 -5.01709,1.43469c-4.80259,-0.00019 -20.39615,-0.00081 -28.26774,-0.00113c-2.80977,-0.00011 -4.06163,-1.43505 -4.06163,-1.43505c0,0 -0.57395,-0.52735 -0.57383,-3.52179c0.00033,-8.18621 0.00096,-24.0866 0.00115,-28.69822c0.0001,-2.45823 1.43507,-4.26547 1.43507,-4.26547c0,0 1.28318,-0.8609 3.77476,-0.8608c4.51029,0.00018 19.65927,0.00079 27.98076,0.00112c3.34811,0.00014 4.443,1.14812 4.443,1.14812z" data-paper-data="{&quot;index&quot;:null}"/><path d="M235.70743,170.18384c0,0 1.14788,1.69287 1.14778,4.26558c-0.00017,4.45254 -0.00075,18.91197 -0.00109,27.2633c-0.00015,3.629 -0.86114,4.66968 -0.86114,4.66968c0,0 -2.26265,1.4348 -5.01709,1.43469c-4.80259,-0.00019 -20.39615,-0.00081 -28.26774,-0.00113c-2.80977,-0.00011 -4.06163,-1.43505 -4.06163,-1.43505c0,0 -0.57395,-0.52735 -0.57383,-3.52179c0.00033,-8.18621 0.00096,-24.0866 0.00115,-28.69822c0.0001,-2.45823 1.43507,-4.26547 1.43507,-4.26547c0,0 1.28318,-0.8609 3.77476,-0.8608c4.51029,0.00018 19.65927,0.00079 27.98076,0.00112c3.34811,0.00014 4.443,1.14812 4.443,1.14812z" data-paper-data="{&quot;index&quot;:null}"/><path d="M235.7056,215.75165c0,0 1.14788,1.69287 1.14778,4.26558c-0.00017,4.45254 -0.00075,18.91197 -0.00109,27.2633c-0.00015,3.629 -0.86114,4.66968 -0.86114,4.66968c0,0 -2.26265,1.4348 -5.01709,1.43469c-4.80259,-0.00019 -20.39615,-0.00081 -28.26774,-0.00113c-2.80977,-0.00011 -4.06163,-1.43505 -4.06163,-1.43505c0,0 -0.57395,-0.52735 -0.57383,-3.52179c0.00033,-8.18621 0.00096,-24.0866 0.00115,-28.69822c0.0001,-2.45823 1.43507,-4.26547 1.43507,-4.26547c0,0 1.28318,-0.8609 3.77476,-0.8608c4.51029,0.00018 19.65927,0.00079 27.98076,0.00112c3.34811,0.00014 4.443,1.14812 4.443,1.14812z" data-paper-data="{&quot;index&quot;:null}"/><path d="M189.20787,214.81985c0,0 1.14789,1.69287 1.14778,4.26558c-0.00017,4.45254 -0.00075,18.91197 -0.00109,27.2633c-0.00015,3.629 -0.86115,4.66968 -0.86115,4.66968c0,0 -2.26264,1.4348 -5.01708,1.43469c-4.80259,-0.00019 -20.39616,-0.00081 -28.26775,-0.00113c-2.80977,-0.00011 -4.06163,-1.43505 -4.06163,-1.43505c0,0 -0.57395,-0.52735 -0.57383,-3.52179c0.00033,-8.18621 0.00096,-24.0866 0.00115,-28.69822c0.0001,-2.45823 1.43507,-4.26547 1.43507,-4.26547c0,0 1.28318,-0.8609 3.77476,-0.8608c4.51029,0.00018 19.65927,0.00079 27.98076,0.00112c3.34811,0.00014 4.443,1.14812 4.443,1.14812z" data-paper-data="{&quot;index&quot;:null}"/><path d="M141.78018,213.88798c0,0 1.14788,1.69287 1.14778,4.26558c-0.00017,4.45254 -0.00075,18.91197 -0.00109,27.2633c-0.00015,3.629 -0.86114,4.66968 -0.86114,4.66968c0,0 -2.26265,1.4348 -5.01709,1.43469c-4.80259,-0.00019 -20.39615,-0.00081 -28.26774,-0.00113c-2.80977,-0.00011 -4.06163,-1.43505 -4.06163,-1.43505c0,0 -0.57395,-0.52735 -0.57383,-3.52179c0.00033,-8.18621 0.00096,-24.0866 0.00115,-28.69822c0.0001,-2.45823 1.43507,-4.26547 1.43507,-4.26547c0,0 1.28318,-0.8609 3.77476,-0.8608c4.51029,0.00018 19.65927,0.00079 27.98076,0.00112c3.34811,0.00014 4.443,1.14812 4.443,1.14812z" data-paper-data="{&quot;index&quot;:null}"/></g></g></g></svg>