<svg version="1.1" xmlns="http://www.w3.org/2000/svg" xmlns:xlink="http://www.w3.org/1999/xlink" width="293.32271" height="239.49354" viewBox="0,0,293.32271,239.49354"><g transform="translate(-141.50599,-58.234)"><g data-paper-data="{&quot;isPaintingLayer&quot;:true}" fill="#00a043" fill-rule="nonzero" stroke="#000000" stroke-width="5" stroke-linecap="butt" stroke-linejoin="miter" stroke-miterlimit="10" stroke-dasharray="" stroke-dashoffset="0" style="mix-blend-mode: normal"><path d="M193.33248,66.37557c0,0 1.46032,2.15365 1.46019,5.42662c-0.00022,5.66446 -0.00095,24.05957 -0.00139,34.68402c-0.00019,4.61677 -1.09553,5.94071 -1.09553,5.94071c0,0 -2.87851,1.82533 -6.38268,1.82519c-6.10979,-0.00024 -25.94772,-0.00103 -35.96186,-0.00144c-3.57455,-0.00014 -5.16715,-1.82565 -5.16715,-1.82565c0,0 -0.73017,-0.67089 -0.73002,-4.48038c0.00042,-10.41439 0.00122,-30.64267 0.00146,-36.50951c0.00013,-3.12733 1.82568,-5.42648 1.82568,-5.42648c0,0 1.63245,-1.09523 4.8022,-1.0951c5.73793,0.00023 25.01027,0.00101 35.59677,0.00142c4.25942,0.00018 5.65233,1.46062 5.65233,1.46062z" data-paper-data="{&quot;index&quot;:null}"/><path d="M371.34724,129.43515c0,0 1.46032,2.15365 1.46019,5.42662c-0.00022,5.66446 -0.00095,24.05957 -0.00139,34.68402c-0.00019,4.61677 -1.09552,5.94071 -1.09552,5.94071c0,0 -2.87851,1.82533 -6.38268,1.82519c-6.10979,-0.00024 -25.94772,-0.00103 -35.96186,-0.00144c-3.57455,-0.00014 -5.16715,-1.82565 -5.16715,-1.82565c0,0 -0.73017,-0.67089 -0.73002,-4.48038c0.00042,-10.41439 0.00122,-30.64267 0.00146,-36.50951c0.00013,-3.12733 1.82568,-5.42648 1.82568,-5.42648c0,0 1.63245,-1.09523 4.8022,-1.0951c5.73793,0.00023 25.01027,0.00101 35.59677,0.00142c4.25942,0.00018 5.65233,1.46062 5.65233,1.46062z" data-paper-data="{&quot;index&quot;:null}"/><path d="M310.27984,249.5649c0,0 1.46032,2.15365 1.46019,5.42662c-0.00022,5.66446 -0.00095,24.05957 -0.00139,34.68402c-0.00019,4.61677 -1.09553,5.94071 -1.09553,5.94071c0,0 -2.87851,1.82533 -6.38268,1.82519c-6.10979,-0.00024 -25.94772,-0.00103 -35.96186,-0.00144c-3.57455,-0.00014 -5.16715,-1.82565 -5.16715,-1.82565c0,0 -0.73017,-0.67089 -0.73002,-4.48038c0.00042,-10.41439 0.00122,-30.64267 0.00146,-36.50951c0.00013,-3.12733 1.82568,-5.42648 1.82568,-5.42648c0,0 1.63245,-1.09523 4.8022,-1.0951c5.73793,0.00023 25.01027,0.00101 35.59677,0.00142c4.25942,0.00018 5.65233,1.46062 5.65233,1.46062z" data-paper-data="{&quot;index&quot;:null}"/><path d="M312.10184,131.24915c0,0 1.46032,2.15365 1.46019,5.42662c-0.00022,5.66446 -0.00095,24.05957 -0.00139,34.68402c-0.00019,4.61677 -1.09553,5.94071 -1.09553,5.94071c0,0 -2.87851,1.82533 -6.38268,1.82519c-6.10979,-0.00024 -25.94772,-0.00103 -35.96186,-0.00144c-3.57455,-0.00014 -5.16715,-1.82565 -5.16715,-1.82565c0,0 -0.73017,-0.67089 -0.73002,-4.48038c0.00042,-10.41439 0.00122,-30.64267 0.00146,-36.50951c0.00013,-3.12733 1.82568,-5.42648 1.82568,-5.42648c0,0 1.63245,-1.09523 4.8022,-1.0951c5.73793,0.00023 25.01027,0.00101 35.59677,0.00142c4.25942,0.00018 5.65233,1.46062 5.65233,1.46062z" data-paper-data="{&quot;index&quot;:null}"/><path d="M191.88298,127.43022c0,0 1.46033,2.15365 1.46019,5.42662c-0.00022,5.66446 -0.00095,24.05957 -0.00139,34.68402c-0.00019,4.61677 -1.09554,5.94071 -1.09554,5.94071c0,0 -2.8785,1.82533 -6.38267,1.82519c-6.10979,-0.00024 -25.94774,-0.00103 -35.96187,-0.00144c-3.57455,-0.00014 -5.16715,-1.82565 -5.16715,-1.82565c0,0 -0.73017,-0.67089 -0.73001,-4.48038c0.00042,-10.41439 0.00121,-30.64267 0.00145,-36.50951c0.00013,-3.12733 1.82568,-5.42648 1.82568,-5.42648c0,0 1.63245,-1.09523 4.8022,-1.0951c5.73793,0.00023 25.01027,0.00101 35.59677,0.00142c4.25942,0.00018 5.65233,1.46062 5.65233,1.46062z" data-paper-data="{&quot;index&quot;:null}"/><path d="M432.3287,129.25223c0,0 1.46032,2.15365 1.46019,5.42662c-0.00022,5.66446 -0.00095,24.05957 -0.00139,34.68402c-0.00019,4.61677 -1.09553,5.94071 -1.09553,5.94071c0,0 -2.87851,1.82533 -6.38268,1.82519c-6.10979,-0.00024 -25.94772,-0.00103 -35.96186,-0.00144c-3.57455,-0.00014 -5.16715,-1.82565 -5.16715,-1.82565c0,0 -0.73017,-0.67089 -0.73002,-4.48038c0.00042,-10.41439 0.00122,-30.64267 0.00146,-36.50951c0.00013,-3.12733 1.82568,-5.42648 1.82568,-5.42648c0,0 1.63245,-1.09523 4.8022,-1.0951c5.73793,0.00023 25.01027,0.00101 35.59677,0.00142c4.25942,0.00018 5.65233,1.46062 5.65233,1.46062z" data-paper-data="{&quot;index&quot;:null}"/><path d="M312.82747,73.27026c0,0 1.46032,2.15365 1.46019,5.42662c-0.00022,5.66446 -0.00095,24.05957 -0.00139,34.68402c-0.00019,4.61677 -1.09553,5.94071 -1.09553,5.94071c0,0 -2.87851,1.82533 -6.38268,1.82519c-6.10979,-0.00024 -25.94772,-0.00103 -35.96186,-0.00144c-3.57455,-0.00014 -5.16715,-1.82565 -5.16715,-1.82565c0,0 -0.73017,-0.67089 -0.73002,-4.48038c0.00042,-10.41439 0.00122,-30.64267 0.00146,-36.50951c0.00013,-3.12733 1.82568,-5.42648 1.82568,-5.42648c0,0 1.63245,-1.09523 4.8022,-1.0951c5.73793,0.00023 25.01027,0.00101 35.59677,0.00142c4.25942,0.00018 5.65233,1.46062 5.65233,1.46062z" data-paper-data="{&quot;index&quot;:null}"/><path d="M311.55295,189.76166c0,0 1.46032,2.15365 1.46019,5.42662c-0.00022,5.66446 -0.00095,24.05957 -0.00139,34.68402c-0.00019,4.61677 -1.09553,5.94071 -1.09553,5.94071c0,0 -2.87851,1.82533 -6.38268,1.82519c-6.10979,-0.00024 -25.94772,-0.00103 -35.96186,-0.00144c-3.57455,-0.00014 -5.16715,-1.82565 -5.16715,-1.82565c0,0 -0.73017,-0.67089 -0.73002,-4.48038c0.00042,-10.41439 0.00122,-30.64267 0.00146,-36.50951c0.00013,-3.12733 1.82568,-5.42648 1.82568,-5.42648c0,0 1.63245,-1.09523 4.8022,-1.0951c5.73793,0.00023 25.01027,0.00101 35.59677,0.00142c4.25942,0.00018 5.65233,1.46062 5.65233,1.46062z" data-paper-data="{&quot;index&quot;:null}"/><path d="M252.39913,188.57624c0,0 1.46033,2.15365 1.46019,5.42662c-0.00022,5.66446 -0.00095,24.05957 -0.00139,34.68402c-0.00019,4.61677 -1.09554,5.94071 -1.09554,5.94071c0,0 -2.8785,1.82533 -6.38267,1.82519c-6.10979,-0.00024 -25.94774,-0.00103 -35.96187,-0.00144c-3.57455,-0.00014 -5.16715,-1.82565 -5.16715,-1.82565c0,0 -0.73017,-0.67089 -0.73002,-4.48038c0.00042,-10.41439 0.00122,-30.64267 0.00146,-36.50951c0.00013,-3.12733 1.82568,-5.42648 1.82568,-5.42648c0,0 1.63245,-1.09523 4.8022,-1.0951c5.73793,0.00023 25.01027,0.00101 35.59677,0.00142c4.25942,0.00018 5.65233,1.46062 5.65233,1.46062z" data-paper-data="{&quot;index&quot;:null}"/><path d="M192.06223,187.39073c0,0 1.46032,2.15365 1.46019,5.42662c-0.00022,5.66446 -0.00095,24.05957 -0.00139,34.68402c-0.00019,4.61677 -1.09553,5.94071 -1.09553,5.94071c0,0 -2.87851,1.82533 -6.38268,1.82519c-6.10979,-0.00024 -25.94772,-0.00103 -35.96186,-0.00144c-3.57455,-0.00014 -5.16715,-1.82565 -5.16715,-1.82565c0,0 -0.73017,-0.67089 -0.73002,-4.48038c0.00042,-10.41439 0.00122,-30.64267 0.00146,-36.50951c0.00013,-3.12733 1.82568,-5.42648 1.82568,-5.42648c0,0 1.63245,-1.09523 4.8022,-1.0951c5.73793,0.00023 25.01027,0.00101 35.59677,0.00142c4.25942,0.00018 5.65233,1.46062 5.65233,1.46062z" data-paper-data="{&quot;index&quot;:null}"/></g></g></svg>