<svg version="1.1" xmlns="http://www.w3.org/2000/svg" xmlns:xlink="http://www.w3.org/1999/xlink" width="456.45646" height="47.44265" viewBox="0,0,456.45646,47.44265"><g transform="translate(-11.77177,-155.83063)"><g data-paper-data="{&quot;isPaintingLayer&quot;:true}" fill-rule="nonzero" stroke="none" stroke-linecap="butt" stroke-linejoin="miter" stroke-miterlimit="10" stroke-dasharray="" stroke-dashoffset="0" style="mix-blend-mode: normal"><g><path d="M11.77177,203.27327v-46.54654h456.45646v46.54654z" fill="#b9b9b9" stroke-width="0"/><text transform="translate(14.51126,178.52327) scale(0.52167,0.52167)" font-size="40" xml:space="preserve" fill="#000000" fill-rule="nonzero" stroke="none" stroke-width="1" stroke-linecap="butt" stroke-linejoin="miter" stroke-miterlimit="10" stroke-dasharray="" stroke-dashoffset="0" font-family="Sans Serif" font-weight="normal" text-anchor="start" style="mix-blend-mode: normal"><tspan x="0" dy="0">Turn On Your Sound, It's Half The Experience</tspan></text><path d="M193.40879,196.57327c0,3.20325 -2.68629,5.8 -6,5.8c-3.31371,0 -6,-2.59675 -6,-5.8c0,-3.20325 2.68629,-5.8 6,-5.8c3.31371,0 6,2.59675 6,5.8z" fill="#ffb900" stroke-width="0"/><path d="M220.74212,196.46935c0,3.32995 -3.05939,6.02941 -6.83333,6.02941c-3.77395,0 -6.83333,-2.69946 -6.83333,-6.02941c0,-3.32995 3.05939,-6.02941 6.83333,-6.02941c3.77395,0 6.83333,2.69946 6.83333,6.02941z" fill="#ffb900" stroke-width="0"/><path d="M210.32104,189.05581c-0.56904,-0.9928 -2.18142,-2.12473 -2.97647,-2.93515c-5.57541,-2.70108 -10.3336,-1.37859 -15.27861,1.71593c-0.97611,0.61084 -2.25787,1.16124 -2.90275,2.21923c-0.48886,0.80202 -0.17108,2.51832 -0.17108,3.38413c0,0 0,1.25 -1.25,1.25c-0.20427,0 -0.37516,-0.03338 -0.51812,-0.08923c-0.19153,0.44462 -0.63369,0.7559 -1.14855,0.7559c-0.69036,0 -1.25,-0.55964 -1.25,-1.25v-1.33333c0,-1.25649 -0.28646,-3.08306 0.03344,-4.28719c0.77199,-2.90589 3.70247,-3.91352 5.93402,-5.13389c1.21068,-0.66209 1.94778,-1.95825 3.29204,-2.64223c4.06515,-2.86062 9.28189,-0.34989 13.42418,1.22429c2.7557,1.04724 5.46707,1.29774 6.73867,4.40534c0.56034,1.36938 1.53643,5.38714 0.37819,6.6509c-0.91334,0.99655 -1.50542,0.82233 -1.9637,0.361l-0.32633,0.13053l0.04265,0.1706l-1.30614,0.32653c-0.10523,0.02876 -0.21601,0.04412 -0.33036,0.04412c-0.69036,0 -1.25,-0.55964 -1.25,-1.25c0,-0.53655 0.33806,-0.99415 0.8128,-1.17141l0.62414,-0.24966c-0.30478,-0.74743 -0.22264,-1.62403 -0.60802,-2.29639zM200.97347,182.19087c-0.01616,-0.00416 -0.03233,-0.00829 -0.04849,-0.01239c-0.00159,0.00464 -0.00321,0.00927 -0.00485,0.01389c0.01778,-0.00053 0.03555,-0.00103 0.05334,-0.0015z" fill="#ffb900" stroke-width="0.5"/></g></g></g></svg>