<svg version="1.1" xmlns="http://www.w3.org/2000/svg" xmlns:xlink="http://www.w3.org/1999/xlink" width="608.60661" height="459.95796" viewBox="0,0,608.60661,459.95796"><g transform="translate(57.54653,53.73272)"><g data-paper-data="{&quot;isPaintingLayer&quot;:true}" fill-rule="nonzero" stroke-linecap="butt" stroke-miterlimit="10" stroke-dasharray="" stroke-dashoffset="0" style="mix-blend-mode: normal"><path d="M-56.54653,405.22525v-457.95796h606.60661v457.95796z" fill="#000000" stroke="#000000" stroke-width="2" stroke-linejoin="miter"/><text transform="translate(3.25545,194.40241) scale(1.33272,1.24831)" font-size="40" xml:space="preserve" fill="#ffffff" fill-rule="nonzero" stroke="none" stroke-width="1" stroke-linecap="butt" stroke-linejoin="miter" stroke-miterlimit="10" stroke-dasharray="" stroke-dashoffset="0" font-family="Sans Serif" font-weight="normal" text-anchor="start" style="mix-blend-mode: normal"><tspan x="0" dy="0">Hope You Enjoyed!</tspan></text><path d="M103.01632,120.05166c-7.2944,3.96736 -27.15473,-19.14084 -27.15473,-19.14084c0,0 -25.13822,17.24081 -31.16942,11.52706c-6.03662,-5.71379 9.81139,-31.75073 9.81139,-31.75073c0,0 -24.16108,-18.58133 -20.59106,-26.08195c3.57028,-7.50646 33.22588,-0.47958 33.22588,-0.47958c0,0 10.19895,-28.7197 18.43761,-27.64973c8.24967,1.07588 10.73278,31.457 10.73278,31.457c0,0 30.46607,0.82435 31.98302,8.99577c1.53385,8.16676 -26.59308,19.92058 -26.59308,19.92058c0,0 8.62887,29.23583 1.3176,33.20243z" fill="#ffff00" stroke="#e1f100" stroke-width="5" stroke-linejoin="miter"/><path d="M323.31373,37.80669c1.62414,-12.84908 10.06633,-23.95079 22.59968,-27.67163c17.27885,-5.12965 35.74607,5.67596 41.22154,24.11966c10.78353,36.32352 -22.64963,58.50499 -34.54913,102.15284c-35.17485,-29.92104 -73.5537,-29.2319 -84.69275,-66.75296c-5.47546,-18.4437 4.10406,-37.57567 21.3829,-42.70532c12.53345,-3.72086 25.6658,0.97592 34.03776,10.85741z" fill="#ff0000" stroke="#c50000" stroke-width="4.22139" stroke-linejoin="round"/><g fill="#00d0d0" stroke="#008787" stroke-width="5" stroke-linejoin="miter"><path d="M192.19413,338.19405l30.90054,-84.62494l46.54372,16.9953l-30.90054,84.62494z"/><path d="M286.45222,263.91616c-7.11079,19.47378 -29.2933,29.26538 -49.54604,21.87016c-20.25273,-7.39522 -30.90637,-29.17685 -23.79558,-48.65063c7.11079,-19.47378 29.2933,-29.26538 49.54604,-21.87016c20.25273,7.39522 30.90637,29.17685 23.79558,48.65063z"/></g><g fill="#00d0d0" stroke="#008787" stroke-width="5" stroke-linejoin="miter"><path d="M174.68469,349.66969v-90.09009h49.54955v90.09009z"/><path d="M237.74776,247.56757c0,20.73141 -17.47837,37.53754 -39.03904,37.53754c-21.56067,0 -39.03904,-16.80613 -39.03904,-37.53754c0,-20.73141 17.47837,-37.53754 39.03904,-37.53754c21.56067,0 39.03904,16.80613 39.03904,37.53754z"/></g></g></g></svg>