<svg version="1.1" xmlns="http://www.w3.org/2000/svg" xmlns:xlink="http://www.w3.org/1999/xlink" width="278.28549" height="235.58138" viewBox="0,0,278.28549,235.58138"><g transform="translate(-152.71219,-60.61645)"><g data-paper-data="{&quot;isPaintingLayer&quot;:true}" fill="#00a043" fill-rule="nonzero" stroke="#000000" stroke-width="5" stroke-linecap="butt" stroke-linejoin="miter" stroke-miterlimit="10" stroke-dasharray="" stroke-dashoffset="0" style="mix-blend-mode: normal"><path d="M250.22133,71.7643c0,0 1.09489,-1.14798 4.443,-1.14812c8.32149,-0.00033 23.47047,-0.00094 27.98076,-0.00112c2.49158,-0.0001 3.77476,0.8608 3.77476,0.8608c0,0 1.43497,1.80724 1.43507,4.26547c0.00019,4.61162 0.00082,20.51201 0.00115,28.69822c0.00012,2.99444 -0.57383,3.52179 -0.57383,3.52179c0,0 -1.25186,1.43494 -4.06163,1.43505c-7.87159,0.00032 -23.46515,0.00094 -28.26774,0.00113c-2.75444,0.00011 -5.01709,-1.43469 -5.01709,-1.43469c0,0 -0.86099,-1.04068 -0.86114,-4.66968c-0.00034,-8.35133 -0.00092,-22.81076 -0.00109,-27.2633c-0.0001,-2.57271 1.14778,-4.26558 1.14778,-4.26558z" data-paper-data="{&quot;index&quot;:null}"/><path d="M203.29321,117.33216c0,0 1.09489,-1.14798 4.443,-1.14812c8.32149,-0.00033 23.47047,-0.00094 27.98076,-0.00112c2.49158,-0.0001 3.77476,0.8608 3.77476,0.8608c0,0 1.43497,1.80724 1.43507,4.26547c0.00019,4.61162 0.00082,20.51201 0.00115,28.69822c0.00012,2.99444 -0.57383,3.52179 -0.57383,3.52179c0,0 -1.25186,1.43494 -4.06163,1.43505c-7.87159,0.00032 -23.46515,0.00094 -28.26774,0.00113c-2.75444,0.00011 -5.01709,-1.43469 -5.01709,-1.43469c0,0 -0.86098,-1.04068 -0.86113,-4.66968c-0.00034,-8.35133 -0.00092,-22.81076 -0.00109,-27.2633c-0.0001,-2.57271 1.14778,-4.26558 1.14778,-4.26558z" data-paper-data="{&quot;index&quot;:null}"/><path d="M250.29512,117.75988c0,0 1.09489,-1.14798 4.443,-1.14812c8.32149,-0.00033 23.47047,-0.00094 27.98076,-0.00112c2.49158,-0.0001 3.77476,0.8608 3.77476,0.8608c0,0 1.43497,1.80724 1.43507,4.26547c0.00019,4.61162 0.00082,20.51201 0.00115,28.69822c0.00012,2.99444 -0.57383,3.52179 -0.57383,3.52179c0,0 -1.25186,1.43494 -4.06163,1.43505c-7.87159,0.00032 -23.46515,0.00094 -28.26774,0.00113c-2.75444,0.00011 -5.01709,-1.43469 -5.01709,-1.43469c0,0 -0.86099,-1.04068 -0.86114,-4.66968c-0.00034,-8.35133 -0.00092,-22.81076 -0.00109,-27.2633c-0.0001,-2.57271 1.14778,-4.26558 1.14778,-4.26558z" data-paper-data="{&quot;index&quot;:null}"/><path d="M250.86294,162.75805c0,0 1.09489,-1.14798 4.443,-1.14812c8.32149,-0.00033 23.47047,-0.00094 27.98076,-0.00112c2.49158,-0.0001 3.77476,0.8608 3.77476,0.8608c0,0 1.43497,1.80724 1.43507,4.26547c0.00019,4.61162 0.00082,20.51201 0.00115,28.69822c0.00012,2.99444 -0.57383,3.52179 -0.57383,3.52179c0,0 -1.25186,1.43494 -4.06163,1.43505c-7.87159,0.00032 -23.46515,0.00094 -28.26774,0.00113c-2.75444,0.00011 -5.01709,-1.43469 -5.01709,-1.43469c0,0 -0.86099,-1.04068 -0.86114,-4.66968c-0.00034,-8.35133 -0.00092,-22.81076 -0.00109,-27.2633c-0.0001,-2.57271 1.14778,-4.26558 1.14778,-4.26558z" data-paper-data="{&quot;index&quot;:null}"/><path d="M156.36072,163.75618c0,0 1.09489,-1.14798 4.443,-1.14812c8.32149,-0.00033 23.47047,-0.00094 27.98076,-0.00112c2.49158,-0.0001 3.77476,0.8608 3.77476,0.8608c0,0 1.43497,1.80724 1.43507,4.26547c0.00019,4.61162 0.00081,20.51201 0.00114,28.69822c0.00013,2.99444 -0.57382,3.52179 -0.57382,3.52179c0,0 -1.25186,1.43494 -4.06163,1.43505c-7.87159,0.00032 -23.46516,0.00094 -28.26775,0.00113c-2.75444,0.00011 -5.01708,-1.43469 -5.01708,-1.43469c0,0 -0.861,-1.04068 -0.86115,-4.66968c-0.00034,-8.35133 -0.00092,-22.81076 -0.00109,-27.2633c-0.00011,-2.57271 1.14778,-4.26558 1.14778,-4.26558z" data-paper-data="{&quot;index&quot;:null}"/><path d="M156.35888,118.18837c0,0 1.09489,-1.14798 4.443,-1.14812c8.32149,-0.00033 23.47047,-0.00094 27.98076,-0.00112c2.49158,-0.0001 3.77476,0.8608 3.77476,0.8608c0,0 1.43497,1.80724 1.43507,4.26547c0.00019,4.61162 0.00082,20.51201 0.00115,28.69822c0.00012,2.99444 -0.57383,3.52179 -0.57383,3.52179c0,0 -1.25186,1.43494 -4.06163,1.43505c-7.87159,0.00032 -23.46515,0.00094 -28.26774,0.00113c-2.75444,0.00011 -5.01709,-1.43469 -5.01709,-1.43469c0,0 -0.86099,-1.04068 -0.86114,-4.66968c-0.00034,-8.35133 -0.00092,-22.81076 -0.00109,-27.2633c-0.0001,-2.57271 1.14778,-4.26558 1.14778,-4.26558z" data-paper-data="{&quot;index&quot;:null}"/><path d="M157.29256,211.18387c0,0 1.09489,-1.14798 4.443,-1.14812c8.32149,-0.00033 23.47047,-0.00094 27.98076,-0.00112c2.49158,-0.0001 3.77476,0.8608 3.77476,0.8608c0,0 1.43497,1.80724 1.43507,4.26547c0.00019,4.61162 0.00082,20.51201 0.00115,28.69822c0.00012,2.99444 -0.57383,3.52179 -0.57383,3.52179c0,0 -1.25186,1.43494 -4.06163,1.43505c-7.87159,0.00032 -23.46515,0.00094 -28.26774,0.00113c-2.75444,0.00011 -5.01709,-1.43469 -5.01709,-1.43469c0,0 -0.86099,-1.04068 -0.86114,-4.66968c-0.00034,-8.35133 -0.00092,-22.81076 -0.00109,-27.2633c-0.0001,-2.57271 1.14778,-4.26558 1.14778,-4.26558z" data-paper-data="{&quot;index&quot;:null}"/><path d="M157.29439,256.75167c0,0 1.09489,-1.14798 4.443,-1.14812c8.32149,-0.00033 23.47047,-0.00094 27.98076,-0.00112c2.49158,-0.0001 3.77476,0.8608 3.77476,0.8608c0,0 1.43497,1.80724 1.43507,4.26547c0.00019,4.61162 0.00082,20.51201 0.00115,28.69822c0.00012,2.99444 -0.57383,3.52179 -0.57383,3.52179c0,0 -1.25186,1.43494 -4.06163,1.43505c-7.87159,0.00032 -23.46515,0.00094 -28.26774,0.00113c-2.75444,0.00011 -5.01709,-1.43469 -5.01709,-1.43469c0,0 -0.86099,-1.04068 -0.86114,-4.66968c-0.00034,-8.35133 -0.00092,-22.81076 -0.00109,-27.2633c-0.0001,-2.57271 1.14778,-4.26558 1.14778,-4.26558z" data-paper-data="{&quot;index&quot;:null}"/><path d="M203.79213,256.81988c0,0 1.09489,-1.14798 4.443,-1.14812c8.32149,-0.00033 23.47047,-0.00094 27.98076,-0.00112c2.49158,-0.0001 3.77476,0.8608 3.77476,0.8608c0,0 1.43497,1.80724 1.43507,4.26547c0.00019,4.61162 0.00082,20.51201 0.00115,28.69822c0.00012,2.99444 -0.57383,3.52179 -0.57383,3.52179c0,0 -1.25186,1.43494 -4.06163,1.43505c-7.87159,0.00032 -23.46516,0.00094 -28.26775,0.00113c-2.75444,0.00011 -5.01708,-1.43469 -5.01708,-1.43469c0,0 -0.861,-1.04068 -0.86115,-4.66968c-0.00034,-8.35133 -0.00092,-22.81076 -0.00109,-27.2633c-0.00011,-2.57271 1.14778,-4.26558 1.14778,-4.26558z" data-paper-data="{&quot;index&quot;:null}"/><path d="M251.21981,257.88801c0,0 1.09489,-1.14798 4.443,-1.14812c8.32149,-0.00033 23.47047,-0.00094 27.98076,-0.00112c2.49158,-0.0001 3.77476,0.8608 3.77476,0.8608c0,0 1.43497,1.80724 1.43507,4.26547c0.00019,4.61162 0.00082,20.51201 0.00115,28.69822c0.00012,2.99444 -0.57383,3.52179 -0.57383,3.52179c0,0 -1.25186,1.43494 -4.06163,1.43505c-7.87159,0.00032 -23.46515,0.00094 -28.26774,0.00113c-2.75444,0.00011 -5.01709,-1.43469 -5.01709,-1.43469c0,0 -0.86099,-1.04068 -0.86114,-4.66968c-0.00034,-8.35133 -0.00092,-22.81076 -0.00109,-27.2633c-0.0001,-2.57271 1.14778,-4.26558 1.14778,-4.26558z" data-paper-data="{&quot;index&quot;:null}"/><path d="M296.86294,161.75805c0,0 1.09489,-1.14798 4.443,-1.14812c8.32149,-0.00033 23.47047,-0.00094 27.98076,-0.00112c2.49158,-0.0001 3.77476,0.8608 3.77476,0.8608c0,0 1.43497,1.80724 1.43507,4.26547c0.00019,4.61162 0.00082,20.51201 0.00115,28.69822c0.00012,2.99444 -0.57383,3.52179 -0.57383,3.52179c0,0 -1.25186,1.43494 -4.06163,1.43505c-7.87159,0.00032 -23.46515,0.00094 -28.26774,0.00113c-2.75444,0.00011 -5.01709,-1.43469 -5.01709,-1.43469c0,0 -0.86099,-1.04068 -0.86114,-4.66968c-0.00034,-8.35133 -0.00092,-22.81076 -0.00109,-27.2633c-0.0001,-2.57271 1.14778,-4.26558 1.14778,-4.26558z" data-paper-data="{&quot;index&quot;:null}"/><path d="M343.86294,161.75805c0,0 1.09489,-1.14798 4.443,-1.14812c8.32149,-0.00033 23.47047,-0.00094 27.98076,-0.00112c2.49158,-0.0001 3.77476,0.8608 3.77476,0.8608c0,0 1.43497,1.80724 1.43507,4.26547c0.00019,4.61162 0.00082,20.51201 0.00115,28.69822c0.00012,2.99444 -0.57383,3.52179 -0.57383,3.52179c0,0 -1.25186,1.43494 -4.06163,1.43505c-7.87159,0.00032 -23.46515,0.00094 -28.26774,0.00113c-2.75444,0.00011 -5.01709,-1.43469 -5.01709,-1.43469c0,0 -0.86099,-1.04068 -0.86114,-4.66968c-0.00034,-8.35133 -0.00092,-22.81076 -0.00109,-27.2633c-0.0001,-2.57271 1.14778,-4.26558 1.14778,-4.26558z" data-paper-data="{&quot;index&quot;:null}"/><path d="M390.86294,161.75805c0,0 1.09489,-1.14798 4.443,-1.14812c8.32149,-0.00033 23.47047,-0.00094 27.98076,-0.00112c2.49158,-0.0001 3.77476,0.8608 3.77476,0.8608c0,0 1.43497,1.80724 1.43507,4.26547c0.00019,4.61162 0.00082,20.51201 0.00115,28.69822c0.00012,2.99444 -0.57383,3.52179 -0.57383,3.52179c0,0 -1.25186,1.43494 -4.06163,1.43505c-7.87159,0.00032 -23.46515,0.00094 -28.26774,0.00113c-2.75444,0.00011 -5.01709,-1.43469 -5.01709,-1.43469c0,0 -0.86099,-1.04068 -0.86114,-4.66968c-0.00034,-8.35133 -0.00092,-22.81076 -0.00109,-27.2633c-0.0001,-2.57271 1.14778,-4.26558 1.14778,-4.26558z" data-paper-data="{&quot;index&quot;:null}"/><path d="M390.86294,114.75805c0,0 1.09489,-1.14798 4.443,-1.14812c8.32149,-0.00033 23.47047,-0.00094 27.98076,-0.00112c2.49158,-0.0001 3.77476,0.8608 3.77476,0.8608c0,0 1.43497,1.80724 1.43507,4.26547c0.00019,4.61162 0.00082,20.51201 0.00115,28.69822c0.00012,2.99444 -0.57383,3.52179 -0.57383,3.52179c0,0 -1.25186,1.43494 -4.06163,1.43505c-7.87159,0.00032 -23.46515,0.00094 -28.26774,0.00113c-2.75444,0.00011 -5.01709,-1.43469 -5.01709,-1.43469c0,0 -0.86099,-1.04068 -0.86114,-4.66968c-0.00034,-8.35133 -0.00092,-22.81076 -0.00109,-27.2633c-0.0001,-2.57271 1.14778,-4.26558 1.14778,-4.26558z" data-paper-data="{&quot;index&quot;:null}"/><path d="M389.86294,68.75805c0,0 1.09489,-1.14798 4.443,-1.14812c8.32149,-0.00033 23.47047,-0.00094 27.98076,-0.00112c2.49158,-0.0001 3.77476,0.8608 3.77476,0.8608c0,0 1.43497,1.80724 1.43507,4.26547c0.00019,4.61162 0.00082,20.51201 0.00115,28.69822c0.00012,2.99444 -0.57383,3.52179 -0.57383,3.52179c0,0 -1.25186,1.43494 -4.06163,1.43505c-7.87159,0.00032 -23.46515,0.00094 -28.26774,0.00113c-2.75444,0.00011 -5.01709,-1.43469 -5.01709,-1.43469c0,0 -0.86099,-1.04068 -0.86114,-4.66968c-0.00034,-8.35133 -0.00092,-22.81076 -0.00109,-27.2633c-0.0001,-2.57271 1.14778,-4.26558 1.14778,-4.26558z" data-paper-data="{&quot;index&quot;:null}"/></g></g></svg>