<svg version="1.1" xmlns="http://www.w3.org/2000/svg" xmlns:xlink="http://www.w3.org/1999/xlink" width="213.10495" height="85.34454" viewBox="0,0,213.10495,85.34454"><g transform="translate(-133.44754,-137.32774)"><g data-paper-data="{&quot;isPaintingLayer&quot;:true}" fill-rule="nonzero" stroke="none" stroke-linecap="butt" stroke-linejoin="miter" stroke-miterlimit="10" stroke-dasharray="" stroke-dashoffset="0" style="mix-blend-mode: normal"><path d="M346.55246,178.028c0,8.93055 -3.57731,22.892 -15.99991,31.21405c-10.27075,6.88049 -27.68324,8.67379 -44.3786,11.54005c-13.41537,2.30316 -31.34561,1.855 -47.03935,1.855c-23.92018,0 -50.33167,0.48963 -68.11433,-4.54166c-25.96543,-7.34647 -37.57273,-26.8633 -37.57273,-40.06746c0,-13.02699 5.96168,-29.80737 31.33486,-37.17055c17.95845,-5.21145 50.82881,-3.11149 75.21762,-3.11149c24.52033,0 50.1351,-0.33045 68.14133,4.93201c25.20766,7.36711 38.41114,22.37275 38.41114,35.35003z" fill="#9a9a9a" stroke-width="0"/><text transform="translate(144.0475,195.23056) scale(1.26921,1.26921)" font-size="40" xml:space="preserve" fill="#ffffff" fill-rule="nonzero" stroke="none" stroke-width="1" stroke-linecap="butt" stroke-linejoin="miter" stroke-miterlimit="10" stroke-dasharray="" stroke-dashoffset="0" font-family="Sans Serif" font-weight="normal" text-anchor="start" style="mix-blend-mode: normal"><tspan x="0" dy="0">Level III</tspan></text></g></g></svg>