<svg version="1.1" xmlns="http://www.w3.org/2000/svg" xmlns:xlink="http://www.w3.org/1999/xlink" width="247.74022" height="247.78147" viewBox="0,0,247.74022,247.78147"><g transform="translate(-80.84537,-47.85291)"><g data-paper-data="{&quot;isPaintingLayer&quot;:true}" fill="#00a043" fill-rule="nonzero" stroke="#000000" stroke-width="5" stroke-linecap="butt" stroke-linejoin="miter" stroke-miterlimit="10" stroke-dasharray="" stroke-dashoffset="0" style="mix-blend-mode: normal"><path d="M84.57977,142.60901c0,0 -1.2344,-1.17741 -1.2344,-4.7777c0,-8.94827 0,-25.23828 0,-30.08828c0,-2.67925 0.9258,-4.05904 0.9258,-4.05904c0,0 1.94343,-1.54298 4.58681,-1.54298c4.95897,0 22.05698,0 30.85978,0c3.21998,0 3.78703,0.6172 3.78703,0.6172c0,0 1.54297,1.34621 1.54297,4.36762c0,8.46448 0,25.23256 0,30.39688c0,2.96191 -1.54297,5.39491 -1.54297,5.39491c0,0 -1.1191,0.9258 -5.02143,0.9258c-8.98036,0 -24.52888,0 -29.31678,0c-2.76649,0 -4.58681,-1.23441 -4.58681,-1.23441z"/><path d="M134.49915,141.68839c0,0 -1.2344,-1.17741 -1.2344,-4.7777c0,-8.94827 0,-25.23828 0,-30.08828c0,-2.67925 0.9258,-4.05904 0.9258,-4.05904c0,0 1.94343,-1.54298 4.58681,-1.54298c4.95897,0 22.05698,0 30.85978,0c3.21998,0 3.78703,0.6172 3.78703,0.6172c0,0 1.54297,1.34621 1.54297,4.36762c0,8.46448 0,25.23256 0,30.39688c0,2.96191 -1.54297,5.39491 -1.54297,5.39491c0,0 -1.1191,0.9258 -5.02143,0.9258c-8.98036,0 -24.52888,0 -29.31678,0c-2.76649,0 -4.58681,-1.23441 -4.58681,-1.23441z"/><path d="M184.41853,142.14183c0,0 -1.2344,-1.17741 -1.2344,-4.7777c0,-8.94827 0,-25.23828 0,-30.08828c0,-2.67925 0.9258,-4.05904 0.9258,-4.05904c0,0 1.94343,-1.54298 4.58681,-1.54298c4.95897,0 22.05698,0 30.85978,0c3.21998,0 3.78703,0.6172 3.78703,0.6172c0,0 1.54297,1.34621 1.54297,4.36762c0,8.46448 0,25.23256 0,30.39688c0,2.96191 -1.54297,5.39491 -1.54297,5.39491c0,0 -1.1191,0.9258 -5.02143,0.9258c-8.98036,0 -24.52888,0 -29.31678,0c-2.76649,0 -4.58681,-1.23441 -4.58681,-1.23441z"/><path d="M184.87196,192.06121c0,0 -1.2344,-1.17741 -1.2344,-4.7777c0,-8.94827 0,-25.23828 0,-30.08828c0,-2.67925 0.9258,-4.05904 0.9258,-4.05904c0,0 1.94343,-1.54298 4.58681,-1.54298c4.95897,0 22.05698,0 30.85978,0c3.21998,0 3.78703,0.6172 3.78703,0.6172c0,0 1.54297,1.34621 1.54297,4.36762c0,8.46448 0,25.23256 0,30.39688c0,2.96191 -1.54297,5.39491 -1.54297,5.39491c0,0 -1.1191,0.9258 -5.02143,0.9258c-8.98036,0 -24.52888,0 -29.31678,0c-2.76649,0 -4.58681,-1.23441 -4.58681,-1.23441z"/><path d="M185.3254,241.98059c0,0 -1.2344,-1.17741 -1.2344,-4.7777c0,-8.94827 0,-25.23828 0,-30.08828c0,-2.67925 0.9258,-4.05904 0.9258,-4.05904c0,0 1.94343,-1.54298 4.58681,-1.54298c4.95897,0 22.05698,0 30.85978,0c3.21998,0 3.78703,0.6172 3.78703,0.6172c0,0 1.54297,1.34621 1.54297,4.36762c0,8.46448 0,25.23256 0,30.39688c0,2.96191 -1.54297,5.39491 -1.54297,5.39491c0,0 -1.1191,0.9258 -5.02143,0.9258c-8.98036,0 -24.52888,0 -29.31678,0c-2.76649,0 -4.58681,-1.23441 -4.58681,-1.23441z"/><path d="M185.77884,291.89997c0,0 -1.2344,-1.17741 -1.2344,-4.7777c0,-8.94827 0,-25.23828 0,-30.08828c0,-2.67925 0.9258,-4.05904 0.9258,-4.05904c0,0 1.94343,-1.54298 4.58681,-1.54298c4.95897,0 22.05698,0 30.85978,0c3.21998,0 3.78703,0.6172 3.78703,0.6172c0,0 1.54297,1.34621 1.54297,4.36762c0,8.46448 0,25.23256 0,30.39688c0,2.96191 -1.54297,5.39491 -1.54297,5.39491c0,0 -1.1191,0.9258 -5.02143,0.9258c-8.98036,0 -24.52888,0 -29.31678,0c-2.76649,0 -4.58681,-1.23441 -4.58681,-1.23441z"/><path d="M234.79134,191.14059c0,0 -1.2344,-1.17741 -1.2344,-4.7777c0,-8.94827 0,-25.23828 0,-30.08828c0,-2.67925 0.9258,-4.05904 0.9258,-4.05904c0,0 1.94343,-1.54298 4.58681,-1.54298c4.95897,0 22.05698,0 30.85978,0c3.21998,0 3.78703,0.6172 3.78703,0.6172c0,0 1.54297,1.34621 1.54297,4.36762c0,8.46448 0,25.23256 0,30.39688c0,2.96191 -1.54297,5.39491 -1.54297,5.39491c0,0 -1.1191,0.9258 -5.02143,0.9258c-8.98036,0 -24.52888,0 -29.31678,0c-2.76649,0 -4.58681,-1.23441 -4.58681,-1.23441z"/><path d="M284.71073,190.21998c0,0 -1.2344,-1.17741 -1.2344,-4.7777c0,-8.94827 0,-25.23828 0,-30.08828c0,-2.67925 0.9258,-4.05904 0.9258,-4.05904c0,0 1.94343,-1.54298 4.58681,-1.54298c4.95897,0 22.05698,0 30.85978,0c3.21998,0 3.78703,0.6172 3.78703,0.6172c0,0 1.54297,1.34621 1.54297,4.36762c0,8.46448 0,25.23256 0,30.39688c0,2.96191 -1.54297,5.39491 -1.54297,5.39491c0,0 -1.1191,0.9258 -5.02143,0.9258c-8.98036,0 -24.52888,0 -29.31678,0c-2.76649,0 -4.58681,-1.23441 -4.58681,-1.23441z"/><path d="M285.16416,141.20747c0,0 -1.2344,-1.17741 -1.2344,-4.7777c0,-8.94827 0,-25.23828 0,-30.08828c0,-2.67925 0.9258,-4.05904 0.9258,-4.05904c0,0 1.94343,-1.54298 4.58681,-1.54298c4.95897,0 22.05698,0 30.85978,0c3.21998,0 3.78703,0.6172 3.78703,0.6172c0,0 1.54297,1.34621 1.54297,4.36762c0,8.46448 0,25.23256 0,30.39688c0,2.96191 -1.54297,5.39491 -1.54297,5.39491c0,0 -1.1191,0.9258 -5.02143,0.9258c-8.98036,0 -24.52888,0 -29.31678,0c-2.76649,0 -4.58681,-1.23441 -4.58681,-1.23441z"/><path d="M285.6176,90.82091c0,0 -1.2344,-1.17741 -1.2344,-4.7777c0,-8.94827 0,-25.23828 0,-30.08828c0,-2.67925 0.9258,-4.05904 0.9258,-4.05904c0,0 1.94343,-1.54298 4.58681,-1.54298c4.95897,0 22.05698,0 30.85978,0c3.21998,0 3.78703,0.6172 3.78703,0.6172c0,0 1.54297,1.34621 1.54297,4.36762c0,8.46448 0,25.23256 0,30.39688c0,2.96191 -1.54297,5.39491 -1.54297,5.39491c0,0 -1.1191,0.9258 -5.02143,0.9258c-8.98036,0 -24.52888,0 -29.31678,0c-2.76649,0 -4.58681,-1.23441 -4.58681,-1.23441z"/></g></g></svg>