<svg version="1.1" xmlns="http://www.w3.org/2000/svg" xmlns:xlink="http://www.w3.org/1999/xlink" width="199.52321" height="200.32713" viewBox="0,0,199.52321,200.32713"><g transform="translate(-166.89042,-71.15698)"><g data-paper-data="{&quot;isPaintingLayer&quot;:true}" fill="#9966ff" fill-rule="nonzero" stroke="#000000" stroke-width="5" stroke-linecap="butt" stroke-linejoin="miter" stroke-miterlimit="10" stroke-dasharray="" stroke-dashoffset="0" style="mix-blend-mode: normal"><path d="M171.78699,197.85489c0,0 -1.74889,-1.66815 -1.74889,-6.76904c0,-12.6779 0,-35.75757 0,-42.62905c0,-3.79596 1.31166,-5.75084 1.31166,-5.75084c0,0 2.75344,-2.18611 6.49858,-2.18611c7.02586,0 31.25032,0 43.72211,0c4.56206,0 5.36546,0.87444 5.36546,0.87444c0,0 2.18611,1.90732 2.18611,6.18806c0,11.99246 0,35.74946 0,43.06627c0,4.19644 -2.18611,7.64349 -2.18611,7.64349c0,0 -1.58554,1.31166 -7.11435,1.31166c-12.72337,0 -34.75251,0 -41.53599,0c-3.91957,0 -6.49858,-1.74889 -6.49858,-1.74889z"/><path d="M171.13931,265.95139c0,0 -1.74889,-1.66816 -1.74889,-6.76905c0,-12.6779 0,-35.75757 0,-42.62905c0,-3.79596 1.31167,-5.75084 1.31167,-5.75084c0,0 2.75344,-2.18609 6.49858,-2.18609c7.02586,0 31.25032,0 43.72211,0c4.56206,0 5.36548,0.87444 5.36548,0.87444c0,0 2.18609,1.90732 2.18609,6.18806c0,11.99246 0,35.74946 0,43.06627c0,4.19644 -2.18609,7.6435 -2.18609,7.6435c0,0 -1.58555,1.31166 -7.11436,1.31166c-12.72337,0 -34.75251,0 -41.53599,0c-3.91956,0 -6.49858,-1.74889 -6.49858,-1.74889z"/><path d="M173.13931,130.992c0,0 -1.74889,-1.66815 -1.74889,-6.76904c0,-12.6779 0,-35.75758 0,-42.62905c0,-3.79596 1.31167,-5.75084 1.31167,-5.75084c0,0 2.75344,-2.18609 6.49858,-2.18609c7.02586,0 31.25032,0 43.72211,0c4.56206,0 5.36546,0.87445 5.36546,0.87445c0,0 2.18609,1.90731 2.18609,6.18805c0,11.99246 0,35.74947 0,43.06628c0,4.19644 -2.18609,7.6435 -2.18609,7.6435c0,0 -1.58554,1.31167 -7.11435,1.31167c-12.72337,0 -34.75251,0 -41.536,0c-3.91956,0 -6.49858,-1.7489 -6.49858,-1.7489z"/><path d="M239.17991,267.23519c0,0 -1.74889,-1.66815 -1.74889,-6.76904c0,-12.6779 0,-35.75757 0,-42.62905c0,-3.79596 1.31167,-5.75084 1.31167,-5.75084c0,0 2.75344,-2.18609 6.49858,-2.18609c7.02586,0 31.25032,0 43.72211,0c4.56206,0 5.36546,0.87445 5.36546,0.87445c0,0 2.18609,1.90731 2.18609,6.18805c0,11.99246 0,35.74946 0,43.06627c0,4.19644 -2.18609,7.6435 -2.18609,7.6435c0,0 -1.58554,1.31167 -7.11435,1.31167c-12.72337,0 -34.75251,0 -41.536,0c-3.91956,0 -6.49858,-1.7489 -6.49858,-1.7489z"/><path d="M306.57861,267.23519c0,0 -1.74889,-1.66815 -1.74889,-6.76904c0,-12.6779 0,-35.75757 0,-42.62905c0,-3.79596 1.31167,-5.75084 1.31167,-5.75084c0,0 2.75344,-2.18609 6.49858,-2.18609c7.02586,0 31.25032,0 43.72211,0c4.56206,0 5.36546,0.87445 5.36546,0.87445c0,0 2.18609,1.90731 2.18609,6.18805c0,11.99246 0,35.74946 0,43.06627c0,4.19644 -2.18609,7.6435 -2.18609,7.6435c0,0 -1.58554,1.31167 -7.11435,1.31167c-12.72337,0 -34.75251,0 -41.536,0c-3.91956,0 -6.49858,-1.7489 -6.49858,-1.7489z"/><path d="M305.93672,199.91767c0,0 -1.74889,-1.66814 -1.74889,-6.76903c0,-12.6779 0,-35.75758 0,-42.62906c0,-3.79596 1.31167,-5.75084 1.31167,-5.75084c0,0 2.75344,-2.18608 6.49858,-2.18608c7.02586,0 31.25032,0 43.72209,0c4.56206,0 5.36548,0.87444 5.36548,0.87444c0,0 2.18609,1.90732 2.18609,6.18806c0,11.99246 0,35.74946 0,43.06627c0,4.19644 -2.18609,7.6435 -2.18609,7.6435c0,0 -1.58554,1.31167 -7.11435,1.31167c-12.72337,0 -34.75251,0 -41.536,0c-3.91956,0 -6.49858,-1.7489 -6.49858,-1.7489z"/><path d="M304.93672,133.31638c0,0 -1.74889,-1.66815 -1.74889,-6.76905c0,-12.6779 0,-35.75757 0,-42.62904c0,-3.79596 1.31167,-5.75084 1.31167,-5.75084c0,0 2.75344,-2.18609 6.49858,-2.18609c7.02586,0 31.25032,0 43.72209,0c4.56206,0 5.36548,0.87445 5.36548,0.87445c0,0 2.18609,1.90731 2.18609,6.18805c0,11.99246 0,35.74945 0,43.06628c0,4.19644 -2.18609,7.64349 -2.18609,7.64349c0,0 -1.58554,1.31167 -7.11435,1.31167c-12.72337,0 -34.75251,0 -41.536,0c-3.91956,0 -6.49858,-1.7489 -6.49858,-1.7489z"/></g></g></svg>