<svg version="1.1" xmlns="http://www.w3.org/2000/svg" xmlns:xlink="http://www.w3.org/1999/xlink" width="43" height="43" viewBox="0,0,43,43"><g transform="translate(-403,-287.5)"><g data-paper-data="{&quot;isPaintingLayer&quot;:true}" fill-rule="nonzero" stroke-linecap="butt" stroke-linejoin="miter" stroke-miterlimit="10" stroke-dasharray="" stroke-dashoffset="0" style="mix-blend-mode: normal"><path d="M405.5,309c0,-10.49341 8.50659,-19 19,-19c10.49341,0 19,8.50659 19,19c0,10.49341 -8.50659,19 -19,19c-10.49341,0 -19,-8.50659 -19,-19z" fill="#8c8c8c" stroke="#000000" stroke-width="5"/><path d="M420.29235,314.71803c-1.11803,0.55902 -1.67705,-0.55902 -1.67705,-0.55902l0.03415,-0.07513c-1.6685,-1.69833 -3.22259,-3.05209 -4.75235,-4.92979c-0.38283,-0.06538 -0.70024,-0.21284 -0.85707,-0.54813c-0.43311,-0.92599 0.60953,-1.95822 1.04316,-2.88397c1.25061,-2.66989 4.7036,-3.94393 6.86928,-5.69808l0.09699,-0.1078c0,0 0.88388,-0.88388 1.76777,0c0.88388,0.88388 0,1.76777 0,1.76777l-0.30301,0.2922c-1.82741,1.44723 -4.02197,2.46259 -5.69699,4.1078c-0.05595,0.05496 -0.21969,0.40443 -0.44735,0.74235c0.25863,-0.03629 0.50418,-0.0607 0.67486,-0.07309c1.58556,-0.11512 3.08679,-0.20314 4.68861,-0.20314c1.96762,0 4.29745,-0.20706 6.22303,0.22006c5.61415,1.24529 5.28462,7.42455 1.60422,10.56704c-3.33608,2.8485 -8.14855,3.49918 -12.40403,2.90034c0,0 -1.23744,-0.17678 -1.06066,-1.41421c0.17678,-1.23744 1.41421,-1.06066 1.41421,-1.06066c3.4911,0.50718 7.65903,0.05857 10.39597,-2.29966c1.92216,-1.65619 3.29051,-5.61532 -0.39578,-6.23296c-1.84655,-0.30939 -3.90076,-0.17994 -5.77697,-0.17994c-1.34991,0 -2.89632,0.24748 -4.34319,0.2843c0.9616,1.00636 1.93798,1.90786 3.02707,2.98182l0.43415,0.72487c0,0 0.55902,1.11803 -0.55902,1.67705z" fill="#ff0000" stroke="none" stroke-width="0.5"/></g></g></svg>