<svg version="1.1" xmlns="http://www.w3.org/2000/svg" xmlns:xlink="http://www.w3.org/1999/xlink" width="209.05827" height="205.62931" viewBox="0,0,209.05827,205.62931"><g transform="translate(-136.54679,-74.35088)"><g data-paper-data="{&quot;isPaintingLayer&quot;:true}" fill="#9966ff" fill-rule="nonzero" stroke="#000000" stroke-width="5" stroke-linecap="butt" stroke-linejoin="miter" stroke-miterlimit="10" stroke-dasharray="" stroke-dashoffset="0" style="mix-blend-mode: normal"><path d="M214.53807,136.22972c0,0 -1.79288,-1.71012 -1.79288,-6.93934c0,-12.99685 0,-36.65717 0,-43.70152c0,-3.89146 1.34466,-5.89552 1.34466,-5.89552c0,0 2.82271,-2.2411 6.66208,-2.2411c7.20262,0 32.03652,0 44.82207,0c4.67683,0 5.50045,0.89644 5.50045,0.89644c0,0 2.2411,1.9553 2.2411,6.34374c0,12.29417 0,36.64884 0,44.14974c0,4.302 -2.2411,7.83578 -2.2411,7.83578c0,0 -1.62543,1.34466 -7.29334,1.34466c-13.04346,0 -35.62682,0 -42.58097,0c-4.01818,0 -6.66208,-1.79288 -6.66208,-1.79288z"/><path d="M284.32759,135.62836c0,0 -1.79288,-1.71012 -1.79288,-6.93934c0,-12.99685 0,-36.65717 0,-43.70152c0,-3.89146 1.34466,-5.89552 1.34466,-5.89552c0,0 2.82271,-2.2411 6.66207,-2.2411c7.20262,0 32.03652,0 44.82207,0c4.67683,0 5.50045,0.89644 5.50045,0.89644c0,0 2.2411,1.9553 2.2411,6.34374c0,12.29417 0,36.64884 0,44.14974c0,4.30201 -2.2411,7.83579 -2.2411,7.83579c0,0 -1.62543,1.34466 -7.29334,1.34466c-13.04347,0 -35.62681,0 -42.58096,0c-4.01818,0 -6.66208,-1.79289 -6.66208,-1.79289z"/><path d="M144.68781,136.29732c0,0 -1.79288,-1.71012 -1.79288,-6.93934c0,-12.99685 0,-36.65717 0,-43.70152c0,-3.89146 1.34466,-5.89552 1.34466,-5.89552c0,0 2.82271,-2.2411 6.66207,-2.2411c7.20262,0 32.03652,0 44.82207,0c4.67683,0 5.50045,0.89644 5.50045,0.89644c0,0 2.2411,1.9553 2.2411,6.34374c0,12.29417 0,36.64884 0,44.14974c0,4.30201 -2.2411,7.83579 -2.2411,7.83579c0,0 -1.62543,1.34466 -7.29334,1.34466c-13.04347,0 -35.62681,0 -42.58096,0c-4.01818,0 -6.66208,-1.79289 -6.66208,-1.79289z"/><path d="M213.53807,206.02611c0,0 -1.79288,-1.71012 -1.79288,-6.93934c0,-12.99685 0,-36.65717 0,-43.70152c0,-3.89146 1.34466,-5.89552 1.34466,-5.89552c0,0 2.82271,-2.2411 6.66207,-2.2411c7.20262,0 32.03652,0 44.82207,0c4.67683,0 5.50045,0.89644 5.50045,0.89644c0,0 2.2411,1.9553 2.2411,6.34374c0,12.29417 0,36.64884 0,44.14974c0,4.30201 -2.2411,7.83579 -2.2411,7.83579c0,0 -1.62543,1.34466 -7.29334,1.34466c-13.04347,0 -35.62681,0 -42.58096,0c-4.01818,0 -6.66208,-1.79289 -6.66208,-1.79289z"/><path d="M212.60565,275.68731c0,0 -1.79288,-1.71012 -1.79288,-6.93934c0,-12.99685 0,-36.65717 0,-43.70152c0,-3.89146 1.34466,-5.89552 1.34466,-5.89552c0,0 2.82271,-2.2411 6.66207,-2.2411c7.20262,0 32.03652,0 44.82207,0c4.67683,0 5.50045,0.89644 5.50045,0.89644c0,0 2.2411,1.9553 2.2411,6.34374c0,12.29417 0,36.64884 0,44.14974c0,4.30201 -2.2411,7.83579 -2.2411,7.83579c0,0 -1.62543,1.34466 -7.29334,1.34466c-13.04347,0 -35.62681,0 -42.58096,0c-4.01818,0 -6.66208,-1.79289 -6.66208,-1.79289z"/></g></g></svg>