<svg version="1.1" xmlns="http://www.w3.org/2000/svg" xmlns:xlink="http://www.w3.org/1999/xlink" width="123.12312" height="49.30849" viewBox="0,0,123.12312,49.30849"><g transform="translate(-178.43844,-155.34575)"><g data-paper-data="{&quot;isPaintingLayer&quot;:true}" fill-rule="nonzero" stroke="none" stroke-linecap="butt" stroke-linejoin="miter" stroke-miterlimit="10" stroke-dasharray="" stroke-dashoffset="0" style="mix-blend-mode: normal"><path d="M301.56156,178.86065c0,5.1597 -2.06682,13.22604 -9.24408,18.03417c-5.93401,3.97526 -15.99422,5.01135 -25.6401,6.66736c-7.75084,1.33067 -18.11018,1.07174 -27.17737,1.07174c-13.82008,0 -29.07953,0.28289 -39.35361,-2.62398c-15.00174,-4.24448 -21.70795,-15.52049 -21.70795,-23.1493c0,-7.52645 3.44441,-17.22145 18.10397,-21.47559c10.37564,-3.01096 29.36676,-1.79769 43.45759,-1.79769c14.16682,0 28.96596,-0.19092 39.36921,2.84951c14.56393,4.25641 22.19235,12.92604 22.19235,20.42377z" fill="#545454" stroke-width="0"/><text transform="translate(197.11952,187.51875) scale(0.65168,0.65168)" font-size="40" xml:space="preserve" fill="#ffffff" fill-rule="nonzero" stroke="none" stroke-width="1" stroke-linecap="butt" stroke-linejoin="miter" stroke-miterlimit="10" stroke-dasharray="" stroke-dashoffset="0" font-family="Sans Serif" font-weight="normal" text-anchor="start" style="mix-blend-mode: normal"><tspan x="0" dy="0">Level 1</tspan></text></g></g></svg>