<svg version="1.1" xmlns="http://www.w3.org/2000/svg" xmlns:xlink="http://www.w3.org/1999/xlink" width="58.24157" height="35.16667" viewBox="0,0,58.24157,35.16667"><g transform="translate(-210.87921,-162.41666)"><g data-paper-data="{&quot;isPaintingLayer&quot;:true}" fill-rule="nonzero" stroke-linecap="butt" stroke-linejoin="miter" stroke-miterlimit="10" stroke-dasharray="" stroke-dashoffset="0" style="mix-blend-mode: normal"><g><path d="M211.62922,196.83334v-33.66667h56.74157v33.66667z" fill="#9e9e9e" stroke="#000000" stroke-width="1.5"/><path d="M228.65917,180.10625c0,-6.74742 5.46987,-12.21729 12.2173,-12.21729c6.74742,0 12.21729,5.46987 12.21729,12.21729c0,6.74742 -5.46986,12.21729 -12.21729,12.21729c-6.74742,0 -12.2173,-5.46987 -12.2173,-12.21729z" fill="#ff0000" stroke="none" stroke-width="0"/><path d="M226.90625,178.61892c0,-6.04334 4.8991,-10.94244 10.94244,-10.94244c6.04334,0 10.94245,4.8991 10.94245,10.94244c0,6.04334 -4.8991,10.94244 -10.94245,10.94244c-6.04334,0 -10.94244,-4.8991 -10.94244,-10.94244z" fill="#9e9e9e" stroke="none" stroke-width="0"/></g><path d="M232.0304,169.50627l10.61623,-4.53837l2.40368,0.96622c-1.0201,0.88594 -1.6128,1.94356 -1.6128,3.07943c0,1.40184 0.90275,2.68449 2.39757,3.67234l-2.85669,1.22122z" fill="#ff0000" stroke="none" stroke-width="0"/></g></g></svg>