<svg xmlns="http://www.w3.org/2000/svg" xmlns:xlink="http://www.w3.org/1999/xlink" version="1.1" width="19.522858964662987" height="19.014258729677636" viewBox="0.1693702403400147 0.6461702052447998 19.522858964662987 19.014258729677636">
  <!-- Exported by Scratch - http://scratch.mit.edu/ -->
  <g id="ID0.6359094907529652">
    <path id="ID0.7973489873111248" fill="#F0A325" stroke="none" stroke-linecap="round" d="M 9.7613 6.2544 C 11.9845 6.2366 14.5103 5.3186 16.4318 6.4358 C 18.1287 7.4232 19.1272 9.6329 19.1272 11.679 C 19.1272 13.7251 18.0965 15.5796 16.4318 16.9222 C 14.7671 18.2648 12.4676 19.0954 9.9308 19.0954 C 7.3939 19.0954 5.0944 18.2648 3.4297 16.9222 C 1.7651 15.5796 0.7344 13.7251 0.7344 11.679 C 0.7344 9.6329 1.749 7.4503 3.4297 6.4358 C 5.236 5.3466 7.6524 6.2366 9.7613 6.2544 Z " stroke-width="0.8475925922393799"/>
    <path id="ID0.06376127805560827" fill="#CC8B20" stroke="none" stroke-linecap="round" d="M 5.4382 5.8849 L 10.1125 6.0544 L 14.3803 5.9272 L 10.248 7.8767 L 5.4382 5.8849 Z " stroke-width="1.130059587221582"/>
    <path id="ID0.6664185924455523" fill="none" stroke="#CC8B20" stroke-width="0.8475925922393799" stroke-linecap="round" d="M 9.5917 6.4239 C 9.5917 6.4239 9.5197 4.3015 9.5917 3.2454 C 9.6282 2.7148 9.7587 2.2385 9.9308 1.7621 C 10.0172 1.5273 10.2698 1.2112 10.2698 1.2112 "/>
    <path id="ID0.75195621419698" fill="#00CC44" stroke="none" stroke-linecap="round" d="M 9.8619 5.8288 L 10.0466 4.9816 L 11.2468 3.0855 L 13.4165 2.1577 L 17.6174 3.1662 L 12.9549 5.143 L 10.739 5.385 L 10.3235 6.3533 L 9.8619 5.8288 Z " stroke-width="0.8670132531608882"/>
  </g>
</svg>