<svg xmlns="http://www.w3.org/2000/svg" xmlns:xlink="http://www.w3.org/1999/xlink" version="1.1" width="38.29125216232682" height="38.47247698532487" viewBox="0.00832556373405191 -0.2333000134773281 38.29125216232682 38.47247698532487">
  <!-- Exported by Scratch - http://scratch.mit.edu/ -->
  <path id="ID0.7445991644635797" fill="#FFEF02" stroke="none" d="M 0.5084 19.146 C 0.494 14.0019 2.5698 9.3343 5.9361 5.9498 C 9.3016 2.5645 13.9574 0.4624 19.1015 0.4479 C 24.2456 0.4335 28.9132 2.5093 32.2977 5.8756 C 35.6829 9.2411 37.7851 13.8969 37.7995 19.041 C 37.814 24.1851 35.7381 28.8527 32.3719 32.2372 C 29.0064 35.6225 24.3505 37.7246 19.2065 37.7391 C 14.0624 37.7535 9.3948 35.6776 6.0102 32.3114 C 2.625 28.9459 0.5229 24.2901 0.5084 19.146 Z " stroke-width="0.6970328276960168"/>
  <path id="ID0.8427225551567972" fill="#000000" stroke="none" stroke-linecap="round" d="M 19.4902 24.9437 L 11.2707 0.2667 L 27.2708 0.2717 L 19.4902 24.9437 Z " stroke-width="1.0000000260963493"/>
</svg>