<svg version="1.1" xmlns="http://www.w3.org/2000/svg" xmlns:xlink="http://www.w3.org/1999/xlink" width="19.28571" height="18.28571"><g transform="translate(-230.35714,-170.64286)"><g data-paper-data="{&quot;isPaintingLayer&quot;:true}" fill="#b33232" fill-rule="nonzero" stroke="none" stroke-width="0" stroke-linecap="butt" stroke-linejoin="miter" stroke-miterlimit="10" stroke-dasharray="" stroke-dashoffset="0" font-family="none" font-weight="none" font-size="none" text-anchor="none" style="mix-blend-mode: normal"><path d="M240.78571,186.07143c0,-1.49906 1.21523,-2.71429 2.71429,-2.71429c1.49906,0 2.71428,1.21523 2.71428,2.71429c0,1.49906 -1.21522,2.71428 -2.71428,2.71428c-1.49906,0 -2.71429,-1.21522 -2.71429,-2.71428z" data-paper-data="{&quot;origPos&quot;:null}"></path><path d="M244.21429,180.07143c0,-1.49906 1.21523,-2.71429 2.71429,-2.71429c1.49906,0 2.71428,1.21523 2.71428,2.71429c0,1.49906 -1.21522,2.71428 -2.71428,2.71428c-1.49906,0 -2.71429,-1.21522 -2.71429,-2.71428z" data-paper-data="{&quot;origPos&quot;:null}"></path><path d="M240.92857,173.5c0,-1.49906 1.21523,-2.71429 2.71429,-2.71429c1.49906,0 2.71428,1.21523 2.71428,2.71429c0,1.49906 -1.21522,2.71428 -2.71428,2.71428c-1.49906,0 -2.71429,-1.21522 -2.71429,-2.71428z" data-paper-data="{&quot;origPos&quot;:null}"></path><path d="M234.07143,173.35714c0,-1.49906 1.21522,-2.71429 2.71429,-2.71429c1.49906,0 2.71428,1.21523 2.71428,2.71429c0,1.49906 -1.21522,2.71428 -2.71428,2.71428c-1.49906,0 -2.71429,-1.21522 -2.71429,-2.71428z" data-paper-data="{&quot;origPos&quot;:null}"></path><path d="M234.07143,186.21428c0,-1.49906 1.21522,-2.71429 2.71429,-2.71429c1.49906,0 2.71428,1.21523 2.71428,2.71429c0,1.49906 -1.21522,2.71428 -2.71428,2.71428c-1.49906,0 -2.71429,-1.21522 -2.71429,-2.71428z" data-paper-data="{&quot;origPos&quot;:null}"></path><path d="M230.35714,180.07143c0,-1.49906 1.21522,-2.71429 2.71429,-2.71429c1.49906,0 2.71428,1.21523 2.71428,2.71429c0,1.49906 -1.21523,2.71428 -2.71428,2.71428c-1.49906,0 -2.71429,-1.21522 -2.71429,-2.71428z" data-paper-data="{&quot;origPos&quot;:null}"></path></g></g></svg>