<svg version="1.1" xmlns="http://www.w3.org/2000/svg" xmlns:xlink="http://www.w3.org/1999/xlink" width="85.539" height="85.89642"><g transform="translate(-197.23,-136.87358)"><g data-paper-data="{&quot;isPaintingLayer&quot;:true}" fill="#b33232" fill-rule="nonzero" stroke="none" stroke-width="1" stroke-linecap="butt" stroke-linejoin="miter" stroke-miterlimit="10" stroke-dasharray="" stroke-dashoffset="0" font-family="none" font-weight="none" font-size="none" text-anchor="none" style="mix-blend-mode: normal"><path d="M265.369,155.575l5.332,-5.332c7.327,7.558 11.894,17.798 12.068,29.09h-7.543c-0.173,-9.213 -3.894,-17.568 -9.857,-23.758z" data-paper-data="{&quot;origPos&quot;:null}"></path><path d="M275.226,180.669h7.543c-0.174,11.292 -4.741,21.532 -12.068,29.089l-5.332,-5.332c5.963,-6.191 9.684,-14.546 9.857,-23.757z"></path><path d="M239.333,215.227v7.543c-11.292,-0.175 -21.533,-4.741 -29.09,-12.068l5.332,-5.332c6.19,5.962 14.545,9.683 23.758,9.857z"></path><path d="M214.631,204.426l-5.332,5.332c-7.328,-7.558 -11.895,-17.798 -12.069,-29.09h7.544c0.173,9.212 3.895,17.567 9.857,23.758z"></path><path d="M264.425,205.369l5.332,5.332c-7.557,7.327 -17.797,11.894 -29.089,12.068v-7.543c9.212,-0.173 17.567,-3.894 23.757,-9.857z"></path><path d="M215.575,154.27358l-5.332,-5.332c7.558,-7.327 17.798,-11.894 29.09,-12.068v7.544c-9.213,0.173 -17.568,3.894 -23.758,9.856z" data-paper-data="{&quot;origPos&quot;:null}"></path><path d="M240.668,144.774v-7.544c11.293,0.175 21.533,4.742 29.09,12.069l-5.332,5.332c-6.191,-5.962 -14.546,-9.684 -23.758,-9.857z"></path></g></g></svg>